<?xml version="1.0" encoding="UTF-8" standalone="no"?><svg xmlns="http://www.w3.org/2000/svg" xmlns:xlink="http://www.w3.org/1999/xlink" contentScriptType="application/ecmascript" contentStyleType="text/css" height="1040px" preserveAspectRatio="none" style="width:7128px;height:1040px;" version="1.1" viewBox="0 0 7128 1040" width="7128.3333px" zoomAndPan="magnify"><defs/><g><text fill="#000000" font-family="Noto Sans CJK SC" font-size="30" lengthAdjust="spacingAndGlyphs" textLength="725" x="3208.3333" y="34.7998">life_tools 公共接口关系图（核心 Service / Interface）</text><!--class ToolSyncProvider--><rect fill="#F3E5F5" height="159.6394" style="stroke: #6A1B9A; stroke-width: 2.5;" width="390" x="3495" y="356.7731"/><ellipse cx="3601.25" cy="383.4397" fill="#B4A7E5" rx="18.3333" ry="18.3333" style="stroke: #6A1B9A; stroke-width: 1.6666666666666667;"/><path d="M3594.4531,376.3824 L3594.4531,372.7887 L3606.7708,372.7887 L3606.7708,376.3824 L3602.6563,376.3824 L3602.6563,389.846 L3606.7708,389.846 L3606.7708,393.4397 L3594.4531,393.4397 L3594.4531,389.846 L3598.5677,389.846 L3598.5677,376.3824 L3594.4531,376.3824 Z "/><text fill="#000000" font-family="Noto Sans CJK SC" font-size="20" font-style="italic" lengthAdjust="spacingAndGlyphs" textLength="163.3333" x="3635.4167" y="392.1598">ToolSyncProvider</text><line style="stroke: #6A1B9A; stroke-width: 2.5;" x1="3496.6667" x2="3883.3333" y1="410.1064" y2="410.1064"/><text fill="#000000" font-family="Noto Sans CJK SC" font-size="18.3333" lengthAdjust="spacingAndGlyphs" textLength="121.6667" x="3505" y="438.0396">+toolId: String</text><line style="stroke: #6A1B9A; stroke-width: 2.5;" x1="3496.6667" x2="3883.3333" y1="449.9862" y2="449.9862"/><text fill="#000000" font-family="Noto Sans CJK SC" font-size="18.3333" lengthAdjust="spacingAndGlyphs" textLength="240" x="3505" y="477.9194">+exportData(): Future&lt;Map&gt;</text><text fill="#000000" font-family="Noto Sans CJK SC" font-size="18.3333" lengthAdjust="spacingAndGlyphs" textLength="370" x="3505" y="504.4658">+importData(snapshot: Map): Future&lt;void&gt;</text><!--class AppNotificationService--><rect fill="#ECEFF1" height="186.1859" style="stroke: #455A64; stroke-width: 2.5;" width="545" x="5869.1667" y="343.4397"/><ellipse cx="6027.9167" cy="370.1064" fill="#B4A7E5" rx="18.3333" ry="18.3333" style="stroke: #455A64; stroke-width: 1.6666666666666667;"/><path d="M6021.1198,363.0491 L6021.1198,359.4554 L6033.4375,359.4554 L6033.4375,363.0491 L6029.3229,363.0491 L6029.3229,376.5126 L6033.4375,376.5126 L6033.4375,380.1064 L6021.1198,380.1064 L6021.1198,376.5126 L6025.2344,376.5126 L6025.2344,363.0491 L6021.1198,363.0491 Z "/><text fill="#000000" font-family="Noto Sans CJK SC" font-size="20" font-style="italic" lengthAdjust="spacingAndGlyphs" textLength="213.3333" x="6062.0833" y="378.8265">AppNotificationService</text><line style="stroke: #455A64; stroke-width: 2.5;" x1="5870.8333" x2="6412.5" y1="396.7731" y2="396.7731"/><line style="stroke: #455A64; stroke-width: 2.5;" x1="5870.8333" x2="6412.5" y1="410.1064" y2="410.1064"/><text fill="#000000" font-family="Noto Sans CJK SC" font-size="18.3333" lengthAdjust="spacingAndGlyphs" textLength="175" x="5879.1667" y="438.0396">+init(): Future&lt;void&gt;</text><text fill="#000000" font-family="Noto Sans CJK SC" font-size="18.3333" lengthAdjust="spacingAndGlyphs" textLength="351.6667" x="5879.1667" y="464.586">+showMessage(title, body): Future&lt;void&gt;</text><text fill="#000000" font-family="Noto Sans CJK SC" font-size="18.3333" lengthAdjust="spacingAndGlyphs" textLength="525" x="5879.1667" y="491.1325">+scheduleMessage(id, title, body, scheduledAt): Future&lt;void&gt;</text><text fill="#000000" font-family="Noto Sans CJK SC" font-size="18.3333" lengthAdjust="spacingAndGlyphs" textLength="220" x="5879.1667" y="517.679">+cancel(id): Future&lt;void&gt;</text><!--class SecretStore--><rect fill="#E8F5E9" height="159.6394" style="stroke: #2E7D32; stroke-width: 2.5;" width="295" x="4229.1667" y="656.7731"/><ellipse cx="4312.9167" cy="683.4397" fill="#B4A7E5" rx="18.3333" ry="18.3333" style="stroke: #2E7D32; stroke-width: 1.6666666666666667;"/><path d="M4306.1198,676.3824 L4306.1198,672.7887 L4318.4375,672.7887 L4318.4375,676.3824 L4314.3229,676.3824 L4314.3229,689.846 L4318.4375,689.846 L4318.4375,693.4397 L4306.1198,693.4397 L4306.1198,689.846 L4310.2344,689.846 L4310.2344,676.3824 L4306.1198,676.3824 Z "/><text fill="#000000" font-family="Noto Sans CJK SC" font-size="20" font-style="italic" lengthAdjust="spacingAndGlyphs" textLength="113.3333" x="4347.0833" y="692.1598">SecretStore</text><line style="stroke: #2E7D32; stroke-width: 2.5;" x1="4230.8333" x2="4522.5" y1="710.1064" y2="710.1064"/><line style="stroke: #2E7D32; stroke-width: 2.5;" x1="4230.8333" x2="4522.5" y1="723.4397" y2="723.4397"/><text fill="#000000" font-family="Noto Sans CJK SC" font-size="18.3333" lengthAdjust="spacingAndGlyphs" textLength="275" x="4239.1667" y="751.3729">+write(key, value): Future&lt;void&gt;</text><text fill="#000000" font-family="Noto Sans CJK SC" font-size="18.3333" lengthAdjust="spacingAndGlyphs" textLength="236.6667" x="4239.1667" y="777.9194">+read(key): Future&lt;String?&gt;</text><text fill="#000000" font-family="Noto Sans CJK SC" font-size="18.3333" lengthAdjust="spacingAndGlyphs" textLength="230" x="4239.1667" y="804.4658">+delete(key): Future&lt;void&gt;</text><!--class AiConfigService--><rect fill="#F3E5F5" height="186.1859" style="stroke: #6A1B9A; stroke-width: 2.5;" width="260" x="2601.6667" y="343.4397"/><ellipse cx="2654.4167" cy="370.1064" fill="#ADD1B2" rx="18.3333" ry="18.3333" style="stroke: #6A1B9A; stroke-width: 1.6666666666666667;"/><path d="M2659.3646,379.5074 Q2658.401,380.0022 2657.3333,380.2366 Q2656.2656,380.497 2655.0938,380.497 Q2650.9271,380.497 2648.7135,377.7626 Q2646.526,375.0022 2646.526,369.7939 Q2646.526,364.5856 2648.7135,361.8251 Q2650.9271,359.0647 2655.0938,359.0647 Q2656.2656,359.0647 2657.3333,359.3251 Q2658.4271,359.5856 2659.3646,360.0804 L2659.3646,364.6116 Q2658.3229,363.6481 2657.3333,363.2054 Q2656.3438,362.7366 2655.3021,362.7366 Q2653.0625,362.7366 2651.9167,364.5335 Q2650.7708,366.3043 2650.7708,369.7939 Q2650.7708,373.2835 2651.9167,375.0804 Q2653.0625,376.8512 2655.3021,376.8512 Q2656.3438,376.8512 2657.3333,376.4085 Q2658.3229,375.9397 2659.3646,374.9762 L2659.3646,379.5074 Z "/><text fill="#000000" font-family="Noto Sans CJK SC" font-size="20" lengthAdjust="spacingAndGlyphs" textLength="145" x="2683.9167" y="378.8265">AiConfigService</text><line style="stroke: #6A1B9A; stroke-width: 2.5;" x1="2603.3333" x2="2860" y1="396.7731" y2="396.7731"/><text fill="#000000" font-family="Noto Sans CJK SC" font-size="18.3333" lengthAdjust="spacingAndGlyphs" textLength="155" x="2611.6667" y="424.7062">+config: AiConfig?</text><line style="stroke: #6A1B9A; stroke-width: 2.5;" x1="2603.3333" x2="2860" y1="436.6529" y2="436.6529"/><text fill="#000000" font-family="Noto Sans CJK SC" font-size="18.3333" lengthAdjust="spacingAndGlyphs" textLength="175" x="2611.6667" y="464.586">+init(): Future&lt;void&gt;</text><text fill="#000000" font-family="Noto Sans CJK SC" font-size="18.3333" lengthAdjust="spacingAndGlyphs" textLength="240" x="2611.6667" y="491.1325">+save(config): Future&lt;void&gt;</text><text fill="#000000" font-family="Noto Sans CJK SC" font-size="18.3333" lengthAdjust="spacingAndGlyphs" textLength="188.3333" x="2611.6667" y="517.679">+clear(): Future&lt;void&gt;</text><!--class OpenAiClient--><rect fill="#FFF3E0" height="106.5465" style="stroke: #EF6C00; stroke-width: 2.5;" width="515" x="2920.8333" y="383.4397"/><ellipse cx="3110.4167" cy="410.1064" fill="#ADD1B2" rx="18.3333" ry="18.3333" style="stroke: #EF6C00; stroke-width: 1.6666666666666667;"/><path d="M3115.3646,419.5074 Q3114.401,420.0022 3113.3333,420.2366 Q3112.2656,420.497 3111.0938,420.497 Q3106.9271,420.497 3104.7135,417.7626 Q3102.526,415.0022 3102.526,409.7939 Q3102.526,404.5856 3104.7135,401.8251 Q3106.9271,399.0647 3111.0938,399.0647 Q3112.2656,399.0647 3113.3333,399.3251 Q3114.4271,399.5856 3115.3646,400.0804 L3115.3646,404.6116 Q3114.3229,403.6481 3113.3333,403.2054 Q3112.3438,402.7366 3111.3021,402.7366 Q3109.0625,402.7366 3107.9167,404.5335 Q3106.7708,406.3043 3106.7708,409.7939 Q3106.7708,413.2835 3107.9167,415.0804 Q3109.0625,416.8512 3111.3021,416.8512 Q3112.3438,416.8512 3113.3333,416.4085 Q3114.3229,415.9397 3115.3646,414.9762 L3115.3646,419.5074 Z "/><text fill="#000000" font-family="Noto Sans CJK SC" font-size="20" lengthAdjust="spacingAndGlyphs" textLength="121.6667" x="3144.5833" y="418.8265">OpenAiClient</text><line style="stroke: #EF6C00; stroke-width: 2.5;" x1="2922.5" x2="3434.1667" y1="436.7731" y2="436.7731"/><line style="stroke: #EF6C00; stroke-width: 2.5;" x1="2922.5" x2="3434.1667" y1="450.1064" y2="450.1064"/><text fill="#000000" font-family="Noto Sans CJK SC" font-size="18.3333" lengthAdjust="spacingAndGlyphs" textLength="495" x="2930.8333" y="478.0396">+chatCompletions(config, request): Future&lt;AiChatResult&gt;</text><!--class AiService--><rect fill="#F3E5F5" height="133.0929" style="stroke: #6A1B9A; stroke-width: 2.5;" width="381.6667" x="2670.8333" y="70.1064"/><ellipse cx="2812.0833" cy="96.7731" fill="#ADD1B2" rx="18.3333" ry="18.3333" style="stroke: #6A1B9A; stroke-width: 1.6666666666666667;"/><path d="M2817.0313,106.1741 Q2816.0677,106.6689 2815,106.9033 Q2813.9323,107.1637 2812.7604,107.1637 Q2808.5938,107.1637 2806.3802,104.4293 Q2804.1927,101.6689 2804.1927,96.4606 Q2804.1927,91.2522 2806.3802,88.4918 Q2808.5938,85.7314 2812.7604,85.7314 Q2813.9323,85.7314 2815,85.9918 Q2816.0938,86.2522 2817.0313,86.747 L2817.0313,91.2783 Q2815.9896,90.3147 2815,89.872 Q2814.0104,89.4033 2812.9688,89.4033 Q2810.7292,89.4033 2809.5833,91.2001 Q2808.4375,92.971 2808.4375,96.4606 Q2808.4375,99.9501 2809.5833,101.747 Q2810.7292,103.5179 2812.9688,103.5179 Q2814.0104,103.5179 2815,103.0751 Q2815.9896,102.6064 2817.0313,101.6429 L2817.0313,106.1741 Z "/><text fill="#000000" font-family="Noto Sans CJK SC" font-size="20" lengthAdjust="spacingAndGlyphs" textLength="85" x="2846.25" y="105.4931">AiService</text><line style="stroke: #6A1B9A; stroke-width: 2.5;" x1="2672.5" x2="3050.8333" y1="123.4397" y2="123.4397"/><line style="stroke: #6A1B9A; stroke-width: 2.5;" x1="2672.5" x2="3050.8333" y1="136.7731" y2="136.7731"/><text fill="#000000" font-family="Noto Sans CJK SC" font-size="18.3333" lengthAdjust="spacingAndGlyphs" textLength="361.6667" x="2680.8333" y="164.7062">+chat(messages, ...): Future&lt;AiChatResult&gt;</text><text fill="#000000" font-family="Noto Sans CJK SC" font-size="18.3333" lengthAdjust="spacingAndGlyphs" textLength="323.3333" x="2680.8333" y="191.2527">+chatText(prompt, ...): Future&lt;String&gt;</text><!--class ObjStoreConfigService--><rect fill="#F3E5F5" height="239.2788" style="stroke: #6A1B9A; stroke-width: 2.5;" width="465" x="3944.1667" y="316.7731"/><ellipse cx="4063.75" cy="343.4397" fill="#ADD1B2" rx="18.3333" ry="18.3333" style="stroke: #6A1B9A; stroke-width: 1.6666666666666667;"/><path d="M4068.6979,352.8408 Q4067.7344,353.3356 4066.6667,353.5699 Q4065.599,353.8304 4064.4271,353.8304 Q4060.2604,353.8304 4058.0469,351.096 Q4055.8594,348.3356 4055.8594,343.1272 Q4055.8594,337.9189 4058.0469,335.1585 Q4060.2604,332.3981 4064.4271,332.3981 Q4065.599,332.3981 4066.6667,332.6585 Q4067.7604,332.9189 4068.6979,333.4137 L4068.6979,337.9449 Q4067.6563,336.9814 4066.6667,336.5387 Q4065.6771,336.0699 4064.6354,336.0699 Q4062.3958,336.0699 4061.25,337.8668 Q4060.1042,339.6376 4060.1042,343.1272 Q4060.1042,346.6168 4061.25,348.4137 Q4062.3958,350.1845 4064.6354,350.1845 Q4065.6771,350.1845 4066.6667,349.7418 Q4067.6563,349.2731 4068.6979,348.3095 L4068.6979,352.8408 Z "/><text fill="#000000" font-family="Noto Sans CJK SC" font-size="20" lengthAdjust="spacingAndGlyphs" textLength="211.6667" x="4097.9167" y="352.1598">ObjStoreConfigService</text><line style="stroke: #6A1B9A; stroke-width: 2.5;" x1="3945.8333" x2="4407.5" y1="370.1064" y2="370.1064"/><text fill="#000000" font-family="Noto Sans CJK SC" font-size="18.3333" lengthAdjust="spacingAndGlyphs" textLength="215" x="3954.1667" y="398.0396">+config: ObjStoreConfig?</text><text fill="#000000" font-family="Noto Sans CJK SC" font-size="18.3333" lengthAdjust="spacingAndGlyphs" textLength="321.6667" x="3954.1667" y="424.586">+qiniuSecrets: ObjStoreQiniuSecrets?</text><text fill="#000000" font-family="Noto Sans CJK SC" font-size="18.3333" lengthAdjust="spacingAndGlyphs" textLength="445" x="3954.1667" y="451.1325">+dataCapsuleSecrets: ObjStoreDataCapsuleSecrets?</text><line style="stroke: #6A1B9A; stroke-width: 2.5;" x1="3945.8333" x2="4407.5" y1="463.0791" y2="463.0791"/><text fill="#000000" font-family="Noto Sans CJK SC" font-size="18.3333" lengthAdjust="spacingAndGlyphs" textLength="175" x="3954.1667" y="491.0123">+init(): Future&lt;void&gt;</text><text fill="#000000" font-family="Noto Sans CJK SC" font-size="18.3333" lengthAdjust="spacingAndGlyphs" textLength="263.3333" x="3954.1667" y="517.5588">+save(config, ...): Future&lt;void&gt;</text><text fill="#000000" font-family="Noto Sans CJK SC" font-size="18.3333" lengthAdjust="spacingAndGlyphs" textLength="188.3333" x="3954.1667" y="544.1052">+clear(): Future&lt;void&gt;</text><!--class PrefsSecretStore--><rect fill="#E8F5E9" height="80" style="stroke: #2E7D32; stroke-width: 2.5;" width="216.6667" x="4468.3333" y="396.7731"/><ellipse cx="4493.3333" cy="423.4397" fill="#ADD1B2" rx="18.3333" ry="18.3333" style="stroke: #2E7D32; stroke-width: 1.6666666666666667;"/><path d="M4498.2813,432.8408 Q4497.3177,433.3356 4496.25,433.5699 Q4495.1823,433.8304 4494.0104,433.8304 Q4489.8438,433.8304 4487.6302,431.096 Q4485.4427,428.3356 4485.4427,423.1272 Q4485.4427,417.9189 4487.6302,415.1585 Q4489.8438,412.3981 4494.0104,412.3981 Q4495.1823,412.3981 4496.25,412.6585 Q4497.3438,412.9189 4498.2813,413.4137 L4498.2813,417.9449 Q4497.2396,416.9814 4496.25,416.5387 Q4495.2604,416.0699 4494.2188,416.0699 Q4491.9792,416.0699 4490.8333,417.8668 Q4489.6875,419.6376 4489.6875,423.1272 Q4489.6875,426.6168 4490.8333,428.4137 Q4491.9792,430.1845 4494.2188,430.1845 Q4495.2604,430.1845 4496.25,429.7418 Q4497.2396,429.2731 4498.2813,428.3095 L4498.2813,432.8408 Z "/><text fill="#000000" font-family="Noto Sans CJK SC" font-size="20" lengthAdjust="spacingAndGlyphs" textLength="163.3333" x="4516.6667" y="432.1598">PrefsSecretStore</text><line style="stroke: #2E7D32; stroke-width: 2.5;" x1="4470" x2="4683.3333" y1="450.1064" y2="450.1064"/><line style="stroke: #2E7D32; stroke-width: 2.5;" x1="4470" x2="4683.3333" y1="463.4397" y2="463.4397"/><!--class LocalObjStore--><rect fill="#E8F5E9" height="133.0929" style="stroke: #2E7D32; stroke-width: 2.5;" width="358.3333" x="4744.1667" y="370.1064"/><ellipse cx="4849.5833" cy="396.7731" fill="#ADD1B2" rx="18.3333" ry="18.3333" style="stroke: #2E7D32; stroke-width: 1.6666666666666667;"/><path d="M4854.5313,406.1741 Q4853.5677,406.6689 4852.5,406.9033 Q4851.4323,407.1637 4850.2604,407.1637 Q4846.0938,407.1637 4843.8802,404.4293 Q4841.6927,401.6689 4841.6927,396.4606 Q4841.6927,391.2522 4843.8802,388.4918 Q4846.0938,385.7314 4850.2604,385.7314 Q4851.4323,385.7314 4852.5,385.9918 Q4853.5938,386.2522 4854.5313,386.747 L4854.5313,391.2783 Q4853.4896,390.3147 4852.5,389.872 Q4851.5104,389.4033 4850.4688,389.4033 Q4848.2292,389.4033 4847.0833,391.2001 Q4845.9375,392.971 4845.9375,396.4606 Q4845.9375,399.9501 4847.0833,401.747 Q4848.2292,403.5179 4850.4688,403.5179 Q4851.5104,403.5179 4852.5,403.0751 Q4853.4896,402.6064 4854.5313,401.6429 L4854.5313,406.1741 Z "/><text fill="#000000" font-family="Noto Sans CJK SC" font-size="20" lengthAdjust="spacingAndGlyphs" textLength="133.3333" x="4883.75" y="405.4931">LocalObjStore</text><line style="stroke: #2E7D32; stroke-width: 2.5;" x1="4745.8333" x2="5100.8333" y1="423.4397" y2="423.4397"/><line style="stroke: #2E7D32; stroke-width: 2.5;" x1="4745.8333" x2="5100.8333" y1="436.7731" y2="436.7731"/><text fill="#000000" font-family="Noto Sans CJK SC" font-size="18.3333" lengthAdjust="spacingAndGlyphs" textLength="338.3333" x="4754.1667" y="464.7062">+saveBytes(bytes, filename): Future&lt;...&gt;</text><text fill="#000000" font-family="Noto Sans CJK SC" font-size="18.3333" lengthAdjust="spacingAndGlyphs" textLength="285" x="4754.1667" y="491.2527">+resolveUri(key): Future&lt;String?&gt;</text><!--class QiniuClient--><rect fill="#FFF3E0" height="159.6394" style="stroke: #EF6C00; stroke-width: 2.5;" width="266.6667" x="5161.6667" y="356.7731"/><ellipse cx="5236.25" cy="383.4397" fill="#ADD1B2" rx="18.3333" ry="18.3333" style="stroke: #EF6C00; stroke-width: 1.6666666666666667;"/><path d="M5241.1979,392.8408 Q5240.2344,393.3356 5239.1667,393.5699 Q5238.099,393.8304 5236.9271,393.8304 Q5232.7604,393.8304 5230.5469,391.096 Q5228.3594,388.3356 5228.3594,383.1272 Q5228.3594,377.9189 5230.5469,375.1585 Q5232.7604,372.3981 5236.9271,372.3981 Q5238.099,372.3981 5239.1667,372.6585 Q5240.2604,372.9189 5241.1979,373.4137 L5241.1979,377.9449 Q5240.1563,376.9814 5239.1667,376.5387 Q5238.1771,376.0699 5237.1354,376.0699 Q5234.8958,376.0699 5233.75,377.8668 Q5232.6042,379.6376 5232.6042,383.1272 Q5232.6042,386.6168 5233.75,388.4137 Q5234.8958,390.1845 5237.1354,390.1845 Q5238.1771,390.1845 5239.1667,389.7418 Q5240.1563,389.2731 5241.1979,388.3095 L5241.1979,392.8408 Z "/><text fill="#000000" font-family="Noto Sans CJK SC" font-size="20" lengthAdjust="spacingAndGlyphs" textLength="103.3333" x="5270.4167" y="392.1598">QiniuClient</text><line style="stroke: #EF6C00; stroke-width: 2.5;" x1="5163.3333" x2="5426.6667" y1="410.1064" y2="410.1064"/><line style="stroke: #EF6C00; stroke-width: 2.5;" x1="5163.3333" x2="5426.6667" y1="423.4397" y2="423.4397"/><text fill="#000000" font-family="Noto Sans CJK SC" font-size="18.3333" lengthAdjust="spacingAndGlyphs" textLength="246.6667" x="5171.6667" y="451.3729">+uploadBytes(...): Future&lt;...&gt;</text><text fill="#000000" font-family="Noto Sans CJK SC" font-size="18.3333" lengthAdjust="spacingAndGlyphs" textLength="223.3333" x="5171.6667" y="477.9194">+buildPublicUrl(...): String</text><text fill="#000000" font-family="Noto Sans CJK SC" font-size="18.3333" lengthAdjust="spacingAndGlyphs" textLength="228.3333" x="5171.6667" y="504.4658">+buildPrivateUrl(...): String</text><!--class DataCapsuleClient--><rect fill="#FFF3E0" height="159.6394" style="stroke: #EF6C00; stroke-width: 2.5;" width="323.3333" x="5486.6667" y="356.7731"/><ellipse cx="5554.4167" cy="383.4397" fill="#ADD1B2" rx="18.3333" ry="18.3333" style="stroke: #EF6C00; stroke-width: 1.6666666666666667;"/><path d="M5559.3646,392.8408 Q5558.401,393.3356 5557.3333,393.5699 Q5556.2656,393.8304 5555.0938,393.8304 Q5550.9271,393.8304 5548.7135,391.096 Q5546.526,388.3356 5546.526,383.1272 Q5546.526,377.9189 5548.7135,375.1585 Q5550.9271,372.3981 5555.0938,372.3981 Q5556.2656,372.3981 5557.3333,372.6585 Q5558.4271,372.9189 5559.3646,373.4137 L5559.3646,377.9449 Q5558.3229,376.9814 5557.3333,376.5387 Q5556.3438,376.0699 5555.3021,376.0699 Q5553.0625,376.0699 5551.9167,377.8668 Q5550.7708,379.6376 5550.7708,383.1272 Q5550.7708,386.6168 5551.9167,388.4137 Q5553.0625,390.1845 5555.3021,390.1845 Q5556.3438,390.1845 5557.3333,389.7418 Q5558.3229,389.2731 5559.3646,388.3095 L5559.3646,392.8408 Z "/><text fill="#000000" font-family="Noto Sans CJK SC" font-size="20" lengthAdjust="spacingAndGlyphs" textLength="175" x="5587.25" y="392.1598">DataCapsuleClient</text><line style="stroke: #EF6C00; stroke-width: 2.5;" x1="5488.3333" x2="5808.3333" y1="410.1064" y2="410.1064"/><line style="stroke: #EF6C00; stroke-width: 2.5;" x1="5488.3333" x2="5808.3333" y1="423.4397" y2="423.4397"/><text fill="#000000" font-family="Noto Sans CJK SC" font-size="18.3333" lengthAdjust="spacingAndGlyphs" textLength="248.3333" x="5496.6667" y="451.3729">+putObject(...): Future&lt;void&gt;</text><text fill="#000000" font-family="Noto Sans CJK SC" font-size="18.3333" lengthAdjust="spacingAndGlyphs" textLength="258.3333" x="5496.6667" y="477.9194">+buildPrivateGetUrl(...): String</text><text fill="#000000" font-family="Noto Sans CJK SC" font-size="18.3333" lengthAdjust="spacingAndGlyphs" textLength="303.3333" x="5496.6667" y="504.4658">+probePublicUrl(url): Future&lt;bool&gt;</text><!--class ObjStoreService--><rect fill="#F3E5F5" height="159.6394" style="stroke: #6A1B9A; stroke-width: 2.5;" width="500" x="4875" y="56.7731"/><ellipse cx="5042.0833" cy="83.4397" fill="#ADD1B2" rx="18.3333" ry="18.3333" style="stroke: #6A1B9A; stroke-width: 1.6666666666666667;"/><path d="M5047.0313,92.8408 Q5046.0677,93.3356 5045,93.5699 Q5043.9323,93.8304 5042.7604,93.8304 Q5038.5938,93.8304 5036.3802,91.096 Q5034.1927,88.3356 5034.1927,83.1272 Q5034.1927,77.9189 5036.3802,75.1585 Q5038.5938,72.3981 5042.7604,72.3981 Q5043.9323,72.3981 5045,72.6585 Q5046.0938,72.9189 5047.0313,73.4137 L5047.0313,77.9449 Q5045.9896,76.9814 5045,76.5387 Q5044.0104,76.0699 5042.9688,76.0699 Q5040.7292,76.0699 5039.5833,77.8668 Q5038.4375,79.6376 5038.4375,83.1272 Q5038.4375,86.6168 5039.5833,88.4137 Q5040.7292,90.1845 5042.9688,90.1845 Q5044.0104,90.1845 5045,89.7418 Q5045.9896,89.2731 5047.0313,88.3095 L5047.0313,92.8408 Z "/><text fill="#000000" font-family="Noto Sans CJK SC" font-size="20" lengthAdjust="spacingAndGlyphs" textLength="151.6667" x="5076.25" y="92.1598">ObjStoreService</text><line style="stroke: #6A1B9A; stroke-width: 2.5;" x1="4876.6667" x2="5373.3333" y1="110.1064" y2="110.1064"/><line style="stroke: #6A1B9A; stroke-width: 2.5;" x1="4876.6667" x2="5373.3333" y1="123.4397" y2="123.4397"/><text fill="#000000" font-family="Noto Sans CJK SC" font-size="18.3333" lengthAdjust="spacingAndGlyphs" textLength="480" x="4885" y="151.3729">+uploadBytes(bytes, filename): Future&lt;ObjStoreObject&gt;</text><text fill="#000000" font-family="Noto Sans CJK SC" font-size="18.3333" lengthAdjust="spacingAndGlyphs" textLength="276.6667" x="4885" y="177.9194">+resolveUri(key): Future&lt;String&gt;</text><text fill="#000000" font-family="Noto Sans CJK SC" font-size="18.3333" lengthAdjust="spacingAndGlyphs" textLength="353.3333" x="4885" y="204.4658">+ensureCachedFile(key, ...): Future&lt;File?&gt;</text><!--class SyncConfigService--><rect fill="#F3E5F5" height="159.6394" style="stroke: #6A1B9A; stroke-width: 2.5;" width="260" x="1426.6667" y="356.7731"/><ellipse cx="1467.4167" cy="383.4397" fill="#ADD1B2" rx="18.3333" ry="18.3333" style="stroke: #6A1B9A; stroke-width: 1.6666666666666667;"/><path d="M1472.3646,392.8408 Q1471.401,393.3356 1470.3333,393.5699 Q1469.2656,393.8304 1468.0938,393.8304 Q1463.9271,393.8304 1461.7135,391.096 Q1459.526,388.3356 1459.526,383.1272 Q1459.526,377.9189 1461.7135,375.1585 Q1463.9271,372.3981 1468.0938,372.3981 Q1469.2656,372.3981 1470.3333,372.6585 Q1471.4271,372.9189 1472.3646,373.4137 L1472.3646,377.9449 Q1471.3229,376.9814 1470.3333,376.5387 Q1469.3438,376.0699 1468.3021,376.0699 Q1466.0625,376.0699 1464.9167,377.8668 Q1463.7708,379.6376 1463.7708,383.1272 Q1463.7708,386.6168 1464.9167,388.4137 Q1466.0625,390.1845 1468.3021,390.1845 Q1469.3438,390.1845 1470.3333,389.7418 Q1471.3229,389.2731 1472.3646,388.3095 L1472.3646,392.8408 Z "/><text fill="#000000" font-family="Noto Sans CJK SC" font-size="20" lengthAdjust="spacingAndGlyphs" textLength="171.6667" x="1494.25" y="392.1598">SyncConfigService</text><line style="stroke: #6A1B9A; stroke-width: 2.5;" x1="1428.3333" x2="1685" y1="410.1064" y2="410.1064"/><text fill="#000000" font-family="Noto Sans CJK SC" font-size="18.3333" lengthAdjust="spacingAndGlyphs" textLength="181.6667" x="1436.6667" y="438.0396">+config: SyncConfig?</text><line style="stroke: #6A1B9A; stroke-width: 2.5;" x1="1428.3333" x2="1685" y1="449.9862" y2="449.9862"/><text fill="#000000" font-family="Noto Sans CJK SC" font-size="18.3333" lengthAdjust="spacingAndGlyphs" textLength="175" x="1436.6667" y="477.9194">+init(): Future&lt;void&gt;</text><text fill="#000000" font-family="Noto Sans CJK SC" font-size="18.3333" lengthAdjust="spacingAndGlyphs" textLength="240" x="1436.6667" y="504.4658">+save(config): Future&lt;void&gt;</text><!--class SyncLocalStateService--><rect fill="#F3E5F5" height="159.6394" style="stroke: #6A1B9A; stroke-width: 2.5;" width="346.6667" x="10" y="356.7731"/><ellipse cx="71" cy="383.4397" fill="#ADD1B2" rx="18.3333" ry="18.3333" style="stroke: #6A1B9A; stroke-width: 1.6666666666666667;"/><path d="M75.9479,392.8408 Q74.9844,393.3356 73.9167,393.5699 Q72.849,393.8304 71.6771,393.8304 Q67.5104,393.8304 65.2969,391.096 Q63.1094,388.3356 63.1094,383.1272 Q63.1094,377.9189 65.2969,375.1585 Q67.5104,372.3981 71.6771,372.3981 Q72.849,372.3981 73.9167,372.6585 Q75.0104,372.9189 75.9479,373.4137 L75.9479,377.9449 Q74.9063,376.9814 73.9167,376.5387 Q72.9271,376.0699 71.8854,376.0699 Q69.6458,376.0699 68.5,377.8668 Q67.3542,379.6376 67.3542,383.1272 Q67.3542,386.6168 68.5,388.4137 Q69.6458,390.1845 71.8854,390.1845 Q72.9271,390.1845 73.9167,389.7418 Q74.9063,389.2731 75.9479,388.3095 L75.9479,392.8408 Z "/><text fill="#000000" font-family="Noto Sans CJK SC" font-size="20" lengthAdjust="spacingAndGlyphs" textLength="213.3333" x="102.3333" y="392.1598">SyncLocalStateService</text><line style="stroke: #6A1B9A; stroke-width: 2.5;" x1="11.6667" x2="355" y1="410.1064" y2="410.1064"/><text fill="#000000" font-family="Noto Sans CJK SC" font-size="18.3333" lengthAdjust="spacingAndGlyphs" textLength="175" x="20" y="438.0396">+localUserId: String?</text><line style="stroke: #6A1B9A; stroke-width: 2.5;" x1="11.6667" x2="355" y1="449.9862" y2="449.9862"/><text fill="#000000" font-family="Noto Sans CJK SC" font-size="18.3333" lengthAdjust="spacingAndGlyphs" textLength="175" x="20" y="477.9194">+init(): Future&lt;void&gt;</text><text fill="#000000" font-family="Noto Sans CJK SC" font-size="18.3333" lengthAdjust="spacingAndGlyphs" textLength="326.6667" x="20" y="504.4658">+setLocalUserId(userId): Future&lt;void&gt;</text><!--class WifiService--><rect fill="#F3E5F5" height="133.0929" style="stroke: #6A1B9A; stroke-width: 2.5;" width="411.6667" x="415.8333" y="370.1064"/><ellipse cx="562.9167" cy="396.7731" fill="#ADD1B2" rx="18.3333" ry="18.3333" style="stroke: #6A1B9A; stroke-width: 1.6666666666666667;"/><path d="M567.8646,406.1741 Q566.901,406.6689 565.8333,406.9033 Q564.7656,407.1637 563.5938,407.1637 Q559.4271,407.1637 557.2135,404.4293 Q555.026,401.6689 555.026,396.4606 Q555.026,391.2522 557.2135,388.4918 Q559.4271,385.7314 563.5938,385.7314 Q564.7656,385.7314 565.8333,385.9918 Q566.9271,386.2522 567.8646,386.747 L567.8646,391.2783 Q566.8229,390.3147 565.8333,389.872 Q564.8438,389.4033 563.8021,389.4033 Q561.5625,389.4033 560.4167,391.2001 Q559.2708,392.971 559.2708,396.4606 Q559.2708,399.9501 560.4167,401.747 Q561.5625,403.5179 563.8021,403.5179 Q564.8438,403.5179 565.8333,403.0751 Q566.8229,402.6064 567.8646,401.6429 L567.8646,406.1741 Z "/><text fill="#000000" font-family="Noto Sans CJK SC" font-size="20" lengthAdjust="spacingAndGlyphs" textLength="103.3333" x="597.0833" y="405.4931">WifiService</text><line style="stroke: #6A1B9A; stroke-width: 2.5;" x1="417.5" x2="825.8333" y1="423.4397" y2="423.4397"/><line style="stroke: #6A1B9A; stroke-width: 2.5;" x1="417.5" x2="825.8333" y1="436.7731" y2="436.7731"/><text fill="#000000" font-family="Noto Sans CJK SC" font-size="18.3333" lengthAdjust="spacingAndGlyphs" textLength="391.6667" x="425.8333" y="464.7062">+getNetworkStatus(): Future&lt;NetworkStatus&gt;</text><text fill="#000000" font-family="Noto Sans CJK SC" font-size="18.3333" lengthAdjust="spacingAndGlyphs" textLength="343.3333" x="425.8333" y="491.2527">+getCurrentWifiName(): Future&lt;String?&gt;</text><!--class SyncApiClient--><rect fill="#FFF3E0" height="186.1859" style="stroke: #EF6C00; stroke-width: 2.5;" width="481.6667" x="885.8333" y="343.4397"/><ellipse cx="1056.25" cy="370.1064" fill="#ADD1B2" rx="18.3333" ry="18.3333" style="stroke: #EF6C00; stroke-width: 1.6666666666666667;"/><path d="M1061.1979,379.5074 Q1060.2344,380.0022 1059.1667,380.2366 Q1058.099,380.497 1056.9271,380.497 Q1052.7604,380.497 1050.5469,377.7626 Q1048.3594,375.0022 1048.3594,369.7939 Q1048.3594,364.5856 1050.5469,361.8251 Q1052.7604,359.0647 1056.9271,359.0647 Q1058.099,359.0647 1059.1667,359.3251 Q1060.2604,359.5856 1061.1979,360.0804 L1061.1979,364.6116 Q1060.1563,363.6481 1059.1667,363.2054 Q1058.1771,362.7366 1057.1354,362.7366 Q1054.8958,362.7366 1053.75,364.5335 Q1052.6042,366.3043 1052.6042,369.7939 Q1052.6042,373.2835 1053.75,375.0804 Q1054.8958,376.8512 1057.1354,376.8512 Q1058.1771,376.8512 1059.1667,376.4085 Q1060.1563,375.9397 1061.1979,374.9762 L1061.1979,379.5074 Z "/><text fill="#000000" font-family="Noto Sans CJK SC" font-size="20" lengthAdjust="spacingAndGlyphs" textLength="126.6667" x="1090.4167" y="378.8265">SyncApiClient</text><line style="stroke: #EF6C00; stroke-width: 2.5;" x1="887.5" x2="1365.8333" y1="396.7731" y2="396.7731"/><line style="stroke: #EF6C00; stroke-width: 2.5;" x1="887.5" x2="1365.8333" y1="410.1064" y2="410.1064"/><text fill="#000000" font-family="Noto Sans CJK SC" font-size="18.3333" lengthAdjust="spacingAndGlyphs" textLength="290" x="895.8333" y="438.0396">+sync(...): Future&lt;SyncResponse&gt;</text><text fill="#000000" font-family="Noto Sans CJK SC" font-size="18.3333" lengthAdjust="spacingAndGlyphs" textLength="330" x="895.8333" y="464.586">+syncV2(...): Future&lt;SyncResponseV2&gt;</text><text fill="#000000" font-family="Noto Sans CJK SC" font-size="18.3333" lengthAdjust="spacingAndGlyphs" textLength="428.3333" x="895.8333" y="491.1325">+listSyncRecords(...): Future&lt;SyncRecordsResult&gt;</text><text fill="#000000" font-family="Noto Sans CJK SC" font-size="18.3333" lengthAdjust="spacingAndGlyphs" textLength="461.6667" x="895.8333" y="517.679">+rollbackToRevision(...): Future&lt;SyncRollbackResult&gt;</text><!--class ToolSnapshotExporter--><rect fill="#F3E5F5" height="106.5465" style="stroke: #6A1B9A; stroke-width: 2.5;" width="346.6667" x="1745" y="383.4397"/><ellipse cx="1807.5" cy="410.1064" fill="#ADD1B2" rx="18.3333" ry="18.3333" style="stroke: #6A1B9A; stroke-width: 1.6666666666666667;"/><path d="M1812.4479,419.5074 Q1811.4844,420.0022 1810.4167,420.2366 Q1809.349,420.497 1808.1771,420.497 Q1804.0104,420.497 1801.7969,417.7626 Q1799.6094,415.0022 1799.6094,409.7939 Q1799.6094,404.5856 1801.7969,401.8251 Q1804.0104,399.0647 1808.1771,399.0647 Q1809.349,399.0647 1810.4167,399.3251 Q1811.5104,399.5856 1812.4479,400.0804 L1812.4479,404.6116 Q1811.4063,403.6481 1810.4167,403.2054 Q1809.4271,402.7366 1808.3854,402.7366 Q1806.1458,402.7366 1805,404.5335 Q1803.8542,406.3043 1803.8542,409.7939 Q1803.8542,413.2835 1805,415.0804 Q1806.1458,416.8512 1808.3854,416.8512 Q1809.4271,416.8512 1810.4167,416.4085 Q1811.4063,415.9397 1812.4479,414.9762 L1812.4479,419.5074 Z "/><text fill="#000000" font-family="Noto Sans CJK SC" font-size="20" lengthAdjust="spacingAndGlyphs" textLength="210" x="1839.1667" y="418.8265">ToolSnapshotExporter</text><line style="stroke: #6A1B9A; stroke-width: 2.5;" x1="1746.6667" x2="2090" y1="436.7731" y2="436.7731"/><line style="stroke: #6A1B9A; stroke-width: 2.5;" x1="1746.6667" x2="2090" y1="450.1064" y2="450.1064"/><text fill="#000000" font-family="Noto Sans CJK SC" font-size="18.3333" lengthAdjust="spacingAndGlyphs" text-decoration="underline" textLength="326.6667" x="1755" y="478.0396">+exportAll(providers, ...): Future&lt;Map&gt;</text><line style="stroke: #000000; stroke-width: 1.0;" x1="1755" x2="2081.6667" y1="481.3729" y2="481.3729"/><!--class SyncService--><rect fill="#F3E5F5" height="133.0929" style="stroke: #6A1B9A; stroke-width: 2.5;" width="458.3333" x="1112.5" y="70.1064"/><ellipse cx="1278.75" cy="96.7731" fill="#ADD1B2" rx="18.3333" ry="18.3333" style="stroke: #6A1B9A; stroke-width: 1.6666666666666667;"/><path d="M1283.6979,106.1741 Q1282.7344,106.6689 1281.6667,106.9033 Q1280.599,107.1637 1279.4271,107.1637 Q1275.2604,107.1637 1273.0469,104.4293 Q1270.8594,101.6689 1270.8594,96.4606 Q1270.8594,91.2522 1273.0469,88.4918 Q1275.2604,85.7314 1279.4271,85.7314 Q1280.599,85.7314 1281.6667,85.9918 Q1282.7604,86.2522 1283.6979,86.747 L1283.6979,91.2783 Q1282.6563,90.3147 1281.6667,89.872 Q1280.6771,89.4033 1279.6354,89.4033 Q1277.3958,89.4033 1276.25,91.2001 Q1275.1042,92.971 1275.1042,96.4606 Q1275.1042,99.9501 1276.25,101.747 Q1277.3958,103.5179 1279.6354,103.5179 Q1280.6771,103.5179 1281.6667,103.0751 Q1282.6563,102.6064 1283.6979,101.6429 L1283.6979,106.1741 Z "/><text fill="#000000" font-family="Noto Sans CJK SC" font-size="20" lengthAdjust="spacingAndGlyphs" textLength="111.6667" x="1312.9167" y="105.4931">SyncService</text><line style="stroke: #6A1B9A; stroke-width: 2.5;" x1="1114.1667" x2="1569.1667" y1="123.4397" y2="123.4397"/><line style="stroke: #6A1B9A; stroke-width: 2.5;" x1="1114.1667" x2="1569.1667" y1="136.7731" y2="136.7731"/><text fill="#000000" font-family="Noto Sans CJK SC" font-size="18.3333" lengthAdjust="spacingAndGlyphs" textLength="371.6667" x="1122.5" y="164.7062">+sync(trigger, forceDecision): Future&lt;bool&gt;</text><text fill="#000000" font-family="Noto Sans CJK SC" font-size="18.3333" lengthAdjust="spacingAndGlyphs" textLength="438.3333" x="1122.5" y="191.2527">+applyServerSnapshot(toolsData): Future&lt;String?&gt;</text><!--class SettingsService--><rect fill="#F3E5F5" height="159.6394" style="stroke: #6A1B9A; stroke-width: 2.5;" width="393.3333" x="2150" y="356.7731"/><ellipse cx="2266.25" cy="383.4397" fill="#ADD1B2" rx="18.3333" ry="18.3333" style="stroke: #6A1B9A; stroke-width: 1.6666666666666667;"/><path d="M2271.1979,392.8408 Q2270.2344,393.3356 2269.1667,393.5699 Q2268.099,393.8304 2266.9271,393.8304 Q2262.7604,393.8304 2260.5469,391.096 Q2258.3594,388.3356 2258.3594,383.1272 Q2258.3594,377.9189 2260.5469,375.1585 Q2262.7604,372.3981 2266.9271,372.3981 Q2268.099,372.3981 2269.1667,372.6585 Q2270.2604,372.9189 2271.1979,373.4137 L2271.1979,377.9449 Q2270.1563,376.9814 2269.1667,376.5387 Q2268.1771,376.0699 2267.1354,376.0699 Q2264.8958,376.0699 2263.75,377.8668 Q2262.6042,379.6376 2262.6042,383.1272 Q2262.6042,386.6168 2263.75,388.4137 Q2264.8958,390.1845 2267.1354,390.1845 Q2268.1771,390.1845 2269.1667,389.7418 Q2270.1563,389.2731 2271.1979,388.3095 L2271.1979,392.8408 Z "/><text fill="#000000" font-family="Noto Sans CJK SC" font-size="20" lengthAdjust="spacingAndGlyphs" textLength="146.6667" x="2300.4167" y="392.1598">SettingsService</text><line style="stroke: #6A1B9A; stroke-width: 2.5;" x1="2151.6667" x2="2541.6667" y1="410.1064" y2="410.1064"/><text fill="#000000" font-family="Noto Sans CJK SC" font-size="18.3333" lengthAdjust="spacingAndGlyphs" textLength="196.6667" x="2160" y="438.0396">+defaultToolId: String?</text><line style="stroke: #6A1B9A; stroke-width: 2.5;" x1="2151.6667" x2="2541.6667" y1="449.9862" y2="449.9862"/><text fill="#000000" font-family="Noto Sans CJK SC" font-size="18.3333" lengthAdjust="spacingAndGlyphs" textLength="373.3333" x="2160" y="477.9194">+updateHomeToolOrder(ids): Future&lt;void&gt;</text><text fill="#000000" font-family="Noto Sans CJK SC" font-size="18.3333" lengthAdjust="spacingAndGlyphs" textLength="291.6667" x="2160" y="504.4658">+setDefaultTool(id): Future&lt;void&gt;</text><!--class BackupRestoreService--><rect fill="#F3E5F5" height="159.6394" style="stroke: #6A1B9A; stroke-width: 2.5;" width="531.6667" x="2080.8333" y="56.7731"/><ellipse cx="2232.9167" cy="83.4397" fill="#ADD1B2" rx="18.3333" ry="18.3333" style="stroke: #6A1B9A; stroke-width: 1.6666666666666667;"/><path d="M2237.8646,92.8408 Q2236.901,93.3356 2235.8333,93.5699 Q2234.7656,93.8304 2233.5938,93.8304 Q2229.4271,93.8304 2227.2135,91.096 Q2225.026,88.3356 2225.026,83.1272 Q2225.026,77.9189 2227.2135,75.1585 Q2229.4271,72.3981 2233.5938,72.3981 Q2234.7656,72.3981 2235.8333,72.6585 Q2236.9271,72.9189 2237.8646,73.4137 L2237.8646,77.9449 Q2236.8229,76.9814 2235.8333,76.5387 Q2234.8438,76.0699 2233.8021,76.0699 Q2231.5625,76.0699 2230.4167,77.8668 Q2229.2708,79.6376 2229.2708,83.1272 Q2229.2708,86.6168 2230.4167,88.4137 Q2231.5625,90.1845 2233.8021,90.1845 Q2234.8438,90.1845 2235.8333,89.7418 Q2236.8229,89.2731 2237.8646,88.3095 L2237.8646,92.8408 Z "/><text fill="#000000" font-family="Noto Sans CJK SC" font-size="20" lengthAdjust="spacingAndGlyphs" textLength="213.3333" x="2267.0833" y="92.1598">BackupRestoreService</text><line style="stroke: #6A1B9A; stroke-width: 2.5;" x1="2082.5" x2="2610.8333" y1="110.1064" y2="110.1064"/><text fill="#000000" font-family="Noto Sans CJK SC" font-size="18.3333" lengthAdjust="spacingAndGlyphs" text-decoration="underline" textLength="170" x="2090.8333" y="138.0396">+backupVersion: int</text><line style="stroke: #000000; stroke-width: 1.0;" x1="2090.8333" x2="2260.8333" y1="141.3729" y2="141.3729"/><line style="stroke: #6A1B9A; stroke-width: 2.5;" x1="2082.5" x2="2610.8333" y1="149.9862" y2="149.9862"/><text fill="#000000" font-family="Noto Sans CJK SC" font-size="18.3333" lengthAdjust="spacingAndGlyphs" textLength="420" x="2090.8333" y="177.9194">+exportAsJson(includeSensitive): Future&lt;String&gt;</text><text fill="#000000" font-family="Noto Sans CJK SC" font-size="18.3333" lengthAdjust="spacingAndGlyphs" textLength="511.6667" x="2090.8333" y="204.4658">+restoreFromJson(jsonText): Future&lt;BackupRestoreResult&gt;</text><!--class MessageRepository--><rect fill="#E8F5E9" height="80" style="stroke: #2E7D32; stroke-width: 2.5;" width="238.3333" x="6472.5" y="396.7731"/><ellipse cx="6497.5" cy="423.4397" fill="#ADD1B2" rx="18.3333" ry="18.3333" style="stroke: #2E7D32; stroke-width: 1.6666666666666667;"/><path d="M6502.4479,432.8408 Q6501.4844,433.3356 6500.4167,433.5699 Q6499.349,433.8304 6498.1771,433.8304 Q6494.0104,433.8304 6491.7969,431.096 Q6489.6094,428.3356 6489.6094,423.1272 Q6489.6094,417.9189 6491.7969,415.1585 Q6494.0104,412.3981 6498.1771,412.3981 Q6499.349,412.3981 6500.4167,412.6585 Q6501.5104,412.9189 6502.4479,413.4137 L6502.4479,417.9449 Q6501.4063,416.9814 6500.4167,416.5387 Q6499.4271,416.0699 6498.3854,416.0699 Q6496.1458,416.0699 6495,417.8668 Q6493.8542,419.6376 6493.8542,423.1272 Q6493.8542,426.6168 6495,428.4137 Q6496.1458,430.1845 6498.3854,430.1845 Q6499.4271,430.1845 6500.4167,429.7418 Q6501.4063,429.2731 6502.4479,428.3095 L6502.4479,432.8408 Z "/><text fill="#000000" font-family="Noto Sans CJK SC" font-size="20" lengthAdjust="spacingAndGlyphs" textLength="185" x="6520.8333" y="432.1598">MessageRepository</text><line style="stroke: #2E7D32; stroke-width: 2.5;" x1="6474.1667" x2="6709.1667" y1="450.1064" y2="450.1064"/><line style="stroke: #2E7D32; stroke-width: 2.5;" x1="6474.1667" x2="6709.1667" y1="463.4397" y2="463.4397"/><!--class MessageService--><rect fill="#F3E5F5" height="159.6394" style="stroke: #6A1B9A; stroke-width: 2.5;" width="303.3333" x="6390" y="56.7731"/><ellipse cx="6459.25" cy="83.4397" fill="#ADD1B2" rx="18.3333" ry="18.3333" style="stroke: #6A1B9A; stroke-width: 1.6666666666666667;"/><path d="M6464.1979,92.8408 Q6463.2344,93.3356 6462.1667,93.5699 Q6461.099,93.8304 6459.9271,93.8304 Q6455.7604,93.8304 6453.5469,91.096 Q6451.3594,88.3356 6451.3594,83.1272 Q6451.3594,77.9189 6453.5469,75.1585 Q6455.7604,72.3981 6459.9271,72.3981 Q6461.099,72.3981 6462.1667,72.6585 Q6463.2604,72.9189 6464.1979,73.4137 L6464.1979,77.9449 Q6463.1563,76.9814 6462.1667,76.5387 Q6461.1771,76.0699 6460.1354,76.0699 Q6457.8958,76.0699 6456.75,77.8668 Q6455.6042,79.6376 6455.6042,83.1272 Q6455.6042,86.6168 6456.75,88.4137 Q6457.8958,90.1845 6460.1354,90.1845 Q6461.1771,90.1845 6462.1667,89.7418 Q6463.1563,89.2731 6464.1979,88.3095 L6464.1979,92.8408 Z "/><text fill="#000000" font-family="Noto Sans CJK SC" font-size="20" lengthAdjust="spacingAndGlyphs" textLength="151.6667" x="6492.4167" y="92.1598">MessageService</text><line style="stroke: #6A1B9A; stroke-width: 2.5;" x1="6391.6667" x2="6691.6667" y1="110.1064" y2="110.1064"/><text fill="#000000" font-family="Noto Sans CJK SC" font-size="18.3333" lengthAdjust="spacingAndGlyphs" textLength="256.6667" x="6400" y="138.0396">+messages: List&lt;AppMessage&gt;</text><line style="stroke: #6A1B9A; stroke-width: 2.5;" x1="6391.6667" x2="6691.6667" y1="149.9862" y2="149.9862"/><text fill="#000000" font-family="Noto Sans CJK SC" font-size="18.3333" lengthAdjust="spacingAndGlyphs" textLength="281.6667" x="6400" y="177.9194">+upsertMessage(...): Future&lt;int?&gt;</text><text fill="#000000" font-family="Noto Sans CJK SC" font-size="18.3333" lengthAdjust="spacingAndGlyphs" textLength="283.3333" x="6400" y="204.4658">+purgeExpired(now): Future&lt;int&gt;</text><!--class LocalNotificationService--><rect fill="#ECEFF1" height="80" style="stroke: #455A64; stroke-width: 2.5;" width="281.6667" x="6000.8333" y="96.7731"/><ellipse cx="6025.8333" cy="123.4397" fill="#ADD1B2" rx="18.3333" ry="18.3333" style="stroke: #455A64; stroke-width: 1.6666666666666667;"/><path d="M6030.7813,132.8408 Q6029.8177,133.3356 6028.75,133.5699 Q6027.6823,133.8304 6026.5104,133.8304 Q6022.3438,133.8304 6020.1302,131.096 Q6017.9427,128.3356 6017.9427,123.1272 Q6017.9427,117.9189 6020.1302,115.1585 Q6022.3438,112.3981 6026.5104,112.3981 Q6027.6823,112.3981 6028.75,112.6585 Q6029.8438,112.9189 6030.7813,113.4137 L6030.7813,117.9449 Q6029.7396,116.9814 6028.75,116.5387 Q6027.7604,116.0699 6026.7188,116.0699 Q6024.4792,116.0699 6023.3333,117.8668 Q6022.1875,119.6376 6022.1875,123.1272 Q6022.1875,126.6168 6023.3333,128.4137 Q6024.4792,130.1845 6026.7188,130.1845 Q6027.7604,130.1845 6028.75,129.7418 Q6029.7396,129.2731 6030.7813,128.3095 L6030.7813,132.8408 Z "/><text fill="#000000" font-family="Noto Sans CJK SC" font-size="20" lengthAdjust="spacingAndGlyphs" textLength="228.3333" x="6049.1667" y="132.1598">LocalNotificationService</text><line style="stroke: #455A64; stroke-width: 2.5;" x1="6002.5" x2="6280.8333" y1="150.1064" y2="150.1064"/><line style="stroke: #455A64; stroke-width: 2.5;" x1="6002.5" x2="6280.8333" y1="163.4397" y2="163.4397"/><!--class TagRepository--><rect fill="#E8F5E9" height="80" style="stroke: #2E7D32; stroke-width: 2.5;" width="190" x="6836.6667" y="396.7731"/><ellipse cx="6861.6667" cy="423.4397" fill="#ADD1B2" rx="18.3333" ry="18.3333" style="stroke: #2E7D32; stroke-width: 1.6666666666666667;"/><path d="M6866.6146,432.8408 Q6865.651,433.3356 6864.5833,433.5699 Q6863.5156,433.8304 6862.3438,433.8304 Q6858.1771,433.8304 6855.9635,431.096 Q6853.776,428.3356 6853.776,423.1272 Q6853.776,417.9189 6855.9635,415.1585 Q6858.1771,412.3981 6862.3438,412.3981 Q6863.5156,412.3981 6864.5833,412.6585 Q6865.6771,412.9189 6866.6146,413.4137 L6866.6146,417.9449 Q6865.5729,416.9814 6864.5833,416.5387 Q6863.5938,416.0699 6862.5521,416.0699 Q6860.3125,416.0699 6859.1667,417.8668 Q6858.0208,419.6376 6858.0208,423.1272 Q6858.0208,426.6168 6859.1667,428.4137 Q6860.3125,430.1845 6862.5521,430.1845 Q6863.5938,430.1845 6864.5833,429.7418 Q6865.5729,429.2731 6866.6146,428.3095 L6866.6146,432.8408 Z "/><text fill="#000000" font-family="Noto Sans CJK SC" font-size="20" lengthAdjust="spacingAndGlyphs" textLength="136.6667" x="6885" y="432.1598">TagRepository</text><line style="stroke: #2E7D32; stroke-width: 2.5;" x1="6838.3333" x2="7025" y1="450.1064" y2="450.1064"/><line style="stroke: #2E7D32; stroke-width: 2.5;" x1="6838.3333" x2="7025" y1="463.4397" y2="463.4397"/><!--class TagService--><rect fill="#F3E5F5" height="133.0929" style="stroke: #6A1B9A; stroke-width: 2.5;" width="358.3333" x="6752.5" y="70.1064"/><ellipse cx="6872.9167" cy="96.7731" fill="#ADD1B2" rx="18.3333" ry="18.3333" style="stroke: #6A1B9A; stroke-width: 1.6666666666666667;"/><path d="M6877.8646,106.1741 Q6876.901,106.6689 6875.8333,106.9033 Q6874.7656,107.1637 6873.5938,107.1637 Q6869.4271,107.1637 6867.2135,104.4293 Q6865.026,101.6689 6865.026,96.4606 Q6865.026,91.2522 6867.2135,88.4918 Q6869.4271,85.7314 6873.5938,85.7314 Q6874.7656,85.7314 6875.8333,85.9918 Q6876.9271,86.2522 6877.8646,86.747 L6877.8646,91.2783 Q6876.8229,90.3147 6875.8333,89.872 Q6874.8438,89.4033 6873.8021,89.4033 Q6871.5625,89.4033 6870.4167,91.2001 Q6869.2708,92.971 6869.2708,96.4606 Q6869.2708,99.9501 6870.4167,101.747 Q6871.5625,103.5179 6873.8021,103.5179 Q6874.8438,103.5179 6875.8333,103.0751 Q6876.8229,102.6064 6877.8646,101.6429 L6877.8646,106.1741 Z "/><text fill="#000000" font-family="Noto Sans CJK SC" font-size="20" lengthAdjust="spacingAndGlyphs" textLength="103.3333" x="6907.0833" y="105.4931">TagService</text><line style="stroke: #6A1B9A; stroke-width: 2.5;" x1="6754.1667" x2="7109.1667" y1="123.4397" y2="123.4397"/><line style="stroke: #6A1B9A; stroke-width: 2.5;" x1="6754.1667" x2="7109.1667" y1="136.7731" y2="136.7731"/><text fill="#000000" font-family="Noto Sans CJK SC" font-size="18.3333" lengthAdjust="spacingAndGlyphs" textLength="228.3333" x="6762.5" y="164.7062">+refreshAll(): Future&lt;void&gt;</text><text fill="#000000" font-family="Noto Sans CJK SC" font-size="18.3333" lengthAdjust="spacingAndGlyphs" textLength="338.3333" x="6762.5" y="191.2527">+refreshToolTags(toolId): Future&lt;void&gt;</text><!--class AppConfigSyncProvider--><rect fill="#F3E5F5" height="80" style="stroke: #6A1B9A; stroke-width: 2.5;" width="271.6667" x="4052.5" y="96.7731"/><ellipse cx="4077.5" cy="123.4397" fill="#ADD1B2" rx="18.3333" ry="18.3333" style="stroke: #6A1B9A; stroke-width: 1.6666666666666667;"/><path d="M4082.4479,132.8408 Q4081.4844,133.3356 4080.4167,133.5699 Q4079.349,133.8304 4078.1771,133.8304 Q4074.0104,133.8304 4071.7969,131.096 Q4069.6094,128.3356 4069.6094,123.1272 Q4069.6094,117.9189 4071.7969,115.1585 Q4074.0104,112.3981 4078.1771,112.3981 Q4079.349,112.3981 4080.4167,112.6585 Q4081.5104,112.9189 4082.4479,113.4137 L4082.4479,117.9449 Q4081.4063,116.9814 4080.4167,116.5387 Q4079.4271,116.0699 4078.3854,116.0699 Q4076.1458,116.0699 4075,117.8668 Q4073.8542,119.6376 4073.8542,123.1272 Q4073.8542,126.6168 4075,128.4137 Q4076.1458,130.1845 4078.3854,130.1845 Q4079.4271,130.1845 4080.4167,129.7418 Q4081.4063,129.2731 4082.4479,128.3095 L4082.4479,132.8408 Z "/><text fill="#000000" font-family="Noto Sans CJK SC" font-size="20" lengthAdjust="spacingAndGlyphs" textLength="218.3333" x="4100.8333" y="132.1598">AppConfigSyncProvider</text><line style="stroke: #6A1B9A; stroke-width: 2.5;" x1="4054.1667" x2="4322.5" y1="150.1064" y2="150.1064"/><line style="stroke: #6A1B9A; stroke-width: 2.5;" x1="4054.1667" x2="4322.5" y1="163.4397" y2="163.4397"/><!--class WorkLogSyncProvider--><rect fill="#F3E5F5" height="80" style="stroke: #6A1B9A; stroke-width: 2.5;" width="261.6667" x="4382.5" y="96.7731"/><ellipse cx="4407.5" cy="123.4397" fill="#ADD1B2" rx="18.3333" ry="18.3333" style="stroke: #6A1B9A; stroke-width: 1.6666666666666667;"/><path d="M4412.4479,132.8408 Q4411.4844,133.3356 4410.4167,133.5699 Q4409.349,133.8304 4408.1771,133.8304 Q4404.0104,133.8304 4401.7969,131.096 Q4399.6094,128.3356 4399.6094,123.1272 Q4399.6094,117.9189 4401.7969,115.1585 Q4404.0104,112.3981 4408.1771,112.3981 Q4409.349,112.3981 4410.4167,112.6585 Q4411.5104,112.9189 4412.4479,113.4137 L4412.4479,117.9449 Q4411.4063,116.9814 4410.4167,116.5387 Q4409.4271,116.0699 4408.3854,116.0699 Q4406.1458,116.0699 4405,117.8668 Q4403.8542,119.6376 4403.8542,123.1272 Q4403.8542,126.6168 4405,128.4137 Q4406.1458,130.1845 4408.3854,130.1845 Q4409.4271,130.1845 4410.4167,129.7418 Q4411.4063,129.2731 4412.4479,128.3095 L4412.4479,132.8408 Z "/><text fill="#000000" font-family="Noto Sans CJK SC" font-size="20" lengthAdjust="spacingAndGlyphs" textLength="208.3333" x="4430.8333" y="132.1598">WorkLogSyncProvider</text><line style="stroke: #6A1B9A; stroke-width: 2.5;" x1="4384.1667" x2="4642.5" y1="150.1064" y2="150.1064"/><line style="stroke: #6A1B9A; stroke-width: 2.5;" x1="4384.1667" x2="4642.5" y1="163.4397" y2="163.4397"/><!--class StockpileSyncProvider--><rect fill="#F3E5F5" height="80" style="stroke: #6A1B9A; stroke-width: 2.5;" width="263.3333" x="3111.6667" y="96.7731"/><ellipse cx="3136.6667" cy="123.4397" fill="#ADD1B2" rx="18.3333" ry="18.3333" style="stroke: #6A1B9A; stroke-width: 1.6666666666666667;"/><path d="M3141.6146,132.8408 Q3140.651,133.3356 3139.5833,133.5699 Q3138.5156,133.8304 3137.3438,133.8304 Q3133.1771,133.8304 3130.9635,131.096 Q3128.776,128.3356 3128.776,123.1272 Q3128.776,117.9189 3130.9635,115.1585 Q3133.1771,112.3981 3137.3438,112.3981 Q3138.5156,112.3981 3139.5833,112.6585 Q3140.6771,112.9189 3141.6146,113.4137 L3141.6146,117.9449 Q3140.5729,116.9814 3139.5833,116.5387 Q3138.5938,116.0699 3137.5521,116.0699 Q3135.3125,116.0699 3134.1667,117.8668 Q3133.0208,119.6376 3133.0208,123.1272 Q3133.0208,126.6168 3134.1667,128.4137 Q3135.3125,130.1845 3137.5521,130.1845 Q3138.5938,130.1845 3139.5833,129.7418 Q3140.5729,129.2731 3141.6146,128.3095 L3141.6146,132.8408 Z "/><text fill="#000000" font-family="Noto Sans CJK SC" font-size="20" lengthAdjust="spacingAndGlyphs" textLength="210" x="3160" y="132.1598">StockpileSyncProvider</text><line style="stroke: #6A1B9A; stroke-width: 2.5;" x1="3113.3333" x2="3373.3333" y1="150.1064" y2="150.1064"/><line style="stroke: #6A1B9A; stroke-width: 2.5;" x1="3113.3333" x2="3373.3333" y1="163.4397" y2="163.4397"/><!--class OvercookedSyncProvider--><rect fill="#F3E5F5" height="80" style="stroke: #6A1B9A; stroke-width: 2.5;" width="290" x="3433.3333" y="96.7731"/><ellipse cx="3458.3333" cy="123.4397" fill="#ADD1B2" rx="18.3333" ry="18.3333" style="stroke: #6A1B9A; stroke-width: 1.6666666666666667;"/><path d="M3463.2813,132.8408 Q3462.3177,133.3356 3461.25,133.5699 Q3460.1823,133.8304 3459.0104,133.8304 Q3454.8438,133.8304 3452.6302,131.096 Q3450.4427,128.3356 3450.4427,123.1272 Q3450.4427,117.9189 3452.6302,115.1585 Q3454.8438,112.3981 3459.0104,112.3981 Q3460.1823,112.3981 3461.25,112.6585 Q3462.3438,112.9189 3463.2813,113.4137 L3463.2813,117.9449 Q3462.2396,116.9814 3461.25,116.5387 Q3460.2604,116.0699 3459.2188,116.0699 Q3456.9792,116.0699 3455.8333,117.8668 Q3454.6875,119.6376 3454.6875,123.1272 Q3454.6875,126.6168 3455.8333,128.4137 Q3456.9792,130.1845 3459.2188,130.1845 Q3460.2604,130.1845 3461.25,129.7418 Q3462.2396,129.2731 3463.2813,128.3095 L3463.2813,132.8408 Z "/><text fill="#000000" font-family="Noto Sans CJK SC" font-size="20" lengthAdjust="spacingAndGlyphs" textLength="236.6667" x="3481.6667" y="132.1598">OvercookedSyncProvider</text><line style="stroke: #6A1B9A; stroke-width: 2.5;" x1="3435" x2="3721.6667" y1="150.1064" y2="150.1064"/><line style="stroke: #6A1B9A; stroke-width: 2.5;" x1="3435" x2="3721.6667" y1="163.4397" y2="163.4397"/><!--class TagSyncProvider--><rect fill="#F3E5F5" height="80" style="stroke: #6A1B9A; stroke-width: 2.5;" width="211.6667" x="3782.5" y="96.7731"/><ellipse cx="3807.5" cy="123.4397" fill="#ADD1B2" rx="18.3333" ry="18.3333" style="stroke: #6A1B9A; stroke-width: 1.6666666666666667;"/><path d="M3812.4479,132.8408 Q3811.4844,133.3356 3810.4167,133.5699 Q3809.349,133.8304 3808.1771,133.8304 Q3804.0104,133.8304 3801.7969,131.096 Q3799.6094,128.3356 3799.6094,123.1272 Q3799.6094,117.9189 3801.7969,115.1585 Q3804.0104,112.3981 3808.1771,112.3981 Q3809.349,112.3981 3810.4167,112.6585 Q3811.5104,112.9189 3812.4479,113.4137 L3812.4479,117.9449 Q3811.4063,116.9814 3810.4167,116.5387 Q3809.4271,116.0699 3808.3854,116.0699 Q3806.1458,116.0699 3805,117.8668 Q3803.8542,119.6376 3803.8542,123.1272 Q3803.8542,126.6168 3805,128.4137 Q3806.1458,130.1845 3808.3854,130.1845 Q3809.4271,130.1845 3810.4167,129.7418 Q3811.4063,129.2731 3812.4479,128.3095 L3812.4479,132.8408 Z "/><text fill="#000000" font-family="Noto Sans CJK SC" font-size="20" lengthAdjust="spacingAndGlyphs" textLength="158.3333" x="3830.8333" y="132.1598">TagSyncProvider</text><line style="stroke: #6A1B9A; stroke-width: 2.5;" x1="3784.1667" x2="3992.5" y1="150.1064" y2="150.1064"/><line style="stroke: #6A1B9A; stroke-width: 2.5;" x1="3784.1667" x2="3992.5" y1="163.4397" y2="163.4397"/><path d="M2833.1333,203.5397 C2816.25,242.0731 2794.5,291.7064 2775.4833,335.1064 " fill="none" style="stroke: #A80036; stroke-width: 1.6666666666666667;"/><polygon fill="#A80036" points="2771.9667,343.1397,2784.1029,332.0873,2775.318,335.51,2771.8954,326.7251,2771.9667,343.1397" style="stroke: #A80036; stroke-width: 1.6666666666666667;"/><path d="M2931.1667,203.5397 C2986.45,255.3397 3063.1,327.1397 3116.3167,377.0064 " fill="none" style="stroke: #A80036; stroke-width: 1.6666666666666667;"/><polygon fill="#A80036" points="3122.7,382.9731,3116.3146,367.8512,3116.6198,377.2743,3107.1966,377.5795,3122.7,382.9731" style="stroke: #A80036; stroke-width: 1.6666666666666667;"/><path d="M4256.5667,556.9731 C4277.3333,587.7731 4299.3,620.3564 4318.7,649.1231 " fill="none" style="stroke: #A80036; stroke-width: 1.6666666666666667;"/><polygon fill="#A80036" points="4323.5667,656.3397,4320.7547,640.1676,4318.9277,649.417,4309.6783,647.5899,4323.5667,656.3397" style="stroke: #A80036; stroke-width: 1.6666666666666667;"/><path d="M4550.5167,477.2231 C4524.7833,515.3897 4484.3167,575.4231 4448.9,627.9564 " fill="none" style="stroke: #A80036; stroke-width: 1.6666666666666667; stroke-dasharray: 7.0,7.0;"/><polygon fill="none" points="4458.1833,635.0731,4429.8667,656.1897,4438.8333,622.0231,4458.1833,635.0731" style="stroke: #A80036; stroke-width: 1.6666666666666667;"/><path d="M4874.8167,192.5564 C4743.2833,223.7231 4580.3167,266.6397 4438.3333,316.7731 C4431.5833,319.1564 4424.75,321.6564 4417.8833,324.2231 " fill="none" style="stroke: #A80036; stroke-width: 1.6666666666666667;"/><polygon fill="#A80036" points="4409.8167,327.2897,4426.2083,328.161,4417.6007,324.3142,4421.4474,315.7066,4409.8167,327.2897" style="stroke: #A80036; stroke-width: 1.6666666666666667;"/><path d="M5071.4833,217.1564 C5040.7,262.4564 5002.2833,318.9564 4972.3,363.0731 " fill="none" style="stroke: #A80036; stroke-width: 1.6666666666666667;"/><polygon fill="#A80036" points="4967.55,370.0564,4981.5073,361.4171,4972.2437,363.1707,4970.4901,353.9071,4967.55,370.0564" style="stroke: #A80036; stroke-width: 1.6666666666666667;"/><path d="M5170.1167,217.1564 C5193.35,257.7231 5221.75,307.2731 5245.5833,348.8564 " fill="none" style="stroke: #A80036; stroke-width: 1.6666666666666667;"/><polygon fill="#A80036" points="5249.9667,356.5231,5248.3013,340.193,5245.8271,349.2906,5236.7294,346.8164,5249.9667,356.5231" style="stroke: #A80036; stroke-width: 1.6666666666666667;"/><path d="M5275.4667,216.9064 C5332.6167,247.3397 5398.05,282.9564 5456.6667,316.7731 C5476.1333,328.0064 5496.5,340.1397 5516.4,352.2397 " fill="none" style="stroke: #A80036; stroke-width: 1.6666666666666667;"/><polygon fill="#A80036" points="5523.7167,356.6731,5514.37,343.1792,5516.5983,352.3402,5507.4374,354.5685,5523.7167,356.6731" style="stroke: #A80036; stroke-width: 1.6666666666666667;"/><path d="M6554.9333,217.1564 C6564.0833,271.4564 6575.95,341.8564 6583.6833,387.7231 " fill="none" style="stroke: #A80036; stroke-width: 1.6666666666666667;"/><polygon fill="#A80036" points="6585.0833,396.0064,6589.1261,380.0973,6583.6786,387.7923,6575.9836,382.3448,6585.0833,396.0064" style="stroke: #A80036; stroke-width: 1.6666666666666667;"/><path d="M6436.05,216.7731 C6385.9833,253.9064 6325.6833,298.6231 6272.7333,337.9064 " fill="none" style="stroke: #A80036; stroke-width: 1.6666666666666667;"/><polygon fill="#A80036" points="6265.65,343.1564,6281.6645,339.5537,6272.3366,338.1831,6273.7072,328.8552,6265.65,343.1564" style="stroke: #A80036; stroke-width: 1.6666666666666667;"/><path d="M6141.6667,177.2231 C6141.6667,210.9731 6141.6667,261.8064 6141.6667,309.4397 " fill="none" style="stroke: #A80036; stroke-width: 1.6666666666666667; stroke-dasharray: 7.0,7.0;"/><polygon fill="none" points="6153.3333,309.9397,6141.6667,343.2731,6130,309.9397,6153.3333,309.9397" style="stroke: #A80036; stroke-width: 1.6666666666666667;"/><path d="M6931.6667,203.5397 C6931.6667,259.3397 6931.6667,338.3397 6931.6667,388.1397 " fill="none" style="stroke: #A80036; stroke-width: 1.6666666666666667;"/><polygon fill="#A80036" points="6931.6667,396.4731,6938.3333,381.4731,6931.6667,388.1397,6925,381.4731,6931.6667,396.4731" style="stroke: #A80036; stroke-width: 1.6666666666666667;"/><path d="M1388.85,203.5397 C1419.95,246.4564 1461.0167,303.1231 1494.7333,349.6564 " fill="none" style="stroke: #A80036; stroke-width: 1.6666666666666667;"/><polygon fill="#A80036" points="1499.6667,356.4397,1496.293,340.3754,1494.7893,349.6828,1485.4819,348.1792,1499.6667,356.4397" style="stroke: #A80036; stroke-width: 1.6666666666666667;"/><path d="M1112.45,158.9897 C915.2333,181.8731 625.6,227.9731 386.6667,316.7731 C361,326.3231 334.8167,338.9731 310.1667,352.4731 " fill="none" style="stroke: #A80036; stroke-width: 1.6666666666666667;"/><polygon fill="#A80036" points="302.5667,356.6897,318.9166,355.2328,309.8513,352.6427,312.4414,343.5774,302.5667,356.6897" style="stroke: #A80036; stroke-width: 1.6666666666666667;"/><path d="M1149.0667,203.5564 C1059.2667,235.3731 951.5167,275.6064 856.6667,316.7731 C822.1833,331.7397 785.6,349.3064 751.8167,366.2564 " fill="none" style="stroke: #A80036; stroke-width: 1.6666666666666667;"/><polygon fill="#A80036" points="744.2,370.0897,760.5959,369.3024,751.644,366.3439,754.6025,357.392,744.2,370.0897" style="stroke: #A80036; stroke-width: 1.6666666666666667;"/><path d="M1294.4833,203.5397 C1266.3167,242.4064 1230,292.5231 1198.35,336.1897 " fill="none" style="stroke: #A80036; stroke-width: 1.6666666666666667;"/><polygon fill="#A80036" points="1193.3167,343.1397,1207.5152,334.9029,1198.2053,336.391,1196.7173,327.0811,1193.3167,343.1397" style="stroke: #A80036; stroke-width: 1.6666666666666667;"/><path d="M1484.8333,203.5064 C1554.9,236.1731 1640.0667,277.1564 1715,316.7731 C1751.5833,336.1064 1791.0333,358.6731 1825.3833,378.8731 " fill="none" style="stroke: #A80036; stroke-width: 1.6666666666666667;"/><polygon fill="#A80036" points="1832.6333,383.1564,1823.096,369.7966,1825.4542,378.925,1816.3258,381.2832,1832.6333,383.1564" style="stroke: #A80036; stroke-width: 1.6666666666666667;"/><path d="M1570.8667,166.0397 C1709.8333,182.1897 1890.8,202.2064 2051.6667,216.7731 C2678.8167,273.5397 2859.35,144.3231 3465,316.7731 C3495.2667,325.3897 3526.1167,338.3897 3554.9,352.6564 " fill="none" style="stroke: #A80036; stroke-width: 1.6666666666666667;"/><polygon fill="#A80036" points="3562.95,356.7064,3552.5312,344.022,3555.5012,352.9701,3546.5531,355.9401,3562.95,356.7064" style="stroke: #A80036; stroke-width: 1.6666666666666667;"/><path d="M2233.5667,216.7731 C2160.3833,267.4564 2066.7833,332.2897 2000.65,378.0897 " fill="none" style="stroke: #A80036; stroke-width: 1.6666666666666667;"/><polygon fill="#A80036" points="1993.5333,383.0231,2009.6587,379.9545,2000.3815,378.2747,2002.0613,368.9974,1993.5333,383.0231" style="stroke: #A80036; stroke-width: 1.6666666666666667;"/><path d="M2613.2167,210.9897 C2622.8,213.0397 2632.3,214.9731 2641.6667,216.7731 C3003.6333,286.4564 3113.1167,206.9564 3465,316.7731 C3494.2667,325.9064 3524.2167,338.8064 3552.3333,352.7397 " fill="none" style="stroke: #A80036; stroke-width: 1.6666666666666667;"/><polygon fill="#A80036" points="3560.2,356.6897,3549.7812,344.0054,3552.7512,352.9534,3543.8031,355.9234,3560.2,356.6897" style="stroke: #A80036; stroke-width: 1.6666666666666667;"/><path d="M2448.3167,216.7731 C2496.5167,253.9064 2554.55,298.6231 2605.5167,337.9064 " fill="none" style="stroke: #A80036; stroke-width: 1.6666666666666667;"/><polygon fill="#A80036" points="2612.3333,343.1564,2604.5389,328.7103,2605.7388,338.0617,2596.3873,339.2616,2612.3333,343.1564" style="stroke: #A80036; stroke-width: 1.6666666666666667;"/><path d="M2080.55,190.6231 C1964.65,219.0897 1829.45,260.2897 1715,316.7731 C1695.4333,326.4231 1675.8333,338.5897 1657.4,351.4064 " fill="none" style="stroke: #A80036; stroke-width: 1.6666666666666667;"/><polygon fill="#A80036" points="1650.1333,356.5397,1666.2315,353.3315,1656.9401,351.7322,1658.5394,342.4407,1650.1333,356.5397" style="stroke: #A80036; stroke-width: 1.6666666666666667;"/><path d="M2346.6667,217.1564 C2346.6667,257.3897 2346.6667,306.4397 2346.6667,347.8231 " fill="none" style="stroke: #A80036; stroke-width: 1.6666666666666667;"/><polygon fill="#A80036" points="2346.6667,356.5231,2353.3762,341.5422,2346.6905,348.1898,2340.0429,341.5041,2346.6667,356.5231" style="stroke: #A80036; stroke-width: 1.6666666666666667;"/><path d="M2613.1167,211.5064 C2622.7333,213.4064 2632.2667,215.1731 2641.6667,216.7731 C3200.5167,312.1397 3364.0833,176.2897 3913.3333,316.7731 C3920.8167,318.6897 3928.3667,320.8064 3935.9333,323.0897 " fill="none" style="stroke: #A80036; stroke-width: 1.6666666666666667;"/><polygon fill="#A80036" points="3944.1333,325.6231,3931.764,314.8321,3936.1701,323.1673,3927.8348,327.5733,3944.1333,325.6231" style="stroke: #A80036; stroke-width: 1.6666666666666667;"/><path d="M4123.7,176.9231 C4054.8667,217.8897 3943.3167,284.3064 3850.5667,339.5064 " fill="none" style="stroke: #A80036; stroke-width: 1.6666666666666667; stroke-dasharray: 7.0,7.0;"/><polygon fill="none" points="3856.45,349.5897,3821.8333,356.6231,3844.5167,329.5397,3856.45,349.5897" style="stroke: #A80036; stroke-width: 1.6666666666666667;"/><path d="M4443.1667,177.1564 C4415.75,191.1064 4383.6667,206.0564 4353.3333,216.7731 C4164.9333,283.3731 4102.4167,247.4564 3915,316.7731 C3895.4333,324.0064 3875.4333,332.6064 3855.8167,341.8064 " fill="none" style="stroke: #A80036; stroke-width: 1.6666666666666667; stroke-dasharray: 7.0,7.0;"/><polygon fill="none" points="3860.5,352.5064,3825.4333,356.6731,3850.25,331.5397,3860.5,352.5064" style="stroke: #A80036; stroke-width: 1.6666666666666667;"/><path d="M3301.2667,176.9231 C3362.4333,217.5397 3461.2333,283.1564 3543.9167,338.0731 " fill="none" style="stroke: #A80036; stroke-width: 1.6666666666666667; stroke-dasharray: 7.0,7.0;"/><polygon fill="none" points="3550.5167,328.4564,3571.8333,356.6231,3537.6167,347.8897,3550.5167,328.4564" style="stroke: #A80036; stroke-width: 1.6666666666666667;"/><path d="M3592.9333,177.2231 C3606.9667,214.5064 3628.85,272.6564 3648.2833,324.2897 " fill="none" style="stroke: #A80036; stroke-width: 1.6666666666666667; stroke-dasharray: 7.0,7.0;"/><polygon fill="none" points="3659.4667,320.8897,3660.3,356.1897,3637.6333,329.1064,3659.4667,320.8897" style="stroke: #A80036; stroke-width: 1.6666666666666667;"/><path d="M3862.4,177.2231 C3836.8833,215.3897 3796.7667,275.4231 3761.6333,327.9564 " fill="none" style="stroke: #A80036; stroke-width: 1.6666666666666667; stroke-dasharray: 7.0,7.0;"/><polygon fill="none" points="3770.9833,334.9564,3742.7667,356.1897,3751.5833,321.9897,3770.9833,334.9564" style="stroke: #A80036; stroke-width: 1.6666666666666667;"/><rect fill="#DDDDDD" height="192.2659" rx="8.3333" ry="8.3333" style="stroke: #000000; stroke-width: 1.6666666666666667;" width="463.3333" x="6663.3333" y="846.7731"/><text fill="#000000" font-family="Noto Sans CJK SC" font-size="23.3333" font-weight="bold" lengthAdjust="spacingAndGlyphs" textLength="46.6667" x="6678.3333" y="885.5063">颜色</text><text fill="#000000" font-family="Noto Sans CJK SC" font-size="23.3333" font-weight="bold" lengthAdjust="spacingAndGlyphs" textLength="46.6667" x="6735" y="885.5063">含义</text><rect fill="#F3E5F5" height="33.7865" style="stroke: none; stroke-width: 1.6666666666666667;" width="56.6667" x="6673.3333" y="892.2262"/><text fill="#000000" font-family="Noto Sans CJK SC" font-size="23.3333" lengthAdjust="spacingAndGlyphs" textLength="0" x="6678.3333" y="919.2928"/><text fill="#000000" font-family="Noto Sans CJK SC" font-size="23.3333" lengthAdjust="spacingAndGlyphs" textLength="296.6667" x="6735" y="919.2928">业务服务层（Service/接口）</text><rect fill="#E8F5E9" height="33.7865" style="stroke: none; stroke-width: 1.6666666666666667;" width="56.6667" x="6673.3333" y="926.0128"/><text fill="#000000" font-family="Noto Sans CJK SC" font-size="23.3333" lengthAdjust="spacingAndGlyphs" textLength="0" x="6678.3333" y="953.0793"/><text fill="#000000" font-family="Noto Sans CJK SC" font-size="23.3333" lengthAdjust="spacingAndGlyphs" textLength="376.6667" x="6735" y="953.0793">数据访问/存储（Repository/Store）</text><rect fill="#FFF3E0" height="33.7865" style="stroke: none; stroke-width: 1.6666666666666667;" width="56.6667" x="6673.3333" y="959.7993"/><text fill="#000000" font-family="Noto Sans CJK SC" font-size="23.3333" lengthAdjust="spacingAndGlyphs" textLength="0" x="6678.3333" y="986.8658"/><text fill="#000000" font-family="Noto Sans CJK SC" font-size="23.3333" lengthAdjust="spacingAndGlyphs" textLength="260" x="6735" y="986.8658">网络/外部集成（Client）</text><rect fill="#ECEFF1" height="33.7865" style="stroke: none; stroke-width: 1.6666666666666667;" width="56.6667" x="6673.3333" y="993.5858"/><text fill="#000000" font-family="Noto Sans CJK SC" font-size="23.3333" lengthAdjust="spacingAndGlyphs" textLength="0" x="6678.3333" y="1020.6524"/><text fill="#000000" font-family="Noto Sans CJK SC" font-size="23.3333" lengthAdjust="spacingAndGlyphs" textLength="195" x="6735" y="1020.6524">平台插件/系统能力</text><line style="stroke: #000000; stroke-width: 1.6666666666666667;" x1="6673.3333" x2="7116.6667" y1="858.4397" y2="858.4397"/><line style="stroke: #000000; stroke-width: 1.6666666666666667;" x1="6673.3333" x2="7116.6667" y1="892.2262" y2="892.2262"/><line style="stroke: #000000; stroke-width: 1.6666666666666667;" x1="6673.3333" x2="7116.6667" y1="926.0128" y2="926.0128"/><line style="stroke: #000000; stroke-width: 1.6666666666666667;" x1="6673.3333" x2="7116.6667" y1="959.7993" y2="959.7993"/><line style="stroke: #000000; stroke-width: 1.6666666666666667;" x1="6673.3333" x2="7116.6667" y1="993.5858" y2="993.5858"/><line style="stroke: #000000; stroke-width: 1.6666666666666667;" x1="6673.3333" x2="7116.6667" y1="1027.3723" y2="1027.3723"/><line style="stroke: #000000; stroke-width: 1.6666666666666667;" x1="6673.3333" x2="6673.3333" y1="858.4397" y2="1027.3723"/><line style="stroke: #000000; stroke-width: 1.6666666666666667;" x1="6730" x2="6730" y1="858.4397" y2="1027.3723"/><line style="stroke: #000000; stroke-width: 1.6666666666666667;" x1="7116.6667" x2="7116.6667" y1="858.4397" y2="1027.3723"/></g></svg>