<?plantuml 1.2026.1?><svg xmlns="http://www.w3.org/2000/svg" xmlns:xlink="http://www.w3.org/1999/xlink" contentStyleType="text/css" data-diagram-type="CLASS" height="970px" preserveAspectRatio="none" style="width:8980px;height:970px;background:#FFFFFF;" version="1.1" viewBox="0 0 8980 970" width="8980px" zoomAndPan="magnify"><title>life_tools &#20844;&#20849;&#25509;&#21475;&#20851;&#31995;&#22270;&#65288;&#26680;&#24515; Service / Interface&#65289;</title><defs/><g><g class="title" data-source-line="2"><text fill="#000000" font-family="'Noto Sans CJK SC'" font-size="23.3333" font-weight="bold" lengthAdjust="spacing" textLength="530.1156" x="4218.2756" y="38.3252">life_tools &#20844;&#20849;&#25509;&#21475;&#20851;&#31995;&#22270;&#65288;&#26680;&#24515; Service / Interface&#65289;</text></g><!--class ToolSyncProvider--><g class="entity" data-qualified-name="ToolSyncProvider" data-source-line="21" id="ent0002"><rect fill="#F3E5F5" height="161.4844" rx="4.1667" ry="4.1667" style="stroke:#6A1B9A;stroke-width:0.8333;" width="541.3086" x="4430" y="344.6615"/><ellipse cx="4592.3136" cy="371.3281" fill="#B4A7E5" rx="18.3333" ry="18.3333" style="stroke:#181818;stroke-width:1.6667;"/><path d="M4585.5168,364.2708 L4585.5168,360.6771 L4597.8345,360.6771 L4597.8345,364.2708 L4593.7199,364.2708 L4593.7199,377.7344 L4597.8345,377.7344 L4597.8345,381.3281 L4585.5168,381.3281 L4585.5168,377.7344 L4589.6313,377.7344 L4589.6313,364.2708 L4585.5168,364.2708 Z " fill="#000000"/><text fill="#000000" font-family="'Noto Sans CJK SC'" font-size="23.3333" font-style="italic" lengthAdjust="spacing" textLength="202.5146" x="4626.4803" y="379.4059">ToolSyncProvider</text><line style="stroke:#6A1B9A;stroke-width:0.8333;" x1="4431.6667" x2="4969.6419" y1="397.9948" y2="397.9948"/><text fill="#000000" font-family="'Noto Sans CJK SC'" font-size="23.3333" lengthAdjust="spacing" textLength="170.3402" x="4440" y="426.32">+toolId: String</text><line style="stroke:#6A1B9A;stroke-width:0.8333;" x1="4431.6667" x2="4969.6419" y1="438.4896" y2="438.4896"/><text fill="#000000" font-family="'Noto Sans CJK SC'" font-size="23.3333" lengthAdjust="spacing" textLength="349.1797" x="4440" y="466.8148">+exportData(): Future&lt;Map&gt;</text><text fill="#000000" font-family="'Noto Sans CJK SC'" font-size="23.3333" lengthAdjust="spacing" textLength="521.3086" x="4440" y="493.9762">+importData(snapshot: Map): Future&lt;void&gt;</text></g><!--class AppNotificationService--><g class="entity" data-qualified-name="AppNotificationService" data-source-line="27" id="ent0003"><rect fill="#ECEFF1" height="188.6458" rx="4.1667" ry="4.1667" style="stroke:#455A64;stroke-width:0.8333;" width="758.0534" x="7370" y="331.3281"/><ellipse cx="7609.0926" cy="357.9948" fill="#B4A7E5" rx="18.3333" ry="18.3333" style="stroke:#181818;stroke-width:1.6667;"/><path d="M7602.2957,350.9375 L7602.2957,347.3438 L7614.6134,347.3438 L7614.6134,350.9375 L7610.4989,350.9375 L7610.4989,364.401 L7614.6134,364.401 L7614.6134,367.9948 L7602.2957,367.9948 L7602.2957,364.401 L7606.4103,364.401 L7606.4103,350.9375 L7602.2957,350.9375 Z " fill="#000000"/><text fill="#000000" font-family="'Noto Sans CJK SC'" font-size="23.3333" font-style="italic" lengthAdjust="spacing" textLength="265.7015" x="7643.2593" y="366.0726">AppNotificationService</text><line style="stroke:#455A64;stroke-width:0.8333;" x1="7371.6667" x2="8126.3867" y1="384.6615" y2="384.6615"/><line style="stroke:#455A64;stroke-width:0.8333;" x1="7371.6667" x2="8126.3867" y1="397.9948" y2="397.9948"/><text fill="#000000" font-family="'Noto Sans CJK SC'" font-size="23.3333" lengthAdjust="spacing" textLength="254.5133" x="7380" y="426.32">+init(): Future&lt;void&gt;</text><text fill="#000000" font-family="'Noto Sans CJK SC'" font-size="23.3333" lengthAdjust="spacing" textLength="498.3398" x="7380" y="453.4814">+showMessage(title, body): Future&lt;void&gt;</text><text fill="#000000" font-family="'Noto Sans CJK SC'" font-size="23.3333" lengthAdjust="spacing" textLength="738.0534" x="7380" y="480.6429">+scheduleMessage(id, title, body, scheduledAt): Future&lt;void&gt;</text><text fill="#000000" font-family="'Noto Sans CJK SC'" font-size="23.3333" lengthAdjust="spacing" textLength="314.4873" x="7380" y="507.8044">+cancel(id): Future&lt;void&gt;</text></g><!--class SecretStore--><g class="entity" data-qualified-name="SecretStore" data-source-line="34" id="ent0004"><rect fill="#E8F5E9" height="161.4844" rx="4.1667" ry="4.1667" style="stroke:#2E7D32;stroke-width:0.8333;" width="416.5186" x="5349.1667" y="607.1615"/><ellipse cx="5481.7041" cy="633.8281" fill="#B4A7E5" rx="18.3333" ry="18.3333" style="stroke:#181818;stroke-width:1.6667;"/><path d="M5474.9072,626.7708 L5474.9072,623.1771 L5487.2249,623.1771 L5487.2249,626.7708 L5483.1104,626.7708 L5483.1104,640.2344 L5487.2249,640.2344 L5487.2249,643.8281 L5474.9072,643.8281 L5474.9072,640.2344 L5479.0218,640.2344 L5479.0218,626.7708 L5474.9072,626.7708 Z " fill="#000000"/><text fill="#000000" font-family="'Noto Sans CJK SC'" font-size="23.3333" font-style="italic" lengthAdjust="spacing" textLength="137.277" x="5515.8708" y="641.9059">SecretStore</text><line style="stroke:#2E7D32;stroke-width:0.8333;" x1="5350.8333" x2="5764.0186" y1="660.4948" y2="660.4948"/><line style="stroke:#2E7D32;stroke-width:0.8333;" x1="5350.8333" x2="5764.0186" y1="673.8281" y2="673.8281"/><text fill="#000000" font-family="'Noto Sans CJK SC'" font-size="23.3333" lengthAdjust="spacing" textLength="396.5186" x="5359.1667" y="702.1533">+write(key, value): Future&lt;void&gt;</text><text fill="#000000" font-family="'Noto Sans CJK SC'" font-size="23.3333" lengthAdjust="spacing" textLength="344.987" x="5359.1667" y="729.3148">+read(key): Future&lt;String?&gt;</text><text fill="#000000" font-family="'Noto Sans CJK SC'" font-size="23.3333" lengthAdjust="spacing" textLength="332.7962" x="5359.1667" y="756.4762">+delete(key): Future&lt;void&gt;</text></g><!--class AiConfigService--><g class="entity" data-qualified-name="AiConfigService" data-source-line="40" id="ent0005"><rect fill="#F3E5F5" height="188.6458" rx="4.1667" ry="4.1667" style="stroke:#6A1B9A;stroke-width:0.8333;" width="363.6312" x="3295.8333" y="331.3281"/><ellipse cx="3378.7931" cy="357.9948" fill="#ADD1B2" rx="18.3333" ry="18.3333" style="stroke:#181818;stroke-width:1.6667;"/><path d="M3383.741,367.3958 Q3382.7775,367.8906 3381.7098,368.125 Q3380.6421,368.3854 3379.4702,368.3854 Q3375.3035,368.3854 3373.09,365.651 Q3370.9025,362.8906 3370.9025,357.6823 Q3370.9025,352.474 3373.09,349.7135 Q3375.3035,346.9531 3379.4702,346.9531 Q3380.6421,346.9531 3381.7098,347.2135 Q3382.8035,347.474 3383.741,347.9688 L3383.741,352.5 Q3382.6994,351.5365 3381.7098,351.0938 Q3380.7202,350.625 3379.6785,350.625 Q3377.439,350.625 3376.2931,352.4219 Q3375.1473,354.1927 3375.1473,357.6823 Q3375.1473,361.1719 3376.2931,362.9688 Q3377.439,364.7396 3379.6785,364.7396 Q3380.7202,364.7396 3381.7098,364.2969 Q3382.6994,363.8281 3383.741,362.8646 L3383.741,367.3958 Z " fill="#000000"/><text fill="#000000" font-family="'Noto Sans CJK SC'" font-size="23.3333" lengthAdjust="spacing" textLength="183.5449" x="3412.9598" y="366.0726">AiConfigService</text><line style="stroke:#6A1B9A;stroke-width:0.8333;" x1="3297.5" x2="3657.7979" y1="384.6615" y2="384.6615"/><text fill="#000000" font-family="'Noto Sans CJK SC'" font-size="23.3333" lengthAdjust="spacing" textLength="215.9245" x="3305.8333" y="412.9867">+config: AiConfig?</text><line style="stroke:#6A1B9A;stroke-width:0.8333;" x1="3297.5" x2="3657.7979" y1="425.1563" y2="425.1563"/><text fill="#000000" font-family="'Noto Sans CJK SC'" font-size="23.3333" lengthAdjust="spacing" textLength="254.5133" x="3305.8333" y="453.4814">+init(): Future&lt;void&gt;</text><text fill="#000000" font-family="'Noto Sans CJK SC'" font-size="23.3333" lengthAdjust="spacing" textLength="343.6312" x="3305.8333" y="480.6429">+save(config): Future&lt;void&gt;</text><text fill="#000000" font-family="'Noto Sans CJK SC'" font-size="23.3333" lengthAdjust="spacing" textLength="275.1693" x="3305.8333" y="507.8044">+clear(): Future&lt;void&gt;</text></g><!--class OpenAiClient--><g class="entity" data-qualified-name="OpenAiClient" data-source-line="47" id="ent0006"><rect fill="#FFF3E0" height="107.1615" rx="4.1667" ry="4.1667" style="stroke:#EF6C00;stroke-width:0.8333;" width="710.6576" x="3689.1667" y="372.1615"/><ellipse cx="3961.2541" cy="398.8281" fill="#ADD1B2" rx="18.3333" ry="18.3333" style="stroke:#181818;stroke-width:1.6667;"/><path d="M3966.202,408.2292 Q3965.2384,408.724 3964.1707,408.9583 Q3963.103,409.2188 3961.9312,409.2188 Q3957.7645,409.2188 3955.5509,406.4844 Q3953.3634,403.724 3953.3634,398.5156 Q3953.3634,393.3073 3955.5509,390.5469 Q3957.7645,387.7865 3961.9312,387.7865 Q3963.103,387.7865 3964.1707,388.0469 Q3965.2645,388.3073 3966.202,388.8021 L3966.202,393.3333 Q3965.1603,392.3698 3964.1707,391.9271 Q3963.1812,391.4583 3962.1395,391.4583 Q3959.8999,391.4583 3958.7541,393.2552 Q3957.6082,395.026 3957.6082,398.5156 Q3957.6082,402.0052 3958.7541,403.8021 Q3959.8999,405.5729 3962.1395,405.5729 Q3963.1812,405.5729 3964.1707,405.1302 Q3965.1603,404.6615 3966.202,403.6979 L3966.202,408.2292 Z " fill="#000000"/><text fill="#000000" font-family="'Noto Sans CJK SC'" font-size="23.3333" lengthAdjust="spacing" textLength="152.3161" x="3995.4207" y="406.9059">OpenAiClient</text><line style="stroke:#EF6C00;stroke-width:0.8333;" x1="3690.8333" x2="4398.1576" y1="425.4948" y2="425.4948"/><line style="stroke:#EF6C00;stroke-width:0.8333;" x1="3690.8333" x2="4398.1576" y1="438.8281" y2="438.8281"/><text fill="#000000" font-family="'Noto Sans CJK SC'" font-size="23.3333" lengthAdjust="spacing" textLength="690.6576" x="3699.1667" y="467.1533">+chatCompletions(config, request): Future&lt;AiChatResult&gt;</text></g><!--class AiService--><g class="entity" data-qualified-name="AiService" data-source-line="51" id="ent0007"><rect fill="#F3E5F5" height="134.3229" rx="4.1667" ry="4.1667" style="stroke:#6A1B9A;stroke-width:0.8333;" width="543.5189" x="3390.8333" y="95.4948"/><ellipse cx="3601.1694" cy="122.1615" fill="#ADD1B2" rx="18.3333" ry="18.3333" style="stroke:#181818;stroke-width:1.6667;"/><path d="M3606.1174,131.5625 Q3605.1538,132.0573 3604.0861,132.2917 Q3603.0184,132.5521 3601.8465,132.5521 Q3597.6799,132.5521 3595.4663,129.8177 Q3593.2788,127.0573 3593.2788,121.849 Q3593.2788,116.6406 3595.4663,113.8802 Q3597.6799,111.1198 3601.8465,111.1198 Q3603.0184,111.1198 3604.0861,111.3802 Q3605.1799,111.6406 3606.1174,112.1354 L3606.1174,116.6667 Q3605.0757,115.7031 3604.0861,115.2604 Q3603.0965,114.7917 3602.0549,114.7917 Q3599.8153,114.7917 3598.6694,116.5885 Q3597.5236,118.3594 3597.5236,121.849 Q3597.5236,125.3385 3598.6694,127.1354 Q3599.8153,128.9063 3602.0549,128.9063 Q3603.0965,128.9063 3604.0861,128.4635 Q3605.0757,127.9948 3606.1174,127.0313 L3606.1174,131.5625 Z " fill="#000000"/><text fill="#000000" font-family="'Noto Sans CJK SC'" font-size="23.3333" lengthAdjust="spacing" textLength="108.68" x="3635.3361" y="130.2393">AiService</text><line style="stroke:#6A1B9A;stroke-width:0.8333;" x1="3392.5" x2="3932.6855" y1="148.8281" y2="148.8281"/><line style="stroke:#6A1B9A;stroke-width:0.8333;" x1="3392.5" x2="3932.6855" y1="162.1615" y2="162.1615"/><text fill="#000000" font-family="'Noto Sans CJK SC'" font-size="23.3333" lengthAdjust="spacing" textLength="523.5189" x="3400.8333" y="190.4867">+chat(messages, ...): Future&lt;AiChatResult&gt;</text><text fill="#000000" font-family="'Noto Sans CJK SC'" font-size="23.3333" lengthAdjust="spacing" textLength="462.9525" x="3400.8333" y="217.6481">+chatText(prompt, ...): Future&lt;String&gt;</text></g><!--class ObjStoreConfigService--><g class="entity" data-qualified-name="ObjStoreConfigService" data-source-line="56" id="ent0008"><rect fill="#F3E5F5" height="242.9688" rx="4.1667" ry="4.1667" style="stroke:#6A1B9A;stroke-width:0.8333;" width="638.1966" x="5001.6667" y="303.8281"/><ellipse cx="5182.2095" cy="330.4948" fill="#ADD1B2" rx="18.3333" ry="18.3333" style="stroke:#181818;stroke-width:1.6667;"/><path d="M5187.1574,339.8958 Q5186.1938,340.3906 5185.1261,340.625 Q5184.0584,340.8854 5182.8866,340.8854 Q5178.7199,340.8854 5176.5063,338.151 Q5174.3188,335.3906 5174.3188,330.1823 Q5174.3188,324.974 5176.5063,322.2135 Q5178.7199,319.4531 5182.8866,319.4531 Q5184.0584,319.4531 5185.1261,319.7135 Q5186.2199,319.974 5187.1574,320.4688 L5187.1574,325 Q5186.1157,324.0365 5185.1261,323.5938 Q5184.1366,323.125 5183.0949,323.125 Q5180.8553,323.125 5179.7095,324.9219 Q5178.5636,326.6927 5178.5636,330.1823 Q5178.5636,333.6719 5179.7095,335.4688 Q5180.8553,337.2396 5183.0949,337.2396 Q5184.1366,337.2396 5185.1261,336.7969 Q5186.1157,336.3281 5187.1574,335.3646 L5187.1574,339.8958 Z " fill="#000000"/><text fill="#000000" font-family="'Noto Sans CJK SC'" font-size="23.3333" lengthAdjust="spacing" textLength="262.9443" x="5216.3761" y="338.5726">ObjStoreConfigService</text><line style="stroke:#6A1B9A;stroke-width:0.8333;" x1="5003.3333" x2="5638.1966" y1="357.1615" y2="357.1615"/><text fill="#000000" font-family="'Noto Sans CJK SC'" font-size="23.3333" lengthAdjust="spacing" textLength="295.3239" x="5011.6667" y="385.4867">+config: ObjStoreConfig?</text><text fill="#000000" font-family="'Noto Sans CJK SC'" font-size="23.3333" lengthAdjust="spacing" textLength="441.818" x="5011.6667" y="412.6481">+qiniuSecrets: ObjStoreQiniuSecrets?</text><text fill="#000000" font-family="'Noto Sans CJK SC'" font-size="23.3333" lengthAdjust="spacing" textLength="618.1966" x="5011.6667" y="439.8096">+dataCapsuleSecrets: ObjStoreDataCapsuleSecrets?</text><line style="stroke:#6A1B9A;stroke-width:0.8333;" x1="5003.3333" x2="5638.1966" y1="451.9792" y2="451.9792"/><text fill="#000000" font-family="'Noto Sans CJK SC'" font-size="23.3333" lengthAdjust="spacing" textLength="254.5133" x="5011.6667" y="480.3044">+init(): Future&lt;void&gt;</text><text fill="#000000" font-family="'Noto Sans CJK SC'" font-size="23.3333" lengthAdjust="spacing" textLength="380.7161" x="5011.6667" y="507.4658">+save(config, ...): Future&lt;void&gt;</text><text fill="#000000" font-family="'Noto Sans CJK SC'" font-size="23.3333" lengthAdjust="spacing" textLength="275.1693" x="5011.6667" y="534.6273">+clear(): Future&lt;void&gt;</text></g><!--class PrefsSecretStore--><g class="entity" data-qualified-name="PrefsSecretStore" data-source-line="65" id="ent0009"><rect fill="#E8F5E9" height="80" rx="4.1667" ry="4.1667" style="stroke:#2E7D32;stroke-width:0.8333;" width="249.0007" x="5670" y="385.4948"/><ellipse cx="5695" cy="412.1615" fill="#ADD1B2" rx="18.3333" ry="18.3333" style="stroke:#181818;stroke-width:1.6667;"/><path d="M5699.9479,421.5625 Q5698.9844,422.0573 5697.9167,422.2917 Q5696.849,422.5521 5695.6771,422.5521 Q5691.5104,422.5521 5689.2969,419.8177 Q5687.1094,417.0573 5687.1094,411.849 Q5687.1094,406.6406 5689.2969,403.8802 Q5691.5104,401.1198 5695.6771,401.1198 Q5696.849,401.1198 5697.9167,401.3802 Q5699.0104,401.6406 5699.9479,402.1354 L5699.9479,406.6667 Q5698.9063,405.7031 5697.9167,405.2604 Q5696.9271,404.7917 5695.8854,404.7917 Q5693.6458,404.7917 5692.5,406.5885 Q5691.3542,408.3594 5691.3542,411.849 Q5691.3542,415.3385 5692.5,417.1354 Q5693.6458,418.9063 5695.8854,418.9063 Q5696.9271,418.9063 5697.9167,418.4635 Q5698.9063,417.9948 5699.9479,417.0313 L5699.9479,421.5625 Z " fill="#000000"/><text fill="#000000" font-family="'Noto Sans CJK SC'" font-size="23.3333" lengthAdjust="spacing" textLength="195.6673" x="5718.3333" y="420.2393">PrefsSecretStore</text><line style="stroke:#2E7D32;stroke-width:0.8333;" x1="5671.6667" x2="5917.334" y1="438.8281" y2="438.8281"/><line style="stroke:#2E7D32;stroke-width:0.8333;" x1="5671.6667" x2="5917.334" y1="452.1615" y2="452.1615"/></g><!--class LocalObjStore--><g class="entity" data-qualified-name="LocalObjStore" data-source-line="67" id="ent0010"><rect fill="#E8F5E9" height="134.3229" rx="4.1667" ry="4.1667" style="stroke:#2E7D32;stroke-width:0.8333;" width="511.4014" x="5948.3333" y="357.9948"/><ellipse cx="6115.5859" cy="384.6615" fill="#ADD1B2" rx="18.3333" ry="18.3333" style="stroke:#181818;stroke-width:1.6667;"/><path d="M6120.5339,394.0625 Q6119.5703,394.5573 6118.5026,394.7917 Q6117.4349,395.0521 6116.263,395.0521 Q6112.0964,395.0521 6109.8828,392.3177 Q6107.6953,389.5573 6107.6953,384.349 Q6107.6953,379.1406 6109.8828,376.3802 Q6112.0964,373.6198 6116.263,373.6198 Q6117.4349,373.6198 6118.5026,373.8802 Q6119.5964,374.1406 6120.5339,374.6354 L6120.5339,379.1667 Q6119.4922,378.2031 6118.5026,377.7604 Q6117.513,377.2917 6116.4714,377.2917 Q6114.2318,377.2917 6113.0859,379.0885 Q6111.9401,380.8594 6111.9401,384.349 Q6111.9401,387.8385 6113.0859,389.6354 Q6114.2318,391.4063 6116.4714,391.4063 Q6117.513,391.4063 6118.5026,390.9635 Q6119.4922,390.4948 6120.5339,389.5313 L6120.5339,394.0625 Z " fill="#000000"/><text fill="#000000" font-family="'Noto Sans CJK SC'" font-size="23.3333" lengthAdjust="spacing" textLength="162.7295" x="6149.7526" y="392.7393">LocalObjStore</text><line style="stroke:#2E7D32;stroke-width:0.8333;" x1="5950" x2="6458.068" y1="411.3281" y2="411.3281"/><line style="stroke:#2E7D32;stroke-width:0.8333;" x1="5950" x2="6458.068" y1="424.6615" y2="424.6615"/><text fill="#000000" font-family="'Noto Sans CJK SC'" font-size="23.3333" lengthAdjust="spacing" textLength="491.4014" x="5958.3333" y="452.9867">+saveBytes(bytes, filename): Future&lt;...&gt;</text><text fill="#000000" font-family="'Noto Sans CJK SC'" font-size="23.3333" lengthAdjust="spacing" textLength="410.1107" x="5958.3333" y="480.1481">+resolveUri(key): Future&lt;String?&gt;</text></g><!--class QiniuClient--><g class="entity" data-qualified-name="QiniuClient" data-source-line="72" id="ent0011"><rect fill="#FFF3E0" height="161.4844" rx="4.1667" ry="4.1667" style="stroke:#EF6C00;stroke-width:0.8333;" width="377.679" x="6490" y="344.6615"/><ellipse cx="6607.5269" cy="371.3281" fill="#ADD1B2" rx="18.3333" ry="18.3333" style="stroke:#181818;stroke-width:1.6667;"/><path d="M6612.4748,380.7292 Q6611.5112,381.224 6610.4435,381.4583 Q6609.3758,381.7188 6608.2039,381.7188 Q6604.0373,381.7188 6601.8237,378.9844 Q6599.6362,376.224 6599.6362,371.0156 Q6599.6362,365.8073 6601.8237,363.0469 Q6604.0373,360.2865 6608.2039,360.2865 Q6609.3758,360.2865 6610.4435,360.5469 Q6611.5373,360.8073 6612.4748,361.3021 L6612.4748,365.8333 Q6611.4331,364.8698 6610.4435,364.4271 Q6609.4539,363.9583 6608.4123,363.9583 Q6606.1727,363.9583 6605.0269,365.7552 Q6603.881,367.526 6603.881,371.0156 Q6603.881,374.5052 6605.0269,376.3021 Q6606.1727,378.0729 6608.4123,378.0729 Q6609.4539,378.0729 6610.4435,377.6302 Q6611.4331,377.1615 6612.4748,376.1979 L6612.4748,380.7292 Z " fill="#000000"/><text fill="#000000" font-family="'Noto Sans CJK SC'" font-size="23.3333" lengthAdjust="spacing" textLength="128.4587" x="6641.6935" y="379.4059">QiniuClient</text><line style="stroke:#EF6C00;stroke-width:0.8333;" x1="6491.6667" x2="6866.0124" y1="397.9948" y2="397.9948"/><line style="stroke:#EF6C00;stroke-width:0.8333;" x1="6491.6667" x2="6866.0124" y1="411.3281" y2="411.3281"/><text fill="#000000" font-family="'Noto Sans CJK SC'" font-size="23.3333" lengthAdjust="spacing" textLength="357.679" x="6500" y="439.6533">+uploadBytes(...): Future&lt;...&gt;</text><text fill="#000000" font-family="'Noto Sans CJK SC'" font-size="23.3333" lengthAdjust="spacing" textLength="304.917" x="6500" y="466.8148">+buildPublicUrl(...): String</text><text fill="#000000" font-family="'Noto Sans CJK SC'" font-size="23.3333" lengthAdjust="spacing" textLength="317.2103" x="6500" y="493.9762">+buildPrivateUrl(...): String</text></g><!--class DataCapsuleClient--><g class="entity" data-qualified-name="DataCapsuleClient" data-source-line="78" id="ent0012"><rect fill="#FFF3E0" height="161.4844" rx="4.1667" ry="4.1667" style="stroke:#EF6C00;stroke-width:0.8333;" width="439.4076" x="6899.1667" y="344.6615"/><ellipse cx="7003.5628" cy="371.3281" fill="#ADD1B2" rx="18.3333" ry="18.3333" style="stroke:#181818;stroke-width:1.6667;"/><path d="M7008.5107,380.7292 Q7007.5472,381.224 7006.4795,381.4583 Q7005.4118,381.7188 7004.2399,381.7188 Q7000.0732,381.7188 6997.8597,378.9844 Q6995.6722,376.224 6995.6722,371.0156 Q6995.6722,365.8073 6997.8597,363.0469 Q7000.0732,360.2865 7004.2399,360.2865 Q7005.4118,360.2865 7006.4795,360.5469 Q7007.5732,360.8073 7008.5107,361.3021 L7008.5107,365.8333 Q7007.4691,364.8698 7006.4795,364.4271 Q7005.4899,363.9583 7004.4482,363.9583 Q7002.2087,363.9583 7001.0628,365.7552 Q6999.917,367.526 6999.917,371.0156 Q6999.917,374.5052 7001.0628,376.3021 Q7002.2087,378.0729 7004.4482,378.0729 Q7005.4899,378.0729 7006.4795,377.6302 Q7007.4691,377.1615 7008.5107,376.1979 L7008.5107,380.7292 Z " fill="#000000"/><text fill="#000000" font-family="'Noto Sans CJK SC'" font-size="23.3333" lengthAdjust="spacing" textLength="216.4486" x="7037.7295" y="379.4059">DataCapsuleClient</text><line style="stroke:#EF6C00;stroke-width:0.8333;" x1="6900.8333" x2="7336.9076" y1="397.9948" y2="397.9948"/><line style="stroke:#EF6C00;stroke-width:0.8333;" x1="6900.8333" x2="7336.9076" y1="411.3281" y2="411.3281"/><text fill="#000000" font-family="'Noto Sans CJK SC'" font-size="23.3333" lengthAdjust="spacing" textLength="354.6029" x="6909.1667" y="439.6533">+putObject(...): Future&lt;void&gt;</text><text fill="#000000" font-family="'Noto Sans CJK SC'" font-size="23.3333" lengthAdjust="spacing" textLength="358.7956" x="6909.1667" y="466.8148">+buildPrivateGetUrl(...): String</text><text fill="#000000" font-family="'Noto Sans CJK SC'" font-size="23.3333" lengthAdjust="spacing" textLength="419.4076" x="6909.1667" y="493.9762">+probePublicUrl(url): Future&lt;bool&gt;</text></g><!--class ObjStoreService--><g class="entity" data-qualified-name="ObjStoreService" data-source-line="84" id="ent0013"><rect fill="#F3E5F5" height="161.4844" rx="4.1667" ry="4.1667" style="stroke:#6A1B9A;stroke-width:0.8333;" width="691.8359" x="6095" y="82.1615"/><ellipse cx="6339.7949" cy="108.8281" fill="#ADD1B2" rx="18.3333" ry="18.3333" style="stroke:#181818;stroke-width:1.6667;"/><path d="M6344.7428,118.2292 Q6343.7793,118.724 6342.7116,118.9583 Q6341.6439,119.2188 6340.472,119.2188 Q6336.3053,119.2188 6334.0918,116.4844 Q6331.9043,113.724 6331.9043,108.5156 Q6331.9043,103.3073 6334.0918,100.5469 Q6336.3053,97.7865 6340.472,97.7865 Q6341.6439,97.7865 6342.7116,98.0469 Q6343.8053,98.3073 6344.7428,98.8021 L6344.7428,103.3333 Q6343.7012,102.3698 6342.7116,101.9271 Q6341.722,101.4583 6340.6803,101.4583 Q6338.4408,101.4583 6337.2949,103.2552 Q6336.1491,105.026 6336.1491,108.5156 Q6336.1491,112.0052 6337.2949,113.8021 Q6338.4408,115.5729 6340.6803,115.5729 Q6341.722,115.5729 6342.7116,115.1302 Q6343.7012,114.6615 6344.7428,113.6979 L6344.7428,118.2292 Z " fill="#000000"/><text fill="#000000" font-family="'Noto Sans CJK SC'" font-size="23.3333" lengthAdjust="spacing" textLength="188.0794" x="6373.9616" y="116.9059">ObjStoreService</text><line style="stroke:#6A1B9A;stroke-width:0.8333;" x1="6096.6667" x2="6785.1693" y1="135.4948" y2="135.4948"/><line style="stroke:#6A1B9A;stroke-width:0.8333;" x1="6096.6667" x2="6785.1693" y1="148.8281" y2="148.8281"/><text fill="#000000" font-family="'Noto Sans CJK SC'" font-size="23.3333" lengthAdjust="spacing" textLength="671.8359" x="6105" y="177.1533">+uploadBytes(bytes, filename): Future&lt;ObjStoreObject&gt;</text><text fill="#000000" font-family="'Noto Sans CJK SC'" font-size="23.3333" lengthAdjust="spacing" textLength="397.7262" x="6105" y="204.3148">+resolveUri(key): Future&lt;String&gt;</text><text fill="#000000" font-family="'Noto Sans CJK SC'" font-size="23.3333" lengthAdjust="spacing" textLength="508.2747" x="6105" y="231.4762">+ensureCachedFile(key, ...): Future&lt;File?&gt;</text></g><!--class SyncConfigService--><g class="entity" data-qualified-name="SyncConfigService" data-source-line="90" id="ent0014"><rect fill="#F3E5F5" height="161.4844" rx="4.1667" ry="4.1667" style="stroke:#6A1B9A;stroke-width:0.8333;" width="363.6312" x="1812.5" y="344.6615"/><ellipse cx="1879.3323" cy="371.3281" fill="#ADD1B2" rx="18.3333" ry="18.3333" style="stroke:#181818;stroke-width:1.6667;"/><path d="M1884.2802,380.7292 Q1883.3167,381.224 1882.2489,381.4583 Q1881.1812,381.7188 1880.0094,381.7188 Q1875.8427,381.7188 1873.6292,378.9844 Q1871.4417,376.224 1871.4417,371.0156 Q1871.4417,365.8073 1873.6292,363.0469 Q1875.8427,360.2865 1880.0094,360.2865 Q1881.1812,360.2865 1882.2489,360.5469 Q1883.3427,360.8073 1884.2802,361.3021 L1884.2802,365.8333 Q1883.2385,364.8698 1882.2489,364.4271 Q1881.2594,363.9583 1880.2177,363.9583 Q1877.9781,363.9583 1876.8323,365.7552 Q1875.6864,367.526 1875.6864,371.0156 Q1875.6864,374.5052 1876.8323,376.3021 Q1877.9781,378.0729 1880.2177,378.0729 Q1881.2594,378.0729 1882.2489,377.6302 Q1883.2385,377.1615 1884.2802,376.1979 L1884.2802,380.7292 Z " fill="#000000"/><text fill="#000000" font-family="'Noto Sans CJK SC'" font-size="23.3333" lengthAdjust="spacing" textLength="217.3372" x="1911.9617" y="379.4059">SyncConfigService</text><line style="stroke:#6A1B9A;stroke-width:0.8333;" x1="1814.1667" x2="2174.4645" y1="397.9948" y2="397.9948"/><text fill="#000000" font-family="'Noto Sans CJK SC'" font-size="23.3333" lengthAdjust="spacing" textLength="249.7168" x="1822.5" y="426.32">+config: SyncConfig?</text><line style="stroke:#6A1B9A;stroke-width:0.8333;" x1="1814.1667" x2="2174.4645" y1="438.4896" y2="438.4896"/><text fill="#000000" font-family="'Noto Sans CJK SC'" font-size="23.3333" lengthAdjust="spacing" textLength="254.5133" x="1822.5" y="466.8148">+init(): Future&lt;void&gt;</text><text fill="#000000" font-family="'Noto Sans CJK SC'" font-size="23.3333" lengthAdjust="spacing" textLength="343.6312" x="1822.5" y="493.9762">+save(config): Future&lt;void&gt;</text></g><!--class SyncLocalStateService--><g class="entity" data-qualified-name="SyncLocalStateService" data-source-line="96" id="ent0015"><rect fill="#F3E5F5" height="161.4844" rx="4.1667" ry="4.1667" style="stroke:#6A1B9A;stroke-width:0.8333;" width="481.6195" x="10" y="344.6615"/><ellipse cx="111.1662" cy="371.3281" fill="#ADD1B2" rx="18.3333" ry="18.3333" style="stroke:#181818;stroke-width:1.6667;"/><path d="M116.1141,380.7292 Q115.1506,381.224 114.0828,381.4583 Q113.0151,381.7188 111.8433,381.7188 Q107.6766,381.7188 105.4631,378.9844 Q103.2756,376.224 103.2756,371.0156 Q103.2756,365.8073 105.4631,363.0469 Q107.6766,360.2865 111.8433,360.2865 Q113.0151,360.2865 114.0828,360.5469 Q115.1766,360.8073 116.1141,361.3021 L116.1141,365.8333 Q115.0724,364.8698 114.0828,364.4271 Q113.0933,363.9583 112.0516,363.9583 Q109.812,363.9583 108.6662,365.7552 Q107.5203,367.526 107.5203,371.0156 Q107.5203,374.5052 108.6662,376.3021 Q109.812,378.0729 112.0516,378.0729 Q113.0933,378.0729 114.0828,377.6302 Q115.0724,377.1615 116.1141,376.1979 L116.1141,380.7292 Z " fill="#000000"/><text fill="#000000" font-family="'Noto Sans CJK SC'" font-size="23.3333" lengthAdjust="spacing" textLength="265.1204" x="145.3328" y="379.4059">SyncLocalStateService</text><line style="stroke:#6A1B9A;stroke-width:0.8333;" x1="11.6667" x2="489.9528" y1="397.9948" y2="397.9948"/><text fill="#000000" font-family="'Noto Sans CJK SC'" font-size="23.3333" lengthAdjust="spacing" textLength="246.0938" x="20" y="426.32">+localUserId: String?</text><line style="stroke:#6A1B9A;stroke-width:0.8333;" x1="11.6667" x2="489.9528" y1="438.4896" y2="438.4896"/><text fill="#000000" font-family="'Noto Sans CJK SC'" font-size="23.3333" lengthAdjust="spacing" textLength="254.5133" x="20" y="466.8148">+init(): Future&lt;void&gt;</text><text fill="#000000" font-family="'Noto Sans CJK SC'" font-size="23.3333" lengthAdjust="spacing" textLength="461.6195" x="20" y="493.9762">+setLocalUserId(userId): Future&lt;void&gt;</text></g><!--class WifiService--><g class="entity" data-qualified-name="WifiService" data-source-line="102" id="ent0016"><rect fill="#F3E5F5" height="134.3229" rx="4.1667" ry="4.1667" style="stroke:#6A1B9A;stroke-width:0.8333;" width="570.0993" x="522.5" y="357.9948"/><ellipse cx="735.223" cy="384.6615" fill="#ADD1B2" rx="18.3333" ry="18.3333" style="stroke:#181818;stroke-width:1.6667;"/><path d="M740.1709,394.0625 Q739.2074,394.5573 738.1396,394.7917 Q737.0719,395.0521 735.9001,395.0521 Q731.7334,395.0521 729.5199,392.3177 Q727.3324,389.5573 727.3324,384.349 Q727.3324,379.1406 729.5199,376.3802 Q731.7334,373.6198 735.9001,373.6198 Q737.0719,373.6198 738.1396,373.8802 Q739.2334,374.1406 740.1709,374.6354 L740.1709,379.1667 Q739.1292,378.2031 738.1396,377.7604 Q737.1501,377.2917 736.1084,377.2917 Q733.8688,377.2917 732.723,379.0885 Q731.5771,380.8594 731.5771,384.349 Q731.5771,387.8385 732.723,389.6354 Q733.8688,391.4063 736.1084,391.4063 Q737.1501,391.4063 738.1396,390.9635 Q739.1292,390.4948 740.1709,389.5313 L740.1709,394.0625 Z " fill="#000000"/><text fill="#000000" font-family="'Noto Sans CJK SC'" font-size="23.3333" lengthAdjust="spacing" textLength="130.4867" x="769.3896" y="392.7393">WifiService</text><line style="stroke:#6A1B9A;stroke-width:0.8333;" x1="524.1667" x2="1090.9326" y1="411.3281" y2="411.3281"/><line style="stroke:#6A1B9A;stroke-width:0.8333;" x1="524.1667" x2="1090.9326" y1="424.6615" y2="424.6615"/><text fill="#000000" font-family="'Noto Sans CJK SC'" font-size="23.3333" lengthAdjust="spacing" textLength="550.0993" x="532.5" y="452.9867">+getNetworkStatus(): Future&lt;NetworkStatus&gt;</text><text fill="#000000" font-family="'Noto Sans CJK SC'" font-size="23.3333" lengthAdjust="spacing" textLength="490.2165" x="532.5" y="480.1481">+getCurrentWifiName(): Future&lt;String?&gt;</text></g><!--class SyncApiClient--><g class="entity" data-qualified-name="SyncApiClient" data-source-line="107" id="ent0017"><rect fill="#FFF3E0" height="188.6458" rx="4.1667" ry="4.1667" style="stroke:#EF6C00;stroke-width:0.8333;" width="658.1462" x="1123.3333" y="331.3281"/><ellipse cx="1364.8014" cy="357.9948" fill="#ADD1B2" rx="18.3333" ry="18.3333" style="stroke:#181818;stroke-width:1.6667;"/><path d="M1369.7493,367.3958 Q1368.7858,367.8906 1367.7181,368.125 Q1366.6504,368.3854 1365.4785,368.3854 Q1361.3118,368.3854 1359.0983,365.651 Q1356.9108,362.8906 1356.9108,357.6823 Q1356.9108,352.474 1359.0983,349.7135 Q1361.3118,346.9531 1365.4785,346.9531 Q1366.6504,346.9531 1367.7181,347.2135 Q1368.8118,347.474 1369.7493,347.9688 L1369.7493,352.5 Q1368.7077,351.5365 1367.7181,351.0938 Q1366.7285,350.625 1365.6868,350.625 Q1363.4473,350.625 1362.3014,352.4219 Q1361.1556,354.1927 1361.1556,357.6823 Q1361.1556,361.1719 1362.3014,362.9688 Q1363.4473,364.7396 1365.6868,364.7396 Q1366.7285,364.7396 1367.7181,364.2969 Q1368.7077,363.8281 1369.7493,362.8646 L1369.7493,367.3958 Z " fill="#000000"/><text fill="#000000" font-family="'Noto Sans CJK SC'" font-size="23.3333" lengthAdjust="spacing" textLength="161.0433" x="1398.9681" y="366.0726">SyncApiClient</text><line style="stroke:#EF6C00;stroke-width:0.8333;" x1="1125" x2="1779.8128" y1="384.6615" y2="384.6615"/><line style="stroke:#EF6C00;stroke-width:0.8333;" x1="1125" x2="1779.8128" y1="397.9948" y2="397.9948"/><text fill="#000000" font-family="'Noto Sans CJK SC'" font-size="23.3333" lengthAdjust="spacing" textLength="413.4147" x="1133.3333" y="426.32">+sync(...): Future&lt;SyncResponse&gt;</text><text fill="#000000" font-family="'Noto Sans CJK SC'" font-size="23.3333" lengthAdjust="spacing" textLength="475.0293" x="1133.3333" y="453.4814">+syncV2(...): Future&lt;SyncResponseV2&gt;</text><text fill="#000000" font-family="'Noto Sans CJK SC'" font-size="23.3333" lengthAdjust="spacing" textLength="598.8395" x="1133.3333" y="480.6429">+listSyncRecords(...): Future&lt;SyncRecordsResult&gt;</text><text fill="#000000" font-family="'Noto Sans CJK SC'" font-size="23.3333" lengthAdjust="spacing" textLength="638.1462" x="1133.3333" y="507.8044">+rollbackToRevision(...): Future&lt;SyncRollbackResult&gt;</text></g><!--class ToolSnapshotExporter--><g class="entity" data-qualified-name="ToolSnapshotExporter" data-source-line="114" id="ent0018"><rect fill="#F3E5F5" height="107.1615" rx="4.1667" ry="4.1667" style="stroke:#6A1B9A;stroke-width:0.8333;" width="489.3669" x="2205.8333" y="372.1615"/><ellipse cx="2314.0861" cy="398.8281" fill="#ADD1B2" rx="18.3333" ry="18.3333" style="stroke:#181818;stroke-width:1.6667;"/><path d="M2319.034,408.2292 Q2318.0705,408.724 2317.0028,408.9583 Q2315.9351,409.2188 2314.7632,409.2188 Q2310.5965,409.2188 2308.383,406.4844 Q2306.1955,403.724 2306.1955,398.5156 Q2306.1955,393.3073 2308.383,390.5469 Q2310.5965,387.7865 2314.7632,387.7865 Q2315.9351,387.7865 2317.0028,388.0469 Q2318.0965,388.3073 2319.034,388.8021 L2319.034,393.3333 Q2317.9924,392.3698 2317.0028,391.9271 Q2316.0132,391.4583 2314.9715,391.4583 Q2312.7319,391.4583 2311.5861,393.2552 Q2310.4403,395.026 2310.4403,398.5156 Q2310.4403,402.0052 2311.5861,403.8021 Q2312.7319,405.5729 2314.9715,405.5729 Q2316.0132,405.5729 2317.0028,405.1302 Q2317.9924,404.6615 2319.034,403.6979 L2319.034,408.2292 Z " fill="#000000"/><text fill="#000000" font-family="'Noto Sans CJK SC'" font-size="23.3333" lengthAdjust="spacing" textLength="258.6947" x="2348.2528" y="406.9059">ToolSnapshotExporter</text><line style="stroke:#6A1B9A;stroke-width:0.8333;" x1="2207.5" x2="2693.5335" y1="425.4948" y2="425.4948"/><line style="stroke:#6A1B9A;stroke-width:0.8333;" x1="2207.5" x2="2693.5335" y1="438.8281" y2="438.8281"/><text fill="#000000" font-family="'Noto Sans CJK SC'" font-size="23.3333" lengthAdjust="spacing" text-decoration="underline" textLength="469.3669" x="2215.8333" y="467.1533">+exportAll(providers, ...): Future&lt;Map&gt;</text></g><!--class SyncService--><g class="entity" data-qualified-name="SyncService" data-source-line="118" id="ent0019"><rect fill="#F3E5F5" height="134.3229" rx="4.1667" ry="4.1667" style="stroke:#6A1B9A;stroke-width:0.8333;" width="632.1126" x="1406.6667" y="95.4948"/><ellipse cx="1644.4035" cy="122.1615" fill="#ADD1B2" rx="18.3333" ry="18.3333" style="stroke:#181818;stroke-width:1.6667;"/><path d="M1649.3514,131.5625 Q1648.3879,132.0573 1647.3201,132.2917 Q1646.2524,132.5521 1645.0806,132.5521 Q1640.9139,132.5521 1638.7004,129.8177 Q1636.5129,127.0573 1636.5129,121.849 Q1636.5129,116.6406 1638.7004,113.8802 Q1640.9139,111.1198 1645.0806,111.1198 Q1646.2524,111.1198 1647.3201,111.3802 Q1648.4139,111.6406 1649.3514,112.1354 L1649.3514,116.6667 Q1648.3097,115.7031 1647.3201,115.2604 Q1646.3306,114.7917 1645.2889,114.7917 Q1643.0493,114.7917 1641.9035,116.5885 Q1640.7576,118.3594 1640.7576,121.849 Q1640.7576,125.3385 1641.9035,127.1354 Q1643.0493,128.9063 1645.2889,128.9063 Q1646.3306,128.9063 1647.3201,128.4635 Q1648.3097,127.9948 1649.3514,127.0313 L1649.3514,131.5625 Z " fill="#000000"/><text fill="#000000" font-family="'Noto Sans CJK SC'" font-size="23.3333" lengthAdjust="spacing" textLength="142.4723" x="1678.5701" y="130.2393">SyncService</text><line style="stroke:#6A1B9A;stroke-width:0.8333;" x1="1408.3333" x2="2037.1126" y1="148.8281" y2="148.8281"/><line style="stroke:#6A1B9A;stroke-width:0.8333;" x1="1408.3333" x2="2037.1126" y1="162.1615" y2="162.1615"/><text fill="#000000" font-family="'Noto Sans CJK SC'" font-size="23.3333" lengthAdjust="spacing" textLength="523.8949" x="1416.6667" y="190.4867">+sync(trigger, forceDecision): Future&lt;bool&gt;</text><text fill="#000000" font-family="'Noto Sans CJK SC'" font-size="23.3333" lengthAdjust="spacing" textLength="612.1126" x="1416.6667" y="217.6481">+applyServerSnapshot(toolsData): Future&lt;String?&gt;</text></g><!--class SettingsService--><g class="entity" data-qualified-name="SettingsService" data-source-line="123" id="ent0020"><rect fill="#F3E5F5" height="161.4844" rx="4.1667" ry="4.1667" style="stroke:#6A1B9A;stroke-width:0.8333;" width="538.1868" x="2726.6667" y="344.6615"/><ellipse cx="2897.7075" cy="371.3281" fill="#ADD1B2" rx="18.3333" ry="18.3333" style="stroke:#181818;stroke-width:1.6667;"/><path d="M2902.6554,380.7292 Q2901.6919,381.224 2900.6242,381.4583 Q2899.5565,381.7188 2898.3846,381.7188 Q2894.2179,381.7188 2892.0044,378.9844 Q2889.8169,376.224 2889.8169,371.0156 Q2889.8169,365.8073 2892.0044,363.0469 Q2894.2179,360.2865 2898.3846,360.2865 Q2899.5565,360.2865 2900.6242,360.5469 Q2901.7179,360.8073 2902.6554,361.3021 L2902.6554,365.8333 Q2901.6138,364.8698 2900.6242,364.4271 Q2899.6346,363.9583 2898.5929,363.9583 Q2896.3534,363.9583 2895.2075,365.7552 Q2894.0617,367.526 2894.0617,371.0156 Q2894.0617,374.5052 2895.2075,376.3021 Q2896.3534,378.0729 2898.5929,378.0729 Q2899.6346,378.0729 2900.6242,377.6302 Q2901.6138,377.1615 2902.6554,376.1979 L2902.6554,380.7292 Z " fill="#000000"/><text fill="#000000" font-family="'Noto Sans CJK SC'" font-size="23.3333" lengthAdjust="spacing" textLength="181.9385" x="2931.8742" y="379.4059">SettingsService</text><line style="stroke:#6A1B9A;stroke-width:0.8333;" x1="2728.3333" x2="3263.1868" y1="397.9948" y2="397.9948"/><text fill="#000000" font-family="'Noto Sans CJK SC'" font-size="23.3333" lengthAdjust="spacing" textLength="269.9284" x="2736.6667" y="426.32">+defaultToolId: String?</text><line style="stroke:#6A1B9A;stroke-width:0.8333;" x1="2728.3333" x2="3263.1868" y1="438.4896" y2="438.4896"/><text fill="#000000" font-family="'Noto Sans CJK SC'" font-size="23.3333" lengthAdjust="spacing" textLength="518.1868" x="2736.6667" y="466.8148">+updateHomeToolOrder(ids): Future&lt;void&gt;</text><text fill="#000000" font-family="'Noto Sans CJK SC'" font-size="23.3333" lengthAdjust="spacing" textLength="409.1081" x="2736.6667" y="493.9762">+setDefaultTool(id): Future&lt;void&gt;</text></g><!--class BackupRestoreService--><g class="entity" data-qualified-name="BackupRestoreService" data-source-line="129" id="ent0021"><rect fill="#F3E5F5" height="161.4844" rx="4.1667" ry="4.1667" style="stroke:#6A1B9A;stroke-width:0.8333;" width="728.5905" x="2631.6667" y="82.1615"/><ellipse cx="2857.5887" cy="108.8281" fill="#ADD1B2" rx="18.3333" ry="18.3333" style="stroke:#181818;stroke-width:1.6667;"/><path d="M2862.5366,118.2292 Q2861.5731,118.724 2860.5054,118.9583 Q2859.4377,119.2188 2858.2658,119.2188 Q2854.0991,119.2188 2851.8856,116.4844 Q2849.6981,113.724 2849.6981,108.5156 Q2849.6981,103.3073 2851.8856,100.5469 Q2854.0991,97.7865 2858.2658,97.7865 Q2859.4377,97.7865 2860.5054,98.0469 Q2861.5991,98.3073 2862.5366,98.8021 L2862.5366,103.3333 Q2861.495,102.3698 2860.5054,101.9271 Q2859.5158,101.4583 2858.4741,101.4583 Q2856.2345,101.4583 2855.0887,103.2552 Q2853.9429,105.026 2853.9429,108.5156 Q2853.9429,112.0052 2855.0887,113.8021 Q2856.2345,115.5729 2858.4741,115.5729 Q2859.5158,115.5729 2860.5054,115.1302 Q2861.495,114.6615 2862.5366,113.6979 L2862.5366,118.2292 Z " fill="#000000"/><text fill="#000000" font-family="'Noto Sans CJK SC'" font-size="23.3333" lengthAdjust="spacing" textLength="262.5798" x="2891.7554" y="116.9059">BackupRestoreService</text><line style="stroke:#6A1B9A;stroke-width:0.8333;" x1="2633.3333" x2="3358.5905" y1="135.4948" y2="135.4948"/><text fill="#000000" font-family="'Noto Sans CJK SC'" font-size="23.3333" lengthAdjust="spacing" text-decoration="underline" textLength="237.9134" x="2641.6667" y="163.82">+backupVersion: int</text><line style="stroke:#6A1B9A;stroke-width:0.8333;" x1="2633.3333" x2="3358.5905" y1="175.9896" y2="175.9896"/><text fill="#000000" font-family="'Noto Sans CJK SC'" font-size="23.3333" lengthAdjust="spacing" textLength="581.0091" x="2641.6667" y="204.3148">+exportAsJson(includeSensitive): Future&lt;String&gt;</text><text fill="#000000" font-family="'Noto Sans CJK SC'" font-size="23.3333" lengthAdjust="spacing" textLength="708.5905" x="2641.6667" y="231.4762">+restoreFromJson(jsonText): Future&lt;BackupRestoreResult&gt;</text></g><!--class MessageRepository--><g class="entity" data-qualified-name="MessageRepository" data-source-line="135" id="ent0022"><rect fill="#E8F5E9" height="80" rx="4.1667" ry="4.1667" style="stroke:#2E7D32;stroke-width:0.8333;" width="280.7194" x="8159.1667" y="385.4948"/><ellipse cx="8184.1667" cy="412.1615" fill="#ADD1B2" rx="18.3333" ry="18.3333" style="stroke:#181818;stroke-width:1.6667;"/><path d="M8189.1146,421.5625 Q8188.151,422.0573 8187.0833,422.2917 Q8186.0156,422.5521 8184.8438,422.5521 Q8180.6771,422.5521 8178.4635,419.8177 Q8176.276,417.0573 8176.276,411.849 Q8176.276,406.6406 8178.4635,403.8802 Q8180.6771,401.1198 8184.8438,401.1198 Q8186.0156,401.1198 8187.0833,401.3802 Q8188.1771,401.6406 8189.1146,402.1354 L8189.1146,406.6667 Q8188.0729,405.7031 8187.0833,405.2604 Q8186.0938,404.7917 8185.0521,404.7917 Q8182.8125,404.7917 8181.6667,406.5885 Q8180.5208,408.3594 8180.5208,411.849 Q8180.5208,415.3385 8181.6667,417.1354 Q8182.8125,418.9063 8185.0521,418.9063 Q8186.0938,418.9063 8187.0833,418.4635 Q8188.0729,417.9948 8189.1146,417.0313 L8189.1146,421.5625 Z " fill="#000000"/><text fill="#000000" font-family="'Noto Sans CJK SC'" font-size="23.3333" lengthAdjust="spacing" textLength="227.3861" x="8207.5" y="420.2393">MessageRepository</text><line style="stroke:#2E7D32;stroke-width:0.8333;" x1="8160.8333" x2="8438.2194" y1="438.8281" y2="438.8281"/><line style="stroke:#2E7D32;stroke-width:0.8333;" x1="8160.8333" x2="8438.2194" y1="452.1615" y2="452.1615"/></g><!--class MessageService--><g class="entity" data-qualified-name="MessageService" data-source-line="136" id="ent0023"><rect fill="#F3E5F5" height="161.4844" rx="4.1667" ry="4.1667" style="stroke:#6A1B9A;stroke-width:0.8333;" width="430.4069" x="8015.8333" y="82.1615"/><ellipse cx="8129.703" cy="108.8281" fill="#ADD1B2" rx="18.3333" ry="18.3333" style="stroke:#181818;stroke-width:1.6667;"/><path d="M8134.6509,118.2292 Q8133.6873,118.724 8132.6196,118.9583 Q8131.5519,119.2188 8130.38,119.2188 Q8126.2134,119.2188 8123.9998,116.4844 Q8121.8123,113.724 8121.8123,108.5156 Q8121.8123,103.3073 8123.9998,100.5469 Q8126.2134,97.7865 8130.38,97.7865 Q8131.5519,97.7865 8132.6196,98.0469 Q8133.7134,98.3073 8134.6509,98.8021 L8134.6509,103.3333 Q8133.6092,102.3698 8132.6196,101.9271 Q8131.63,101.4583 8130.5884,101.4583 Q8128.3488,101.4583 8127.203,103.2552 Q8126.0571,105.026 8126.0571,108.5156 Q8126.0571,112.0052 8127.203,113.8021 Q8128.3488,115.5729 8130.5884,115.5729 Q8131.63,115.5729 8132.6196,115.1302 Q8133.6092,114.6615 8134.6509,113.6979 L8134.6509,118.2292 Z " fill="#000000"/><text fill="#000000" font-family="'Noto Sans CJK SC'" font-size="23.3333" lengthAdjust="spacing" textLength="188.501" x="8163.8696" y="116.9059">MessageService</text><line style="stroke:#6A1B9A;stroke-width:0.8333;" x1="8017.5" x2="8444.5736" y1="135.4948" y2="135.4948"/><text fill="#000000" font-family="'Noto Sans CJK SC'" font-size="23.3333" lengthAdjust="spacing" textLength="379.5882" x="8025.8333" y="163.82">+messages: List&lt;AppMessage&gt;</text><line style="stroke:#6A1B9A;stroke-width:0.8333;" x1="8017.5" x2="8444.5736" y1="175.9896" y2="175.9896"/><text fill="#000000" font-family="'Noto Sans CJK SC'" font-size="23.3333" lengthAdjust="spacing" textLength="410.4069" x="8025.8333" y="204.3148">+upsertMessage(...): Future&lt;int?&gt;</text><text fill="#000000" font-family="'Noto Sans CJK SC'" font-size="23.3333" lengthAdjust="spacing" textLength="403.7646" x="8025.8333" y="231.4762">+purgeExpired(now): Future&lt;int&gt;</text></g><!--class LocalNotificationService--><g class="entity" data-qualified-name="LocalNotificationService" data-source-line="142" id="ent0024"><rect fill="#ECEFF1" height="80" rx="4.1667" ry="4.1667" style="stroke:#455A64;stroke-width:0.8333;" width="334.3359" x="7581.6667" y="122.9948"/><ellipse cx="7606.6667" cy="149.6615" fill="#ADD1B2" rx="18.3333" ry="18.3333" style="stroke:#181818;stroke-width:1.6667;"/><path d="M7611.6146,159.0625 Q7610.651,159.5573 7609.5833,159.7917 Q7608.5156,160.0521 7607.3438,160.0521 Q7603.1771,160.0521 7600.9635,157.3177 Q7598.776,154.5573 7598.776,149.349 Q7598.776,144.1406 7600.9635,141.3802 Q7603.1771,138.6198 7607.3438,138.6198 Q7608.5156,138.6198 7609.5833,138.8802 Q7610.6771,139.1406 7611.6146,139.6354 L7611.6146,144.1667 Q7610.5729,143.2031 7609.5833,142.7604 Q7608.5938,142.2917 7607.5521,142.2917 Q7605.3125,142.2917 7604.1667,144.0885 Q7603.0208,145.8594 7603.0208,149.349 Q7603.0208,152.8385 7604.1667,154.6354 Q7605.3125,156.4063 7607.5521,156.4063 Q7608.5938,156.4063 7609.5833,155.9635 Q7610.5729,155.4948 7611.6146,154.5313 L7611.6146,159.0625 Z " fill="#000000"/><text fill="#000000" font-family="'Noto Sans CJK SC'" font-size="23.3333" lengthAdjust="spacing" textLength="281.0026" x="7630" y="157.7393">LocalNotificationService</text><line style="stroke:#455A64;stroke-width:0.8333;" x1="7583.3333" x2="7914.3359" y1="176.3281" y2="176.3281"/><line style="stroke:#455A64;stroke-width:0.8333;" x1="7583.3333" x2="7914.3359" y1="189.6615" y2="189.6615"/></g><!--class TagRepository--><g class="entity" data-qualified-name="TagRepository" data-source-line="144" id="ent0025"><rect fill="#E8F5E9" height="80" rx="4.1667" ry="4.1667" style="stroke:#2E7D32;stroke-width:0.8333;" width="221.8164" x="8611.6667" y="385.4948"/><ellipse cx="8636.6667" cy="412.1615" fill="#ADD1B2" rx="18.3333" ry="18.3333" style="stroke:#181818;stroke-width:1.6667;"/><path d="M8641.6146,421.5625 Q8640.651,422.0573 8639.5833,422.2917 Q8638.5156,422.5521 8637.3438,422.5521 Q8633.1771,422.5521 8630.9635,419.8177 Q8628.776,417.0573 8628.776,411.849 Q8628.776,406.6406 8630.9635,403.8802 Q8633.1771,401.1198 8637.3438,401.1198 Q8638.5156,401.1198 8639.5833,401.3802 Q8640.6771,401.6406 8641.6146,402.1354 L8641.6146,406.6667 Q8640.5729,405.7031 8639.5833,405.2604 Q8638.5938,404.7917 8637.5521,404.7917 Q8635.3125,404.7917 8634.1667,406.5885 Q8633.0208,408.3594 8633.0208,411.849 Q8633.0208,415.3385 8634.1667,417.1354 Q8635.3125,418.9063 8637.5521,418.9063 Q8638.5938,418.9063 8639.5833,418.4635 Q8640.5729,417.9948 8641.6146,417.0313 L8641.6146,421.5625 Z " fill="#000000"/><text fill="#000000" font-family="'Noto Sans CJK SC'" font-size="23.3333" lengthAdjust="spacing" textLength="168.4831" x="8660" y="420.2393">TagRepository</text><line style="stroke:#2E7D32;stroke-width:0.8333;" x1="8613.3333" x2="8831.8164" y1="438.8281" y2="438.8281"/><line style="stroke:#2E7D32;stroke-width:0.8333;" x1="8613.3333" x2="8831.8164" y1="452.1615" y2="452.1615"/></g><!--class TagService--><g class="entity" data-qualified-name="TagService" data-source-line="145" id="ent0026"><rect fill="#F3E5F5" height="134.3229" rx="4.1667" ry="4.1667" style="stroke:#6A1B9A;stroke-width:0.8333;" width="491.3493" x="8476.6667" y="95.4948"/><ellipse cx="8650.459" cy="122.1615" fill="#ADD1B2" rx="18.3333" ry="18.3333" style="stroke:#181818;stroke-width:1.6667;"/><path d="M8655.4069,131.5625 Q8654.4434,132.0573 8653.3757,132.2917 Q8652.3079,132.5521 8651.1361,132.5521 Q8646.9694,132.5521 8644.7559,129.8177 Q8642.5684,127.0573 8642.5684,121.849 Q8642.5684,116.6406 8644.7559,113.8802 Q8646.9694,111.1198 8651.1361,111.1198 Q8652.3079,111.1198 8653.3757,111.3802 Q8654.4694,111.6406 8655.4069,112.1354 L8655.4069,116.6667 Q8654.3652,115.7031 8653.3757,115.2604 Q8652.3861,114.7917 8651.3444,114.7917 Q8649.1048,114.7917 8647.959,116.5885 Q8646.8132,118.3594 8646.8132,121.849 Q8646.8132,125.3385 8647.959,127.1354 Q8649.1048,128.9063 8651.3444,128.9063 Q8652.3861,128.9063 8653.3757,128.4635 Q8654.3652,127.9948 8655.4069,127.0313 L8655.4069,131.5625 Z " fill="#000000"/><text fill="#000000" font-family="'Noto Sans CJK SC'" font-size="23.3333" lengthAdjust="spacing" textLength="129.598" x="8684.6257" y="130.2393">TagService</text><line style="stroke:#6A1B9A;stroke-width:0.8333;" x1="8478.3333" x2="8966.3493" y1="148.8281" y2="148.8281"/><line style="stroke:#6A1B9A;stroke-width:0.8333;" x1="8478.3333" x2="8966.3493" y1="162.1615" y2="162.1615"/><text fill="#000000" font-family="'Noto Sans CJK SC'" font-size="23.3333" lengthAdjust="spacing" textLength="329.5947" x="8486.6667" y="190.4867">+refreshAll(): Future&lt;void&gt;</text><text fill="#000000" font-family="'Noto Sans CJK SC'" font-size="23.3333" lengthAdjust="spacing" textLength="471.3493" x="8486.6667" y="217.6481">+refreshToolTags(toolId): Future&lt;void&gt;</text></g><!--class AppConfigSyncProvider--><g class="entity" data-qualified-name="AppConfigSyncProvider" data-source-line="150" id="ent0027"><rect fill="#F3E5F5" height="80" rx="4.1667" ry="4.1667" style="stroke:#6A1B9A;stroke-width:0.8333;" width="327.0101" x="4964.1667" y="122.9948"/><ellipse cx="4989.1667" cy="149.6615" fill="#ADD1B2" rx="18.3333" ry="18.3333" style="stroke:#181818;stroke-width:1.6667;"/><path d="M4994.1146,159.0625 Q4993.151,159.5573 4992.0833,159.7917 Q4991.0156,160.0521 4989.8438,160.0521 Q4985.6771,160.0521 4983.4635,157.3177 Q4981.276,154.5573 4981.276,149.349 Q4981.276,144.1406 4983.4635,141.3802 Q4985.6771,138.6198 4989.8438,138.6198 Q4991.0156,138.6198 4992.0833,138.8802 Q4993.1771,139.1406 4994.1146,139.6354 L4994.1146,144.1667 Q4993.0729,143.2031 4992.0833,142.7604 Q4991.0938,142.2917 4990.0521,142.2917 Q4987.8125,142.2917 4986.6667,144.0885 Q4985.5208,145.8594 4985.5208,149.349 Q4985.5208,152.8385 4986.6667,154.6354 Q4987.8125,156.4063 4990.0521,156.4063 Q4991.0938,156.4063 4992.0833,155.9635 Q4993.0729,155.4948 4994.1146,154.5313 L4994.1146,159.0625 Z " fill="#000000"/><text fill="#000000" font-family="'Noto Sans CJK SC'" font-size="23.3333" lengthAdjust="spacing" textLength="273.6768" x="5012.5" y="157.7393">AppConfigSyncProvider</text><line style="stroke:#6A1B9A;stroke-width:0.8333;" x1="4965.8333" x2="5289.5101" y1="176.3281" y2="176.3281"/><line style="stroke:#6A1B9A;stroke-width:0.8333;" x1="4965.8333" x2="5289.5101" y1="189.6615" y2="189.6615"/></g><!--class WorkLogSyncProvider--><g class="entity" data-qualified-name="WorkLogSyncProvider" data-source-line="151" id="ent0028"><rect fill="#F3E5F5" height="80" rx="4.1667" ry="4.1667" style="stroke:#6A1B9A;stroke-width:0.8333;" width="309.0999" x="5321.6667" y="122.9948"/><ellipse cx="5346.6667" cy="149.6615" fill="#ADD1B2" rx="18.3333" ry="18.3333" style="stroke:#181818;stroke-width:1.6667;"/><path d="M5351.6146,159.0625 Q5350.651,159.5573 5349.5833,159.7917 Q5348.5156,160.0521 5347.3438,160.0521 Q5343.1771,160.0521 5340.9635,157.3177 Q5338.776,154.5573 5338.776,149.349 Q5338.776,144.1406 5340.9635,141.3802 Q5343.1771,138.6198 5347.3438,138.6198 Q5348.5156,138.6198 5349.5833,138.8802 Q5350.6771,139.1406 5351.6146,139.6354 L5351.6146,144.1667 Q5350.5729,143.2031 5349.5833,142.7604 Q5348.5938,142.2917 5347.5521,142.2917 Q5345.3125,142.2917 5344.1667,144.0885 Q5343.0208,145.8594 5343.0208,149.349 Q5343.0208,152.8385 5344.1667,154.6354 Q5345.3125,156.4063 5347.5521,156.4063 Q5348.5938,156.4063 5349.5833,155.9635 Q5350.5729,155.4948 5351.6146,154.5313 L5351.6146,159.0625 Z " fill="#000000"/><text fill="#000000" font-family="'Noto Sans CJK SC'" font-size="23.3333" lengthAdjust="spacing" textLength="255.7666" x="5370" y="157.7393">WorkLogSyncProvider</text><line style="stroke:#6A1B9A;stroke-width:0.8333;" x1="5323.3333" x2="5629.0999" y1="176.3281" y2="176.3281"/><line style="stroke:#6A1B9A;stroke-width:0.8333;" x1="5323.3333" x2="5629.0999" y1="189.6615" y2="189.6615"/></g><!--class StockpileSyncProvider--><g class="entity" data-qualified-name="StockpileSyncProvider" data-source-line="152" id="ent0029"><rect fill="#F3E5F5" height="80" rx="4.1667" ry="4.1667" style="stroke:#6A1B9A;stroke-width:0.8333;" width="313.2699" x="3964.1667" y="122.9948"/><ellipse cx="3989.1667" cy="149.6615" fill="#ADD1B2" rx="18.3333" ry="18.3333" style="stroke:#181818;stroke-width:1.6667;"/><path d="M3994.1146,159.0625 Q3993.151,159.5573 3992.0833,159.7917 Q3991.0156,160.0521 3989.8438,160.0521 Q3985.6771,160.0521 3983.4635,157.3177 Q3981.276,154.5573 3981.276,149.349 Q3981.276,144.1406 3983.4635,141.3802 Q3985.6771,138.6198 3989.8438,138.6198 Q3991.0156,138.6198 3992.0833,138.8802 Q3993.1771,139.1406 3994.1146,139.6354 L3994.1146,144.1667 Q3993.0729,143.2031 3992.0833,142.7604 Q3991.0938,142.2917 3990.0521,142.2917 Q3987.8125,142.2917 3986.6667,144.0885 Q3985.5208,145.8594 3985.5208,149.349 Q3985.5208,152.8385 3986.6667,154.6354 Q3987.8125,156.4063 3990.0521,156.4063 Q3991.0938,156.4063 3992.0833,155.9635 Q3993.0729,155.4948 3994.1146,154.5313 L3994.1146,159.0625 Z " fill="#000000"/><text fill="#000000" font-family="'Noto Sans CJK SC'" font-size="23.3333" lengthAdjust="spacing" textLength="259.9365" x="4012.5" y="157.7393">StockpileSyncProvider</text><line style="stroke:#6A1B9A;stroke-width:0.8333;" x1="3965.8333" x2="4275.7699" y1="176.3281" y2="176.3281"/><line style="stroke:#6A1B9A;stroke-width:0.8333;" x1="3965.8333" x2="4275.7699" y1="189.6615" y2="189.6615"/></g><!--class OvercookedSyncProvider--><g class="entity" data-qualified-name="OvercookedSyncProvider" data-source-line="153" id="ent0030"><rect fill="#F3E5F5" height="80" rx="4.1667" ry="4.1667" style="stroke:#6A1B9A;stroke-width:0.8333;" width="346.7432" x="4307.5" y="122.9948"/><ellipse cx="4332.5" cy="149.6615" fill="#ADD1B2" rx="18.3333" ry="18.3333" style="stroke:#181818;stroke-width:1.6667;"/><path d="M4337.4479,159.0625 Q4336.4844,159.5573 4335.4167,159.7917 Q4334.349,160.0521 4333.1771,160.0521 Q4329.0104,160.0521 4326.7969,157.3177 Q4324.6094,154.5573 4324.6094,149.349 Q4324.6094,144.1406 4326.7969,141.3802 Q4329.0104,138.6198 4333.1771,138.6198 Q4334.349,138.6198 4335.4167,138.8802 Q4336.5104,139.1406 4337.4479,139.6354 L4337.4479,144.1667 Q4336.4063,143.2031 4335.4167,142.7604 Q4334.4271,142.2917 4333.3854,142.2917 Q4331.1458,142.2917 4330,144.0885 Q4328.8542,145.8594 4328.8542,149.349 Q4328.8542,152.8385 4330,154.6354 Q4331.1458,156.4063 4333.3854,156.4063 Q4334.4271,156.4063 4335.4167,155.9635 Q4336.4063,155.4948 4337.4479,154.5313 L4337.4479,159.0625 Z " fill="#000000"/><text fill="#000000" font-family="'Noto Sans CJK SC'" font-size="23.3333" lengthAdjust="spacing" textLength="293.4098" x="4355.8333" y="157.7393">OvercookedSyncProvider</text><line style="stroke:#6A1B9A;stroke-width:0.8333;" x1="4309.1667" x2="4652.5765" y1="176.3281" y2="176.3281"/><line style="stroke:#6A1B9A;stroke-width:0.8333;" x1="4309.1667" x2="4652.5765" y1="189.6615" y2="189.6615"/></g><!--class TagSyncProvider--><g class="entity" data-qualified-name="TagSyncProvider" data-source-line="154" id="ent0031"><rect fill="#F3E5F5" height="80" rx="4.1667" ry="4.1667" style="stroke:#6A1B9A;stroke-width:0.8333;" width="249.9235" x="4684.1667" y="122.9948"/><ellipse cx="4709.1667" cy="149.6615" fill="#ADD1B2" rx="18.3333" ry="18.3333" style="stroke:#181818;stroke-width:1.6667;"/><path d="M4714.1146,159.0625 Q4713.151,159.5573 4712.0833,159.7917 Q4711.0156,160.0521 4709.8438,160.0521 Q4705.6771,160.0521 4703.4635,157.3177 Q4701.276,154.5573 4701.276,149.349 Q4701.276,144.1406 4703.4635,141.3802 Q4705.6771,138.6198 4709.8438,138.6198 Q4711.0156,138.6198 4712.0833,138.8802 Q4713.1771,139.1406 4714.1146,139.6354 L4714.1146,144.1667 Q4713.0729,143.2031 4712.0833,142.7604 Q4711.0938,142.2917 4710.0521,142.2917 Q4707.8125,142.2917 4706.6667,144.0885 Q4705.5208,145.8594 4705.5208,149.349 Q4705.5208,152.8385 4706.6667,154.6354 Q4707.8125,156.4063 4710.0521,156.4063 Q4711.0938,156.4063 4712.0833,155.9635 Q4713.0729,155.4948 4714.1146,154.5313 L4714.1146,159.0625 Z " fill="#000000"/><text fill="#000000" font-family="'Noto Sans CJK SC'" font-size="23.3333" lengthAdjust="spacing" textLength="196.5902" x="4732.5" y="157.7393">TagSyncProvider</text><line style="stroke:#6A1B9A;stroke-width:0.8333;" x1="4685.8333" x2="4932.4235" y1="176.3281" y2="176.3281"/><line style="stroke:#6A1B9A;stroke-width:0.8333;" x1="4685.8333" x2="4932.4235" y1="189.6615" y2="189.6615"/></g><g class="link" data-entity-1="ent0007" data-entity-2="ent0005" data-link-type="dependency" id="lnk32"><polygon fill="#181818" points="3543.7698,330.9907,3557.9107,322.6554,3548.6114,324.2082,3547.0586,314.9088,3543.7698,330.9907" style="stroke:#181818;stroke-width:1.6667;"/><path d="M3615.338,230.7307 C3593.6064,261.1746 3573.249,289.6932 3549.5797,322.8516" fill="none" style="stroke:#181818;stroke-width:1.6667;"/></g><g class="link" data-entity-1="ent0007" data-entity-2="ent0006" data-link-type="dependency" id="lnk33"><polygon fill="#181818" points="3967.4973,371.7666,3958.833,357.8248,3960.6032,367.0852,3951.3428,368.8554,3967.4973,371.7666" style="stroke:#181818;stroke-width:1.6667;"/><path d="M3759.7981,230.7307 C3824.2881,274.5219 3899.4389,325.5523 3959.2244,366.149" fill="none" style="stroke:#181818;stroke-width:1.6667;"/></g><g class="link" data-entity-1="ent0008" data-entity-2="ent0004" data-link-type="dependency" id="lnk34"><polygon fill="#181818" points="5484.9241,606.8525,5479.7322,591.2804,5479.3048,600.6988,5469.8864,600.2714,5484.9241,606.8525" style="stroke:#181818;stroke-width:1.6667;"/><path d="M5430.8524,547.6401 C5449.2005,567.7326 5461.0732,580.734 5478.1809,599.4681" fill="none" style="stroke:#181818;stroke-width:1.6667;"/></g><g class="link" data-entity-1="ent0009" data-entity-2="ent0004" data-link-type="extension" id="lnk35"><polygon fill="none" points="5629.9285,607.0138,5657.5426,591.6041,5642.7739,578.1176,5629.9285,607.0138" style="stroke:#181818;stroke-width:1.6667;"/><path d="M5758.7353,465.9613 C5724.8216,503.0992 5692.881,538.0764 5650.1583,584.8608" fill="none" style="stroke:#181818;stroke-width:1.6667;stroke-dasharray:11.6667,11.6667;"/></g><g class="link" data-entity-1="ent0013" data-entity-2="ent0008" data-link-type="dependency" id="lnk36"><polygon fill="#181818" points="5640.2743,307.6127,5656.5125,310.0138,5648.3026,305.3785,5652.9378,297.1686,5640.2743,307.6127" style="stroke:#181818;stroke-width:1.6667;"/><path d="M6094.8752,212.7928 C5956.6461,235.4083 5796.7321,265.853 5654.1667,303.8281 C5649.5605,305.0551 5654.5617,303.6366 5649.9082,304.9317" fill="none" style="stroke:#181818;stroke-width:1.6667;"/></g><g class="link" data-entity-1="ent0013" data-entity-2="ent0010" data-link-type="dependency" id="lnk37"><polygon fill="#181818" points="6264.4761,357.7851,6279.5138,351.2041,6270.0954,351.6315,6269.6681,342.2131,6264.4761,357.7851" style="stroke:#181818;stroke-width:1.6667;"/><path d="M6368.5396,243.8282 C6335.2352,280.2989 6302.9098,315.6975 6271.2193,350.4007" fill="none" style="stroke:#181818;stroke-width:1.6667;"/></g><g class="link" data-entity-1="ent0013" data-entity-2="ent0011" data-link-type="dependency" id="lnk38"><polygon fill="#181818" points="6605.9884,344.2531,6600.742,328.6993,6600.3475,338.1192,6590.9277,337.7247,6605.9884,344.2531" style="stroke:#181818;stroke-width:1.6667;"/><path d="M6513.6362,243.8282 C6542.9314,275.6842 6569.8865,304.9955 6599.2193,336.8924" fill="none" style="stroke:#181818;stroke-width:1.6667;"/></g><g class="link" data-entity-1="ent0013" data-entity-2="ent0012" data-link-type="dependency" id="lnk39"><polygon fill="#181818" points="6971.9262,344.4976,6961.421,331.8847,6964.4521,340.8123,6955.5245,343.8433,6971.9262,344.4976" style="stroke:#181818;stroke-width:1.6667;"/><path d="M6716.6207,243.8798 C6772.1376,261.9679 6829.6467,282.2718 6882.5,303.8281 C6911.933,315.8324 6933.7239,325.6609 6962.9572,340.0752" fill="none" style="stroke:#181818;stroke-width:1.6667;"/></g><g class="link" data-entity-1="ent0023" data-entity-2="ent0022" data-link-type="dependency" id="lnk40"><polygon fill="#181818" points="8288.8926,384.8617,8291.5146,368.6578,8286.768,376.8038,8278.6219,372.0571,8288.8926,384.8617" style="stroke:#181818;stroke-width:1.6667;"/><path d="M8251.7069,243.8282 C8264.0311,290.5702 8276.5397,338.0111 8286.343,375.1922" fill="none" style="stroke:#181818;stroke-width:1.6667;"/></g><g class="link" data-entity-1="ent0023" data-entity-2="ent0003" data-link-type="dependency" id="lnk41"><polygon fill="#181818" points="7921.1733,331.2778,7937.5415,330.0412,7928.5118,327.3293,7931.2238,318.2996,7921.1733,331.2778" style="stroke:#181818;stroke-width:1.6667;"/><path d="M8083.7002,243.8282 C8032.38,271.4417 7983.1406,297.9356 7929.9795,326.5395" fill="none" style="stroke:#181818;stroke-width:1.6667;"/></g><g class="link" data-entity-1="ent0024" data-entity-2="ent0003" data-link-type="extension" id="lnk42"><polygon fill="none" points="7749.1667,330.9179,7759.1667,300.9179,7739.1667,300.9179,7749.1667,330.9179" style="stroke:#181818;stroke-width:1.6667;"/><path d="M7749.1667,203.4613 C7749.1667,237.069 7749.1667,257.0488 7749.1667,300.9179" fill="none" style="stroke:#181818;stroke-width:1.6667;stroke-dasharray:11.6667,11.6667;"/></g><g class="link" data-entity-1="ent0026" data-entity-2="ent0025" data-link-type="dependency" id="lnk43"><polygon fill="#181818" points="8722.5,385.2491,8729.1667,370.2491,8722.5,376.9158,8715.8333,370.2491,8722.5,385.2491" style="stroke:#181818;stroke-width:1.6667;"/><path d="M8722.5,230.7307 C8722.5,279.6209 8722.5,334.5363 8722.5,375.2491" fill="none" style="stroke:#181818;stroke-width:1.6667;"/></g><g class="link" data-entity-1="ent0019" data-entity-2="ent0014" data-link-type="dependency" id="lnk44"><polygon fill="#181818" points="1910.998,344.4863,1904.7464,329.3086,1904.9684,338.734,1895.5429,338.956,1910.998,344.4863" style="stroke:#181818;stroke-width:1.6667;"/><path d="M1791.7559,230.7307 C1828.0698,265.3738 1865.5825,301.1604 1903.7624,337.5836" fill="none" style="stroke:#181818;stroke-width:1.6667;"/></g><g class="link" data-entity-1="ent0019" data-entity-2="ent0015" data-link-type="dependency" id="lnk45"><polygon fill="#181818" points="399.7148,344.3703,416.1292,344.2566,407.3063,340.9331,410.6298,332.1102,399.7148,344.3703" style="stroke:#181818;stroke-width:1.6667;"/><path d="M1406.236,172.9934 C1157.8084,186.1631 805.2659,219.5918 507.5,303.8281 C471.5275,314.0046 443.4022,324.5904 408.8246,340.2457" fill="none" style="stroke:#181818;stroke-width:1.6667;"/></g><g class="link" data-entity-1="ent0019" data-entity-2="ent0016" data-link-type="dependency" id="lnk46"><polygon fill="#181818" points="959.2093,357.7414,975.6146,358.2995,966.9351,354.6178,970.6168,345.9383,959.2093,357.7414" style="stroke:#181818;stroke-width:1.6667;"/><path d="M1406.3069,226.1777 C1309.5656,247.677 1203.4078,274.0003 1107.5,303.8281 C1058.4883,319.0711 1015.4581,334.9994 968.4802,353.9931" fill="none" style="stroke:#181818;stroke-width:1.6667;"/></g><g class="link" data-entity-1="ent0019" data-entity-2="ent0017" data-link-type="dependency" id="lnk47"><polygon fill="#181818" points="1549.218,330.9907,1564.6561,325.413,1555.23,325.22,1555.4229,315.7939,1549.218,330.9907" style="stroke:#181818;stroke-width:1.6667;"/><path d="M1653.669,230.7307 C1621.9525,261.1746 1590.9768,290.9075 1556.4324,324.0659" fill="none" style="stroke:#181818;stroke-width:1.6667;"/></g><g class="link" data-entity-1="ent0019" data-entity-2="ent0018" data-link-type="dependency" id="lnk48"><polygon fill="#181818" points="2347.2906,371.8853,2336.6385,359.3962,2339.7738,368.2877,2330.8823,371.423,2347.2906,371.8853" style="stroke:#181818;stroke-width:1.6667;"/><path d="M1968.3835,230.52 C2040.7539,251.8336 2119.6027,276.9658 2190.8333,303.8281 C2243.3973,323.6509 2291.1953,345.0375 2338.2704,367.5681" fill="none" style="stroke:#181818;stroke-width:1.6667;"/></g><g class="link" data-entity-1="ent0019" data-entity-2="ent0002" data-link-type="dependency" id="lnk49"><polygon fill="#181818" points="4539.6934,344.4021,4528.3308,332.5557,4531.9796,341.2492,4523.2861,344.8979,4539.6934,344.4021" style="stroke:#181818;stroke-width:1.6667;"/><path d="M2038.4618,196.9305 C2209.2455,213.2949 2423.8995,232.1306 2615.8333,243.8281 C3014.9448,268.1522 4023.5119,218.5611 4414.1667,303.8281 C4456.0728,312.9748 4490.3406,324.2298 4530.4368,340.6186" fill="none" style="stroke:#181818;stroke-width:1.6667;"/></g><g class="link" data-entity-1="ent0021" data-entity-2="ent0018" data-link-type="dependency" id="lnk50"><polygon fill="#181818" points="2559.5673,372.1213,2575.9767,371.7001,2567.0931,368.5425,2570.2507,359.6589,2559.5673,372.1213" style="stroke:#181818;stroke-width:1.6667;"/><path d="M2829.354,243.8282 C2741.7039,285.509 2645.7469,331.1398 2568.5982,367.8268" fill="none" style="stroke:#181818;stroke-width:1.6667;"/></g><g class="link" data-entity-1="ent0021" data-entity-2="ent0002" data-link-type="dependency" id="lnk51"><polygon fill="#181818" points="4538.0156,344.5105,4526.6432,332.6735,4530.2991,341.3639,4521.6087,345.0198,4538.0156,344.5105" style="stroke:#181818;stroke-width:1.6667;"/><path d="M3360.2034,241.6821 C3365.4436,242.4269 3370.6558,243.143 3375.8333,243.8281 C3834.0902,304.4657 3963.7824,199.7594 4414.1667,303.8281 C4455.4325,313.3633 4489.0859,324.5582 4528.7559,340.7346" fill="none" style="stroke:#181818;stroke-width:1.6667;"/></g><g class="link" data-entity-1="ent0021" data-entity-2="ent0005" data-link-type="dependency" id="lnk52"><polygon fill="#181818" points="3327.2384,331.0378,3317.6333,317.7267,3320.0379,326.843,3310.9216,329.2476,3327.2384,331.0378" style="stroke:#181818;stroke-width:1.6667;"/><path d="M3163.3812,243.9393 C3201.7556,262.9283 3242.141,283.5845 3279.1667,303.8281 C3294.8803,312.4195 3302.4833,316.6162 3318.5978,326.004" fill="none" style="stroke:#181818;stroke-width:1.6667;"/></g><g class="link" data-entity-1="ent0021" data-entity-2="ent0014" data-link-type="dependency" id="lnk53"><polygon fill="#181818" points="2107.9725,344.5202,2124.281,342.6551,2115.1538,340.2924,2117.5165,331.1652,2107.9725,344.5202" style="stroke:#181818;stroke-width:1.6667;"/><path d="M2631.513,198.1107 C2490.7055,218.6067 2330.2334,251.4332 2190.8333,303.8281 C2162.7531,314.3824 2142.8636,323.9788 2116.59,339.4468" fill="none" style="stroke:#181818;stroke-width:1.6667;"/></g><g class="link" data-entity-1="ent0021" data-entity-2="ent0020" data-link-type="dependency" id="lnk54"><polygon fill="#181818" points="2995.8333,344.2531,3002.5,329.2531,2995.8333,335.9198,2989.1667,329.2531,2995.8333,344.2531" style="stroke:#181818;stroke-width:1.6667;"/><path d="M2995.8333,243.8282 C2995.8333,275.6842 2995.8333,302.3562 2995.8333,334.2531" fill="none" style="stroke:#181818;stroke-width:1.6667;"/></g><g class="link" data-entity-1="ent0021" data-entity-2="ent0008" data-link-type="dependency" id="lnk55"><polygon fill="#181818" points="5001.3748,307.0059,4988.1171,297.3272,4993.2287,305.2493,4985.3066,310.3609,5001.3748,307.0059" style="stroke:#181818;stroke-width:1.6667;"/><path d="M3360.1843,241.8317 C3365.4305,242.5297 3370.6491,243.1961 3375.8333,243.8281 C4086.6222,330.4885 4282.7495,168.1667 4985.8333,303.8281 C4990.9894,304.823 4986.3971,303.7762 4991.5995,304.898" fill="none" style="stroke:#181818;stroke-width:1.6667;"/></g><g class="link" data-entity-1="ent0027" data-entity-2="ent0002" data-link-type="extension" id="lnk56"><polygon fill="none" points="4831.2514,344.6093,4862.0834,337.5816,4851.7004,320.4879,4831.2514,344.6093" style="stroke:#181818;stroke-width:1.6667;"/><path d="M5064.0844,203.1815 C5002.9153,240.3369 4934.136,282.115 4856.8919,329.0347" fill="none" style="stroke:#181818;stroke-width:1.6667;stroke-dasharray:11.6667,11.6667;"/></g><g class="link" data-entity-1="ent0028" data-entity-2="ent0002" data-link-type="extension" id="lnk57"><polygon fill="none" points="4872.7494,344.5171,4904.3043,342.4462,4896.7507,323.9274,4872.7494,344.5171" style="stroke:#181818;stroke-width:1.6667;"/><path d="M5403.8126,203.0788 C5374.1433,217.6047 5339.0028,233.1816 5305.8333,243.8281 C5168.0559,288.0509 5124.4115,262.1824 4985.8333,303.8281 C4948.5576,315.0303 4937.3151,318.1816 4900.5275,333.1868" fill="none" style="stroke:#181818;stroke-width:1.6667;stroke-dasharray:11.6667,11.6667;"/></g><g class="link" data-entity-1="ent0029" data-entity-2="ent0002" data-link-type="extension" id="lnk58"><polygon fill="none" points="4519.1224,344.5122,4495.6795,323.2888,4487.6341,341.5992,4519.1224,344.5122" style="stroke:#181818;stroke-width:1.6667;"/><path d="M4203.2186,202.9973 C4231.4779,216.0558 4263.3296,230.6737 4292.5,243.8281 C4366.4791,277.1892 4420.8176,301.3177 4491.6568,332.444" fill="none" style="stroke:#181818;stroke-width:1.6667;stroke-dasharray:11.6667,11.6667;"/></g><g class="link" data-entity-1="ent0030" data-entity-2="ent0002" data-link-type="extension" id="lnk59"><polygon fill="none" points="4633.5054,344.5138,4621.7146,315.1715,4606.4673,328.1145,4633.5054,344.5138" style="stroke:#181818;stroke-width:1.6667;"/><path d="M4513.7696,203.4613 C4545.295,240.5992 4574.3768,274.8585 4614.0909,321.643" fill="none" style="stroke:#181818;stroke-width:1.6667;stroke-dasharray:11.6667,11.6667;"/></g><g class="link" data-entity-1="ent0031" data-entity-2="ent0002" data-link-type="extension" id="lnk60"><polygon fill="none" points="4733.9872,344.5138,4754.7836,320.6914,4736.3309,312.978,4733.9872,344.5138" style="stroke:#181818;stroke-width:1.6667;"/><path d="M4792.9481,203.4613 C4777.4242,240.5992 4765.1135,270.0503 4745.5573,316.8347" fill="none" style="stroke:#181818;stroke-width:1.6667;stroke-dasharray:11.6667,11.6667;"/></g><g class="legend" data-source-line="192"><rect fill="#DDDDDD" height="159.1406" rx="12.5" ry="12.5" style="stroke:#000000;stroke-width:1.6667;" width="390.7975" x="8555.8691" y="778.8281"/><text fill="#000000" font-family="'Noto Sans CJK SC'" font-size="23.3333" font-weight="bold" lengthAdjust="spacing" textLength="28.0046" x="8572.3258" y="812.1533">&#39068;&#33394;</text><text fill="#000000" font-family="'Noto Sans CJK SC'" font-size="23.3333" font-weight="bold" lengthAdjust="spacing" textLength="28.0046" x="8616.5771" y="812.1533">&#21547;&#20041;</text><rect fill="#F3E5F5" height="27.1615" style="stroke:none;stroke-width:1.6667;" width="44.2513" x="8564.2025" y="817.6563"/><text fill="#000000" font-family="'Noto Sans CJK SC'" font-size="23.3333" lengthAdjust="spacing" textLength="7.417" x="8564.2025" y="839.3148">&#160;</text><text fill="#000000" font-family="'Noto Sans CJK SC'" font-size="23.3333" lengthAdjust="spacing" textLength="220.1172" x="8615.8708" y="839.3148">&#19994;&#21153;&#26381;&#21153;&#23618;&#65288;Service/&#25509;&#21475;&#65289;</text><rect fill="#E8F5E9" height="27.1615" style="stroke:none;stroke-width:1.6667;" width="44.2513" x="8564.2025" y="844.8177"/><text fill="#000000" font-family="'Noto Sans CJK SC'" font-size="23.3333" lengthAdjust="spacing" textLength="7.417" x="8564.2025" y="866.4762">&#160;</text><text fill="#000000" font-family="'Noto Sans CJK SC'" font-size="23.3333" lengthAdjust="spacing" textLength="315.0456" x="8615.8708" y="866.4762">&#25968;&#25454;&#35775;&#38382;/&#23384;&#20648;&#65288;Repository/Store&#65289;</text><rect fill="#FFF3E0" height="27.1615" style="stroke:none;stroke-width:1.6667;" width="44.2513" x="8564.2025" y="871.9792"/><text fill="#000000" font-family="'Noto Sans CJK SC'" font-size="23.3333" lengthAdjust="spacing" textLength="7.417" x="8564.2025" y="893.6377">&#160;</text><text fill="#000000" font-family="'Noto Sans CJK SC'" font-size="23.3333" lengthAdjust="spacing" textLength="187.43" x="8615.8708" y="893.6377">&#32593;&#32476;/&#22806;&#37096;&#38598;&#25104;&#65288;Client&#65289;</text><rect fill="#ECEFF1" height="27.1615" style="stroke:none;stroke-width:1.6667;" width="44.2513" x="8564.2025" y="899.1406"/><text fill="#000000" font-family="'Noto Sans CJK SC'" font-size="23.3333" lengthAdjust="spacing" textLength="7.417" x="8564.2025" y="920.7992">&#160;</text><text fill="#000000" font-family="'Noto Sans CJK SC'" font-size="23.3333" lengthAdjust="spacing" textLength="119.8796" x="8615.8708" y="920.7992">&#24179;&#21488;&#25554;&#20214;/&#31995;&#32479;&#33021;&#21147;</text><line style="stroke:#000000;stroke-width:1.6667;" x1="8564.2025" x2="8938.3333" y1="790.4948" y2="790.4948"/><line style="stroke:#000000;stroke-width:1.6667;" x1="8564.2025" x2="8938.3333" y1="817.6563" y2="817.6563"/><line style="stroke:#000000;stroke-width:1.6667;" x1="8564.2025" x2="8938.3333" y1="844.8177" y2="844.8177"/><line style="stroke:#000000;stroke-width:1.6667;" x1="8564.2025" x2="8938.3333" y1="871.9792" y2="871.9792"/><line style="stroke:#000000;stroke-width:1.6667;" x1="8564.2025" x2="8938.3333" y1="899.1406" y2="899.1406"/><line style="stroke:#000000;stroke-width:1.6667;" x1="8564.2025" x2="8938.3333" y1="926.3021" y2="926.3021"/><line style="stroke:#000000;stroke-width:1.6667;" x1="8564.2025" x2="8564.2025" y1="790.4948" y2="926.3021"/><line style="stroke:#000000;stroke-width:1.6667;" x1="8608.4538" x2="8608.4538" y1="790.4948" y2="926.3021"/><line style="stroke:#000000;stroke-width:1.6667;" x1="8938.3333" x2="8938.3333" y1="790.4948" y2="926.3021"/></g><?plantuml-src dLXRRnD757xVNp6e3tNL48TBQ8bI8vF4BHMNb0JwYCQxnywGySuoC-kG0YyWAa2Yq4gbLQ7gNK9gYw2e5IY1_XaSu8c_q3Epw-p5iqbK7aoqyvtxcNE-tLqiz7aS00c4h-fK-ajCWwzZ2VM0qQwaFLK_e_GgX_4exd5FCys1SDQ1Cre8hiZWwX-3guysllXjSEkNmTN7Bn-l3Uu-VxD-RUF79uD_hv05a7tc0wcJ8w46sQ4-l5c_xdcx8acxFKeuNHMn9ge7ceRKyzGo2oEAPebQee5OOM6NT2XNa3lnELMggRLaxLZ34L-42-mp81FU4iD059e1eLSZyCeov897o67gBtUbYCDWHd0XfwTJ5niDybPhtznaQzA0X0n0ZW8EDFSSFjXqQPcbcXh4tFkjoRc3PHN3qxrpxytks-kIFmvwHSXbwqKB_PWegyW1vbe7PYOcN5hcETKT8NiMDJFNQkqfgyaZzazEDW_izovv7XiMXonYLHTMGtzUYZwcKv9y_2P_xvgw7mcco08M8EoQ9t0-4bAR66llJ95MRDfd-XYD6kQGzJOFLKWZjIJq5C733DaNB6WKlMX6qN6XMOVvL3EiRzf51VUjConakbPMXS_HpCenK8fseMPxTeoqHR3gGlfB4CGSXcWMZ96Sn1WP0eAcTeZxDFI1ezIMyIo0Bq4lQ25D46ats01M95wusZAWeJxbCJXCIA21GMH7IUeFsTC0E2GQ71uaRTzaCoBii6wMnb99VNiyjGayj6LgQHzgYOGh7noeh5MwSYA24Arm1g4c-QPE_5YYUaRq8em8gwvIAsD4mhaOL2xzg0AX9q75N1S2hGuHyRLUKcCrHiR7nwkqfU15EAzhaKHlT0cUP3yVLFkiBUqEiro4sroVmsJ7IPEe3F19xgc51TWuCtY7i1j7mBCZPpkjOYcydPPoNa97kHfx23WgVCg7xfNQtfW_lAf1rThcTunq68UGzdBzZqwbxQy4xyCfoIekmQP7DbzLlHL7ND0WiLc8TsYd7JCUpCTjplnJagUORCWbnvBrgOQHyqqNSbMeSYIADIO5bspDdVQyeGz1ktp1jcn3vceiUQQdZUFPqPkLNPdFIsKjXbeIntTG5Wk1KE6J6Me6Q0jr9cEk4BLvd2-XMJqxl4OPzF-Egu9LswqB6fDUQPaRo2a5Cbj_Mvi6VJGJgSNslqedFiLrLscw2pfj8-DYh7Bc2iyRANWcbXAxp-WyZfMiRNLjJFJDg78eApmkjgeHm6aPuOY6nX1oUcyrwFHU2-DCwUInZvH4kV3s83U9fU2yZIndKPo4FbEu5HnIAMPa7LWkatAEESjH77pcWiB4CV_IaCOqEJTZtvAVygAmdAQGjyg2sQnXghjTa7YZXFHX5dmRGVck8ff64Lyr6a0E7QvPVctcoPQr0wtnaQhq8u0EnQmi5aZReUJYupg1ZqGFpE49mn6HnYXt7yzcQjnS9t774D8uma9iDNAoZBSj_3Gc6jCoHP0lPNIogJvMMEtq_MG1PmdJh0_EGICJWotSrbReBFwO_Ps12uwDD4hA_Kv29D2AaAlPBYi0AhCy91PJv2Zs-3JIrrIYaMGQRxuU4in2Hs782OsBOja5R58c8QY5OgK0oRbg1yfst7Zp0j1kTKnuM1aFhdRCwPAv2qv2QazDCw0ILKlU2AhfPnIb8xtYlM8u077e71NReN0F-SiHherjS2VmBlb2B4Em3T3aeGhXlKrsup_ouldth_w-axpVsYTUHZLtxswK6NRfD4zwFS_D5WqkHwQy4NOrFdwnY2XlTcl9fTk9B90p9oB7ffpd8rJ7yqhNnA16hfOBv7xTyofxtUQYGiZBzRNHNRW3dfSVsZRdPSBXH8oGWn5KRdixDMmks95JrvPoWt9TwZadRQMwhT4xqbjkyKhWQ4QheSNjLGrqzxNddYosEqO2SqqNDz8zOTpOYYdZ1fSdZHlbSUX2613a3ajc7rxyWBp--Twhwt-PlmQtVt_nz3gvQ9vFfz-h6kGYUV7aky6DdpRktSJVmQFBRzQlfKcg9v_ctgnl2YLVg8pGnjSFDsu-UFNWtzVVFAWF_lnsSFa-2cQtfMvpdXDDlamPqPVFldovTgy--FNEwoltNz_zVEFQRHHDEZnlotw3CWA3fuy7jnvktFhgnTe_TPoYBzT-U7NbsU36NOHYj4dCtdy0?></g></svg>