<?plantuml 1.2026.1?><svg xmlns="http://www.w3.org/2000/svg" xmlns:xlink="http://www.w3.org/1999/xlink" contentStyleType="text/css" data-diagram-type="CLASS" height="1090px" preserveAspectRatio="none" style="width:8191px;height:1090px;background:#FFFFFF;" version="1.1" viewBox="0 0 8191 1090" width="8191.6667px" zoomAndPan="magnify"><title>life_tools &#20844;&#20849;&#25509;&#21475;&#20851;&#31995;&#22270;&#65288;&#26680;&#24515; Service / Interface&#65289;</title><defs/><g><g class="title" data-source-line="2"><text fill="#000000" font-family="'Noto Sans CJK SC'" font-size="23.3333" font-weight="bold" lengthAdjust="spacing" textLength="583.9377" x="3797.1978" y="43.7332">life_tools &#20844;&#20849;&#25509;&#21475;&#20851;&#31995;&#22270;&#65288;&#26680;&#24515; Service / Interface&#65289;</text></g><!--class ToolSyncProvider--><g class="entity" data-qualified-name="ToolSyncProvider" data-source-line="21" id="ent0002"><rect fill="#F3E5F5" height="181.3596" rx="4.1667" ry="4.1667" style="stroke:#6A1B9A;stroke-width:0.8333;" width="490.1415" x="4035" y="381.2865"/><ellipse cx="4175.9561" cy="407.9532" fill="#B4A7E5" rx="18.3333" ry="18.3333" style="stroke:#181818;stroke-width:1.6667;"/><path d="M4169.1593,400.8959 L4169.1593,397.3021 L4181.477,397.3021 L4181.477,400.8959 L4177.3624,400.8959 L4177.3624,414.3594 L4181.477,414.3594 L4181.477,417.9532 L4169.1593,417.9532 L4169.1593,414.3594 L4173.2738,414.3594 L4173.2738,400.8959 L4169.1593,400.8959 Z " fill="#000000"/><text fill="#000000" font-family="'Noto Sans CJK SC'" font-size="23.3333" font-style="italic" lengthAdjust="spacing" textLength="194.0626" x="4210.1228" y="418.1265">ToolSyncProvider</text><line style="stroke:#6A1B9A;stroke-width:0.8333;" x1="4036.6667" x2="4523.4748" y1="434.6199" y2="434.6199"/><text fill="#000000" font-family="'Noto Sans CJK SC'" font-size="23.3333" lengthAdjust="spacing" textLength="155.2361" x="4045" y="468.3531">+toolId: String</text><line style="stroke:#6A1B9A;stroke-width:0.8333;" x1="4036.6667" x2="4523.4748" y1="481.7397" y2="481.7397"/><text fill="#000000" font-family="'Noto Sans CJK SC'" font-size="23.3333" lengthAdjust="spacing" textLength="306.9955" x="4045" y="515.4729">+exportData(): Future&lt;Map&gt;</text><text fill="#000000" font-family="'Noto Sans CJK SC'" font-size="23.3333" lengthAdjust="spacing" textLength="470.1415" x="4045" y="549.2594">+importData(snapshot: Map): Future&lt;void&gt;</text></g><!--class AppNotificationService--><g class="entity" data-qualified-name="AppNotificationService" data-source-line="27" id="ent0003"><rect fill="#ECEFF1" height="215.1461" rx="4.1667" ry="4.1667" style="stroke:#455A64;stroke-width:0.8333;" width="686.8406" x="6725" y="364.6199"/><ellipse cx="6935.7108" cy="391.2865" fill="#B4A7E5" rx="18.3333" ry="18.3333" style="stroke:#181818;stroke-width:1.6667;"/><path d="M6928.9139,384.2292 L6928.9139,380.6355 L6941.2316,380.6355 L6941.2316,384.2292 L6937.117,384.2292 L6937.117,397.6928 L6941.2316,397.6928 L6941.2316,401.2865 L6928.9139,401.2865 L6928.9139,397.6928 L6933.0285,397.6928 L6933.0285,384.2292 L6928.9139,384.2292 Z " fill="#000000"/><text fill="#000000" font-family="'Noto Sans CJK SC'" font-size="23.3333" font-style="italic" lengthAdjust="spacing" textLength="251.2524" x="6969.8775" y="401.4598">AppNotificationService</text><line style="stroke:#455A64;stroke-width:0.8333;" x1="6726.6667" x2="7410.174" y1="417.9532" y2="417.9532"/><line style="stroke:#455A64;stroke-width:0.8333;" x1="6726.6667" x2="7410.174" y1="431.2865" y2="431.2865"/><text fill="#000000" font-family="'Noto Sans CJK SC'" font-size="23.3333" lengthAdjust="spacing" textLength="221.3625" x="6735" y="465.0197">+init(): Future&lt;void&gt;</text><text fill="#000000" font-family="'Noto Sans CJK SC'" font-size="23.3333" lengthAdjust="spacing" textLength="446.8316" x="6735" y="498.8063">+showMessage(title, body): Future&lt;void&gt;</text><text fill="#000000" font-family="'Noto Sans CJK SC'" font-size="23.3333" lengthAdjust="spacing" textLength="666.8406" x="6735" y="532.5928">+scheduleMessage(id, title, body, scheduledAt): Future&lt;void&gt;</text><text fill="#000000" font-family="'Noto Sans CJK SC'" font-size="23.3333" lengthAdjust="spacing" textLength="277.1056" x="6735" y="566.3793">+cancel(id): Future&lt;void&gt;</text></g><!--class SecretStore--><g class="entity" data-qualified-name="SecretStore" data-source-line="34" id="ent0004"><rect fill="#E8F5E9" height="181.3596" rx="4.1667" ry="4.1667" style="stroke:#2E7D32;stroke-width:0.8333;" width="370.092" x="4886.6667" y="673.7865"/><ellipse cx="5000.4629" cy="700.4532" fill="#B4A7E5" rx="18.3333" ry="18.3333" style="stroke:#181818;stroke-width:1.6667;"/><path d="M4993.6661,693.3959 L4993.6661,689.8021 L5005.9838,689.8021 L5005.9838,693.3959 L5001.8692,693.3959 L5001.8692,706.8594 L5005.9838,706.8594 L5005.9838,710.4532 L4993.6661,710.4532 L4993.6661,706.8594 L4997.7806,706.8594 L4997.7806,693.3959 L4993.6661,693.3959 Z " fill="#000000"/><text fill="#000000" font-family="'Noto Sans CJK SC'" font-size="23.3333" font-style="italic" lengthAdjust="spacing" textLength="128.3328" x="5034.6296" y="710.6265">SecretStore</text><line style="stroke:#2E7D32;stroke-width:0.8333;" x1="4888.3333" x2="5255.092" y1="727.1199" y2="727.1199"/><line style="stroke:#2E7D32;stroke-width:0.8333;" x1="4888.3333" x2="5255.092" y1="740.4532" y2="740.4532"/><text fill="#000000" font-family="'Noto Sans CJK SC'" font-size="23.3333" lengthAdjust="spacing" textLength="350.092" x="4896.6667" y="774.1864">+write(key, value): Future&lt;void&gt;</text><text fill="#000000" font-family="'Noto Sans CJK SC'" font-size="23.3333" lengthAdjust="spacing" textLength="302.4921" x="4896.6667" y="807.9729">+read(key): Future&lt;String?&gt;</text><text fill="#000000" font-family="'Noto Sans CJK SC'" font-size="23.3333" lengthAdjust="spacing" textLength="292.1322" x="4896.6667" y="841.7594">+delete(key): Future&lt;void&gt;</text></g><!--class AiConfigService--><g class="entity" data-qualified-name="AiConfigService" data-source-line="40" id="ent0005"><rect fill="#F3E5F5" height="215.1461" rx="4.1667" ry="4.1667" style="stroke:#6A1B9A;stroke-width:0.8333;" width="322.0722" x="3004.1667" y="364.6199"/><ellipse cx="3073.4599" cy="391.2865" fill="#ADD1B2" rx="18.3333" ry="18.3333" style="stroke:#181818;stroke-width:1.6667;"/><path d="M3078.4079,400.6876 Q3077.4443,401.1824 3076.3766,401.4167 Q3075.3089,401.6771 3074.137,401.6771 Q3069.9704,401.6771 3067.7568,398.9428 Q3065.5693,396.1824 3065.5693,390.974 Q3065.5693,385.7657 3067.7568,383.0053 Q3069.9704,380.2449 3074.137,380.2449 Q3075.3089,380.2449 3076.3766,380.5053 Q3077.4704,380.7657 3078.4079,381.2605 L3078.4079,385.7917 Q3077.3662,384.8282 3076.3766,384.3855 Q3075.387,383.9167 3074.3454,383.9167 Q3072.1058,383.9167 3070.9599,385.7136 Q3069.8141,387.4844 3069.8141,390.974 Q3069.8141,394.4636 3070.9599,396.2605 Q3072.1058,398.0313 3074.3454,398.0313 Q3075.387,398.0313 3076.3766,397.5886 Q3077.3662,397.1199 3078.4079,396.1563 L3078.4079,400.6876 Z " fill="#000000"/><text fill="#000000" font-family="'Noto Sans CJK SC'" font-size="23.3333" lengthAdjust="spacing" textLength="170.3093" x="3106.6362" y="401.4598">AiConfigService</text><line style="stroke:#6A1B9A;stroke-width:0.8333;" x1="3005.8333" x2="3324.5722" y1="417.9532" y2="417.9532"/><text fill="#000000" font-family="'Noto Sans CJK SC'" font-size="23.3333" lengthAdjust="spacing" textLength="194.1792" x="3014.1667" y="451.6864">+config: AiConfig?</text><line style="stroke:#6A1B9A;stroke-width:0.8333;" x1="3005.8333" x2="3324.5722" y1="465.073" y2="465.073"/><text fill="#000000" font-family="'Noto Sans CJK SC'" font-size="23.3333" lengthAdjust="spacing" textLength="221.3625" x="3014.1667" y="498.8063">+init(): Future&lt;void&gt;</text><text fill="#000000" font-family="'Noto Sans CJK SC'" font-size="23.3333" lengthAdjust="spacing" textLength="302.0722" x="3014.1667" y="532.5928">+save(config): Future&lt;void&gt;</text><text fill="#000000" font-family="'Noto Sans CJK SC'" font-size="23.3333" lengthAdjust="spacing" textLength="239.1424" x="3014.1667" y="566.3793">+clear(): Future&lt;void&gt;</text></g><!--class OpenAiClient--><g class="entity" data-qualified-name="OpenAiClient" data-source-line="47" id="ent0006"><rect fill="#FFF3E0" height="113.7865" rx="4.1667" ry="4.1667" style="stroke:#EF6C00;stroke-width:0.8333;" width="647.7108" x="3355.8333" y="415.4532"/><ellipse cx="3600.8907" cy="442.1199" fill="#ADD1B2" rx="18.3333" ry="18.3333" style="stroke:#181818;stroke-width:1.6667;"/><path d="M3605.8386,451.5209 Q3604.8751,452.0157 3603.8073,452.2501 Q3602.7396,452.5105 3601.5678,452.5105 Q3597.4011,452.5105 3595.1876,449.7761 Q3593.0001,447.0157 3593.0001,441.8074 Q3593.0001,436.599 3595.1876,433.8386 Q3597.4011,431.0782 3601.5678,431.0782 Q3602.7396,431.0782 3603.8073,431.3386 Q3604.9011,431.599 3605.8386,432.0938 L3605.8386,436.6251 Q3604.7969,435.6615 3603.8073,435.2188 Q3602.8178,434.7501 3601.7761,434.7501 Q3599.5365,434.7501 3598.3907,436.5469 Q3597.2448,438.3178 3597.2448,441.8074 Q3597.2448,445.2969 3598.3907,447.0938 Q3599.5365,448.8646 3601.7761,448.8646 Q3602.8178,448.8646 3603.8073,448.4219 Q3604.7969,447.9532 3605.8386,446.9896 L3605.8386,451.5209 Z " fill="#000000"/><text fill="#000000" font-family="'Noto Sans CJK SC'" font-size="23.3333" lengthAdjust="spacing" textLength="143.4294" x="3635.0573" y="452.2931">OpenAiClient</text><line style="stroke:#EF6C00;stroke-width:0.8333;" x1="3357.5" x2="4001.8774" y1="468.7865" y2="468.7865"/><line style="stroke:#EF6C00;stroke-width:0.8333;" x1="3357.5" x2="4001.8774" y1="482.1199" y2="482.1199"/><text fill="#000000" font-family="'Noto Sans CJK SC'" font-size="23.3333" lengthAdjust="spacing" textLength="627.7108" x="3365.8333" y="515.8531">+chatCompletions(config, request): Future&lt;AiChatResult&gt;</text></g><!--class AiService--><g class="entity" data-qualified-name="AiService" data-source-line="51" id="ent0007"><rect fill="#F3E5F5" height="147.573" rx="4.1667" ry="4.1667" style="stroke:#6A1B9A;stroke-width:0.8333;" width="483.8416" x="3093.3333" y="105.4532"/><ellipse cx="3278.226" cy="132.1199" fill="#ADD1B2" rx="18.3333" ry="18.3333" style="stroke:#181818;stroke-width:1.6667;"/><path d="M3283.1739,141.5209 Q3282.2104,142.0157 3281.1426,142.2501 Q3280.0749,142.5105 3278.9031,142.5105 Q3274.7364,142.5105 3272.5229,139.7761 Q3270.3354,137.0157 3270.3354,131.8074 Q3270.3354,126.599 3272.5229,123.8386 Q3274.7364,121.0782 3278.9031,121.0782 Q3280.0749,121.0782 3281.1426,121.3386 Q3282.2364,121.599 3283.1739,122.0938 L3283.1739,126.6251 Q3282.1322,125.6615 3281.1426,125.2188 Q3280.1531,124.7501 3279.1114,124.7501 Q3276.8718,124.7501 3275.726,126.5469 Q3274.5801,128.3178 3274.5801,131.8074 Q3274.5801,135.2969 3275.726,137.0938 Q3276.8718,138.8646 3279.1114,138.8646 Q3280.1531,138.8646 3281.1426,138.4219 Q3282.1322,137.9532 3283.1739,136.9896 L3283.1739,141.5209 Z " fill="#000000"/><text fill="#000000" font-family="'Noto Sans CJK SC'" font-size="23.3333" lengthAdjust="spacing" textLength="99.8896" x="3312.3926" y="142.2931">AiService</text><line style="stroke:#6A1B9A;stroke-width:0.8333;" x1="3095" x2="3575.5082" y1="158.7865" y2="158.7865"/><line style="stroke:#6A1B9A;stroke-width:0.8333;" x1="3095" x2="3575.5082" y1="172.1199" y2="172.1199"/><text fill="#000000" font-family="'Noto Sans CJK SC'" font-size="23.3333" lengthAdjust="spacing" textLength="463.8416" x="3103.3333" y="205.8531">+chat(messages, ...): Future&lt;AiChatResult&gt;</text><text fill="#000000" font-family="'Noto Sans CJK SC'" font-size="23.3333" lengthAdjust="spacing" textLength="412.905" x="3103.3333" y="239.6396">+chatText(prompt, ...): Future&lt;String&gt;</text></g><!--class ObjStoreConfigService--><g class="entity" data-qualified-name="ObjStoreConfigService" data-source-line="56" id="ent0008"><rect fill="#F3E5F5" height="282.7191" rx="4.1667" ry="4.1667" style="stroke:#6A1B9A;stroke-width:0.8333;" width="588.4676" x="4555.8333" y="330.4532"/><ellipse cx="4719.6443" cy="357.1199" fill="#ADD1B2" rx="18.3333" ry="18.3333" style="stroke:#181818;stroke-width:1.6667;"/><path d="M4724.5922,366.5209 Q4723.6287,367.0157 4722.561,367.2501 Q4721.4933,367.5105 4720.3214,367.5105 Q4716.1547,367.5105 4713.9412,364.7761 Q4711.7537,362.0157 4711.7537,356.8074 Q4711.7537,351.599 4713.9412,348.8386 Q4716.1547,346.0782 4720.3214,346.0782 Q4721.4933,346.0782 4722.561,346.3386 Q4723.6547,346.599 4724.5922,347.0938 L4724.5922,351.6251 Q4723.5506,350.6615 4722.561,350.2188 Q4721.5714,349.7501 4720.5297,349.7501 Q4718.2901,349.7501 4717.1443,351.5469 Q4715.9985,353.3178 4715.9985,356.8074 Q4715.9985,360.2969 4717.1443,362.0938 Q4718.2901,363.8646 4720.5297,363.8646 Q4721.5714,363.8646 4722.561,363.4219 Q4723.5506,362.9532 4724.5922,361.9896 L4724.5922,366.5209 Z " fill="#000000"/><text fill="#000000" font-family="'Noto Sans CJK SC'" font-size="23.3333" lengthAdjust="spacing" textLength="246.679" x="4753.811" y="367.2931">ObjStoreConfigService</text><line style="stroke:#6A1B9A;stroke-width:0.8333;" x1="4557.5" x2="5142.6343" y1="383.7865" y2="383.7865"/><text fill="#000000" font-family="'Noto Sans CJK SC'" font-size="23.3333" lengthAdjust="spacing" textLength="270.5489" x="4565.8333" y="417.5197">+config: ObjStoreConfig?</text><text fill="#000000" font-family="'Noto Sans CJK SC'" font-size="23.3333" lengthAdjust="spacing" textLength="407.795" x="4565.8333" y="451.3063">+qiniuSecrets: ObjStoreQiniuSecrets?</text><text fill="#000000" font-family="'Noto Sans CJK SC'" font-size="23.3333" lengthAdjust="spacing" textLength="568.4676" x="4565.8333" y="485.0928">+dataCapsuleSecrets: ObjStoreDataCapsuleSecrets?</text><line style="stroke:#6A1B9A;stroke-width:0.8333;" x1="4557.5" x2="5142.6343" y1="498.4794" y2="498.4794"/><text fill="#000000" font-family="'Noto Sans CJK SC'" font-size="23.3333" lengthAdjust="spacing" textLength="221.3625" x="4565.8333" y="532.2126">+init(): Future&lt;void&gt;</text><text fill="#000000" font-family="'Noto Sans CJK SC'" font-size="23.3333" lengthAdjust="spacing" textLength="333.2454" x="4565.8333" y="565.9991">+save(config, ...): Future&lt;void&gt;</text><text fill="#000000" font-family="'Noto Sans CJK SC'" font-size="23.3333" lengthAdjust="spacing" textLength="239.1424" x="4565.8333" y="599.7857">+clear(): Future&lt;void&gt;</text></g><!--class PrefsSecretStore--><g class="entity" data-qualified-name="PrefsSecretStore" data-source-line="65" id="ent0009"><rect fill="#E8F5E9" height="80" rx="4.1667" ry="4.1667" style="stroke:#2E7D32;stroke-width:0.8333;" width="236.9193" x="5175" y="432.1199"/><ellipse cx="5200" cy="458.7865" fill="#ADD1B2" rx="18.3333" ry="18.3333" style="stroke:#181818;stroke-width:1.6667;"/><path d="M5204.9479,468.1876 Q5203.9844,468.6824 5202.9167,468.9167 Q5201.849,469.1771 5200.6771,469.1771 Q5196.5104,469.1771 5194.2969,466.4428 Q5192.1094,463.6824 5192.1094,458.474 Q5192.1094,453.2657 5194.2969,450.5053 Q5196.5104,447.7449 5200.6771,447.7449 Q5201.849,447.7449 5202.9167,448.0053 Q5204.0104,448.2657 5204.9479,448.7605 L5204.9479,453.2917 Q5203.9063,452.3282 5202.9167,451.8855 Q5201.9271,451.4167 5200.8854,451.4167 Q5198.6458,451.4167 5197.5,453.2136 Q5196.3542,454.9844 5196.3542,458.474 Q5196.3542,461.9636 5197.5,463.7605 Q5198.6458,465.5313 5200.8854,465.5313 Q5201.9271,465.5313 5202.9167,465.0886 Q5203.9063,464.6199 5204.9479,463.6563 L5204.9479,468.1876 Z " fill="#000000"/><text fill="#000000" font-family="'Noto Sans CJK SC'" font-size="23.3333" lengthAdjust="spacing" textLength="183.5859" x="5223.3333" y="468.9598">PrefsSecretStore</text><line style="stroke:#2E7D32;stroke-width:0.8333;" x1="5176.6667" x2="5410.2526" y1="485.4532" y2="485.4532"/><line style="stroke:#2E7D32;stroke-width:0.8333;" x1="5176.6667" x2="5410.2526" y1="498.7865" y2="498.7865"/></g><!--class LocalObjStore--><g class="entity" data-qualified-name="LocalObjStore" data-source-line="67" id="ent0010"><rect fill="#E8F5E9" height="147.573" rx="4.1667" ry="4.1667" style="stroke:#2E7D32;stroke-width:0.8333;" width="453.4383" x="5441.6667" y="397.9532"/><ellipse cx="5583.5795" cy="424.6199" fill="#ADD1B2" rx="18.3333" ry="18.3333" style="stroke:#181818;stroke-width:1.6667;"/><path d="M5588.5274,434.0209 Q5587.5638,434.5157 5586.4961,434.7501 Q5585.4284,435.0105 5584.2566,435.0105 Q5580.0899,435.0105 5577.8763,432.2761 Q5575.6888,429.5157 5575.6888,424.3074 Q5575.6888,419.099 5577.8763,416.3386 Q5580.0899,413.5782 5584.2566,413.5782 Q5585.4284,413.5782 5586.4961,413.8386 Q5587.5899,414.099 5588.5274,414.5938 L5588.5274,419.1251 Q5587.4857,418.1615 5586.4961,417.7188 Q5585.5066,417.2501 5584.4649,417.2501 Q5582.2253,417.2501 5581.0795,419.0469 Q5579.9336,420.8178 5579.9336,424.3074 Q5579.9336,427.7969 5581.0795,429.5938 Q5582.2253,431.3646 5584.4649,431.3646 Q5585.5066,431.3646 5586.4961,430.9219 Q5587.4857,430.4532 5588.5274,429.4896 L5588.5274,434.0209 Z " fill="#000000"/><text fill="#000000" font-family="'Noto Sans CJK SC'" font-size="23.3333" lengthAdjust="spacing" textLength="155.446" x="5617.7461" y="434.7931">LocalObjStore</text><line style="stroke:#2E7D32;stroke-width:0.8333;" x1="5443.3333" x2="5893.4383" y1="451.2865" y2="451.2865"/><line style="stroke:#2E7D32;stroke-width:0.8333;" x1="5443.3333" x2="5893.4383" y1="464.6199" y2="464.6199"/><text fill="#000000" font-family="'Noto Sans CJK SC'" font-size="23.3333" lengthAdjust="spacing" textLength="433.4383" x="5451.6667" y="498.3531">+saveBytes(bytes, filename): Future&lt;...&gt;</text><text fill="#000000" font-family="'Noto Sans CJK SC'" font-size="23.3333" lengthAdjust="spacing" textLength="363.9519" x="5451.6667" y="532.1396">+resolveUri(key): Future&lt;String?&gt;</text></g><!--class QiniuClient--><g class="entity" data-qualified-name="QiniuClient" data-source-line="72" id="ent0011"><rect fill="#FFF3E0" height="181.3596" rx="4.1667" ry="4.1667" style="stroke:#EF6C00;stroke-width:0.8333;" width="334.3688" x="5925.8333" y="381.2865"/><ellipse cx="6024.7196" cy="407.9532" fill="#ADD1B2" rx="18.3333" ry="18.3333" style="stroke:#181818;stroke-width:1.6667;"/><path d="M6029.6675,417.3542 Q6028.704,417.849 6027.6363,418.0834 Q6026.5686,418.3438 6025.3967,418.3438 Q6021.23,418.3438 6019.0165,415.6094 Q6016.829,412.849 6016.829,407.6407 Q6016.829,402.4324 6019.0165,399.6719 Q6021.23,396.9115 6025.3967,396.9115 Q6026.5686,396.9115 6027.6363,397.1719 Q6028.73,397.4324 6029.6675,397.9271 L6029.6675,402.4584 Q6028.6259,401.4949 6027.6363,401.0521 Q6026.6467,400.5834 6025.605,400.5834 Q6023.3655,400.5834 6022.2196,402.3803 Q6021.0738,404.1511 6021.0738,407.6407 Q6021.0738,411.1303 6022.2196,412.9271 Q6023.3655,414.698 6025.605,414.698 Q6026.6467,414.698 6027.6363,414.2553 Q6028.6259,413.7865 6029.6675,412.823 L6029.6675,417.3542 Z " fill="#000000"/><text fill="#000000" font-family="'Noto Sans CJK SC'" font-size="23.3333" lengthAdjust="spacing" textLength="122.4295" x="6058.8863" y="418.1265">QiniuClient</text><line style="stroke:#EF6C00;stroke-width:0.8333;" x1="5927.5" x2="6258.5354" y1="434.6199" y2="434.6199"/><line style="stroke:#EF6C00;stroke-width:0.8333;" x1="5927.5" x2="6258.5354" y1="447.9532" y2="447.9532"/><text fill="#000000" font-family="'Noto Sans CJK SC'" font-size="23.3333" lengthAdjust="spacing" textLength="314.3688" x="5935.8333" y="481.6864">+uploadBytes(...): Future&lt;...&gt;</text><text fill="#000000" font-family="'Noto Sans CJK SC'" font-size="23.3333" lengthAdjust="spacing" textLength="282.3556" x="5935.8333" y="515.4729">+buildPublicUrl(...): String</text><text fill="#000000" font-family="'Noto Sans CJK SC'" font-size="23.3333" lengthAdjust="spacing" textLength="291.3155" x="5935.8333" y="549.2594">+buildPrivateUrl(...): String</text></g><!--class DataCapsuleClient--><g class="entity" data-qualified-name="DataCapsuleClient" data-source-line="78" id="ent0012"><rect fill="#FFF3E0" height="181.3596" rx="4.1667" ry="4.1667" style="stroke:#EF6C00;stroke-width:0.8333;" width="403.2951" x="6291.6667" y="381.2865"/><ellipse cx="6385.163" cy="407.9532" fill="#ADD1B2" rx="18.3333" ry="18.3333" style="stroke:#181818;stroke-width:1.6667;"/><path d="M6390.1109,417.3542 Q6389.1473,417.849 6388.0796,418.0834 Q6387.0119,418.3438 6385.84,418.3438 Q6381.6734,418.3438 6379.4598,415.6094 Q6377.2723,412.849 6377.2723,407.6407 Q6377.2723,402.4324 6379.4598,399.6719 Q6381.6734,396.9115 6385.84,396.9115 Q6387.0119,396.9115 6388.0796,397.1719 Q6389.1734,397.4324 6390.1109,397.9271 L6390.1109,402.4584 Q6389.0692,401.4949 6388.0796,401.0521 Q6387.09,400.5834 6386.0484,400.5834 Q6383.8088,400.5834 6382.663,402.3803 Q6381.5171,404.1511 6381.5171,407.6407 Q6381.5171,411.1303 6382.663,412.9271 Q6383.8088,414.698 6386.0484,414.698 Q6387.09,414.698 6388.0796,414.2553 Q6389.0692,413.7865 6390.1109,412.823 L6390.1109,417.3542 Z " fill="#000000"/><text fill="#000000" font-family="'Noto Sans CJK SC'" font-size="23.3333" lengthAdjust="spacing" textLength="202.1359" x="6419.3296" y="418.1265">DataCapsuleClient</text><line style="stroke:#EF6C00;stroke-width:0.8333;" x1="6293.3333" x2="6693.2951" y1="434.6199" y2="434.6199"/><line style="stroke:#EF6C00;stroke-width:0.8333;" x1="6293.3333" x2="6693.2951" y1="447.9532" y2="447.9532"/><text fill="#000000" font-family="'Noto Sans CJK SC'" font-size="23.3333" lengthAdjust="spacing" textLength="314.1588" x="6301.6667" y="481.6864">+putObject(...): Future&lt;void&gt;</text><text fill="#000000" font-family="'Noto Sans CJK SC'" font-size="23.3333" lengthAdjust="spacing" textLength="329.1154" x="6301.6667" y="515.4729">+buildPrivateGetUrl(...): String</text><text fill="#000000" font-family="'Noto Sans CJK SC'" font-size="23.3333" lengthAdjust="spacing" textLength="383.2951" x="6301.6667" y="549.2594">+probePublicUrl(url): Future&lt;bool&gt;</text></g><!--class ObjStoreService--><g class="entity" data-qualified-name="ObjStoreService" data-source-line="84" id="ent0013"><rect fill="#F3E5F5" height="181.3596" rx="4.1667" ry="4.1667" style="stroke:#6A1B9A;stroke-width:0.8333;" width="630.5842" x="5565" y="88.7865"/><ellipse cx="5785.0791" cy="115.4532" fill="#ADD1B2" rx="18.3333" ry="18.3333" style="stroke:#181818;stroke-width:1.6667;"/><path d="M5790.027,124.8542 Q5789.0635,125.349 5787.9958,125.5834 Q5786.9281,125.8438 5785.7562,125.8438 Q5781.5895,125.8438 5779.376,123.1094 Q5777.1885,120.349 5777.1885,115.1407 Q5777.1885,109.9324 5779.376,107.1719 Q5781.5895,104.4115 5785.7562,104.4115 Q5786.9281,104.4115 5787.9958,104.6719 Q5789.0895,104.9324 5790.027,105.4271 L5790.027,109.9584 Q5788.9854,108.9949 5787.9958,108.5521 Q5787.0062,108.0834 5785.9645,108.0834 Q5783.725,108.0834 5782.5791,109.8803 Q5781.4333,111.6511 5781.4333,115.1407 Q5781.4333,118.6303 5782.5791,120.4271 Q5783.725,122.198 5785.9645,122.198 Q5787.0062,122.198 5787.9958,121.7553 Q5788.9854,121.2865 5790.027,120.323 L5790.027,124.8542 Z " fill="#000000"/><text fill="#000000" font-family="'Noto Sans CJK SC'" font-size="23.3333" lengthAdjust="spacing" textLength="176.2593" x="5819.2458" y="125.6265">ObjStoreService</text><line style="stroke:#6A1B9A;stroke-width:0.8333;" x1="5566.6667" x2="6193.9175" y1="142.1199" y2="142.1199"/><line style="stroke:#6A1B9A;stroke-width:0.8333;" x1="5566.6667" x2="6193.9175" y1="155.4532" y2="155.4532"/><text fill="#000000" font-family="'Noto Sans CJK SC'" font-size="23.3333" lengthAdjust="spacing" textLength="610.5842" x="5575" y="189.1864">+uploadBytes(bytes, filename): Future&lt;ObjStoreObject&gt;</text><text fill="#000000" font-family="'Noto Sans CJK SC'" font-size="23.3333" lengthAdjust="spacing" textLength="352.8919" x="5575" y="222.9729">+resolveUri(key): Future&lt;String&gt;</text><text fill="#000000" font-family="'Noto Sans CJK SC'" font-size="23.3333" lengthAdjust="spacing" textLength="451.9181" x="5575" y="256.7594">+ensureCachedFile(key, ...): Future&lt;File?&gt;</text></g><!--class SyncConfigService--><g class="entity" data-qualified-name="SyncConfigService" data-source-line="90" id="ent0014"><rect fill="#F3E5F5" height="181.3596" rx="4.1667" ry="4.1667" style="stroke:#6A1B9A;stroke-width:0.8333;" width="322.0722" x="1659.1667" y="381.2865"/><ellipse cx="1714.243" cy="407.9532" fill="#ADD1B2" rx="18.3333" ry="18.3333" style="stroke:#181818;stroke-width:1.6667;"/><path d="M1719.1909,417.3542 Q1718.2274,417.849 1717.1597,418.0834 Q1716.092,418.3438 1714.9201,418.3438 Q1710.7534,418.3438 1708.5399,415.6094 Q1706.3524,412.849 1706.3524,407.6407 Q1706.3524,402.4324 1708.5399,399.6719 Q1710.7534,396.9115 1714.9201,396.9115 Q1716.092,396.9115 1717.1597,397.1719 Q1718.2534,397.4324 1719.1909,397.9271 L1719.1909,402.4584 Q1718.1493,401.4949 1717.1597,401.0521 Q1716.1701,400.5834 1715.1284,400.5834 Q1712.8888,400.5834 1711.743,402.3803 Q1710.5972,404.1511 1710.5972,407.6407 Q1710.5972,411.1303 1711.743,412.9271 Q1712.8888,414.698 1715.1284,414.698 Q1716.1701,414.698 1717.1597,414.2553 Q1718.1493,413.7865 1719.1909,412.823 L1719.1909,417.3542 Z " fill="#000000"/><text fill="#000000" font-family="'Noto Sans CJK SC'" font-size="23.3333" lengthAdjust="spacing" textLength="201.9025" x="1744.26" y="418.1265">SyncConfigService</text><line style="stroke:#6A1B9A;stroke-width:0.8333;" x1="1660.8333" x2="1979.5722" y1="434.6199" y2="434.6199"/><text fill="#000000" font-family="'Noto Sans CJK SC'" font-size="23.3333" lengthAdjust="spacing" textLength="225.7724" x="1669.1667" y="468.3531">+config: SyncConfig?</text><line style="stroke:#6A1B9A;stroke-width:0.8333;" x1="1660.8333" x2="1979.5722" y1="481.7397" y2="481.7397"/><text fill="#000000" font-family="'Noto Sans CJK SC'" font-size="23.3333" lengthAdjust="spacing" textLength="221.3625" x="1669.1667" y="515.4729">+init(): Future&lt;void&gt;</text><text fill="#000000" font-family="'Noto Sans CJK SC'" font-size="23.3333" lengthAdjust="spacing" textLength="302.0722" x="1669.1667" y="549.2594">+save(config): Future&lt;void&gt;</text></g><!--class SyncLocalStateService--><g class="entity" data-qualified-name="SyncLocalStateService" data-source-line="96" id="ent0015"><rect fill="#F3E5F5" height="181.3596" rx="4.1667" ry="4.1667" style="stroke:#6A1B9A;stroke-width:0.8333;" width="436.0084" x="10" y="381.2865"/><ellipse cx="97.1613" cy="407.9532" fill="#ADD1B2" rx="18.3333" ry="18.3333" style="stroke:#181818;stroke-width:1.6667;"/><path d="M102.1093,417.3542 Q101.1457,417.849 100.078,418.0834 Q99.0103,418.3438 97.8384,418.3438 Q93.6718,418.3438 91.4582,415.6094 Q89.2707,412.849 89.2707,407.6407 Q89.2707,402.4324 91.4582,399.6719 Q93.6718,396.9115 97.8384,396.9115 Q99.0103,396.9115 100.078,397.1719 Q101.1718,397.4324 102.1093,397.9271 L102.1093,402.4584 Q101.0676,401.4949 100.078,401.0521 Q99.0884,400.5834 98.0468,400.5834 Q95.8072,400.5834 94.6613,402.3803 Q93.5155,404.1511 93.5155,407.6407 Q93.5155,411.1303 94.6613,412.9271 Q95.8072,414.698 98.0468,414.698 Q99.0884,414.698 100.078,414.2553 Q101.0676,413.7865 102.1093,412.823 L102.1093,417.3542 Z " fill="#000000"/><text fill="#000000" font-family="'Noto Sans CJK SC'" font-size="23.3333" lengthAdjust="spacing" textLength="247.519" x="131.328" y="418.1265">SyncLocalStateService</text><line style="stroke:#6A1B9A;stroke-width:0.8333;" x1="11.6667" x2="444.3417" y1="434.6199" y2="434.6199"/><text fill="#000000" font-family="'Noto Sans CJK SC'" font-size="23.3333" lengthAdjust="spacing" textLength="224.7458" x="20" y="468.3531">+localUserId: String?</text><line style="stroke:#6A1B9A;stroke-width:0.8333;" x1="11.6667" x2="444.3417" y1="481.7397" y2="481.7397"/><text fill="#000000" font-family="'Noto Sans CJK SC'" font-size="23.3333" lengthAdjust="spacing" textLength="221.3625" x="20" y="515.4729">+init(): Future&lt;void&gt;</text><text fill="#000000" font-family="'Noto Sans CJK SC'" font-size="23.3333" lengthAdjust="spacing" textLength="416.0084" x="20" y="549.2594">+setLocalUserId(userId): Future&lt;void&gt;</text></g><!--class WifiService--><g class="entity" data-qualified-name="WifiService" data-source-line="102" id="ent0016"><rect fill="#F3E5F5" height="147.573" rx="4.1667" ry="4.1667" style="stroke:#6A1B9A;stroke-width:0.8333;" width="519.4014" x="476.6667" y="397.9532"/><ellipse cx="669.1893" cy="424.6199" fill="#ADD1B2" rx="18.3333" ry="18.3333" style="stroke:#181818;stroke-width:1.6667;"/><path d="M674.1372,434.0209 Q673.1737,434.5157 672.106,434.7501 Q671.0382,435.0105 669.8664,435.0105 Q665.6997,435.0105 663.4862,432.2761 Q661.2987,429.5157 661.2987,424.3074 Q661.2987,419.099 663.4862,416.3386 Q665.6997,413.5782 669.8664,413.5782 Q671.0382,413.5782 672.106,413.8386 Q673.1997,414.099 674.1372,414.5938 L674.1372,419.1251 Q673.0955,418.1615 672.106,417.7188 Q671.1164,417.2501 670.0747,417.2501 Q667.8351,417.2501 666.6893,419.0469 Q665.5435,420.8178 665.5435,424.3074 Q665.5435,427.7969 666.6893,429.5938 Q667.8351,431.3646 670.0747,431.3646 Q671.1164,431.3646 672.106,430.9219 Q673.0955,430.4532 674.1372,429.4896 L674.1372,434.0209 Z " fill="#000000"/><text fill="#000000" font-family="'Noto Sans CJK SC'" font-size="23.3333" lengthAdjust="spacing" textLength="120.1895" x="703.356" y="434.7931">WifiService</text><line style="stroke:#6A1B9A;stroke-width:0.8333;" x1="478.3333" x2="994.4014" y1="451.2865" y2="451.2865"/><line style="stroke:#6A1B9A;stroke-width:0.8333;" x1="478.3333" x2="994.4014" y1="464.6199" y2="464.6199"/><text fill="#000000" font-family="'Noto Sans CJK SC'" font-size="23.3333" lengthAdjust="spacing" textLength="499.4014" x="486.6667" y="498.3531">+getNetworkStatus(): Future&lt;NetworkStatus&gt;</text><text fill="#000000" font-family="'Noto Sans CJK SC'" font-size="23.3333" lengthAdjust="spacing" textLength="438.385" x="486.6667" y="532.1396">+getCurrentWifiName(): Future&lt;String?&gt;</text></g><!--class SyncApiClient--><g class="entity" data-qualified-name="SyncApiClient" data-source-line="107" id="ent0017"><rect fill="#FFF3E0" height="215.1461" rx="4.1667" ry="4.1667" style="stroke:#EF6C00;stroke-width:0.8333;" width="601.6976" x="1027.5" y="364.6199"/><ellipse cx="1245.6891" cy="391.2865" fill="#ADD1B2" rx="18.3333" ry="18.3333" style="stroke:#181818;stroke-width:1.6667;"/><path d="M1250.637,400.6876 Q1249.6735,401.1824 1248.6058,401.4167 Q1247.5381,401.6771 1246.3662,401.6771 Q1242.1995,401.6771 1239.986,398.9428 Q1237.7985,396.1824 1237.7985,390.974 Q1237.7985,385.7657 1239.986,383.0053 Q1242.1995,380.2449 1246.3662,380.2449 Q1247.5381,380.2449 1248.6058,380.5053 Q1249.6995,380.7657 1250.637,381.2605 L1250.637,385.7917 Q1249.5953,384.8282 1248.6058,384.3855 Q1247.6162,383.9167 1246.5745,383.9167 Q1244.3349,383.9167 1243.1891,385.7136 Q1242.0433,387.4844 1242.0433,390.974 Q1242.0433,394.4636 1243.1891,396.2605 Q1244.3349,398.0313 1246.5745,398.0313 Q1247.6162,398.0313 1248.6058,397.5886 Q1249.5953,397.1199 1250.637,396.1563 L1250.637,400.6876 Z " fill="#000000"/><text fill="#000000" font-family="'Noto Sans CJK SC'" font-size="23.3333" lengthAdjust="spacing" textLength="151.1527" x="1279.8558" y="401.4598">SyncApiClient</text><line style="stroke:#EF6C00;stroke-width:0.8333;" x1="1029.1667" x2="1627.5309" y1="417.9532" y2="417.9532"/><line style="stroke:#EF6C00;stroke-width:0.8333;" x1="1029.1667" x2="1627.5309" y1="431.2865" y2="431.2865"/><text fill="#000000" font-family="'Noto Sans CJK SC'" font-size="23.3333" lengthAdjust="spacing" textLength="364.5352" x="1037.5" y="465.0197">+sync(...): Future&lt;SyncResponse&gt;</text><text fill="#000000" font-family="'Noto Sans CJK SC'" font-size="23.3333" lengthAdjust="spacing" textLength="417.2683" x="1037.5" y="498.8063">+syncV2(...): Future&lt;SyncResponseV2&gt;</text><text fill="#000000" font-family="'Noto Sans CJK SC'" font-size="23.3333" lengthAdjust="spacing" textLength="539.6278" x="1037.5" y="532.5928">+listSyncRecords(...): Future&lt;SyncRecordsResult&gt;</text><text fill="#000000" font-family="'Noto Sans CJK SC'" font-size="23.3333" lengthAdjust="spacing" textLength="581.6976" x="1037.5" y="566.3793">+rollbackToRevision(...): Future&lt;SyncRollbackResult&gt;</text></g><!--class ToolSnapshotExporter--><g class="entity" data-qualified-name="ToolSnapshotExporter" data-source-line="114" id="ent0018"><rect fill="#F3E5F5" height="113.7865" rx="4.1667" ry="4.1667" style="stroke:#6A1B9A;stroke-width:0.8333;" width="438.085" x="2010.8333" y="415.4532"/><ellipse cx="2099.5697" cy="442.1199" fill="#ADD1B2" rx="18.3333" ry="18.3333" style="stroke:#181818;stroke-width:1.6667;"/><path d="M2104.5176,451.5209 Q2103.554,452.0157 2102.4863,452.2501 Q2101.4186,452.5105 2100.2467,452.5105 Q2096.0801,452.5105 2093.8665,449.7761 Q2091.679,447.0157 2091.679,441.8074 Q2091.679,436.599 2093.8665,433.8386 Q2096.0801,431.0782 2100.2467,431.0782 Q2101.4186,431.0782 2102.4863,431.3386 Q2103.5801,431.599 2104.5176,432.0938 L2104.5176,436.6251 Q2103.4759,435.6615 2102.4863,435.2188 Q2101.4967,434.7501 2100.4551,434.7501 Q2098.2155,434.7501 2097.0697,436.5469 Q2095.9238,438.3178 2095.9238,441.8074 Q2095.9238,445.2969 2097.0697,447.0938 Q2098.2155,448.8646 2100.4551,448.8646 Q2101.4967,448.8646 2102.4863,448.4219 Q2103.4759,447.9532 2104.5176,446.9896 L2104.5176,451.5209 Z " fill="#000000"/><text fill="#000000" font-family="'Noto Sans CJK SC'" font-size="23.3333" lengthAdjust="spacing" textLength="246.4457" x="2133.7363" y="452.2931">ToolSnapshotExporter</text><line style="stroke:#6A1B9A;stroke-width:0.8333;" x1="2012.5" x2="2447.2516" y1="468.7865" y2="468.7865"/><line style="stroke:#6A1B9A;stroke-width:0.8333;" x1="2012.5" x2="2447.2516" y1="482.1199" y2="482.1199"/><text fill="#000000" font-family="'Noto Sans CJK SC'" font-size="23.3333" lengthAdjust="spacing" text-decoration="underline" textLength="418.085" x="2020.8333" y="515.8531">+exportAll(providers, ...): Future&lt;Map&gt;</text></g><!--class SyncService--><g class="entity" data-qualified-name="SyncService" data-source-line="118" id="ent0019"><rect fill="#F3E5F5" height="147.573" rx="4.1667" ry="4.1667" style="stroke:#6A1B9A;stroke-width:0.8333;" width="575.3311" x="1285.8333" y="105.4532"/><ellipse cx="1500.6742" cy="132.1199" fill="#ADD1B2" rx="18.3333" ry="18.3333" style="stroke:#181818;stroke-width:1.6667;"/><path d="M1505.6221,141.5209 Q1504.6585,142.0157 1503.5908,142.2501 Q1502.5231,142.5105 1501.3512,142.5105 Q1497.1846,142.5105 1494.971,139.7761 Q1492.7835,137.0157 1492.7835,131.8074 Q1492.7835,126.599 1494.971,123.8386 Q1497.1846,121.0782 1501.3512,121.0782 Q1502.5231,121.0782 1503.5908,121.3386 Q1504.6846,121.599 1505.6221,122.0938 L1505.6221,126.6251 Q1504.5804,125.6615 1503.5908,125.2188 Q1502.6012,124.7501 1501.5596,124.7501 Q1499.32,124.7501 1498.1742,126.5469 Q1497.0283,128.3178 1497.0283,131.8074 Q1497.0283,135.2969 1498.1742,137.0938 Q1499.32,138.8646 1501.5596,138.8646 Q1502.6012,138.8646 1503.5908,138.4219 Q1504.5804,137.9532 1505.6221,136.9896 L1505.6221,141.5209 Z " fill="#000000"/><text fill="#000000" font-family="'Noto Sans CJK SC'" font-size="23.3333" lengthAdjust="spacing" textLength="131.4828" x="1534.8408" y="142.2931">SyncService</text><line style="stroke:#6A1B9A;stroke-width:0.8333;" x1="1287.5" x2="1859.4978" y1="158.7865" y2="158.7865"/><line style="stroke:#6A1B9A;stroke-width:0.8333;" x1="1287.5" x2="1859.4978" y1="172.1199" y2="172.1199"/><text fill="#000000" font-family="'Noto Sans CJK SC'" font-size="23.3333" lengthAdjust="spacing" textLength="469.7448" x="1295.8333" y="205.8531">+sync(trigger, forceDecision): Future&lt;bool&gt;</text><text fill="#000000" font-family="'Noto Sans CJK SC'" font-size="23.3333" lengthAdjust="spacing" textLength="555.3311" x="1295.8333" y="239.6396">+applyServerSnapshot(toolsData): Future&lt;String?&gt;</text></g><!--class SettingsService--><g class="entity" data-qualified-name="SettingsService" data-source-line="123" id="ent0020"><rect fill="#F3E5F5" height="181.3596" rx="4.1667" ry="4.1667" style="stroke:#6A1B9A;stroke-width:0.8333;" width="492.6147" x="2480" y="381.2865"/><ellipse cx="2635.0027" cy="407.9532" fill="#ADD1B2" rx="18.3333" ry="18.3333" style="stroke:#181818;stroke-width:1.6667;"/><path d="M2639.9506,417.3542 Q2638.9871,417.849 2637.9194,418.0834 Q2636.8517,418.3438 2635.6798,418.3438 Q2631.5131,418.3438 2629.2996,415.6094 Q2627.1121,412.849 2627.1121,407.6407 Q2627.1121,402.4324 2629.2996,399.6719 Q2631.5131,396.9115 2635.6798,396.9115 Q2636.8517,396.9115 2637.9194,397.1719 Q2639.0131,397.4324 2639.9506,397.9271 L2639.9506,402.4584 Q2638.909,401.4949 2637.9194,401.0521 Q2636.9298,400.5834 2635.8881,400.5834 Q2633.6485,400.5834 2632.5027,402.3803 Q2631.3569,404.1511 2631.3569,407.6407 Q2631.3569,411.1303 2632.5027,412.9271 Q2633.6485,414.698 2635.8881,414.698 Q2636.9298,414.698 2637.9194,414.2553 Q2638.909,413.7865 2639.9506,412.823 L2639.9506,417.3542 Z " fill="#000000"/><text fill="#000000" font-family="'Noto Sans CJK SC'" font-size="23.3333" lengthAdjust="spacing" textLength="168.4427" x="2669.1694" y="418.1265">SettingsService</text><line style="stroke:#6A1B9A;stroke-width:0.8333;" x1="2481.6667" x2="2970.9481" y1="434.6199" y2="434.6199"/><text fill="#000000" font-family="'Noto Sans CJK SC'" font-size="23.3333" lengthAdjust="spacing" textLength="249.1757" x="2490" y="468.3531">+defaultToolId: String?</text><line style="stroke:#6A1B9A;stroke-width:0.8333;" x1="2481.6667" x2="2970.9481" y1="481.7397" y2="481.7397"/><text fill="#000000" font-family="'Noto Sans CJK SC'" font-size="23.3333" lengthAdjust="spacing" textLength="472.6147" x="2490" y="515.4729">+updateHomeToolOrder(ids): Future&lt;void&gt;</text><text fill="#000000" font-family="'Noto Sans CJK SC'" font-size="23.3333" lengthAdjust="spacing" textLength="367.1953" x="2490" y="549.2594">+setDefaultTool(id): Future&lt;void&gt;</text></g><!--class BackupRestoreService--><g class="entity" data-qualified-name="BackupRestoreService" data-source-line="129" id="ent0021"><rect fill="#F3E5F5" height="181.3596" rx="4.1667" ry="4.1667" style="stroke:#6A1B9A;stroke-width:0.8333;" width="672.3274" x="2390.8333" y="88.7865"/><ellipse cx="2597.5425" cy="115.4532" fill="#ADD1B2" rx="18.3333" ry="18.3333" style="stroke:#181818;stroke-width:1.6667;"/><path d="M2602.4904,124.8542 Q2601.5269,125.349 2600.4592,125.5834 Q2599.3915,125.8438 2598.2196,125.8438 Q2594.0529,125.8438 2591.8394,123.1094 Q2589.6519,120.349 2589.6519,115.1407 Q2589.6519,109.9324 2591.8394,107.1719 Q2594.0529,104.4115 2598.2196,104.4115 Q2599.3915,104.4115 2600.4592,104.6719 Q2601.5529,104.9324 2602.4904,105.4271 L2602.4904,109.9584 Q2601.4488,108.9949 2600.4592,108.5521 Q2599.4696,108.0834 2598.4279,108.0834 Q2596.1883,108.0834 2595.0425,109.8803 Q2593.8967,111.6511 2593.8967,115.1407 Q2593.8967,118.6303 2595.0425,120.4271 Q2596.1883,122.198 2598.4279,122.198 Q2599.4696,122.198 2600.4592,121.7553 Q2601.4488,121.2865 2602.4904,120.323 L2602.4904,124.8542 Z " fill="#000000"/><text fill="#000000" font-family="'Noto Sans CJK SC'" font-size="23.3333" lengthAdjust="spacing" textLength="244.7424" x="2631.7092" y="125.6265">BackupRestoreService</text><line style="stroke:#6A1B9A;stroke-width:0.8333;" x1="2392.5" x2="3061.494" y1="142.1199" y2="142.1199"/><text fill="#000000" font-family="'Noto Sans CJK SC'" font-size="23.3333" lengthAdjust="spacing" text-decoration="underline" textLength="216.1825" x="2400.8333" y="175.8531">+backupVersion: int</text><line style="stroke:#6A1B9A;stroke-width:0.8333;" x1="2392.5" x2="3061.494" y1="189.2397" y2="189.2397"/><text fill="#000000" font-family="'Noto Sans CJK SC'" font-size="23.3333" lengthAdjust="spacing" textLength="531.2046" x="2400.8333" y="222.9729">+exportAsJson(includeSensitive): Future&lt;String&gt;</text><text fill="#000000" font-family="'Noto Sans CJK SC'" font-size="23.3333" lengthAdjust="spacing" textLength="652.3274" x="2400.8333" y="256.7594">+restoreFromJson(jsonText): Future&lt;BackupRestoreResult&gt;</text></g><!--class MessageRepository--><g class="entity" data-qualified-name="MessageRepository" data-source-line="135" id="ent0022"><rect fill="#E8F5E9" height="80" rx="4.1667" ry="4.1667" style="stroke:#2E7D32;stroke-width:0.8333;" width="264.1025" x="7441.6667" y="432.1199"/><ellipse cx="7466.6667" cy="458.7865" fill="#ADD1B2" rx="18.3333" ry="18.3333" style="stroke:#181818;stroke-width:1.6667;"/><path d="M7471.6146,468.1876 Q7470.651,468.6824 7469.5833,468.9167 Q7468.5156,469.1771 7467.3438,469.1771 Q7463.1771,469.1771 7460.9635,466.4428 Q7458.776,463.6824 7458.776,458.474 Q7458.776,453.2657 7460.9635,450.5053 Q7463.1771,447.7449 7467.3438,447.7449 Q7468.5156,447.7449 7469.5833,448.0053 Q7470.6771,448.2657 7471.6146,448.7605 L7471.6146,453.2917 Q7470.5729,452.3282 7469.5833,451.8855 Q7468.5938,451.4167 7467.5521,451.4167 Q7465.3125,451.4167 7464.1667,453.2136 Q7463.0208,454.9844 7463.0208,458.474 Q7463.0208,461.9636 7464.1667,463.7605 Q7465.3125,465.5313 7467.5521,465.5313 Q7468.5938,465.5313 7469.5833,465.0886 Q7470.5729,464.6199 7471.6146,463.6563 L7471.6146,468.1876 Z " fill="#000000"/><text fill="#000000" font-family="'Noto Sans CJK SC'" font-size="23.3333" lengthAdjust="spacing" textLength="210.7691" x="7490" y="468.9598">MessageRepository</text><line style="stroke:#2E7D32;stroke-width:0.8333;" x1="7443.3333" x2="7704.1025" y1="485.4532" y2="485.4532"/><line style="stroke:#2E7D32;stroke-width:0.8333;" x1="7443.3333" x2="7704.1025" y1="498.7865" y2="498.7865"/></g><!--class MessageService--><g class="entity" data-qualified-name="MessageService" data-source-line="136" id="ent0023"><rect fill="#F3E5F5" height="181.3596" rx="4.1667" ry="4.1667" style="stroke:#6A1B9A;stroke-width:0.8333;" width="381.5486" x="7320.8333" y="88.7865"/><ellipse cx="7418.413" cy="115.4532" fill="#ADD1B2" rx="18.3333" ry="18.3333" style="stroke:#181818;stroke-width:1.6667;"/><path d="M7423.3609,124.8542 Q7422.3973,125.349 7421.3296,125.5834 Q7420.2619,125.8438 7419.0901,125.8438 Q7414.9234,125.8438 7412.7098,123.1094 Q7410.5223,120.349 7410.5223,115.1407 Q7410.5223,109.9324 7412.7098,107.1719 Q7414.9234,104.4115 7419.0901,104.4115 Q7420.2619,104.4115 7421.3296,104.6719 Q7422.4234,104.9324 7423.3609,105.4271 L7423.3609,109.9584 Q7422.3192,108.9949 7421.3296,108.5521 Q7420.3401,108.0834 7419.2984,108.0834 Q7417.0588,108.0834 7415.913,109.8803 Q7414.7671,111.6511 7414.7671,115.1407 Q7414.7671,118.6303 7415.913,120.4271 Q7417.0588,122.198 7419.2984,122.198 Q7420.3401,122.198 7421.3296,121.7553 Q7422.3192,121.2865 7423.3609,120.323 L7423.3609,124.8542 Z " fill="#000000"/><text fill="#000000" font-family="'Noto Sans CJK SC'" font-size="23.3333" lengthAdjust="spacing" textLength="172.2226" x="7452.5796" y="125.6265">MessageService</text><line style="stroke:#6A1B9A;stroke-width:0.8333;" x1="7322.5" x2="7700.7152" y1="142.1199" y2="142.1199"/><text fill="#000000" font-family="'Noto Sans CJK SC'" font-size="23.3333" lengthAdjust="spacing" textLength="331.9387" x="7330.8333" y="175.8531">+messages: List&lt;AppMessage&gt;</text><line style="stroke:#6A1B9A;stroke-width:0.8333;" x1="7322.5" x2="7700.7152" y1="189.2397" y2="189.2397"/><text fill="#000000" font-family="'Noto Sans CJK SC'" font-size="23.3333" lengthAdjust="spacing" textLength="361.5486" x="7330.8333" y="222.9729">+upsertMessage(...): Future&lt;int?&gt;</text><text fill="#000000" font-family="'Noto Sans CJK SC'" font-size="23.3333" lengthAdjust="spacing" textLength="361.3152" x="7330.8333" y="256.7594">+purgeExpired(now): Future&lt;int&gt;</text></g><!--class LocalNotificationService--><g class="entity" data-qualified-name="LocalNotificationService" data-source-line="142" id="ent0024"><rect fill="#ECEFF1" height="80" rx="4.1667" ry="4.1667" style="stroke:#455A64;stroke-width:0.8333;" width="319.939" x="6908.3333" y="139.6199"/><ellipse cx="6933.3333" cy="166.2865" fill="#ADD1B2" rx="18.3333" ry="18.3333" style="stroke:#181818;stroke-width:1.6667;"/><path d="M6938.2813,175.6876 Q6937.3177,176.1824 6936.25,176.4167 Q6935.1823,176.6771 6934.0104,176.6771 Q6929.8438,176.6771 6927.6302,173.9428 Q6925.4427,171.1824 6925.4427,165.974 Q6925.4427,160.7657 6927.6302,158.0053 Q6929.8438,155.2449 6934.0104,155.2449 Q6935.1823,155.2449 6936.25,155.5053 Q6937.3438,155.7657 6938.2813,156.2605 L6938.2813,160.7917 Q6937.2396,159.8282 6936.25,159.3855 Q6935.2604,158.9167 6934.2188,158.9167 Q6931.9792,158.9167 6930.8333,160.7136 Q6929.6875,162.4844 6929.6875,165.974 Q6929.6875,169.4636 6930.8333,171.2605 Q6931.9792,173.0313 6934.2188,173.0313 Q6935.2604,173.0313 6936.25,172.5886 Q6937.2396,172.1199 6938.2813,171.1563 L6938.2813,175.6876 Z " fill="#000000"/><text fill="#000000" font-family="'Noto Sans CJK SC'" font-size="23.3333" lengthAdjust="spacing" textLength="266.6057" x="6956.6667" y="176.4598">LocalNotificationService</text><line style="stroke:#455A64;stroke-width:0.8333;" x1="6910" x2="7226.6057" y1="192.9532" y2="192.9532"/><line style="stroke:#455A64;stroke-width:0.8333;" x1="6910" x2="7226.6057" y1="206.2865" y2="206.2865"/></g><!--class TagRepository--><g class="entity" data-qualified-name="TagRepository" data-source-line="144" id="ent0025"><rect fill="#E8F5E9" height="80" rx="4.1667" ry="4.1667" style="stroke:#2E7D32;stroke-width:0.8333;" width="211.4394" x="7850.8333" y="432.1199"/><ellipse cx="7875.8333" cy="458.7865" fill="#ADD1B2" rx="18.3333" ry="18.3333" style="stroke:#181818;stroke-width:1.6667;"/><path d="M7880.7813,468.1876 Q7879.8177,468.6824 7878.75,468.9167 Q7877.6823,469.1771 7876.5104,469.1771 Q7872.3438,469.1771 7870.1302,466.4428 Q7867.9427,463.6824 7867.9427,458.474 Q7867.9427,453.2657 7870.1302,450.5053 Q7872.3438,447.7449 7876.5104,447.7449 Q7877.6823,447.7449 7878.75,448.0053 Q7879.8438,448.2657 7880.7813,448.7605 L7880.7813,453.2917 Q7879.7396,452.3282 7878.75,451.8855 Q7877.7604,451.4167 7876.7188,451.4167 Q7874.4792,451.4167 7873.3333,453.2136 Q7872.1875,454.9844 7872.1875,458.474 Q7872.1875,461.9636 7873.3333,463.7605 Q7874.4792,465.5313 7876.7188,465.5313 Q7877.7604,465.5313 7878.75,465.0886 Q7879.7396,464.6199 7880.7813,463.6563 L7880.7813,468.1876 Z " fill="#000000"/><text fill="#000000" font-family="'Noto Sans CJK SC'" font-size="23.3333" lengthAdjust="spacing" textLength="158.1061" x="7899.1667" y="468.9598">TagRepository</text><line style="stroke:#2E7D32;stroke-width:0.8333;" x1="7852.5" x2="8060.6061" y1="485.4532" y2="485.4532"/><line style="stroke:#2E7D32;stroke-width:0.8333;" x1="7852.5" x2="8060.6061" y1="498.7865" y2="498.7865"/></g><!--class TagService--><g class="entity" data-qualified-name="TagService" data-source-line="145" id="ent0026"><rect fill="#F3E5F5" height="147.573" rx="4.1667" ry="4.1667" style="stroke:#6A1B9A;stroke-width:0.8333;" width="447.2084" x="7733.3333" y="105.4532"/><ellipse cx="7890.0744" cy="132.1199" fill="#ADD1B2" rx="18.3333" ry="18.3333" style="stroke:#181818;stroke-width:1.6667;"/><path d="M7895.0223,141.5209 Q7894.0588,142.0157 7892.9911,142.2501 Q7891.9234,142.5105 7890.7515,142.5105 Q7886.5848,142.5105 7884.3713,139.7761 Q7882.1838,137.0157 7882.1838,131.8074 Q7882.1838,126.599 7884.3713,123.8386 Q7886.5848,121.0782 7890.7515,121.0782 Q7891.9234,121.0782 7892.9911,121.3386 Q7894.0848,121.599 7895.0223,122.0938 L7895.0223,126.6251 Q7893.9807,125.6615 7892.9911,125.2188 Q7892.0015,124.7501 7890.9598,124.7501 Q7888.7202,124.7501 7887.5744,126.5469 Q7886.4286,128.3178 7886.4286,131.8074 Q7886.4286,135.2969 7887.5744,137.0938 Q7888.7202,138.8646 7890.9598,138.8646 Q7892.0015,138.8646 7892.9911,138.4219 Q7893.9807,137.9532 7895.0223,136.9896 L7895.0223,141.5209 Z " fill="#000000"/><text fill="#000000" font-family="'Noto Sans CJK SC'" font-size="23.3333" lengthAdjust="spacing" textLength="119.5595" x="7924.2411" y="142.2931">TagService</text><line style="stroke:#6A1B9A;stroke-width:0.8333;" x1="7735" x2="8178.875" y1="158.7865" y2="158.7865"/><line style="stroke:#6A1B9A;stroke-width:0.8333;" x1="7735" x2="8178.875" y1="172.1199" y2="172.1199"/><text fill="#000000" font-family="'Noto Sans CJK SC'" font-size="23.3333" lengthAdjust="spacing" textLength="289.5655" x="7743.3333" y="205.8531">+refreshAll(): Future&lt;void&gt;</text><text fill="#000000" font-family="'Noto Sans CJK SC'" font-size="23.3333" lengthAdjust="spacing" textLength="427.2084" x="7743.3333" y="239.6396">+refreshToolTags(toolId): Future&lt;void&gt;</text></g><!--class AppConfigSyncProvider--><g class="entity" data-qualified-name="AppConfigSyncProvider" data-source-line="150" id="ent0027"><rect fill="#F3E5F5" height="80" rx="4.1667" ry="4.1667" style="stroke:#6A1B9A;stroke-width:0.8333;" width="312.0523" x="4565.8333" y="139.6199"/><ellipse cx="4590.8333" cy="166.2865" fill="#ADD1B2" rx="18.3333" ry="18.3333" style="stroke:#181818;stroke-width:1.6667;"/><path d="M4595.7813,175.6876 Q4594.8177,176.1824 4593.75,176.4167 Q4592.6823,176.6771 4591.5104,176.6771 Q4587.3438,176.6771 4585.1302,173.9428 Q4582.9427,171.1824 4582.9427,165.974 Q4582.9427,160.7657 4585.1302,158.0053 Q4587.3438,155.2449 4591.5104,155.2449 Q4592.6823,155.2449 4593.75,155.5053 Q4594.8438,155.7657 4595.7813,156.2605 L4595.7813,160.7917 Q4594.7396,159.8282 4593.75,159.3855 Q4592.7604,158.9167 4591.7188,158.9167 Q4589.4792,158.9167 4588.3333,160.7136 Q4587.1875,162.4844 4587.1875,165.974 Q4587.1875,169.4636 4588.3333,171.2605 Q4589.4792,173.0313 4591.7188,173.0313 Q4592.7604,173.0313 4593.75,172.5886 Q4594.7396,172.1199 4595.7813,171.1563 L4595.7813,175.6876 Z " fill="#000000"/><text fill="#000000" font-family="'Noto Sans CJK SC'" font-size="23.3333" lengthAdjust="spacing" textLength="258.7189" x="4614.1667" y="176.4598">AppConfigSyncProvider</text><line style="stroke:#6A1B9A;stroke-width:0.8333;" x1="4567.5" x2="4876.2189" y1="192.9532" y2="192.9532"/><line style="stroke:#6A1B9A;stroke-width:0.8333;" x1="4567.5" x2="4876.2189" y1="206.2865" y2="206.2865"/></g><!--class WorkLogSyncProvider--><g class="entity" data-qualified-name="WorkLogSyncProvider" data-source-line="151" id="ent0028"><rect fill="#F3E5F5" height="80" rx="4.1667" ry="4.1667" style="stroke:#6A1B9A;stroke-width:0.8333;" width="295.0423" x="4907.5" y="139.6199"/><ellipse cx="4932.5" cy="166.2865" fill="#ADD1B2" rx="18.3333" ry="18.3333" style="stroke:#181818;stroke-width:1.6667;"/><path d="M4937.4479,175.6876 Q4936.4844,176.1824 4935.4167,176.4167 Q4934.349,176.6771 4933.1771,176.6771 Q4929.0104,176.6771 4926.7969,173.9428 Q4924.6094,171.1824 4924.6094,165.974 Q4924.6094,160.7657 4926.7969,158.0053 Q4929.0104,155.2449 4933.1771,155.2449 Q4934.349,155.2449 4935.4167,155.5053 Q4936.5104,155.7657 4937.4479,156.2605 L4937.4479,160.7917 Q4936.4063,159.8282 4935.4167,159.3855 Q4934.4271,158.9167 4933.3854,158.9167 Q4931.1458,158.9167 4930,160.7136 Q4928.8542,162.4844 4928.8542,165.974 Q4928.8542,169.4636 4930,171.2605 Q4931.1458,173.0313 4933.3854,173.0313 Q4934.4271,173.0313 4935.4167,172.5886 Q4936.4063,172.1199 4937.4479,171.1563 L4937.4479,175.6876 Z " fill="#000000"/><text fill="#000000" font-family="'Noto Sans CJK SC'" font-size="23.3333" lengthAdjust="spacing" textLength="241.709" x="4955.8333" y="176.4598">WorkLogSyncProvider</text><line style="stroke:#6A1B9A;stroke-width:0.8333;" x1="4909.1667" x2="5200.8757" y1="192.9532" y2="192.9532"/><line style="stroke:#6A1B9A;stroke-width:0.8333;" x1="4909.1667" x2="5200.8757" y1="206.2865" y2="206.2865"/></g><!--class StockpileSyncProvider--><g class="entity" data-qualified-name="StockpileSyncProvider" data-source-line="152" id="ent0029"><rect fill="#F3E5F5" height="80" rx="4.1667" ry="4.1667" style="stroke:#6A1B9A;stroke-width:0.8333;" width="300.5723" x="3606.6667" y="139.6199"/><ellipse cx="3631.6667" cy="166.2865" fill="#ADD1B2" rx="18.3333" ry="18.3333" style="stroke:#181818;stroke-width:1.6667;"/><path d="M3636.6146,175.6876 Q3635.651,176.1824 3634.5833,176.4167 Q3633.5156,176.6771 3632.3438,176.6771 Q3628.1771,176.6771 3625.9635,173.9428 Q3623.776,171.1824 3623.776,165.974 Q3623.776,160.7657 3625.9635,158.0053 Q3628.1771,155.2449 3632.3438,155.2449 Q3633.5156,155.2449 3634.5833,155.5053 Q3635.6771,155.7657 3636.6146,156.2605 L3636.6146,160.7917 Q3635.5729,159.8282 3634.5833,159.3855 Q3633.5938,158.9167 3632.5521,158.9167 Q3630.3125,158.9167 3629.1667,160.7136 Q3628.0208,162.4844 3628.0208,165.974 Q3628.0208,169.4636 3629.1667,171.2605 Q3630.3125,173.0313 3632.5521,173.0313 Q3633.5938,173.0313 3634.5833,172.5886 Q3635.5729,172.1199 3636.6146,171.1563 L3636.6146,175.6876 Z " fill="#000000"/><text fill="#000000" font-family="'Noto Sans CJK SC'" font-size="23.3333" lengthAdjust="spacing" textLength="247.239" x="3655" y="176.4598">StockpileSyncProvider</text><line style="stroke:#6A1B9A;stroke-width:0.8333;" x1="3608.3333" x2="3905.5723" y1="192.9532" y2="192.9532"/><line style="stroke:#6A1B9A;stroke-width:0.8333;" x1="3608.3333" x2="3905.5723" y1="206.2865" y2="206.2865"/></g><!--class OvercookedSyncProvider--><g class="entity" data-qualified-name="OvercookedSyncProvider" data-source-line="153" id="ent0030"><rect fill="#F3E5F5" height="80" rx="4.1667" ry="4.1667" style="stroke:#6A1B9A;stroke-width:0.8333;" width="330.4155" x="3936.6667" y="139.6199"/><ellipse cx="3961.6667" cy="166.2865" fill="#ADD1B2" rx="18.3333" ry="18.3333" style="stroke:#181818;stroke-width:1.6667;"/><path d="M3966.6146,175.6876 Q3965.651,176.1824 3964.5833,176.4167 Q3963.5156,176.6771 3962.3438,176.6771 Q3958.1771,176.6771 3955.9635,173.9428 Q3953.776,171.1824 3953.776,165.974 Q3953.776,160.7657 3955.9635,158.0053 Q3958.1771,155.2449 3962.3438,155.2449 Q3963.5156,155.2449 3964.5833,155.5053 Q3965.6771,155.7657 3966.6146,156.2605 L3966.6146,160.7917 Q3965.5729,159.8282 3964.5833,159.3855 Q3963.5938,158.9167 3962.5521,158.9167 Q3960.3125,158.9167 3959.1667,160.7136 Q3958.0208,162.4844 3958.0208,165.974 Q3958.0208,169.4636 3959.1667,171.2605 Q3960.3125,173.0313 3962.5521,173.0313 Q3963.5938,173.0313 3964.5833,172.5886 Q3965.5729,172.1199 3966.6146,171.1563 L3966.6146,175.6876 Z " fill="#000000"/><text fill="#000000" font-family="'Noto Sans CJK SC'" font-size="23.3333" lengthAdjust="spacing" textLength="277.0822" x="3985" y="176.4598">OvercookedSyncProvider</text><line style="stroke:#6A1B9A;stroke-width:0.8333;" x1="3938.3333" x2="4265.4155" y1="192.9532" y2="192.9532"/><line style="stroke:#6A1B9A;stroke-width:0.8333;" x1="3938.3333" x2="4265.4155" y1="206.2865" y2="206.2865"/></g><!--class TagSyncProvider--><g class="entity" data-qualified-name="TagSyncProvider" data-source-line="154" id="ent0031"><rect fill="#F3E5F5" height="80" rx="4.1667" ry="4.1667" style="stroke:#6A1B9A;stroke-width:0.8333;" width="238.7859" x="4297.5" y="139.6199"/><ellipse cx="4322.5" cy="166.2865" fill="#ADD1B2" rx="18.3333" ry="18.3333" style="stroke:#181818;stroke-width:1.6667;"/><path d="M4327.4479,175.6876 Q4326.4844,176.1824 4325.4167,176.4167 Q4324.349,176.6771 4323.1771,176.6771 Q4319.0104,176.6771 4316.7969,173.9428 Q4314.6094,171.1824 4314.6094,165.974 Q4314.6094,160.7657 4316.7969,158.0053 Q4319.0104,155.2449 4323.1771,155.2449 Q4324.349,155.2449 4325.4167,155.5053 Q4326.5104,155.7657 4327.4479,156.2605 L4327.4479,160.7917 Q4326.4063,159.8282 4325.4167,159.3855 Q4324.4271,158.9167 4323.3854,158.9167 Q4321.1458,158.9167 4320,160.7136 Q4318.8542,162.4844 4318.8542,165.974 Q4318.8542,169.4636 4320,171.2605 Q4321.1458,173.0313 4323.3854,173.0313 Q4324.4271,173.0313 4325.4167,172.5886 Q4326.4063,172.1199 4327.4479,171.1563 L4327.4479,175.6876 Z " fill="#000000"/><text fill="#000000" font-family="'Noto Sans CJK SC'" font-size="23.3333" lengthAdjust="spacing" textLength="185.4526" x="4345.8333" y="176.4598">TagSyncProvider</text><line style="stroke:#6A1B9A;stroke-width:0.8333;" x1="4299.1667" x2="4534.6193" y1="192.9532" y2="192.9532"/><line style="stroke:#6A1B9A;stroke-width:0.8333;" x1="4299.1667" x2="4534.6193" y1="206.2865" y2="206.2865"/></g><g class="link" data-entity-1="ent0007" data-entity-2="ent0005" data-link-type="dependency" id="lnk32"><polygon fill="#181818" points="3227.4795,364.1767,3240.8287,354.6245,3231.7029,356.9929,3229.3345,347.8671,3227.4795,364.1767" style="stroke:#181818;stroke-width:1.6667;"/><path d="M3292.1018,254.2555 C3272.5279,287.5504 3254.0369,319.0032 3232.5476,355.5561" fill="none" style="stroke:#181818;stroke-width:1.6667;"/></g><g class="link" data-entity-1="ent0007" data-entity-2="ent0006" data-link-type="dependency" id="lnk33"><polygon fill="#181818" points="3614.0376,415.1659,3606.8241,400.4211,3607.651,409.8128,3598.2592,410.6397,3614.0376,415.1659" style="stroke:#181818;stroke-width:1.6667;"/><path d="M3421.6128,253.8822 C3481.2934,303.9044 3551.7248,362.9375 3606.3736,408.7422" fill="none" style="stroke:#181818;stroke-width:1.6667;"/></g><g class="link" data-entity-1="ent0008" data-entity-2="ent0004" data-link-type="dependency" id="lnk34"><polygon fill="#181818" points="5002.9676,673.3344,4999.1328,657.3739,4997.8977,666.7207,4988.5508,665.4857,5002.9676,673.3344" style="stroke:#181818;stroke-width:1.6667;"/><path d="M4957.5867,614.1346 C4973.0297,634.2802 4982.4731,646.5991 4996.8837,665.398" fill="none" style="stroke:#181818;stroke-width:1.6667;"/></g><g class="link" data-entity-1="ent0009" data-entity-2="ent0004" data-link-type="extension" id="lnk35"><polygon fill="none" points="5140.4581,673.214,5166.646,655.4886,5150.7732,643.3209,5140.4581,673.214" style="stroke:#181818;stroke-width:1.6667;"/><path d="M5263.8977,512.1856 C5232.5712,553.0514 5200.1608,595.3312 5158.7096,649.4047" fill="none" style="stroke:#181818;stroke-width:1.6667;stroke-dasharray:11.6667,11.6667;"/></g><g class="link" data-entity-1="ent0013" data-entity-2="ent0008" data-link-type="dependency" id="lnk36"><polygon fill="#181818" points="5144.3361,335.6941,5160.6887,337.1211,5152.2166,332.9845,5156.3533,324.5123,5144.3361,335.6941" style="stroke:#181818;stroke-width:1.6667;"/><path d="M5564.6635,231.0687 C5437.3398,255.1712 5290.0534,288.1847 5160,330.4532 C5154.8051,332.1416 5159.0374,330.6392 5153.7927,332.4425" fill="none" style="stroke:#181818;stroke-width:1.6667;"/></g><g class="link" data-entity-1="ent0013" data-entity-2="ent0010" data-link-type="dependency" id="lnk37"><polygon fill="#181818" points="5721.7009,397.5455,5735.9403,389.3794,5726.6231,390.8211,5725.1813,381.5039,5721.7009,397.5455" style="stroke:#181818;stroke-width:1.6667;"/><path d="M5814.1876,271.1956 C5784.4549,311.8146 5755.6866,351.1162 5727.6075,389.4763" fill="none" style="stroke:#181818;stroke-width:1.6667;"/></g><g class="link" data-entity-1="ent0013" data-entity-2="ent0011" data-link-type="dependency" id="lnk38"><polygon fill="#181818" points="6027.4104,381.0967,6023.87,365.0683,6022.4631,374.3908,6013.1406,372.9839,6027.4104,381.0967" style="stroke:#181818;stroke-width:1.6667;"/><path d="M5946.3306,271.1956 C5972.1387,306.1777 5995.7047,338.1206 6021.4737,373.0496" fill="none" style="stroke:#181818;stroke-width:1.6667;"/></g><g class="link" data-entity-1="ent0013" data-entity-2="ent0012" data-link-type="dependency" id="lnk39"><polygon fill="#181818" points="6363.7456,381.1033,6354.5788,367.4866,6356.6854,376.6763,6347.4956,378.7829,6363.7456,381.1033" style="stroke:#181818;stroke-width:1.6667;"/><path d="M6139.9125,270.5522 C6185.6486,288.7595 6232.2617,308.978 6275,330.4532 C6304.5724,345.3128 6326.6892,357.8678 6355.2733,375.7909" fill="none" style="stroke:#181818;stroke-width:1.6667;"/></g><g class="link" data-entity-1="ent0023" data-entity-2="ent0022" data-link-type="dependency" id="lnk40"><polygon fill="#181818" points="7565.1475,432.0681,7568.539,416.0075,7563.4094,423.918,7555.4989,418.7884,7565.1475,432.0681" style="stroke:#181818;stroke-width:1.6667;"/><path d="M7530.8404,271.1956 C7542.3665,325.2438 7554.3563,381.4661 7563.0618,422.288" fill="none" style="stroke:#181818;stroke-width:1.6667;"/></g><g class="link" data-entity-1="ent0023" data-entity-2="ent0003" data-link-type="dependency" id="lnk41"><polygon fill="#181818" points="7231.3758,364.1078,7247.5816,361.497,7238.3556,359.5552,7240.2973,350.3292,7231.3758,364.1078" style="stroke:#181818;stroke-width:1.6667;"/><path d="M7374.4293,270.8003 C7329.1636,300.3252 7286.7513,327.9888 7239.7515,358.6447" fill="none" style="stroke:#181818;stroke-width:1.6667;"/></g><g class="link" data-entity-1="ent0024" data-entity-2="ent0003" data-link-type="extension" id="lnk42"><polygon fill="none" points="7068.3333,364.5482,7078.3333,334.5482,7058.3333,334.5482,7068.3333,364.5482" style="stroke:#181818;stroke-width:1.6667;"/><path d="M7068.3333,219.6856 C7068.3333,256.557 7068.3333,283.9618 7068.3333,334.5482" fill="none" style="stroke:#181818;stroke-width:1.6667;stroke-dasharray:11.6667,11.6667;"/></g><g class="link" data-entity-1="ent0026" data-entity-2="ent0025" data-link-type="dependency" id="lnk43"><polygon fill="#181818" points="7956.6667,432.1101,7963.3333,417.1101,7956.6667,423.7767,7950,417.1101,7956.6667,432.1101" style="stroke:#181818;stroke-width:1.6667;"/><path d="M7956.6667,254.2555 C7956.6667,310.8066 7956.6667,376.9129 7956.6667,422.1101" fill="none" style="stroke:#181818;stroke-width:1.6667;"/></g><g class="link" data-entity-1="ent0019" data-entity-2="ent0014" data-link-type="dependency" id="lnk44"><polygon fill="#181818" points="1743.6634,380.964,1739.0007,365.2255,1738.2552,374.624,1728.8567,373.8786,1743.6634,380.964" style="stroke:#181818;stroke-width:1.6667;"/><path d="M1635.5777,254.2555 C1668.4035,292.737 1702.4635,332.6654 1737.1736,373.356" fill="none" style="stroke:#181818;stroke-width:1.6667;"/></g><g class="link" data-entity-1="ent0019" data-entity-2="ent0015" data-link-type="dependency" id="lnk45"><polygon fill="#181818" points="356.3561,381.0014,372.6635,379.1275,363.535,376.7697,365.8928,367.6412,356.3561,381.0014" style="stroke:#181818;stroke-width:1.6667;"/><path d="M1285.5264,188.0204 C1056.6039,200.8701 731.1347,236.0704 461.6667,330.4532 C425.7752,343.0244 397.9986,356.4548 364.9708,375.9234" fill="none" style="stroke:#181818;stroke-width:1.6667;"/></g><g class="link" data-entity-1="ent0019" data-entity-2="ent0016" data-link-type="dependency" id="lnk46"><polygon fill="#181818" points="865.5813,397.724,881.9639,396.697,872.9697,393.8697,875.797,384.8755,865.5813,397.724" style="stroke:#181818;stroke-width:1.6667;"/><path d="M1285.3337,245.3121 C1196.3416,268.4003 1098.8357,297.12 1011.6667,330.4532 C962.6274,349.2057 919.7,369.4919 874.4474,393.0988" fill="none" style="stroke:#181818;stroke-width:1.6667;"/></g><g class="link" data-entity-1="ent0019" data-entity-2="ent0017" data-link-type="dependency" id="lnk47"><polygon fill="#181818" points="1418.3774,364.1767,1433.1603,357.0418,1423.7643,357.8187,1422.9874,348.4226,1418.3774,364.1767" style="stroke:#181818;stroke-width:1.6667;"/><path d="M1511.5095,254.2555 C1483.3,287.5504 1455.8117,319.9941 1424.8417,356.547" fill="none" style="stroke:#181818;stroke-width:1.6667;"/></g><g class="link" data-entity-1="ent0019" data-entity-2="ent0018" data-link-type="dependency" id="lnk48"><polygon fill="#181818" points="2146.8156,415.4196,2137.6703,401.7885,2139.7624,410.9815,2130.5694,413.0736,2146.8156,415.4196" style="stroke:#181818;stroke-width:1.6667;"/><path d="M1804.7785,253.9329 C1867.5094,276.1017 1934.7177,302.1728 1995,330.4532 C2047.2375,354.9595 2094.361,382.4139 2138.3518,410.0939" fill="none" style="stroke:#181818;stroke-width:1.6667;"/></g><g class="link" data-entity-1="ent0019" data-entity-2="ent0002" data-link-type="dependency" id="lnk49"><polygon fill="#181818" points="4140.9435,381.0685,4130.832,368.1378,4133.5865,377.1546,4124.5697,379.909,4140.9435,381.0685" style="stroke:#181818;stroke-width:1.6667;"/><path d="M1860.8795,218.5022 C2013.3952,236.9166 2204.0947,257.8461 2375,270.4532 C2739.4383,297.3365 3665.5547,235.1367 4018.3333,330.4532 C4060.1134,341.7417 4093.8195,355.9986 4132.1151,376.3718" fill="none" style="stroke:#181818;stroke-width:1.6667;"/></g><g class="link" data-entity-1="ent0021" data-entity-2="ent0018" data-link-type="dependency" id="lnk50"><polygon fill="#181818" points="2321.8345,415.1903,2338.1291,413.2077,2328.985,410.9108,2331.2819,401.7668,2321.8345,415.1903" style="stroke:#181818;stroke-width:1.6667;"/><path d="M2568.6445,270.7219 C2534.3998,290.2839 2498.4317,310.9681 2465,330.4532 C2417.6107,358.0732 2373.7278,384.1329 2330.4152,410.0549" fill="none" style="stroke:#181818;stroke-width:1.6667;"/></g><g class="link" data-entity-1="ent0021" data-entity-2="ent0002" data-link-type="dependency" id="lnk51"><polygon fill="#181818" points="4139.3605,381.1106,4129.2291,368.1956,4131.9975,377.208,4122.985,379.9764,4139.3605,381.1106" style="stroke:#181818;stroke-width:1.6667;"/><path d="M3062.8383,267.9125 C3068.0326,268.7976 3073.2002,269.6457 3078.3333,270.4532 C3491.8757,335.5079 3615.7219,215.7647 4018.3333,330.4532 C4059.4602,342.1687 4092.5891,356.3208 4130.5249,376.4275" fill="none" style="stroke:#181818;stroke-width:1.6667;"/></g><g class="link" data-entity-1="ent0021" data-entity-2="ent0005" data-link-type="dependency" id="lnk52"><polygon fill="#181818" points="3035.9524,364.5648,3027.9679,350.2229,3029.2911,359.5576,3019.9563,360.8809,3035.9524,364.5648" style="stroke:#181818;stroke-width:1.6667;"/><path d="M2892.3042,270.644 C2924.6935,289.5256 2958.0018,309.9631 2988.3333,330.4532 C3004.061,341.0779 3012.1769,346.6931 3027.9589,358.5562" fill="none" style="stroke:#181818;stroke-width:1.6667;"/></g><g class="link" data-entity-1="ent0021" data-entity-2="ent0014" data-link-type="dependency" id="lnk53"><polygon fill="#181818" points="1914.9042,381.2774,1930.8265,377.287,1921.4681,376.1432,1922.6118,366.7848,1914.9042,381.2774" style="stroke:#181818;stroke-width:1.6667;"/><path d="M2390.582,215.7406 C2262.4757,237.5167 2117.8347,272.9355 1995,330.4532 C1966.9872,343.5702 1947.3728,355.8809 1922.7808,375.1164" fill="none" style="stroke:#181818;stroke-width:1.6667;"/></g><g class="link" data-entity-1="ent0021" data-entity-2="ent0020" data-link-type="dependency" id="lnk54"><polygon fill="#181818" points="2726.6667,381.0967,2733.3333,366.0967,2726.6667,372.7634,2720,366.0967,2726.6667,381.0967" style="stroke:#181818;stroke-width:1.6667;"/><path d="M2726.6667,271.1956 C2726.6667,306.1777 2726.6667,336.1676 2726.6667,371.0967" fill="none" style="stroke:#181818;stroke-width:1.6667;"/></g><g class="link" data-entity-1="ent0021" data-entity-2="ent0008" data-link-type="dependency" id="lnk55"><polygon fill="#181818" points="4555.5658,334.3817,4542.7971,324.0663,4547.5153,332.2289,4539.3527,336.9471,4555.5658,334.3817" style="stroke:#181818;stroke-width:1.6667;"/><path d="M3062.8134,268.0764 C3068.0155,268.9106 3073.1913,269.704 3078.3333,270.4532 C3400.0255,317.321 4223.6669,255.5144 4540,330.4532 C4545.1717,331.6783 4540.7023,330.4071 4545.9052,331.7984" fill="none" style="stroke:#181818;stroke-width:1.6667;"/></g><g class="link" data-entity-1="ent0027" data-entity-2="ent0002" data-link-type="extension" id="lnk56"><polygon fill="none" points="4416.6001,381.0188,4447.1767,372.9524,4436.2215,356.2197,4416.6001,381.0188" style="stroke:#181818;stroke-width:1.6667;"/><path d="M4663.0167,219.6856 C4600.4819,260.6282 4524.3758,310.4562 4441.6991,364.586" fill="none" style="stroke:#181818;stroke-width:1.6667;stroke-dasharray:11.6667,11.6667;"/></g><g class="link" data-entity-1="ent0028" data-entity-2="ent0002" data-link-type="extension" id="lnk57"><polygon fill="none" points="4426.0804,381.1233,4457.279,375.9611,4447.9419,358.2744,4426.0804,381.1233" style="stroke:#181818;stroke-width:1.6667;"/><path d="M4995.9363,219.725 C4965.8294,237.6832 4927.9829,257.8373 4891.6667,270.4532 C4741.8918,322.4833 4689.9242,278.8549 4540,330.4532 C4501.7039,343.6333 4488.8138,348.0054 4452.6105,367.1177" fill="none" style="stroke:#181818;stroke-width:1.6667;stroke-dasharray:11.6667,11.6667;"/></g><g class="link" data-entity-1="ent0029" data-entity-2="ent0002" data-link-type="extension" id="lnk58"><polygon fill="none" points="4118.1418,381.0188,4096.7199,357.7572,4087.0473,375.2626,4118.1418,381.0188" style="stroke:#181818;stroke-width:1.6667;"/><path d="M3826.1613,219.6856 C3900.2592,260.6282 3993.9196,312.3801 4091.8836,366.5099" fill="none" style="stroke:#181818;stroke-width:1.6667;stroke-dasharray:11.6667,11.6667;"/></g><g class="link" data-entity-1="ent0030" data-entity-2="ent0002" data-link-type="extension" id="lnk59"><polygon fill="none" points="4224.6565,380.714,4217.4205,349.9303,4200.3975,360.4286,4224.6565,380.714" style="stroke:#181818;stroke-width:1.6667;"/><path d="M4125.348,219.6856 C4150.5505,260.5514 4175.561,301.1059 4208.909,355.1794" fill="none" style="stroke:#181818;stroke-width:1.6667;stroke-dasharray:11.6667,11.6667;"/></g><g class="link" data-entity-1="ent0031" data-entity-2="ent0002" data-link-type="extension" id="lnk60"><polygon fill="none" points="4322.4128,380.714,4344.2729,357.8638,4326.1907,349.3177,4322.4128,380.714" style="stroke:#181818;stroke-width:1.6667;"/><path d="M4398.5184,219.6856 C4379.2043,260.5514 4360.7882,299.5172 4335.2318,353.5907" fill="none" style="stroke:#181818;stroke-width:1.6667;stroke-dasharray:11.6667,11.6667;"/></g><g class="legend" data-source-line="192"><rect fill="#DDDDDD" height="192.2659" rx="12.5" ry="12.5" style="stroke:#000000;stroke-width:1.6667;" width="465.9948" x="7692.3385" y="865.4532"/><text fill="#000000" font-family="'Noto Sans CJK SC'" font-size="23.3333" font-weight="bold" lengthAdjust="spacing" textLength="46.6665" x="7705.9685" y="904.1864">&#39068;&#33394;</text><text fill="#000000" font-family="'Noto Sans CJK SC'" font-size="23.3333" font-weight="bold" lengthAdjust="spacing" textLength="46.6665" x="7763.2283" y="904.1864">&#21547;&#20041;</text><rect fill="#F3E5F5" height="33.7865" style="stroke:none;stroke-width:1.6667;" width="57.2598" x="7700.6719" y="910.9064"/><text fill="#000000" font-family="'Noto Sans CJK SC'" font-size="23.3333" lengthAdjust="spacing" textLength="5.2266" x="7700.6719" y="937.9729">&#160;</text><text fill="#000000" font-family="'Noto Sans CJK SC'" font-size="23.3333" lengthAdjust="spacing" textLength="298.4321" x="7763.1583" y="937.9729">&#19994;&#21153;&#26381;&#21153;&#23618;&#65288;Service/&#25509;&#21475;&#65289;</text><rect fill="#E8F5E9" height="33.7865" style="stroke:none;stroke-width:1.6667;" width="57.2598" x="7700.6719" y="944.6929"/><text fill="#000000" font-family="'Noto Sans CJK SC'" font-size="23.3333" lengthAdjust="spacing" textLength="5.2266" x="7700.6719" y="971.7594">&#160;</text><text fill="#000000" font-family="'Noto Sans CJK SC'" font-size="23.3333" lengthAdjust="spacing" textLength="381.6151" x="7763.1583" y="971.7594">&#25968;&#25454;&#35775;&#38382;/&#23384;&#20648;&#65288;Repository/Store&#65289;</text><rect fill="#FFF3E0" height="33.7865" style="stroke:none;stroke-width:1.6667;" width="57.2598" x="7700.6719" y="978.4794"/><text fill="#000000" font-family="'Noto Sans CJK SC'" font-size="23.3333" lengthAdjust="spacing" textLength="5.2266" x="7700.6719" y="1005.546">&#160;</text><text fill="#000000" font-family="'Noto Sans CJK SC'" font-size="23.3333" lengthAdjust="spacing" textLength="259.6989" x="7763.1583" y="1005.546">&#32593;&#32476;/&#22806;&#37096;&#38598;&#25104;&#65288;Client&#65289;</text><rect fill="#ECEFF1" height="33.7865" style="stroke:none;stroke-width:1.6667;" width="57.2598" x="7700.6719" y="1012.2659"/><text fill="#000000" font-family="'Noto Sans CJK SC'" font-size="23.3333" lengthAdjust="spacing" textLength="5.2266" x="7700.6719" y="1039.3325">&#160;</text><text fill="#000000" font-family="'Noto Sans CJK SC'" font-size="23.3333" lengthAdjust="spacing" textLength="195.8125" x="7763.1583" y="1039.3325">&#24179;&#21488;&#25554;&#20214;/&#31995;&#32479;&#33021;&#21147;</text><line style="stroke:#000000;stroke-width:1.6667;" x1="7700.6719" x2="8150" y1="877.1199" y2="877.1199"/><line style="stroke:#000000;stroke-width:1.6667;" x1="7700.6719" x2="8150" y1="910.9064" y2="910.9064"/><line style="stroke:#000000;stroke-width:1.6667;" x1="7700.6719" x2="8150" y1="944.6929" y2="944.6929"/><line style="stroke:#000000;stroke-width:1.6667;" x1="7700.6719" x2="8150" y1="978.4794" y2="978.4794"/><line style="stroke:#000000;stroke-width:1.6667;" x1="7700.6719" x2="8150" y1="1012.2659" y2="1012.2659"/><line style="stroke:#000000;stroke-width:1.6667;" x1="7700.6719" x2="8150" y1="1046.0524" y2="1046.0524"/><line style="stroke:#000000;stroke-width:1.6667;" x1="7700.6719" x2="7700.6719" y1="877.1199" y2="1046.0524"/><line style="stroke:#000000;stroke-width:1.6667;" x1="7757.9316" x2="7757.9316" y1="877.1199" y2="1046.0524"/><line style="stroke:#000000;stroke-width:1.6667;" x1="8150" x2="8150" y1="877.1199" y2="1046.0524"/></g><?plantuml-src dLXRRnD757xVNp6e3tNL48TBQ8bI8vF4BHMNb0JwYCQxnywGySuoC-kG0YyWAa2Yq4gbLQ7gNK9gYw2e5IY1_XaSu8c_q3Epw-p5iqbK7aoqyvtxcNE-tLqiz7aS00c4h-fK-ajCWwzZ2VM0qQwaFLK_e_GgX_4exd5FCys1SDQ1Cre8hiZWwX-3guysllXjSEkNmTN7Bn-l3Uu-VxD-RUF79uD_hv05a7tc0wcJ8w46sQ4-l5c_xdcx8acxFKeuNHMn9ge7ceRKyzGo2oEAPebQee5OOM6NT2XNa3lnELMggRLaxLZ34L-42-mp81FU4iD059e1eLSZyCeov897o67gBtUbYCDWHd0XfwTJ5niDybPhtznaQzA0X0n0ZW8EDFSSFjXqQPcbcXh4tFkjoRc3PHN3qxrpxytks-kIFmvwHSXbwqKB_PWegyW1vbe7PYOcN5hcETKT8NiMDJFNQkqfgyaZzazEDW_izovv7XiMXonYLHTMGtzUYZwcKv9y_2P_xvgw7mcco08M8EoQ9t0-4bAR66llJ95MRDfd-XYD6kQGzJOFLKWZjIJq5C733DaNB6WKlMX6qN6XMOVvL3EiRzf51VUjConakbPMXS_HpCenK8fseMPxTeoqHR3gGlfB4CGSXcWMZ96Sn1WP0eAcTeZxDFI1ezIMyIo0Bq4lQ25D46ats01M95wusZAWeJxbCJXCIA21GMH7IUeFsTC0E2GQ71uaRTzaCoBii6wMnb99VNiyjGayj6LgQHzgYOGh7noeh5MwSYA24Arm1g4c-QPE_5YYUaRq8em8gwvIAsD4mhaOL2xzg0AX9q75N1S2hGuHyRLUKcCrHiR7nwkqfU15EAzhaKHlT0cUP3yVLFkiBUqEiro4sroVmsJ7IPEe3F19xgc51TWuCtY7i1j7mBCZPpkjOYcydPPoNa97kHfx23WgVCg7xfNQtfW_lAf1rThcTunq68UGzdBzZqwbxQy4xyCfoIekmQP7DbzLlHL7ND0WiLc8TsYd7JCUpCTjplnJagUORCWbnvBrgOQHyqqNSbMeSYIADIO5bspDdVQyeGz1ktp1jcn3vceiUQQdZUFPqPkLNPdFIsKjXbeIntTG5Wk1KE6J6Me6Q0jr9cEk4BLvd2-XMJqxl4OPzF-Egu9LswqB6fDUQPaRo2a5Cbj_Mvi6VJGJgSNslqedFiLrLscw2pfj8-DYh7Bc2iyRANWcbXAxp-WyZfMiRNLjJFJDg78eApmkjgeHm6aPuOY6nX1oUcyrwFHU2-DCwUInZvH4kV3s83U9fU2yZIndKPo4FbEu5HnIAMPa7LWkatAEESjH77pcWiB4CV_IaCOqEJTZtvAVygAmdAQGjyg2sQnXghjTa7YZXFHX5dmRGVck8ff64Lyr6a0E7QvPVctcoPQr0wtnaQhq8u0EnQmi5aZReUJYupg1ZqGFpE49mn6HnYXt7yzcQjnS9t774D8uma9iDNAoZBSj_3Gc6jCoHP0lPNIogJvMMEtq_MG1PmdJh0_EGICJWotSrbReBFwO_Ps12uwDD4hA_Kv29D2AaAlPBYi0AhCy91PJv2Zs-3JIrrIYaMGQRxuU4in2Hs782OsBOja5R58c8QY5OgK0oRbg1yfst7Zp0j1kTKnuM1aFhdRCwPAv2qv2QazDCw0ILKlU2AhfPnIb8xtYlM8u077e71NReN0F-SiHherjS2VmBlb2B4Em3T3aeGhXlKrsup_ouldth_w-axpVsYTUHZLtxswK6NRfD4zwFS_D5WqkHwQy4NOrFdwnY2XlTcl9fTk9B90p9oB7ffpd8rJ7yqhNnA16hfOBv7xTyofxtUQYGiZBzRNHNRW3dfSVsZRdPSBXH8oGWn5KRdixDMmks95JrvPoWt9TwZadRQMwhT4xqbjkyKhWQ4QheSNjLGrqzxNddYosEqO2SqqNDz8zOTpOYYdZ1fSdZHlbSUX2613a3ajc7rxyWBp--Twhwt-PlmQtVt_nz3gvQ9vFfz-h6kGYUV7aky6DdpRktSJVmQFBRzQlfKcg9v_ctgnl2YLVg8pGnjSFDsu-UFNWtzVVFAWF_lnsSFa-2cQtfMvpdXDDlamPqPVFldovTgy--FNEwoltNz_zVEFQRHHDEZnlotw3CWA3fuy7jnvktFhgnTe_TPoYBzT-U7NbsU36NOHYj4dCtdy0?></g></svg>