<?plantuml 1.2026.1?><svg xmlns="http://www.w3.org/2000/svg" xmlns:xlink="http://www.w3.org/1999/xlink" contentStyleType="text/css" data-diagram-type="DESCRIPTION" height="995px" preserveAspectRatio="none" style="width:3036px;height:995px;background:#FFFFFF;" version="1.1" viewBox="0 0 3036 995" width="3036.6667px" zoomAndPan="magnify"><title>life_tools &#29366;&#24577;&#31649;&#29702;&#19982;&#25968;&#25454;&#27969;&#65288;Provider + ChangeNotifier&#65289;</title><defs/><g><g class="title" data-source-line="2"><text fill="#000000" font-family="'Noto Sans CJK SC'" font-size="23.3333" font-weight="bold" lengthAdjust="spacing" textLength="645.444" x="1188.9447" y="43.7332">life_tools &#29366;&#24577;&#31649;&#29702;&#19982;&#25968;&#25454;&#27969;&#65288;Provider + ChangeNotifier&#65289;</text></g><!--entity User--><g class="entity" data-qualified-name="User" data-source-line="26" id="ent0002"><ellipse cx="33.3332" cy="285.4532" fill="#F1F1F1" rx="13.3333" ry="13.3333" style="stroke:#181818;stroke-width:0.8333;"/><path d="M33.3332,298.7865 L33.3332,343.7865 M11.6666,312.1199 L54.9999,312.1199 M33.3332,343.7865 L11.6666,368.7865 M33.3332,343.7865 L54.9999,368.7865" fill="none" style="stroke:#181818;stroke-width:0.8333;"/><text fill="#000000" font-family="'Noto Sans CJK SC'" font-size="23.3333" lengthAdjust="spacing" textLength="46.6665" x="10" y="398.3531">&#29992;&#25143;</text></g><!--entity Widget--><g class="entity" data-qualified-name="Widget" data-source-line="28" id="ent0003"><rect fill="#E3F2FD" height="100.9064" rx="4.1667" ry="4.1667" style="stroke:#1565C0;stroke-width:0.8333;" width="258.7324" x="313.3333" y="287.1199"/><text fill="#000000" font-family="'Noto Sans CJK SC'" font-size="23.3333" lengthAdjust="spacing" textLength="225.399" x="330" y="330.8531">Widget&#65288;&#39029;&#38754;/&#32452;&#20214;&#65289;</text><text fill="#000000" font-family="'Noto Sans CJK SC'" font-size="23.3333" lengthAdjust="spacing" textLength="158.2926" x="330" y="364.6396">&#25163;&#21183;/&#28857;&#20987;/&#36755;&#20837;</text></g><!--entity Provider--><g class="entity" data-qualified-name="Provider" data-source-line="29" id="ent0004"><rect fill="#E8EAF6" height="134.6929" rx="4.1667" ry="4.1667" style="stroke:#283593;stroke-width:0.8333;" width="247.6725" x="1010" y="270.4532"/><text fill="#000000" font-family="'Noto Sans CJK SC'" font-size="23.3333" lengthAdjust="spacing" textLength="92.983" x="1026.6667" y="314.1864">Provider</text><text fill="#000000" font-family="'Noto Sans CJK SC'" font-size="23.3333" lengthAdjust="spacing" textLength="199.8259" x="1026.6667" y="347.9729">MultiProvider &#27880;&#20837;</text><text fill="#000000" font-family="'Noto Sans CJK SC'" font-size="23.3333" lengthAdjust="spacing" textLength="214.3391" x="1026.6667" y="381.7594">context.read/watch</text></g><!--entity Service--><g class="entity" data-qualified-name="Service" data-source-line="30" id="ent0005"><rect fill="#F3E5F5" height="100.9064" rx="4.1667" ry="4.1667" style="stroke:#6A1B9A;stroke-width:0.8333;" width="420.6884" x="1692.5" y="287.1199"/><text fill="#000000" font-family="'Noto Sans CJK SC'" font-size="23.3333" lengthAdjust="spacing" textLength="249.2224" x="1709.1667" y="330.8531">ChangeNotifier Service</text><text fill="#000000" font-family="'Noto Sans CJK SC'" font-size="23.3333" lengthAdjust="spacing" textLength="387.3551" x="1709.1667" y="364.6396">&#65288;&#20363;&#22914; SyncService/TagService/...&#65289;</text></g><!--entity Repo--><g class="entity" data-qualified-name="Repo" data-source-line="31" id="ent0006"><rect fill="#E8F5E9" height="100.9064" rx="4.1667" ry="4.1667" style="stroke:#2E7D32;stroke-width:0.8333;" width="305.5389" x="2382.5" y="88.7865"/><text fill="#000000" font-family="'Noto Sans CJK SC'" font-size="23.3333" lengthAdjust="spacing" textLength="117.8329" x="2399.1667" y="132.5197">Repository</text><text fill="#000000" font-family="'Noto Sans CJK SC'" font-size="23.3333" lengthAdjust="spacing" textLength="272.2055" x="2399.1667" y="166.3063">&#65288;&#24037;&#20855;/&#20844;&#20849; Repository&#65289;</text></g><!--entity Sqlite--><g class="entity" data-qualified-name="Sqlite" data-source-line="32" id="ent0007"><rect fill="#E8F5E9" height="100.9064" rx="4.1667" ry="4.1667" style="stroke:#2E7D32;stroke-width:0.8333;" width="105.3631" x="2920" y="88.7865"/><text fill="#000000" font-family="'Noto Sans CJK SC'" font-size="23.3333" lengthAdjust="spacing" textLength="72.0297" x="2936.6667" y="132.5197">SQLite</text><text fill="#000000" font-family="'Noto Sans CJK SC'" font-size="23.3333" lengthAdjust="spacing" textLength="67.7364" x="2936.6667" y="166.3063">sqflite</text></g><!--entity Prefs--><g class="entity" data-qualified-name="Prefs" data-source-line="33" id="ent0008"><rect fill="#E8F5E9" height="100.9064" rx="4.1667" ry="4.1667" style="stroke:#2E7D32;stroke-width:0.8333;" width="240.2058" x="2415" y="220.4532"/><text fill="#000000" font-family="'Noto Sans CJK SC'" font-size="23.3333" lengthAdjust="spacing" textLength="206.8725" x="2431.6667" y="264.1864">SharedPreferences</text><text fill="#000000" font-family="'Noto Sans CJK SC'" font-size="23.3333" lengthAdjust="spacing" textLength="149.146" x="2431.6667" y="297.9729">&#37197;&#32622;/&#26412;&#22320;&#29366;&#24577;</text></g><!--entity FS--><g class="entity" data-qualified-name="FS" data-source-line="34" id="ent0009"><rect fill="#E8F5E9" height="100.9064" rx="4.1667" ry="4.1667" style="stroke:#2E7D32;stroke-width:0.8333;" width="229.1458" x="2420.8333" y="352.1199"/><text fill="#000000" font-family="'Noto Sans CJK SC'" font-size="23.3333" lengthAdjust="spacing" textLength="119.1629" x="2437.5" y="395.8531">FileSystem</text><text fill="#000000" font-family="'Noto Sans CJK SC'" font-size="23.3333" lengthAdjust="spacing" textLength="195.8125" x="2437.5" y="429.6396">&#23545;&#35937;&#23384;&#20648;&#26412;&#22320;/&#32531;&#23384;</text></g><!--entity Http--><g class="entity" data-qualified-name="Http" data-source-line="35" id="ent0010"><rect fill="#FFF3E0" height="100.9064" rx="4.1667" ry="4.1667" style="stroke:#EF6C00;stroke-width:0.8333;" width="280.759" x="2395" y="483.7865"/><text fill="#000000" font-family="'Noto Sans CJK SC'" font-size="23.3333" lengthAdjust="spacing" textLength="128.8228" x="2411.6667" y="527.5197">HTTP Client</text><text fill="#000000" font-family="'Noto Sans CJK SC'" font-size="23.3333" lengthAdjust="spacing" textLength="247.4256" x="2411.6667" y="561.3063">OpenAI/Sync/ObjStore</text></g><g class="entity" data-qualified-name="GMN21" data-source-line="52" id="ent0022"><path d="M1690,418.7865 L1690,560.9466 A0,0 0 0 0 1690,560.9466 L2114.1988,560.9466 A0,0 0 0 0 2114.1988,560.9466 L2114.1988,435.4532 L2097.5321,418.7865 L1909.1667,418.7865 L1902.5,388.9407 L1895.8333,418.7865 L1690,418.7865 A0,0 0 0 0 1690,418.7865" fill="#FEFFDD" style="stroke:#181818;stroke-width:0.8333;"/><path d="M2097.5321,418.7865 L2097.5321,435.4532 L2114.1988,435.4532 L2097.5321,418.7865" fill="#FEFFDD" style="stroke:#181818;stroke-width:0.8333;"/><text fill="#000000" font-family="'Noto Sans CJK SC'" font-size="21.6667" lengthAdjust="spacing" textLength="195.0002" x="1700" y="452.2532">&#35302;&#21457;&#26465;&#20214;&#65288;&#31034;&#20363;&#65289;&#65306;</text><text fill="#000000" font-family="'Noto Sans CJK SC'" font-size="21.6667" lengthAdjust="spacing" textLength="319.5187" x="1700" y="483.6266">- &#29992;&#25143;&#25805;&#20316;&#65306;&#26032;&#22686;/&#32534;&#36753;/&#21024;&#38500;/&#25490;&#24207;</text><text fill="#000000" font-family="'Noto Sans CJK SC'" font-size="21.6667" lengthAdjust="spacing" textLength="375.5704" x="1700" y="514.9999">- &#21551;&#21160;&#20219;&#21153;&#65306;StartupWrapper &#33258;&#21160;&#21516;&#27493;</text><text fill="#000000" font-family="'Noto Sans CJK SC'" font-size="21.6667" lengthAdjust="spacing" textLength="389.1988" x="1700" y="546.3733">- &#23450;&#26102;/&#29983;&#21629;&#21608;&#26399;&#65306;&#24674;&#22797;&#21069;&#21488;&#28165;&#29702;&#36807;&#26399;&#28040;&#24687;</text></g><g class="entity" data-qualified-name="GMN24" data-source-line="59" id="ent0025"><path d="M818.3333,436.2865 L818.3333,547.0733 A0,0 0 0 0 818.3333,547.0733 L1450.0554,547.0733 A0,0 0 0 0 1450.0554,547.0733 L1450.0554,452.9532 L1433.3888,436.2865 L1140.8333,436.2865 L1134.1667,405.4857 L1127.5,436.2865 L818.3333,436.2865 A0,0 0 0 0 818.3333,436.2865" fill="#FEFFDD" style="stroke:#181818;stroke-width:0.8333;"/><path d="M1433.3888,436.2865 L1433.3888,452.9532 L1450.0554,452.9532 L1433.3888,436.2865" fill="#FEFFDD" style="stroke:#181818;stroke-width:0.8333;"/><text fill="#000000" font-family="'Noto Sans CJK SC'" font-size="21.6667" lengthAdjust="spacing" textLength="108.3335" x="828.3333" y="469.7532">&#30417;&#21548;&#26426;&#21046;&#65306;</text><text fill="#000000" font-family="'Noto Sans CJK SC'" font-size="21.6667" lengthAdjust="spacing" textLength="596.7221" x="828.3333" y="501.1266">- context.watch&lt;T&gt;() / Consumer&lt;T&gt;&#65306;&#20381;&#36182;&#21464;&#26356;&#33258;&#21160; rebuild</text><text fill="#000000" font-family="'Noto Sans CJK SC'" font-size="21.6667" lengthAdjust="spacing" textLength="495.9721" x="828.3333" y="532.4999">- context.read&lt;T&gt;()&#65306;&#21482;&#35835;&#21462;&#19981;&#30417;&#21548;&#65292;&#29992;&#20110;&#35302;&#21457;&#21160;&#20316;</text></g><g class="entity" data-qualified-name="GMN27" data-source-line="65" id="ent0028"><path d="M2320,616.2865 L2320,727.0733 A0,0 0 0 0 2320,727.0733 L2750.5471,727.0733 A0,0 0 0 0 2750.5471,727.0733 L2750.5471,632.9532 L2733.8805,616.2865 L2541.6667,616.2865 L2535,585.97 L2528.3333,616.2865 L2320,616.2865 A0,0 0 0 0 2320,616.2865" fill="#FEFFDD" style="stroke:#181818;stroke-width:0.8333;"/><path d="M2733.8805,616.2865 L2733.8805,632.9532 L2750.5471,632.9532 L2733.8805,616.2865" fill="#FEFFDD" style="stroke:#181818;stroke-width:0.8333;"/><text fill="#000000" font-family="'Noto Sans CJK SC'" font-size="21.6667" lengthAdjust="spacing" textLength="130.0002" x="2330" y="649.7532">&#24615;&#33021;&#20851;&#27880;&#28857;&#65306;</text><text fill="#000000" font-family="'Noto Sans CJK SC'" font-size="21.6667" lengthAdjust="spacing" textLength="345.8654" x="2330" y="681.1266">- &#21516;&#27493;/&#22791;&#20221;&#65306;&#20840;&#37327;&#24555;&#29031;&#23548;&#20986;&#21487;&#33021;&#36739;&#24930;</text><text fill="#000000" font-family="'Noto Sans CJK SC'" font-size="21.6667" lengthAdjust="spacing" textLength="395.5471" x="2330" y="712.4999">- AI/&#23545;&#35937;&#23384;&#20648;&#65306;&#24369;&#32593;/&#36229;&#26102;&#20250;&#25289;&#38271;&#20851;&#38190;&#36335;&#24452;</text></g><g class="link" data-entity-1="ent0002" data-entity-2="ent0003" data-link-type="dependency" id="lnk11"><polygon fill="#181818" points="313.3039,337.9532,298.3039,331.2865,304.9706,337.9532,298.3039,344.6199,313.3039,337.9532" style="stroke:#181818;stroke-width:1.6667;"/><path d="M56.8194,337.9532 C104.4827,337.9532 211.0189,337.9532 303.3039,337.9532" fill="none" style="stroke:#181818;stroke-width:1.6667;"/><text fill="#000000" font-family="'Noto Sans CJK SC'" font-size="21.6667" lengthAdjust="spacing" textLength="86.6668" x="141.8267" y="298.0865">&#35302;&#21457;&#25805;&#20316;</text><text fill="#000000" font-family="'Noto Sans CJK SC'" font-size="21.6667" lengthAdjust="spacing" textLength="190.3202" x="90" y="329.4599">&#65288;&#28857;&#20987;/&#28369;&#21160;/&#36755;&#20837;&#65289;</text></g><g class="link" data-entity-1="ent0003" data-entity-2="ent0004" data-link-type="dependency" id="lnk12"><polygon fill="#181818" points="1009.6198,328.2449,995.0916,320.6044,1001.3046,327.6958,994.2132,333.9088,1009.6198,328.2449" style="stroke:#181818;stroke-width:1.6667;"/><path d="M571.7256,323.3038 C581.8461,322.493 591.919,321.8008 601.6667,321.2865 C741.3918,313.9142 892.0124,320.4796 999.6415,327.586" fill="none" style="stroke:#181818;stroke-width:1.6667;"/><text fill="#000000" font-family="'Noto Sans CJK SC'" font-size="21.6667" lengthAdjust="spacing" textLength="180.2668" x="605" y="278.0865">context.read&lt;T&gt;()</text><text fill="#000000" font-family="'Noto Sans CJK SC'" font-size="21.6667" lengthAdjust="spacing" textLength="130.0002" x="630.1333" y="309.4599">&#35843;&#29992;&#19994;&#21153;&#26041;&#27861;</text></g><g class="link" data-entity-1="ent0004" data-entity-2="ent0005" data-link-type="dependency" id="lnk13"><polygon fill="#181818" points="1692.0204,322.6163,1677.356,315.2407,1683.6965,322.2182,1676.719,328.5588,1692.0204,322.6163" style="stroke:#181818;stroke-width:1.6667;"/><path d="M1258.6941,329.4452 C1364.924,323.1898 1522.6008,316.5379 1660,321.2865 C1670.4716,321.6484 1671.2061,321.6209 1682.0318,322.1386" fill="none" style="stroke:#181818;stroke-width:1.6667;"/><text fill="#000000" font-family="'Noto Sans CJK SC'" font-size="21.6667" lengthAdjust="spacing" textLength="112.6667" x="1514.1667" y="311.4199">method(...)</text></g><g class="link" data-entity-1="ent0005" data-entity-2="ent0006" data-link-type="dependency" id="lnk14"><polygon fill="#181818" points="2382.2042,163.5407,2366.2318,159.7556,2374.0139,165.078,2368.6915,172.8601,2382.2042,163.5407" style="stroke:#181818;stroke-width:1.6667;"/><path d="M1997.5376,287.0749 C2041.3097,264.8762 2094.7838,240.066 2145,222.9532 C2221.5268,196.8742 2299.5866,179.0478 2372.3758,165.3854" fill="none" style="stroke:#181818;stroke-width:1.6667;"/><text fill="#000000" font-family="'Noto Sans CJK SC'" font-size="21.6667" lengthAdjust="spacing" textLength="130.0002" x="2152.5" y="176.4199">&#35835;&#20889;&#19994;&#21153;&#25968;&#25454;</text></g><g class="link" data-entity-1="ent0006" data-entity-2="ent0007" data-link-type="dependency" id="lnk15"><polygon fill="#181818" points="2919.6134,139.6199,2904.6134,132.9532,2911.2801,139.6199,2904.6134,146.2865,2919.6134,139.6199" style="stroke:#181818;stroke-width:1.6667;"/><path d="M2687.9076,139.6199 C2768.6674,139.6199 2852.8559,139.6199 2909.6134,139.6199" fill="none" style="stroke:#181818;stroke-width:1.6667;"/><text fill="#000000" font-family="'Noto Sans CJK SC'" font-size="21.6667" lengthAdjust="spacing" textLength="103.7184" x="2783.3333" y="131.4199">SQL CRUD</text></g><g class="link" data-entity-1="ent0005" data-entity-2="ent0008" data-link-type="dependency" id="lnk16"><polygon fill="#181818" points="2414.6952,283.8574,2399.0762,278.8084,2406.4083,284.7355,2400.4812,292.0676,2414.6952,283.8574" style="stroke:#181818;stroke-width:1.6667;"/><path d="M2112.7961,315.8468 C2213.1322,305.2151 2319.806,293.9119 2404.7509,284.9112" fill="none" style="stroke:#181818;stroke-width:1.6667;"/><text fill="#000000" font-family="'Noto Sans CJK SC'" font-size="21.6667" lengthAdjust="spacing" textLength="86.6668" x="2174.5609" y="258.0865">&#35835;&#20889;&#37197;&#32622;</text><text fill="#000000" font-family="'Noto Sans CJK SC'" font-size="21.6667" lengthAdjust="spacing" textLength="139.1218" x="2148.3333" y="289.4599">&#65288;*_v1 keys&#65289;</text></g><g class="link" data-entity-1="ent0005" data-entity-2="ent0009" data-link-type="dependency" id="lnk17"><polygon fill="#181818" points="2420.5488,391.3013,2406.3134,383.1284,2412.2596,390.4449,2404.9432,396.3912,2420.5488,391.3013" style="stroke:#181818;stroke-width:1.6667;"/><path d="M2112.7961,359.507 C2215.4573,370.113 2325.2168,381.4524 2410.6018,390.2736" fill="none" style="stroke:#181818;stroke-width:1.6667;"/><text fill="#000000" font-family="'Noto Sans CJK SC'" font-size="21.6667" lengthAdjust="spacing" textLength="138.4935" x="2148.3333" y="356.4199">&#26412;&#22320;&#25991;&#20214;/&#32531;&#23384;</text></g><g class="link" data-entity-1="ent0005" data-entity-2="ent0010" data-link-type="dependency" id="lnk18"><polygon fill="#181818" points="2394.8042,529.5854,2380.6273,521.3112,2386.5213,528.6699,2379.1626,534.5639,2394.8042,529.5854" style="stroke:#181818;stroke-width:1.6667;"/><path d="M2091.1316,389.0417 C2099.471,393.789 2107.4815,398.9689 2115,404.6199 C2134.2148,419.0617 2125.1497,436.0646 2145,449.6199 C2218.2375,499.6319 2305.8552,519.7543 2384.8647,528.4868" fill="none" style="stroke:#181818;stroke-width:1.6667;"/><text fill="#000000" font-family="'Noto Sans CJK SC'" font-size="21.6667" lengthAdjust="spacing" textLength="130.0002" x="2152.5" y="409.7532">&#24322;&#27493;&#32593;&#32476;&#35831;&#27714;</text><text fill="#000000" font-family="'Noto Sans CJK SC'" font-size="21.6667" lengthAdjust="spacing" textLength="110.1751" x="2162.4125" y="441.1266">&#65288;Future&#65289;</text></g><g class="link" data-entity-1="ent0005" data-entity-2="ent0004" data-link-type="dependency" id="lnk19"><polygon fill="#181818" points="1258.7516,367.6145,1272.104,377.1622,1266.9146,369.2908,1274.786,364.1014,1258.7516,367.6145" style="stroke:#181818;stroke-width:1.6667;"/><path d="M1708.3385,388.8406 C1692.0727,391.8397 1675.8053,394.3997 1660,396.2865 C1522.7148,412.6758 1374.813,391.4473 1268.5472,369.626" fill="none" style="stroke:#181818;stroke-width:1.6667;"/><text fill="#000000" font-family="'Noto Sans CJK SC'" font-size="21.6667" lengthAdjust="spacing" textLength="165.2518" x="1487.3742" y="356.4199">notifyListeners()</text><text fill="#000000" font-family="'Noto Sans CJK SC'" font-size="21.6667" lengthAdjust="spacing" textLength="173.3335" x="1483.3333" y="387.7932">&#65288;&#29366;&#24577;&#21464;&#26356;&#24191;&#25773;&#65289;</text></g><g class="link" data-entity-1="ent0004" data-entity-2="ent0003" data-link-type="dependency" id="lnk20"><polygon fill="#181818" points="569.4325,388.8042,582.0882,399.2578,577.459,391.0444,585.6724,386.4152,569.4325,388.8042" style="stroke:#181818;stroke-width:1.6667;"/><path d="M1009.5366,371.3227 C901.5111,395.9225 740.3804,421.149 601.6667,396.2865 C591.0471,394.3831 589.8391,394.4995 579.0644,391.4924" fill="none" style="stroke:#181818;stroke-width:1.6667;"/><text fill="#000000" font-family="'Noto Sans CJK SC'" font-size="21.6667" lengthAdjust="spacing" textLength="174.3735" x="608.3333" y="356.4199">watch/Consumer</text><text fill="#000000" font-family="'Noto Sans CJK SC'" font-size="21.6667" lengthAdjust="spacing" textLength="120.6835" x="635.1783" y="387.7932">&#35302;&#21457; rebuild</text></g><g class="legend" data-source-line="70"><rect fill="#DDDDDD" height="226.0524" rx="12.5" ry="12.5" style="stroke:#000000;stroke-width:1.6667;" width="303.6655" x="2699.6679" y="736.2865"/><text fill="#000000" font-family="'Noto Sans CJK SC'" font-size="23.3333" font-weight="bold" lengthAdjust="spacing" textLength="46.6665" x="2713.2979" y="775.0197">&#39068;&#33394;</text><text fill="#000000" font-family="'Noto Sans CJK SC'" font-size="23.3333" font-weight="bold" lengthAdjust="spacing" textLength="46.6665" x="2770.5576" y="775.0197">&#21547;&#20041;</text><rect fill="#E3F2FD" height="33.7865" style="stroke:none;stroke-width:1.6667;" width="57.2598" x="2708.0012" y="781.7397"/><text fill="#000000" font-family="'Noto Sans CJK SC'" font-size="23.3333" lengthAdjust="spacing" textLength="5.2266" x="2708.0012" y="808.8063">&#160;</text><text fill="#000000" font-family="'Noto Sans CJK SC'" font-size="23.3333" lengthAdjust="spacing" textLength="23.6599" x="2770.4876" y="808.8063">UI</text><rect fill="#E8EAF6" height="33.7865" style="stroke:none;stroke-width:1.6667;" width="57.2598" x="2708.0012" y="815.5262"/><text fill="#000000" font-family="'Noto Sans CJK SC'" font-size="23.3333" lengthAdjust="spacing" textLength="5.2266" x="2708.0012" y="842.5928">&#160;</text><text fill="#000000" font-family="'Noto Sans CJK SC'" font-size="23.3333" lengthAdjust="spacing" textLength="125.3695" x="2770.4876" y="842.5928">&#29366;&#24577;&#31649;&#29702;/DI</text><rect fill="#F3E5F5" height="33.7865" style="stroke:none;stroke-width:1.6667;" width="57.2598" x="2708.0012" y="849.3127"/><text fill="#000000" font-family="'Noto Sans CJK SC'" font-size="23.3333" lengthAdjust="spacing" textLength="5.2266" x="2708.0012" y="876.3793">&#160;</text><text fill="#000000" font-family="'Noto Sans CJK SC'" font-size="23.3333" lengthAdjust="spacing" textLength="219.2857" x="2770.4876" y="876.3793">Service&#65288;&#19994;&#21153;&#32534;&#25490;&#65289;</text><rect fill="#E8F5E9" height="33.7865" style="stroke:none;stroke-width:1.6667;" width="57.2598" x="2708.0012" y="883.0993"/><text fill="#000000" font-family="'Noto Sans CJK SC'" font-size="23.3333" lengthAdjust="spacing" textLength="5.2266" x="2708.0012" y="910.1658">&#160;</text><text fill="#000000" font-family="'Noto Sans CJK SC'" font-size="23.3333" lengthAdjust="spacing" textLength="149.146" x="2770.4876" y="910.1658">&#25968;&#25454;&#35775;&#38382;/&#23384;&#20648;</text><rect fill="#FFF3E0" height="33.7865" style="stroke:none;stroke-width:1.6667;" width="57.2598" x="2708.0012" y="916.8858"/><text fill="#000000" font-family="'Noto Sans CJK SC'" font-size="23.3333" lengthAdjust="spacing" textLength="5.2266" x="2708.0012" y="943.9523">&#160;</text><text fill="#000000" font-family="'Noto Sans CJK SC'" font-size="23.3333" lengthAdjust="spacing" textLength="149.146" x="2770.4876" y="943.9523">&#32593;&#32476;/&#22806;&#37096;&#38598;&#25104;</text><line style="stroke:#000000;stroke-width:1.6667;" x1="2708.0012" x2="2995" y1="747.9532" y2="747.9532"/><line style="stroke:#000000;stroke-width:1.6667;" x1="2708.0012" x2="2995" y1="781.7397" y2="781.7397"/><line style="stroke:#000000;stroke-width:1.6667;" x1="2708.0012" x2="2995" y1="815.5262" y2="815.5262"/><line style="stroke:#000000;stroke-width:1.6667;" x1="2708.0012" x2="2995" y1="849.3127" y2="849.3127"/><line style="stroke:#000000;stroke-width:1.6667;" x1="2708.0012" x2="2995" y1="883.0993" y2="883.0993"/><line style="stroke:#000000;stroke-width:1.6667;" x1="2708.0012" x2="2995" y1="916.8858" y2="916.8858"/><line style="stroke:#000000;stroke-width:1.6667;" x1="2708.0012" x2="2995" y1="950.6723" y2="950.6723"/><line style="stroke:#000000;stroke-width:1.6667;" x1="2708.0012" x2="2708.0012" y1="747.9532" y2="950.6723"/><line style="stroke:#000000;stroke-width:1.6667;" x1="2765.261" x2="2765.261" y1="747.9532" y2="950.6723"/><line style="stroke:#000000;stroke-width:1.6667;" x1="2995" x2="2995" y1="747.9532" y2="950.6723"/></g><?plantuml-src TLPRKnD957xlNz7MlkXkoI0Kh58iLHX8IPMhhe7oWMnPOz99PfdCn9cERchTAW4Z0SKGB_4MruL2fRmGM5TkIU3Ff3kJ9_x2dkx9n07PjqdtEL-V_hxldCunpOZewIZ1KJDYAweLIMYKH6ZQ8afKK-EMchILgpRDwAGZbKxgY6fK9rZNOkGgDKtTnesv3Nvxih6ws5YuMzzwm9-iyVbL_cLolvgxP9atj2Yny0yua52DEBbWKYsc4Mk_EelGiPIbnfCgrjMCcQROJXAg6Yf2zeHcf5Gu6Di9DMhUr8muZgcwJNmx4JEPCWrYq92e35jGCU3h_f2K6fbGu-HmG08AmZOb5Z5f9aNGKQ3u3uJnMSYFMsRQY0PCtRJw-yT61WRmTyFTmQxWaDWtBRZQWRrJFRqzWSwZSaDKfKIcdnuU3FOUJczlTvtkxZdJVIG2iMve4HaKx1xk2VPyW_4re7VmrDapWqUX3AbKTSi8zWoVEGpXxNOD_pZKtNLK_WL2RvhMXAmY27Lq7eRm1Gm7UmETdUXFX7GIevYQsDBY2OgZcb13Cms4r0WrBTnulC9pcrYryPXDB8J6hsZHEA5WeERYb-Qh9QLHkLElR81fmWQVlSVczfJ6r3QRgIZExYEMVVEhI7Lpi2i56lUi5pP-JkjKQpkHVrw1ZB0HCGrAVgST5b6ZoasLHX8IfHtNrWID7xGkRl4SDg2--kuzzdOAXp96fBMiZAfnxxEZemDgbhYj9UoJ2OrV9YdJre21Z0HZcszOTbDXsOyikuw_RdeOOWLx8g7nq2_deLF3XdqzfiE7UynryUaFIgWMYLwoI0mCRqI87JQQsVb6RLNXfO-ijEOsR-lg96RxKeEQJa8Pw9Has63bRMTzaNrwngPMt4IbKNq4lsLcCEHBEpSwUWa7T0tQA6nSJ15ZS4GH_2WNh_qMWkkuXPwZD8LzRa58I8zFdXpmXEp3phktB5_WZ-RhjP8ag2KwhnJOt4fBUp59MXaYkQrV7_Oht3ywSFn4s73Mfi5hzQqNR6wH5xVvvoUedI2oFPNwCCoYX1az3WgUGCXR5Y5I1AYjN65tdxUGvCH3SaUYk2BqOL081owF3Hr4S7ds85mrvFM-lthZ59uW6LlSoPy1_FPXbtPUd85EQ95_84WoseTPTOf_UjEe5HgLabFUvEjJ4ZkO5XDTZjs3jRJfCeI_C-Sr4DmWbYte4fHBVx3yC_xoNxQznnz-4XW7I6lh9Rj82PY6dKwAndFrWz5xBQtfKOJW18AlcPIQIMp6FB9XWBI4VhKecppNMDw1le9pzgilOFTaQpwuHe0rNbnZIty11qLdjw2mtD_DvyiAV_2GxUHbE5ieWp_gbGfe0-7GnnPDfwvOQYe59Jipxs6NBTm7cjpmrHVyAL3w-3Khr5W1_FrQ73Avn9RdsUmyow_nhIoyRSxU36pnZHoVB2DYH0LZv9jRUTG0TEDbWIryvAKTbjlmhkAPKd8bNOaLx546lo6klllA-L9qANUBRLFeHsZR6b9O_hrmKxvOtvftJzsltXTEttdWSYlug9N-lsfX7a3djzyvqpMM_GnJ4fhDAzebIs7BuBsQE2wxqfp9ixqFZUmxLgwocHsMBqEYiplDiqio1PhUFpD4KdKTNAau6rbWkmu4tvjjFjc3ivgFLvtDCjkzuojF9t7nGxuNW7Vh9znSAZcp_uWljl2XlZsBRudr_jPpF81luR6HzffyOyMQ_x-9CjGES1zG4T0oeHZbifV1LE0ayDvNBF5GYb2tpPtLlURJLSMzLXjFFeNoGDbuG5MnERtIV7cNvnOW2ExYtWZz1m00?></g></svg>