<?xml version="1.0" encoding="UTF-8" standalone="no"?><svg xmlns="http://www.w3.org/2000/svg" xmlns:xlink="http://www.w3.org/1999/xlink" contentScriptType="application/ecmascript" contentStyleType="text/css" height="1713.3333px" preserveAspectRatio="none" style="width:1911px;height:1713px;" version="1.1" viewBox="0 0 1911 1713" width="1911.6667px" zoomAndPan="magnify"><defs/><g><text fill="#000000" font-family="Noto Sans CJK SC" font-size="30" lengthAdjust="spacingAndGlyphs" textLength="796.6667" x="564.1667" y="34.7998">life_tools 状态管理与数据流（Provider + ChangeNotifier）</text><!--entity User--><ellipse cx="1027.5" cy="73.4397" fill="#FEFECE" rx="13.3333" ry="13.3333" style="stroke: #A80036; stroke-width: 3.3333333333333335;"/><path d="M1027.5,86.7731 L1027.5,131.7731 M1005.8333,100.1064 L1049.1667,100.1064 M1027.5,131.7731 L1005.8333,156.7731 M1027.5,131.7731 L1049.1667,156.7731 " fill="#FEFECE" style="stroke: #A80036; stroke-width: 3.3333333333333335;"/><text fill="#000000" font-family="Noto Sans CJK SC" font-size="23.3333" lengthAdjust="spacingAndGlyphs" textLength="46.6667" x="1004.1667" y="188.8396">用户</text><!--entity Widget--><rect fill="#E3F2FD" height="100.9064" style="stroke: #1565C0; stroke-width: 2.5;" width="258.3333" x="1636.6667" y="206.7731"/><rect fill="#E3F2FD" height="8.3333" style="stroke: #1565C0; stroke-width: 2.5;" width="16.6667" x="1628.3333" y="215.1064"/><rect fill="#E3F2FD" height="8.3333" style="stroke: #1565C0; stroke-width: 2.5;" width="16.6667" x="1628.3333" y="291.0128"/><text fill="#000000" font-family="Noto Sans CJK SC" font-size="23.3333" lengthAdjust="spacingAndGlyphs" textLength="225" x="1653.3333" y="250.5063">Widget（页面/组件）</text><text fill="#000000" font-family="Noto Sans CJK SC" font-size="23.3333" lengthAdjust="spacingAndGlyphs" textLength="156.6667" x="1653.3333" y="284.2928">手势/点击/输入</text><!--entity Provider--><rect fill="#E8EAF6" height="134.6929" style="stroke: #283593; stroke-width: 2.5;" width="246.6667" x="904.1667" y="286.7731"/><rect fill="#E8EAF6" height="8.3333" style="stroke: #283593; stroke-width: 2.5;" width="16.6667" x="895.8333" y="295.1064"/><rect fill="#E8EAF6" height="8.3333" style="stroke: #283593; stroke-width: 2.5;" width="16.6667" x="895.8333" y="404.7993"/><text fill="#000000" font-family="Noto Sans CJK SC" font-size="23.3333" lengthAdjust="spacingAndGlyphs" textLength="91.6667" x="920.8333" y="330.5063">Provider</text><text fill="#000000" font-family="Noto Sans CJK SC" font-size="23.3333" lengthAdjust="spacingAndGlyphs" textLength="198.3333" x="920.8333" y="364.2928">MultiProvider 注入</text><text fill="#000000" font-family="Noto Sans CJK SC" font-size="23.3333" lengthAdjust="spacingAndGlyphs" textLength="213.3333" x="920.8333" y="398.0793">context.read/watch</text><!--entity Service--><rect fill="#F3E5F5" height="100.9064" style="stroke: #6A1B9A; stroke-width: 2.5;" width="416.6667" x="14.1667" y="878.4397"/><rect fill="#F3E5F5" height="8.3333" style="stroke: #6A1B9A; stroke-width: 2.5;" width="16.6667" x="5.8333" y="886.7731"/><rect fill="#F3E5F5" height="8.3333" style="stroke: #6A1B9A; stroke-width: 2.5;" width="16.6667" x="5.8333" y="962.6794"/><text fill="#000000" font-family="Noto Sans CJK SC" font-size="23.3333" lengthAdjust="spacingAndGlyphs" textLength="250" x="30.8333" y="922.1729">ChangeNotifier Service</text><text fill="#000000" font-family="Noto Sans CJK SC" font-size="23.3333" lengthAdjust="spacingAndGlyphs" textLength="383.3333" x="30.8333" y="955.9595">（例如 SyncService/TagService/...）</text><!--entity Repo--><rect fill="#E8F5E9" height="100.9064" style="stroke: #2E7D32; stroke-width: 2.5;" width="303.3333" x="875.8333" y="1355.1064"/><rect fill="#E8F5E9" height="8.3333" style="stroke: #2E7D32; stroke-width: 2.5;" width="16.6667" x="867.5" y="1363.4397"/><rect fill="#E8F5E9" height="8.3333" style="stroke: #2E7D32; stroke-width: 2.5;" width="16.6667" x="867.5" y="1439.3461"/><text fill="#000000" font-family="Noto Sans CJK SC" font-size="23.3333" lengthAdjust="spacingAndGlyphs" textLength="116.6667" x="892.5" y="1398.8396">Repository</text><text fill="#000000" font-family="Noto Sans CJK SC" font-size="23.3333" lengthAdjust="spacingAndGlyphs" textLength="270" x="892.5" y="1432.6261">（工具/公共 Repository）</text><!--entity Sqlite--><rect fill="#E8F5E9" height="100.9064" style="stroke: #2E7D32; stroke-width: 2.5;" width="105" x="1713.3333" y="1355.1064"/><rect fill="#E8F5E9" height="8.3333" style="stroke: #2E7D32; stroke-width: 2.5;" width="16.6667" x="1705" y="1363.4397"/><rect fill="#E8F5E9" height="8.3333" style="stroke: #2E7D32; stroke-width: 2.5;" width="16.6667" x="1705" y="1439.3461"/><text fill="#000000" font-family="Noto Sans CJK SC" font-size="23.3333" lengthAdjust="spacingAndGlyphs" textLength="71.6667" x="1730" y="1398.8396">SQLite</text><text fill="#000000" font-family="Noto Sans CJK SC" font-size="23.3333" lengthAdjust="spacingAndGlyphs" textLength="70" x="1730" y="1432.6261">sqflite</text><!--entity Prefs--><rect fill="#E8F5E9" height="100.9064" style="stroke: #2E7D32; stroke-width: 2.5;" width="243.3333" x="905.8333" y="1035.1064"/><rect fill="#E8F5E9" height="8.3333" style="stroke: #2E7D32; stroke-width: 2.5;" width="16.6667" x="897.5" y="1043.4397"/><rect fill="#E8F5E9" height="8.3333" style="stroke: #2E7D32; stroke-width: 2.5;" width="16.6667" x="897.5" y="1119.3461"/><text fill="#000000" font-family="Noto Sans CJK SC" font-size="23.3333" lengthAdjust="spacingAndGlyphs" textLength="210" x="922.5" y="1078.8396">SharedPreferences</text><text fill="#000000" font-family="Noto Sans CJK SC" font-size="23.3333" lengthAdjust="spacingAndGlyphs" textLength="148.3333" x="922.5" y="1112.6261">配置/本地状态</text><!--entity FS--><rect fill="#E8F5E9" height="100.9064" style="stroke: #2E7D32; stroke-width: 2.5;" width="228.3333" x="913.3333" y="1195.1064"/><rect fill="#E8F5E9" height="8.3333" style="stroke: #2E7D32; stroke-width: 2.5;" width="16.6667" x="905" y="1203.4397"/><rect fill="#E8F5E9" height="8.3333" style="stroke: #2E7D32; stroke-width: 2.5;" width="16.6667" x="905" y="1279.3461"/><text fill="#000000" font-family="Noto Sans CJK SC" font-size="23.3333" lengthAdjust="spacingAndGlyphs" textLength="120" x="930" y="1238.8396">FileSystem</text><text fill="#000000" font-family="Noto Sans CJK SC" font-size="23.3333" lengthAdjust="spacingAndGlyphs" textLength="195" x="930" y="1272.6261">对象存储本地/缓存</text><!--entity Http--><rect fill="#FFF3E0" height="100.9064" style="stroke: #EF6C00; stroke-width: 2.5;" width="278.3333" x="888.3333" y="480.1064"/><rect fill="#FFF3E0" height="8.3333" style="stroke: #EF6C00; stroke-width: 2.5;" width="16.6667" x="880" y="488.4397"/><rect fill="#FFF3E0" height="8.3333" style="stroke: #EF6C00; stroke-width: 2.5;" width="16.6667" x="880" y="564.3461"/><text fill="#000000" font-family="Noto Sans CJK SC" font-size="23.3333" lengthAdjust="spacingAndGlyphs" textLength="128.3333" x="905" y="523.8396">HTTP Client</text><text fill="#000000" font-family="Noto Sans CJK SC" font-size="23.3333" lengthAdjust="spacingAndGlyphs" textLength="245" x="905" y="557.6261">OpenAI/Sync/ObjStore</text><polygon fill="#FBFB77" points="10,1096.7731,10,1238.9332,435,1238.9332,435,1113.4397,418.3333,1096.7731,10,1096.7731" style="stroke: #A80036; stroke-width: 1.6666666666666667;"/><polygon fill="#FBFB77" points="10,1096.7731,10,1238.9332,435,1238.9332,435,1113.4397,418.3333,1096.7731,229.1667,1096.7731,222.5,980.1897,215.8333,1096.7731,10,1096.7731" style="stroke: #A80036; stroke-width: 1.6666666666666667;"/><line style="stroke: #A80036; stroke-width: 1.6666666666666667;" x1="418.3333" x2="418.3333" y1="1096.7731" y2="1113.4397"/><line style="stroke: #A80036; stroke-width: 1.6666666666666667;" x1="435" x2="418.3333" y1="1113.4397" y2="1113.4397"/><text fill="#000000" font-family="Noto Sans CJK SC" font-size="21.6667" lengthAdjust="spacingAndGlyphs" textLength="195" x="20" y="1130.2398">触发条件（示例）：</text><text fill="#000000" font-family="Noto Sans CJK SC" font-size="21.6667" lengthAdjust="spacingAndGlyphs" textLength="320" x="20" y="1161.6131">- 用户操作：新增/编辑/删除/排序</text><text fill="#000000" font-family="Noto Sans CJK SC" font-size="21.6667" lengthAdjust="spacingAndGlyphs" textLength="375" x="20" y="1192.9865">- 启动任务：StartupWrapper 自动同步</text><text fill="#000000" font-family="Noto Sans CJK SC" font-size="21.6667" lengthAdjust="spacingAndGlyphs" textLength="390" x="20" y="1224.3598">- 定时/生命周期：恢复前台清理过期消息</text><polygon fill="#FBFB77" points="711.6667,865.9397,711.6667,976.7265,1343.3333,976.7265,1343.3333,882.6064,1326.6667,865.9397,711.6667,865.9397" style="stroke: #A80036; stroke-width: 1.6666666666666667;"/><line style="stroke: #A80036; stroke-width: 1.6666666666666667;" x1="1326.6667" x2="1326.6667" y1="865.9397" y2="882.6064"/><line style="stroke: #A80036; stroke-width: 1.6666666666666667;" x1="1343.3333" x2="1326.6667" y1="882.6064" y2="882.6064"/><text fill="#000000" font-family="Noto Sans CJK SC" font-size="21.6667" lengthAdjust="spacingAndGlyphs" textLength="108.3333" x="721.6667" y="899.4064">监听机制：</text><text fill="#000000" font-family="Noto Sans CJK SC" font-size="21.6667" lengthAdjust="spacingAndGlyphs" textLength="596.6667" x="721.6667" y="930.7798">- context.watch&lt;T&gt;() / Consumer&lt;T&gt;：依赖变更自动 rebuild</text><text fill="#000000" font-family="Noto Sans CJK SC" font-size="21.6667" lengthAdjust="spacingAndGlyphs" textLength="495" x="721.6667" y="962.1531">- context.read&lt;T&gt;()：只读取不监听，用于触发动作</text><polygon fill="#FBFB77" points="811.6667,697.6064,811.6667,808.3931,1243.3333,808.3931,1243.3333,714.2731,1226.6667,697.6064,811.6667,697.6064" style="stroke: #A80036; stroke-width: 1.6666666666666667;"/><polygon fill="#FBFB77" points="811.6667,697.6064,811.6667,808.3931,1243.3333,808.3931,1243.3333,714.2731,1226.6667,697.6064,1034.1667,697.6064,1027.5,582.2397,1020.8333,697.6064,811.6667,697.6064" style="stroke: #A80036; stroke-width: 1.6666666666666667;"/><line style="stroke: #A80036; stroke-width: 1.6666666666666667;" x1="1226.6667" x2="1226.6667" y1="697.6064" y2="714.2731"/><line style="stroke: #A80036; stroke-width: 1.6666666666666667;" x1="1243.3333" x2="1226.6667" y1="714.2731" y2="714.2731"/><text fill="#000000" font-family="Noto Sans CJK SC" font-size="21.6667" lengthAdjust="spacingAndGlyphs" textLength="130" x="821.6667" y="731.0731">性能关注点：</text><text fill="#000000" font-family="Noto Sans CJK SC" font-size="21.6667" lengthAdjust="spacingAndGlyphs" textLength="346.6667" x="821.6667" y="762.4464">- 同步/备份：全量快照导出可能较慢</text><text fill="#000000" font-family="Noto Sans CJK SC" font-size="21.6667" lengthAdjust="spacingAndGlyphs" textLength="396.6667" x="821.6667" y="793.8198">- AI/对象存储：弱网/超时会拉长关键路径</text><path d="M1052.7667,127.9564 C1130.05,134.8397 1382.35,159.4897 1586.6667,204.2731 C1600.0667,207.2064 1613.9333,210.6564 1627.7333,214.3397 " fill="none" style="stroke: #A80036; stroke-width: 1.6666666666666667;"/><polygon fill="#A80036" points="1636.3167,216.6731,1623.5656,206.336,1628.2699,214.5066,1620.0993,219.2109,1636.3167,216.6731" style="stroke: #A80036; stroke-width: 1.6666666666666667;"/><text fill="#000000" font-family="Noto Sans CJK SC" font-size="21.6667" lengthAdjust="spacingAndGlyphs" textLength="86.6667" x="1446.6667" y="132.7398">触发操作</text><text fill="#000000" font-family="Noto Sans CJK SC" font-size="21.6667" lengthAdjust="spacingAndGlyphs" textLength="190" x="1395" y="164.1131">（点击/滑动/输入）</text><path d="M1716,309.0064 C1683.0167,340.2731 1636.3667,377.3564 1586.6667,394.2731 C1446.2667,442.0564 1274.8167,418.5397 1159.4167,391.8064 " fill="none" style="stroke: #A80036; stroke-width: 1.6666666666666667;"/><polygon fill="#A80036" points="1151.2,389.8731,1164.2808,399.7895,1159.3131,391.7764,1167.3262,386.8087,1151.2,389.8731" style="stroke: #A80036; stroke-width: 1.6666666666666667;"/><text fill="#000000" font-family="Noto Sans CJK SC" font-size="21.6667" lengthAdjust="spacingAndGlyphs" textLength="178.3333" x="1400.8333" y="356.0731">context.read&lt;T&gt;()</text><text fill="#000000" font-family="Noto Sans CJK SC" font-size="21.6667" lengthAdjust="spacingAndGlyphs" textLength="130" x="1425" y="387.4464">调用业务方法</text><path d="M1151.3667,338.2064 C1282.5833,320.9397 1490.5667,293.5897 1627.2167,275.6231 " fill="none" style="stroke: #A80036; stroke-width: 1.6666666666666667;"/><polygon fill="#A80036" points="1636.1167,274.4397,1620.3839,269.7575,1627.8525,275.5114,1622.0986,282.9801,1636.1167,274.4397" style="stroke: #A80036; stroke-width: 1.6666666666666667;"/><text fill="#000000" font-family="Noto Sans CJK SC" font-size="21.6667" lengthAdjust="spacingAndGlyphs" textLength="173.3333" x="1403.3333" y="244.4064">watch/Consumer</text><text fill="#000000" font-family="Noto Sans CJK SC" font-size="21.6667" lengthAdjust="spacingAndGlyphs" textLength="121.6667" x="1429.1667" y="275.7798">触发 rebuild</text><path d="M903.75,375.8731 C842.7333,390.5064 769.7167,414.0731 711.6667,450.9397 C683.7833,468.6564 687.0333,484.7897 661.6667,505.9397 C590.6167,565.1731 554.7333,555.1731 485,615.9397 C395.4167,694.0064 311.15,804.4397 263.7667,871.2064 " fill="none" style="stroke: #A80036; stroke-width: 1.6666666666666667;"/><polygon fill="#A80036" points="258.7333,878.3231,272.8323,869.917,263.5409,871.5163,261.9415,862.2249,258.7333,878.3231" style="stroke: #A80036; stroke-width: 1.6666666666666667;"/><text fill="#000000" font-family="Noto Sans CJK SC" font-size="21.6667" lengthAdjust="spacingAndGlyphs" textLength="113.3333" x="516.6667" y="499.4064">method(...)</text><path d="M237.65,877.9897 C265.9333,781.0064 341.1333,571.0231 485,465.9397 C604.8333,378.4064 777.4833,355.9064 895.25,351.7897 " fill="none" style="stroke: #A80036; stroke-width: 1.6666666666666667;"/><polygon fill="#A80036" points="903.6333,351.5231,888.4313,345.3309,895.3041,351.7848,888.8502,358.6576,903.6333,351.5231" style="stroke: #A80036; stroke-width: 1.6666666666666667;"/><text fill="#000000" font-family="Noto Sans CJK SC" font-size="21.6667" lengthAdjust="spacingAndGlyphs" textLength="165" x="490.8333" y="347.7398">notifyListeners()</text><text fill="#000000" font-family="Noto Sans CJK SC" font-size="21.6667" lengthAdjust="spacingAndGlyphs" textLength="173.3333" x="486.6667" y="379.1131">（状态变更广播）</text><path d="M328.4,980.3897 C365.9833,1002.9231 406.1833,1032.3564 435,1067.6064 C472.8667,1113.9397 446,1147.2231 485,1192.6064 C561.1667,1281.2564 603.5833,1281.4397 711.6667,1325.9397 C760.6167,1346.0897 816.0167,1362.2397 866.5,1374.5897 " fill="none" style="stroke: #A80036; stroke-width: 1.6666666666666667;"/><polygon fill="#A80036" points="875.2167,1376.7064,862.1978,1366.7087,867.1156,1374.7526,859.0717,1379.6704,875.2167,1376.7064" style="stroke: #A80036; stroke-width: 1.6666666666666667;"/><text fill="#000000" font-family="Noto Sans CJK SC" font-size="21.6667" lengthAdjust="spacingAndGlyphs" textLength="130" x="508.3333" y="1186.0731">读写业务数据</text><path d="M1179.2333,1405.9397 C1341.2833,1405.9397 1591.3833,1405.9397 1704.7333,1405.9397 " fill="none" style="stroke: #A80036; stroke-width: 1.6666666666666667;"/><polygon fill="#A80036" points="1713.3,1405.9397,1698.3,1399.2731,1704.9667,1405.9397,1698.3,1412.6064,1713.3,1405.9397" style="stroke: #A80036; stroke-width: 1.6666666666666667;"/><text fill="#000000" font-family="Noto Sans CJK SC" font-size="21.6667" lengthAdjust="spacingAndGlyphs" textLength="103.3333" x="1438.3333" y="1399.4064">SQL CRUD</text><path d="M431.1333,969.7231 C578.15,998.4564 771,1036.1397 896.6167,1060.6897 " fill="none" style="stroke: #A80036; stroke-width: 1.6666666666666667;"/><polygon fill="#A80036" points="905.55,1062.4397,892.1063,1053.021,897.3712,1060.8421,889.5502,1066.1071,905.55,1062.4397" style="stroke: #A80036; stroke-width: 1.6666666666666667;"/><text fill="#000000" font-family="Noto Sans CJK SC" font-size="21.6667" lengthAdjust="spacingAndGlyphs" textLength="86.6667" x="530" y="947.7398">读写配置</text><text fill="#000000" font-family="Noto Sans CJK SC" font-size="21.6667" lengthAdjust="spacingAndGlyphs" textLength="138.3333" x="504.1667" y="979.1131">（*_v1 keys）</text><path d="M324.85,980.1231 C373.1667,1004.3397 431.95,1033.5731 485,1059.2731 C585.2,1107.8064 606.8667,1128.3231 711.6667,1165.9397 C774.0167,1188.3231 845.4667,1207.0397 904.4333,1220.7231 " fill="none" style="stroke: #A80036; stroke-width: 1.6666666666666667;"/><polygon fill="#A80036" points="913.05,1222.7064,899.9417,1212.8263,904.9317,1220.8256,896.9324,1225.8156,913.05,1222.7064" style="stroke: #A80036; stroke-width: 1.6666666666666667;"/><text fill="#000000" font-family="Noto Sans CJK SC" font-size="21.6667" lengthAdjust="spacingAndGlyphs" textLength="138.3333" x="504.1667" y="1052.7398">本地文件/缓存</text><path d="M313.7667,878.3064 C410.6833,823.8564 570.35,736.1231 711.6667,667.6064 C770.8333,638.9231 837.5,609.5064 894.15,585.3731 " fill="none" style="stroke: #A80036; stroke-width: 1.6666666666666667;"/><polygon fill="#A80036" points="902.4333,581.8397,886.0207,581.5778,894.7652,585.1023,891.2407,593.8468,902.4333,581.8397" style="stroke: #A80036; stroke-width: 1.6666666666666667;"/><text fill="#000000" font-family="Noto Sans CJK SC" font-size="21.6667" lengthAdjust="spacingAndGlyphs" textLength="130" x="508.3333" y="656.0731">异步网络请求</text><text fill="#000000" font-family="Noto Sans CJK SC" font-size="21.6667" lengthAdjust="spacingAndGlyphs" textLength="110" x="518.3333" y="687.4464">（Future）</text><path d="M903.95,350.5564 C797.5,354.8231 649.3667,380.1397 573.3333,480.1064 C485.4333,595.6564 484.0667,692.2731 573.3333,806.7731 C608.2,851.4897 657.7833,880.3231 711.4833,898.5897 " fill="none" style="stroke: #A80036; stroke-width: 1.6666666666666667; stroke-dasharray: 7.0,7.0;"/><rect fill="#DDDDDD" height="226.0524" rx="8.3333" ry="8.3333" style="stroke: #000000; stroke-width: 1.6666666666666667;" width="305" x="1605" y="1486.7731"/><text fill="#000000" font-family="Noto Sans CJK SC" font-size="23.3333" font-weight="bold" lengthAdjust="spacingAndGlyphs" textLength="46.6667" x="1620" y="1525.5063">颜色</text><text fill="#000000" font-family="Noto Sans CJK SC" font-size="23.3333" font-weight="bold" lengthAdjust="spacingAndGlyphs" textLength="46.6667" x="1676.6667" y="1525.5063">含义</text><rect fill="#E3F2FD" height="33.7865" style="stroke: none; stroke-width: 1.6666666666666667;" width="56.6667" x="1615" y="1532.2262"/><text fill="#000000" font-family="Noto Sans CJK SC" font-size="23.3333" lengthAdjust="spacingAndGlyphs" textLength="0" x="1620" y="1559.2928"/><text fill="#000000" font-family="Noto Sans CJK SC" font-size="23.3333" lengthAdjust="spacingAndGlyphs" textLength="23.3333" x="1676.6667" y="1559.2928">UI</text><rect fill="#E8EAF6" height="33.7865" style="stroke: none; stroke-width: 1.6666666666666667;" width="56.6667" x="1615" y="1566.0128"/><text fill="#000000" font-family="Noto Sans CJK SC" font-size="23.3333" lengthAdjust="spacingAndGlyphs" textLength="0" x="1620" y="1593.0793"/><text fill="#000000" font-family="Noto Sans CJK SC" font-size="23.3333" lengthAdjust="spacingAndGlyphs" textLength="125" x="1676.6667" y="1593.0793">状态管理/DI</text><rect fill="#F3E5F5" height="33.7865" style="stroke: none; stroke-width: 1.6666666666666667;" width="56.6667" x="1615" y="1599.7993"/><text fill="#000000" font-family="Noto Sans CJK SC" font-size="23.3333" lengthAdjust="spacingAndGlyphs" textLength="0" x="1620" y="1626.8658"/><text fill="#000000" font-family="Noto Sans CJK SC" font-size="23.3333" lengthAdjust="spacingAndGlyphs" textLength="218.3333" x="1676.6667" y="1626.8658">Service（业务编排）</text><rect fill="#E8F5E9" height="33.7865" style="stroke: none; stroke-width: 1.6666666666666667;" width="56.6667" x="1615" y="1633.5858"/><text fill="#000000" font-family="Noto Sans CJK SC" font-size="23.3333" lengthAdjust="spacingAndGlyphs" textLength="0" x="1620" y="1660.6524"/><text fill="#000000" font-family="Noto Sans CJK SC" font-size="23.3333" lengthAdjust="spacingAndGlyphs" textLength="148.3333" x="1676.6667" y="1660.6524">数据访问/存储</text><rect fill="#FFF3E0" height="33.7865" style="stroke: none; stroke-width: 1.6666666666666667;" width="56.6667" x="1615" y="1667.3723"/><text fill="#000000" font-family="Noto Sans CJK SC" font-size="23.3333" lengthAdjust="spacingAndGlyphs" textLength="0" x="1620" y="1694.4389"/><text fill="#000000" font-family="Noto Sans CJK SC" font-size="23.3333" lengthAdjust="spacingAndGlyphs" textLength="148.3333" x="1676.6667" y="1694.4389">网络/外部集成</text><line style="stroke: #000000; stroke-width: 1.6666666666666667;" x1="1615" x2="1900" y1="1498.4397" y2="1498.4397"/><line style="stroke: #000000; stroke-width: 1.6666666666666667;" x1="1615" x2="1900" y1="1532.2262" y2="1532.2262"/><line style="stroke: #000000; stroke-width: 1.6666666666666667;" x1="1615" x2="1900" y1="1566.0128" y2="1566.0128"/><line style="stroke: #000000; stroke-width: 1.6666666666666667;" x1="1615" x2="1900" y1="1599.7993" y2="1599.7993"/><line style="stroke: #000000; stroke-width: 1.6666666666666667;" x1="1615" x2="1900" y1="1633.5858" y2="1633.5858"/><line style="stroke: #000000; stroke-width: 1.6666666666666667;" x1="1615" x2="1900" y1="1667.3723" y2="1667.3723"/><line style="stroke: #000000; stroke-width: 1.6666666666666667;" x1="1615" x2="1900" y1="1701.1588" y2="1701.1588"/><line style="stroke: #000000; stroke-width: 1.6666666666666667;" x1="1615" x2="1615" y1="1498.4397" y2="1701.1588"/><line style="stroke: #000000; stroke-width: 1.6666666666666667;" x1="1671.6667" x2="1671.6667" y1="1498.4397" y2="1701.1588"/><line style="stroke: #000000; stroke-width: 1.6666666666666667;" x1="1900" x2="1900" y1="1498.4397" y2="1701.1588"/></g></svg>