<?plantuml 1.2026.1?><svg xmlns="http://www.w3.org/2000/svg" xmlns:xlink="http://www.w3.org/1999/xlink" contentStyleType="text/css" data-diagram-type="DESCRIPTION" height="876.6667px" preserveAspectRatio="none" style="width:2783px;height:876px;background:#FFFFFF;" version="1.1" viewBox="0 0 2783 876" width="2783.3333px" zoomAndPan="magnify"><title>life_tools &#29366;&#24577;&#31649;&#29702;&#19982;&#25968;&#25454;&#27969;&#65288;Provider + ChangeNotifier&#65289;</title><defs/><g><g class="title" data-source-line="2"><text fill="#000000" font-family="'Noto Sans CJK SC'" font-size="23.3333" font-weight="bold" lengthAdjust="spacing" textLength="613.3773" x="1078.3114" y="38.3252">life_tools &#29366;&#24577;&#31649;&#29702;&#19982;&#25968;&#25454;&#27969;&#65288;Provider + ChangeNotifier&#65289;</text></g><!--entity User--><g class="entity" data-qualified-name="User" data-source-line="26" id="ent0002"><ellipse cx="32.5" cy="255.4948" fill="#F1F1F1" rx="13.3333" ry="13.3333" style="stroke:#181818;stroke-width:0.8333;"/><path d="M32.5,268.8281 L32.5,313.8281 M10.8333,282.1615 L54.1667,282.1615 M32.5,313.8281 L10.8333,338.8281 M32.5,313.8281 L54.1667,338.8281" fill="none" style="stroke:#181818;stroke-width:0.8333;"/><text fill="#000000" font-family="'Noto Sans CJK SC'" font-size="23.3333" lengthAdjust="spacing" textLength="28.0046" x="18.4977" y="362.9867">&#29992;&#25143;</text></g><!--entity Widget--><g class="entity" data-qualified-name="Widget" data-source-line="28" id="ent0003"><rect fill="#E3F2FD" height="87.6563" rx="4.1667" ry="4.1667" style="stroke:#1565C0;stroke-width:0.8333;" width="207.889" x="240" y="260.4948"/><text fill="#000000" font-family="'Noto Sans CJK SC'" font-size="23.3333" lengthAdjust="spacing" textLength="174.5557" x="256.6667" y="298.82">Widget&#65288;&#39029;&#38754;/&#32452;&#20214;&#65289;</text><text fill="#000000" font-family="'Noto Sans CJK SC'" font-size="23.3333" lengthAdjust="spacing" textLength="99.7363" x="256.6667" y="325.9814">&#25163;&#21183;/&#28857;&#20987;/&#36755;&#20837;</text></g><!--entity Provider--><g class="entity" data-qualified-name="Provider" data-source-line="29" id="ent0004"><rect fill="#E8EAF6" height="114.8177" rx="4.1667" ry="4.1667" style="stroke:#283593;stroke-width:0.8333;" width="260.1725" x="900.8333" y="245.4948"/><text fill="#000000" font-family="'Noto Sans CJK SC'" font-size="23.3333" lengthAdjust="spacing" textLength="96.9906" x="917.5" y="283.82">Provider</text><text fill="#000000" font-family="'Noto Sans CJK SC'" font-size="23.3333" lengthAdjust="spacing" textLength="189.4466" x="917.5" y="310.9814">MultiProvider &#27880;&#20837;</text><text fill="#000000" font-family="'Noto Sans CJK SC'" font-size="23.3333" lengthAdjust="spacing" textLength="226.8392" x="917.5" y="338.1429">context.read/watch</text></g><!--entity Service--><g class="entity" data-qualified-name="Service" data-source-line="30" id="ent0005"><rect fill="#F3E5F5" height="87.6563" rx="4.1667" ry="4.1667" style="stroke:#6A1B9A;stroke-width:0.8333;" width="406.8034" x="1586.6667" y="258.8281"/><text fill="#000000" font-family="'Noto Sans CJK SC'" font-size="23.3333" lengthAdjust="spacing" textLength="268.9941" x="1603.3333" y="297.1533">ChangeNotifier Service</text><text fill="#000000" font-family="'Noto Sans CJK SC'" font-size="23.3333" lengthAdjust="spacing" textLength="373.4701" x="1603.3333" y="324.3148">&#65288;&#20363;&#22914; SyncService/TagService/...&#65289;</text></g><!--entity Repo--><g class="entity" data-qualified-name="Repo" data-source-line="31" id="ent0006"><rect fill="#E8F5E9" height="87.6563" rx="4.1667" ry="4.1667" style="stroke:#2E7D32;stroke-width:0.8333;" width="257.7458" x="2207.5" y="82.1615"/><text fill="#000000" font-family="'Noto Sans CJK SC'" font-size="23.3333" lengthAdjust="spacing" textLength="125.1204" x="2224.1667" y="120.4867">Repository</text><text fill="#000000" font-family="'Noto Sans CJK SC'" font-size="23.3333" lengthAdjust="spacing" textLength="224.4124" x="2224.1667" y="147.6481">&#65288;&#24037;&#20855;/&#20844;&#20849; Repository&#65289;</text></g><!--entity Sqlite--><g class="entity" data-qualified-name="Sqlite" data-source-line="32" id="ent0007"><rect fill="#E8F5E9" height="87.6563" rx="4.1667" ry="4.1667" style="stroke:#2E7D32;stroke-width:0.8333;" width="109.4971" x="2661.6667" y="82.1615"/><text fill="#000000" font-family="'Noto Sans CJK SC'" font-size="23.3333" lengthAdjust="spacing" textLength="76.1637" x="2678.3333" y="120.4867">SQLite</text><text fill="#000000" font-family="'Noto Sans CJK SC'" font-size="23.3333" lengthAdjust="spacing" textLength="71.652" x="2678.3333" y="147.6481">sqflite</text></g><!--entity Prefs--><g class="entity" data-qualified-name="Prefs" data-source-line="33" id="ent0008"><rect fill="#E8F5E9" height="87.6563" rx="4.1667" ry="4.1667" style="stroke:#2E7D32;stroke-width:0.8333;" width="254.6582" x="2209.1667" y="200.4948"/><text fill="#000000" font-family="'Noto Sans CJK SC'" font-size="23.3333" lengthAdjust="spacing" textLength="221.3249" x="2225.8333" y="238.82">SharedPreferences</text><text fill="#000000" font-family="'Noto Sans CJK SC'" font-size="23.3333" lengthAdjust="spacing" textLength="91.875" x="2225.8333" y="265.9814">&#37197;&#32622;/&#26412;&#22320;&#29366;&#24577;</text></g><!--entity FS--><g class="entity" data-qualified-name="FS" data-source-line="34" id="ent0009"><rect fill="#E8F5E9" height="87.6563" rx="4.1667" ry="4.1667" style="stroke:#2E7D32;stroke-width:0.8333;" width="161.0856" x="2255.8333" y="318.8281"/><text fill="#000000" font-family="'Noto Sans CJK SC'" font-size="23.3333" lengthAdjust="spacing" textLength="127.7523" x="2272.5" y="357.1533">FileSystem</text><text fill="#000000" font-family="'Noto Sans CJK SC'" font-size="23.3333" lengthAdjust="spacing" textLength="119.8796" x="2272.5" y="384.3148">&#23545;&#35937;&#23384;&#20648;&#26412;&#22320;/&#32531;&#23384;</text></g><!--entity Http--><g class="entity" data-qualified-name="Http" data-source-line="35" id="ent0010"><rect fill="#FFF3E0" height="87.6563" rx="4.1667" ry="4.1667" style="stroke:#EF6C00;stroke-width:0.8333;" width="292.3014" x="2190.8333" y="437.1615"/><text fill="#000000" font-family="'Noto Sans CJK SC'" font-size="23.3333" lengthAdjust="spacing" textLength="135.0895" x="2207.5" y="475.4867">HTTP Client</text><text fill="#000000" font-family="'Noto Sans CJK SC'" font-size="23.3333" lengthAdjust="spacing" textLength="258.9681" x="2207.5" y="502.6481">OpenAI/Sync/ObjStore</text></g><g class="entity" data-qualified-name="GMN21" data-source-line="52" id="ent0022"><path d="M1616.6667,377.1615 L1616.6667,494.7135 A0,0 0 0 0 1616.6667,494.7135 L1964.0454,494.7135 A0,0 0 0 0 1964.0454,494.7135 L1964.0454,393.8281 L1947.3787,377.1615 L1796.6667,377.1615 L1790,347.4854 L1783.3333,377.1615 L1616.6667,377.1615 A0,0 0 0 0 1616.6667,377.1615" fill="#FEFFDD" style="stroke:#181818;stroke-width:0.8333;"/><path d="M1947.3787,377.1615 L1947.3787,393.8281 L1964.0454,393.8281 L1947.3787,377.1615" fill="#FEFFDD" style="stroke:#181818;stroke-width:0.8333;"/><text fill="#000000" font-family="'Noto Sans CJK SC'" font-size="21.6667" lengthAdjust="spacing" textLength="117.019" x="1626.6667" y="405.6063">&#35302;&#21457;&#26465;&#20214;&#65288;&#31034;&#20363;&#65289;&#65306;</text><text fill="#000000" font-family="'Noto Sans CJK SC'" font-size="21.6667" lengthAdjust="spacing" textLength="205.6323" x="1626.6667" y="430.8276">- &#29992;&#25143;&#25805;&#20316;&#65306;&#26032;&#22686;/&#32534;&#36753;/&#21024;&#38500;/&#25490;&#24207;</text><text fill="#000000" font-family="'Noto Sans CJK SC'" font-size="21.6667" lengthAdjust="spacing" textLength="312.3787" x="1626.6667" y="456.049">- &#21551;&#21160;&#20219;&#21153;&#65306;StartupWrapper &#33258;&#21160;&#21516;&#27493;</text><text fill="#000000" font-family="'Noto Sans CJK SC'" font-size="21.6667" lengthAdjust="spacing" textLength="243.0412" x="1626.6667" y="481.2703">- &#23450;&#26102;/&#29983;&#21629;&#21608;&#26399;&#65306;&#24674;&#22797;&#21069;&#21488;&#28165;&#29702;&#36807;&#26399;&#28040;&#24687;</text></g><g class="entity" data-qualified-name="GMN24" data-source-line="59" id="ent0025"><path d="M718.3333,390.4948 L718.3333,482.8255 A0,0 0 0 0 718.3333,482.8255 L1343.0729,482.8255 A0,0 0 0 0 1343.0729,482.8255 L1343.0729,407.1615 L1326.4063,390.4948 L1037.5,390.4948 L1030.8333,360.7544 L1024.1667,390.4948 L718.3333,390.4948 A0,0 0 0 0 718.3333,390.4948" fill="#FEFFDD" style="stroke:#181818;stroke-width:0.8333;"/><path d="M1326.4063,390.4948 L1326.4063,407.1615 L1343.0729,407.1615 L1326.4063,390.4948" fill="#FEFFDD" style="stroke:#181818;stroke-width:0.8333;"/><text fill="#000000" font-family="'Noto Sans CJK SC'" font-size="21.6667" lengthAdjust="spacing" textLength="65.0106" x="728.3333" y="418.9396">&#30417;&#21548;&#26426;&#21046;&#65306;</text><text fill="#000000" font-family="'Noto Sans CJK SC'" font-size="21.6667" lengthAdjust="spacing" textLength="589.7396" x="728.3333" y="444.161">- context.watch&lt;T&gt;() / Consumer&lt;T&gt;&#65306;&#20381;&#36182;&#21464;&#26356;&#33258;&#21160; rebuild</text><text fill="#000000" font-family="'Noto Sans CJK SC'" font-size="21.6667" lengthAdjust="spacing" textLength="401.3835" x="728.3333" y="469.3823">- context.read&lt;T&gt;()&#65306;&#21482;&#35835;&#21462;&#19981;&#30417;&#21548;&#65292;&#29992;&#20110;&#35302;&#21457;&#21160;&#20316;</text></g><g class="entity" data-qualified-name="GMN27" data-source-line="65" id="ent0028"><path d="M2190,555.4948 L2190,647.8255 A0,0 0 0 0 2190,647.8255 L2483.5506,647.8255 A0,0 0 0 0 2483.5506,647.8255 L2483.5506,572.1615 L2466.884,555.4948 L2343.3333,555.4948 L2336.6667,525.8813 L2330,555.4948 L2190,555.4948 A0,0 0 0 0 2190,555.4948" fill="#FEFFDD" style="stroke:#181818;stroke-width:0.8333;"/><path d="M2466.884,555.4948 L2466.884,572.1615 L2483.5506,572.1615 L2466.884,555.4948" fill="#FEFFDD" style="stroke:#181818;stroke-width:0.8333;"/><text fill="#000000" font-family="'Noto Sans CJK SC'" font-size="21.6667" lengthAdjust="spacing" textLength="78.0127" x="2200" y="583.9396">&#24615;&#33021;&#20851;&#27880;&#28857;&#65306;</text><text fill="#000000" font-family="'Noto Sans CJK SC'" font-size="21.6667" lengthAdjust="spacing" textLength="217.0369" x="2200" y="609.161">- &#21516;&#27493;/&#22791;&#20221;&#65306;&#20840;&#37327;&#24555;&#29031;&#23548;&#20986;&#21487;&#33021;&#36739;&#24930;</text><text fill="#000000" font-family="'Noto Sans CJK SC'" font-size="21.6667" lengthAdjust="spacing" textLength="258.5506" x="2200" y="634.3823">- AI/&#23545;&#35937;&#23384;&#20648;&#65306;&#24369;&#32593;/&#36229;&#26102;&#20250;&#25289;&#38271;&#20851;&#38190;&#36335;&#24452;</text></g><g class="link" data-entity-1="ent0002" data-entity-2="ent0003" data-link-type="dependency" id="lnk11"><polygon fill="#181818" points="239.6554,304.6615,224.6554,297.9948,231.322,304.6615,224.6554,311.3281,239.6554,304.6615" style="stroke:#181818;stroke-width:1.6667;"/><path d="M55.3597,304.6615 C92.9114,304.6615 163.4174,304.6615 229.6554,304.6615" fill="none" style="stroke:#181818;stroke-width:1.6667;"/><text fill="#000000" font-family="'Noto Sans CJK SC'" font-size="21.6667" lengthAdjust="spacing" textLength="52.0085" x="121.6374" y="271.4396">&#35302;&#21457;&#25805;&#20316;</text><text fill="#000000" font-family="'Noto Sans CJK SC'" font-size="21.6667" lengthAdjust="spacing" textLength="118.6165" x="88.3333" y="296.661">&#65288;&#28857;&#20987;/&#28369;&#21160;/&#36755;&#20837;&#65289;</text></g><g class="link" data-entity-1="ent0003" data-entity-2="ent0004" data-link-type="dependency" id="lnk12"><polygon fill="#181818" points="900.5581,296.1524,885.8624,288.8393,892.2326,295.7897,885.2822,302.16,900.5581,296.1524" style="stroke:#181818;stroke-width:1.6667;"/><path d="M448.4915,294.7264 C458.5673,294.0206 468.6438,293.4205 478.3333,292.9948 C622.8593,286.6443 778.8956,290.8534 890.5676,295.7172" fill="none" style="stroke:#181818;stroke-width:1.6667;"/><text fill="#000000" font-family="'Noto Sans CJK SC'" font-size="21.6667" lengthAdjust="spacing" textLength="204.6484" x="481.6667" y="256.4396">context.read&lt;T&gt;()</text><text fill="#000000" font-family="'Noto Sans CJK SC'" font-size="21.6667" lengthAdjust="spacing" textLength="78.0127" x="544.9845" y="281.661">&#35843;&#29992;&#19994;&#21153;&#26041;&#27861;</text></g><g class="link" data-entity-1="ent0004" data-entity-2="ent0005" data-link-type="dependency" id="lnk13"><polygon fill="#181818" points="1586.1931,293.7554,1571.3966,286.6485,1577.8634,293.5092,1571.0027,299.976,1586.1931,293.7554" style="stroke:#181818;stroke-width:1.6667;"/><path d="M1161.2125,297.6247 C1267.3225,293.8986 1421.7643,290.0846 1556.6667,292.9948 C1566.3262,293.2032 1566.215,293.1649 1576.1974,293.46" fill="none" style="stroke:#181818;stroke-width:1.6667;"/><text fill="#000000" font-family="'Noto Sans CJK SC'" font-size="21.6667" lengthAdjust="spacing" textLength="121.2402" x="1405" y="283.1063">method(...)</text></g><g class="link" data-entity-1="ent0005" data-entity-2="ent0006" data-link-type="dependency" id="lnk14"><polygon fill="#181818" points="2206.855,150.7818,2190.7845,147.4375,2198.7101,152.5438,2193.6038,160.4694,2206.855,150.7818" style="stroke:#181818;stroke-width:1.6667;"/><path d="M1880.3105,258.7334 C1922.8227,238.7367 1974.9271,215.9893 2023.3333,199.6615 C2082.5879,179.6743 2140.1782,165.2064 2197.0811,152.8962" fill="none" style="stroke:#181818;stroke-width:1.6667;"/><text fill="#000000" font-family="'Noto Sans CJK SC'" font-size="21.6667" lengthAdjust="spacing" textLength="78.0127" x="2053.3333" y="153.1063">&#35835;&#20889;&#19994;&#21153;&#25968;&#25454;</text></g><g class="link" data-entity-1="ent0006" data-entity-2="ent0007" data-link-type="dependency" id="lnk15"><polygon fill="#181818" points="2661.62,126.3281,2646.62,119.6615,2653.2867,126.3281,2646.62,132.9948,2661.62,126.3281" style="stroke:#181818;stroke-width:1.6667;"/><path d="M2465.8555,126.3281 C2532.6577,126.3281 2600.8946,126.3281 2651.62,126.3281" fill="none" style="stroke:#181818;stroke-width:1.6667;"/><text fill="#000000" font-family="'Noto Sans CJK SC'" font-size="21.6667" lengthAdjust="spacing" textLength="112.491" x="2516.6667" y="118.1063">SQL CRUD</text></g><g class="link" data-entity-1="ent0005" data-entity-2="ent0008" data-link-type="dependency" id="lnk16"><polygon fill="#181818" points="2209.0362,258.1852,2193.4102,253.1578,2200.7505,259.0748,2194.8335,266.415,2209.0362,258.1852" style="stroke:#181818;stroke-width:1.6667;"/><path d="M1993.9839,281.2736 C2066.0935,273.5318 2135.2463,266.1074 2199.0933,259.2527" fill="none" style="stroke:#181818;stroke-width:1.6667;"/><text fill="#000000" font-family="'Noto Sans CJK SC'" font-size="21.6667" lengthAdjust="spacing" textLength="52.0085" x="2066.239" y="229.7729">&#35835;&#20889;&#37197;&#32622;</text><text fill="#000000" font-family="'Noto Sans CJK SC'" font-size="21.6667" lengthAdjust="spacing" textLength="131.1532" x="2026.6667" y="254.9943">&#65288;*_v1 keys&#65289;</text></g><g class="link" data-entity-1="ent0005" data-entity-2="ent0009" data-link-type="dependency" id="lnk17"><polygon fill="#181818" points="2255.258,354.1889,2241.0803,345.9161,2246.975,353.2742,2239.6168,359.1689,2255.258,354.1889" style="stroke:#181818;stroke-width:1.6667;"/><path d="M1993.9839,325.3366 C2084.7997,335.3653 2176.7568,345.5201 2245.3184,353.0913" fill="none" style="stroke:#181818;stroke-width:1.6667;"/><text fill="#000000" font-family="'Noto Sans CJK SC'" font-size="21.6667" lengthAdjust="spacing" textLength="85.3125" x="2049.1667" y="319.7729">&#26412;&#22320;&#25991;&#20214;/&#32531;&#23384;</text></g><g class="link" data-entity-1="ent0005" data-entity-2="ent0010" data-link-type="dependency" id="lnk18"><polygon fill="#181818" points="2190.2982,468.7442,2176.7553,459.4688,2182.103,467.2336,2174.3382,472.5812,2190.2982,468.7442" style="stroke:#181818;stroke-width:1.6667;"/><path d="M1967.9072,347.2381 C1976.8036,351.9717 1985.3479,357.2065 1993.3333,362.9948 C2012.2991,376.7423 2004.0097,393.0882 2023.3333,406.3281 C2072.2282,439.8293 2124.5466,456.6238 2180.4639,466.9314" fill="none" style="stroke:#181818;stroke-width:1.6667;"/><text fill="#000000" font-family="'Noto Sans CJK SC'" font-size="21.6667" lengthAdjust="spacing" textLength="78.0127" x="2053.4924" y="373.1063">&#24322;&#27493;&#32593;&#32476;&#35831;&#27714;</text><text fill="#000000" font-family="'Noto Sans CJK SC'" font-size="21.6667" lengthAdjust="spacing" textLength="96.6642" x="2044.1667" y="398.3276">&#65288;Future&#65289;</text></g><g class="link" data-entity-1="ent0005" data-entity-2="ent0004" data-link-type="dependency" id="lnk19"><polygon fill="#181818" points="1161.2994,331.5225,1174.8222,340.8272,1169.4914,333.0509,1177.2677,327.7201,1161.2994,331.5225" style="stroke:#181818;stroke-width:1.6667;"/><path d="M1615.7646,347.2163 C1595.9459,350.9547 1575.9405,354.1382 1556.6667,356.3281 C1421.9278,371.6374 1277.2905,353.1638 1171.1298,333.3566" fill="none" style="stroke:#181818;stroke-width:1.6667;"/><text fill="#000000" font-family="'Noto Sans CJK SC'" font-size="21.6667" lengthAdjust="spacing" textLength="177.3218" x="1376.6667" y="323.1063">notifyListeners()</text><text fill="#000000" font-family="'Noto Sans CJK SC'" font-size="21.6667" lengthAdjust="spacing" textLength="104.0169" x="1413.3191" y="348.3276">&#65288;&#29366;&#24577;&#21464;&#26356;&#24191;&#25773;&#65289;</text></g><g class="link" data-entity-1="ent0004" data-entity-2="ent0003" data-link-type="dependency" id="lnk20"><polygon fill="#181818" points="448.9101,349.0395,461.3578,359.7399,456.8911,351.437,465.1939,346.9703,448.9101,349.0395" style="stroke:#181818;stroke-width:1.6667;"/><path d="M900.8094,335.7315 C788.5853,359.5359 621.6196,383.2763 478.3333,356.3281 C468.6273,354.5027 468.2968,354.8634 458.4873,351.9165" fill="none" style="stroke:#181818;stroke-width:1.6667;"/><text fill="#000000" font-family="'Noto Sans CJK SC'" font-size="21.6667" lengthAdjust="spacing" textLength="182.9183" x="492.5" y="323.1063">watch/Consumer</text><text fill="#000000" font-family="'Noto Sans CJK SC'" font-size="21.6667" lengthAdjust="spacing" textLength="108.4074" x="529.7555" y="348.3276">&#35302;&#21457; rebuild</text></g><g class="legend" data-source-line="70"><rect fill="#DDDDDD" height="186.3021" rx="12.5" ry="12.5" style="stroke:#000000;stroke-width:1.6667;" width="246.001" x="2503.999" y="657.1615"/><text fill="#000000" font-family="'Noto Sans CJK SC'" font-size="23.3333" font-weight="bold" lengthAdjust="spacing" textLength="28.0046" x="2520.4557" y="690.4867">&#39068;&#33394;</text><text fill="#000000" font-family="'Noto Sans CJK SC'" font-size="23.3333" font-weight="bold" lengthAdjust="spacing" textLength="28.0046" x="2564.707" y="690.4867">&#21547;&#20041;</text><rect fill="#E3F2FD" height="27.1615" style="stroke:none;stroke-width:1.6667;" width="44.2513" x="2512.3324" y="695.9896"/><text fill="#000000" font-family="'Noto Sans CJK SC'" font-size="23.3333" lengthAdjust="spacing" textLength="7.417" x="2512.3324" y="717.6481">&#160;</text><text fill="#000000" font-family="'Noto Sans CJK SC'" font-size="23.3333" lengthAdjust="spacing" textLength="23.96" x="2564.0007" y="717.6481">UI</text><rect fill="#E8EAF6" height="27.1615" style="stroke:none;stroke-width:1.6667;" width="44.2513" x="2512.3324" y="723.151"/><text fill="#000000" font-family="'Noto Sans CJK SC'" font-size="23.3333" lengthAdjust="spacing" textLength="7.417" x="2512.3324" y="744.8096">&#160;</text><text fill="#000000" font-family="'Noto Sans CJK SC'" font-size="23.3333" lengthAdjust="spacing" textLength="88.7191" x="2564.0007" y="744.8096">&#29366;&#24577;&#31649;&#29702;/DI</text><rect fill="#F3E5F5" height="27.1615" style="stroke:none;stroke-width:1.6667;" width="44.2513" x="2512.3324" y="750.3125"/><text fill="#000000" font-family="'Noto Sans CJK SC'" font-size="23.3333" lengthAdjust="spacing" textLength="7.417" x="2512.3324" y="771.971">&#160;</text><text fill="#000000" font-family="'Noto Sans CJK SC'" font-size="23.3333" lengthAdjust="spacing" textLength="170.249" x="2564.0007" y="771.971">Service&#65288;&#19994;&#21153;&#32534;&#25490;&#65289;</text><rect fill="#E8F5E9" height="27.1615" style="stroke:none;stroke-width:1.6667;" width="44.2513" x="2512.3324" y="777.474"/><text fill="#000000" font-family="'Noto Sans CJK SC'" font-size="23.3333" lengthAdjust="spacing" textLength="7.417" x="2512.3324" y="799.1325">&#160;</text><text fill="#000000" font-family="'Noto Sans CJK SC'" font-size="23.3333" lengthAdjust="spacing" textLength="91.875" x="2564.0007" y="799.1325">&#25968;&#25454;&#35775;&#38382;/&#23384;&#20648;</text><rect fill="#FFF3E0" height="27.1615" style="stroke:none;stroke-width:1.6667;" width="44.2513" x="2512.3324" y="804.6354"/><text fill="#000000" font-family="'Noto Sans CJK SC'" font-size="23.3333" lengthAdjust="spacing" textLength="7.417" x="2512.3324" y="826.2939">&#160;</text><text fill="#000000" font-family="'Noto Sans CJK SC'" font-size="23.3333" lengthAdjust="spacing" textLength="91.875" x="2564.0007" y="826.2939">&#32593;&#32476;/&#22806;&#37096;&#38598;&#25104;</text><line style="stroke:#000000;stroke-width:1.6667;" x1="2512.3324" x2="2741.6667" y1="668.8281" y2="668.8281"/><line style="stroke:#000000;stroke-width:1.6667;" x1="2512.3324" x2="2741.6667" y1="695.9896" y2="695.9896"/><line style="stroke:#000000;stroke-width:1.6667;" x1="2512.3324" x2="2741.6667" y1="723.151" y2="723.151"/><line style="stroke:#000000;stroke-width:1.6667;" x1="2512.3324" x2="2741.6667" y1="750.3125" y2="750.3125"/><line style="stroke:#000000;stroke-width:1.6667;" x1="2512.3324" x2="2741.6667" y1="777.474" y2="777.474"/><line style="stroke:#000000;stroke-width:1.6667;" x1="2512.3324" x2="2741.6667" y1="804.6354" y2="804.6354"/><line style="stroke:#000000;stroke-width:1.6667;" x1="2512.3324" x2="2741.6667" y1="831.7969" y2="831.7969"/><line style="stroke:#000000;stroke-width:1.6667;" x1="2512.3324" x2="2512.3324" y1="668.8281" y2="831.7969"/><line style="stroke:#000000;stroke-width:1.6667;" x1="2556.5837" x2="2556.5837" y1="668.8281" y2="831.7969"/><line style="stroke:#000000;stroke-width:1.6667;" x1="2741.6667" x2="2741.6667" y1="668.8281" y2="831.7969"/></g><?plantuml-src TLPRKnD957xlNz7MlkXkoI0Kh58iLHX8IPMhhe7oWMnPOz99PfdCn9cERchTAW4Z0SKGB_4MruL2fRmGM5TkIU3Ff3kJ9_x2dkx9n07PjqdtEL-V_hxldCunpOZewIZ1KJDYAweLIMYKH6ZQ8afKK-EMchILgpRDwAGZbKxgY6fK9rZNOkGgDKtTnesv3Nvxih6ws5YuMzzwm9-iyVbL_cLolvgxP9atj2Yny0yua52DEBbWKYsc4Mk_EelGiPIbnfCgrjMCcQROJXAg6Yf2zeHcf5Gu6Di9DMhUr8muZgcwJNmx4JEPCWrYq92e35jGCU3h_f2K6fbGu-HmG08AmZOb5Z5f9aNGKQ3u3uJnMSYFMsRQY0PCtRJw-yT61WRmTyFTmQxWaDWtBRZQWRrJFRqzWSwZSaDKfKIcdnuU3FOUJczlTvtkxZdJVIG2iMve4HaKx1xk2VPyW_4re7VmrDapWqUX3AbKTSi8zWoVEGpXxNOD_pZKtNLK_WL2RvhMXAmY27Lq7eRm1Gm7UmETdUXFX7GIevYQsDBY2OgZcb13Cms4r0WrBTnulC9pcrYryPXDB8J6hsZHEA5WeERYb-Qh9QLHkLElR81fmWQVlSVczfJ6r3QRgIZExYEMVVEhI7Lpi2i56lUi5pP-JkjKQpkHVrw1ZB0HCGrAVgST5b6ZoasLHX8IfHtNrWID7xGkRl4SDg2--kuzzdOAXp96fBMiZAfnxxEZemDgbhYj9UoJ2OrV9YdJre21Z0HZcszOTbDXsOyikuw_RdeOOWLx8g7nq2_deLF3XdqzfiE7UynryUaFIgWMYLwoI0mCRqI87JQQsVb6RLNXfO-ijEOsR-lg96RxKeEQJa8Pw9Has63bRMTzaNrwngPMt4IbKNq4lsLcCEHBEpSwUWa7T0tQA6nSJ15ZS4GH_2WNh_qMWkkuXPwZD8LzRa58I8zFdXpmXEp3phktB5_WZ-RhjP8ag2KwhnJOt4fBUp59MXaYkQrV7_Oht3ywSFn4s73Mfi5hzQqNR6wH5xVvvoUedI2oFPNwCCoYX1az3WgUGCXR5Y5I1AYjN65tdxUGvCH3SaUYk2BqOL081owF3Hr4S7ds85mrvFM-lthZ59uW6LlSoPy1_FPXbtPUd85EQ95_84WoseTPTOf_UjEe5HgLabFUvEjJ4ZkO5XDTZjs3jRJfCeI_C-Sr4DmWbYte4fHBVx3yC_xoNxQznnz-4XW7I6lh9Rj82PY6dKwAndFrWz5xBQtfKOJW18AlcPIQIMp6FB9XWBI4VhKecppNMDw1le9pzgilOFTaQpwuHe0rNbnZIty11qLdjw2mtD_DvyiAV_2GxUHbE5ieWp_gbGfe0-7GnnPDfwvOQYe59Jipxs6NBTm7cjpmrHVyAL3w-3Khr5W1_FrQ73Avn9RdsUmyow_nhIoyRSxU36pnZHoVB2DYH0LZv9jRUTG0TEDbWIryvAKTbjlmhkAPKd8bNOaLx546lo6klllA-L9qANUBRLFeHsZR6b9O_hrmKxvOtvftJzsltXTEttdWSYlug9N-lsfX7a3djzyvqpMM_GnJ4fhDAzebIs7BuBsQE2wxqfp9ixqFZUmxLgwocHsMBqEYiplDiqio1PhUFpD4KdKTNAau6rbWkmu4tvjjFjc3ivgFLvtDCjkzuojF9t7nGxuNW7Vh9znSAZcp_uWljl2XlZsBRudr_jPpF81luR6HzffyOyMQ_x-9CjGES1zG4T0oeHZbifV1LE0ayDvNBF5GYb2tpPtLlURJLSMzLXjFFeNoGDbuG5MnERtIV7cNvnOW2ExYtWZz1m00?></g></svg>