<?xml version="1.0" encoding="UTF-8" standalone="no"?><svg xmlns="http://www.w3.org/2000/svg" xmlns:xlink="http://www.w3.org/1999/xlink" contentScriptType="application/ecmascript" contentStyleType="text/css" height="2370px" preserveAspectRatio="none" style="width:1790px;height:2370px;" version="1.1" viewBox="0 0 1790 2370" width="1790px" zoomAndPan="magnify"><defs/><g><text fill="#000000" font-family="Noto Sans CJK SC" font-size="23.3333" font-weight="bold" lengthAdjust="spacingAndGlyphs" textLength="858.3333" x="475.8333" y="43.7332">数据加载示例：WorkLog 打开页面加载任务列表（WorkLogService.loadTasks）</text><rect fill="#FFFFFF" height="177.0399" style="stroke: #000000; stroke-width: 3.3333333333333335;" width="590" x="420" y="483.2264"/><rect fill="#FFFFFF" height="255.0799" style="stroke: #000000; stroke-width: 3.3333333333333335;" width="1368.3333" x="420" y="1402.8267"/><line style="stroke: #A80036; stroke-width: 1.6666666666666667; stroke-dasharray: 5.0,5.0;" x1="41.6667" x2="41.6667" y1="206.3596" y2="2226.3469"/><line style="stroke: #A80036; stroke-width: 1.6666666666666667; stroke-dasharray: 5.0,5.0;" x1="275" x2="275" y1="206.3596" y2="2226.3469"/><line style="stroke: #A80036; stroke-width: 1.6666666666666667; stroke-dasharray: 5.0,5.0;" x1="540" x2="540" y1="206.3596" y2="2226.3469"/><line style="stroke: #A80036; stroke-width: 1.6666666666666667; stroke-dasharray: 5.0,5.0;" x1="876.6667" x2="876.6667" y1="206.3596" y2="2226.3469"/><line style="stroke: #A80036; stroke-width: 1.6666666666666667; stroke-dasharray: 5.0,5.0;" x1="1100" x2="1100" y1="206.3596" y2="2226.3469"/><line style="stroke: #A80036; stroke-width: 1.6666666666666667; stroke-dasharray: 5.0,5.0;" x1="1323.3333" x2="1323.3333" y1="206.3596" y2="2226.3469"/><line style="stroke: #A80036; stroke-width: 1.6666666666666667; stroke-dasharray: 5.0,5.0;" x1="1696.6667" x2="1696.6667" y1="206.3596" y2="2226.3469"/><text fill="#000000" font-family="Noto Sans CJK SC" font-size="23.3333" lengthAdjust="spacingAndGlyphs" textLength="46.6667" x="13.3333" y="199.6396">用户</text><ellipse cx="41.6667" cy="84.2397" fill="#FEFECE" rx="13.3333" ry="13.3333" style="stroke: #A80036; stroke-width: 3.3333333333333335;"/><path d="M41.6667,97.573 L41.6667,142.573 M20,110.9064 L63.3333,110.9064 M41.6667,142.573 L20,167.573 M41.6667,142.573 L63.3333,167.573 " fill="#FEFECE" style="stroke: #A80036; stroke-width: 3.3333333333333335;"/><text fill="#000000" font-family="Noto Sans CJK SC" font-size="23.3333" lengthAdjust="spacingAndGlyphs" textLength="46.6667" x="13.3333" y="2251.7468">用户</text><ellipse cx="41.6667" cy="2275.1334" fill="#FEFECE" rx="13.3333" ry="13.3333" style="stroke: #A80036; stroke-width: 3.3333333333333335;"/><path d="M41.6667,2288.4668 L41.6667,2333.4668 M20,2301.8001 L63.3333,2301.8001 M41.6667,2333.4668 L20,2358.4668 M41.6667,2333.4668 L63.3333,2358.4668 " fill="#FEFECE" style="stroke: #A80036; stroke-width: 3.3333333333333335;"/><rect fill="#FEFECE" height="57.1199" style="stroke: #A80036; stroke-width: 2.5;" width="220" x="165" y="147.573"/><text fill="#000000" font-family="Noto Sans CJK SC" font-size="23.3333" lengthAdjust="spacingAndGlyphs" textLength="196.6667" x="176.6667" y="186.3063">WorkLogToolPage</text><rect fill="#FEFECE" height="57.1199" style="stroke: #A80036; stroke-width: 2.5;" width="220" x="165" y="2224.6802"/><text fill="#000000" font-family="Noto Sans CJK SC" font-size="23.3333" lengthAdjust="spacingAndGlyphs" textLength="196.6667" x="176.6667" y="2263.4135">WorkLogToolPage</text><rect fill="#FEFECE" height="90.9064" style="stroke: #A80036; stroke-width: 2.5;" width="206.6667" x="436.6667" y="113.7865"/><text fill="#000000" font-family="Noto Sans CJK SC" font-size="23.3333" lengthAdjust="spacingAndGlyphs" textLength="173.3333" x="453.3333" y="152.5197">WorkLogService</text><text fill="#000000" font-family="Noto Sans CJK SC" font-size="23.3333" lengthAdjust="spacingAndGlyphs" textLength="183.3333" x="448.3333" y="186.3063">(ChangeNotifier)</text><rect fill="#FEFECE" height="90.9064" style="stroke: #A80036; stroke-width: 2.5;" width="206.6667" x="436.6667" y="2224.6802"/><text fill="#000000" font-family="Noto Sans CJK SC" font-size="23.3333" lengthAdjust="spacingAndGlyphs" textLength="173.3333" x="453.3333" y="2263.4135">WorkLogService</text><text fill="#000000" font-family="Noto Sans CJK SC" font-size="23.3333" lengthAdjust="spacingAndGlyphs" textLength="183.3333" x="448.3333" y="2297.2">(ChangeNotifier)</text><rect fill="#FEFECE" height="57.1199" style="stroke: #A80036; stroke-width: 2.5;" width="233.3333" x="760" y="147.573"/><text fill="#000000" font-family="Noto Sans CJK SC" font-size="23.3333" lengthAdjust="spacingAndGlyphs" textLength="210" x="771.6667" y="186.3063">SharedPreferences</text><rect fill="#FEFECE" height="57.1199" style="stroke: #A80036; stroke-width: 2.5;" width="233.3333" x="760" y="2224.6802"/><text fill="#000000" font-family="Noto Sans CJK SC" font-size="23.3333" lengthAdjust="spacingAndGlyphs" textLength="210" x="771.6667" y="2263.4135">SharedPreferences</text><rect fill="#FEFECE" height="57.1199" style="stroke: #A80036; stroke-width: 2.5;" width="180" x="1010" y="147.573"/><text fill="#000000" font-family="Noto Sans CJK SC" font-size="23.3333" lengthAdjust="spacingAndGlyphs" textLength="156.6667" x="1021.6667" y="186.3063">TagRepository</text><rect fill="#FEFECE" height="57.1199" style="stroke: #A80036; stroke-width: 2.5;" width="180" x="1010" y="2224.6802"/><text fill="#000000" font-family="Noto Sans CJK SC" font-size="23.3333" lengthAdjust="spacingAndGlyphs" textLength="156.6667" x="1021.6667" y="2263.4135">TagRepository</text><rect fill="#FEFECE" height="57.1199" style="stroke: #A80036; stroke-width: 2.5;" width="235" x="1206.6667" y="147.573"/><text fill="#000000" font-family="Noto Sans CJK SC" font-size="23.3333" lengthAdjust="spacingAndGlyphs" textLength="211.6667" x="1218.3333" y="186.3063">WorkLogRepository</text><rect fill="#FEFECE" height="57.1199" style="stroke: #A80036; stroke-width: 2.5;" width="235" x="1206.6667" y="2224.6802"/><text fill="#000000" font-family="Noto Sans CJK SC" font-size="23.3333" lengthAdjust="spacingAndGlyphs" textLength="211.6667" x="1218.3333" y="2263.4135">WorkLogRepository</text><text fill="#000000" font-family="Noto Sans CJK SC" font-size="23.3333" lengthAdjust="spacingAndGlyphs" textLength="71.6667" x="1656.6667" y="165.8531">SQLite</text><text fill="#000000" font-family="Noto Sans CJK SC" font-size="23.3333" lengthAdjust="spacingAndGlyphs" textLength="138.3333" x="1623.3333" y="199.6396">life_tools.db</text><path d="M1667.5,78.7865 C1667.5,62.1199 1697.5,62.1199 1697.5,62.1199 C1697.5,62.1199 1727.5,62.1199 1727.5,78.7865 L1727.5,122.1199 C1727.5,138.7865 1697.5,138.7865 1697.5,138.7865 C1697.5,138.7865 1667.5,138.7865 1667.5,122.1199 L1667.5,78.7865 " fill="#FEFECE" style="stroke: #000000; stroke-width: 2.5;"/><path d="M1667.5,78.7865 C1667.5,95.4532 1697.5,95.4532 1697.5,95.4532 C1697.5,95.4532 1727.5,95.4532 1727.5,78.7865 " fill="none" style="stroke: #000000; stroke-width: 2.5;"/><text fill="#000000" font-family="Noto Sans CJK SC" font-size="23.3333" lengthAdjust="spacingAndGlyphs" textLength="71.6667" x="1656.6667" y="2251.7468">SQLite</text><text fill="#000000" font-family="Noto Sans CJK SC" font-size="23.3333" lengthAdjust="spacingAndGlyphs" textLength="138.3333" x="1623.3333" y="2285.5333">life_tools.db</text><path d="M1667.5,2308.9199 C1667.5,2292.2533 1697.5,2292.2533 1697.5,2292.2533 C1697.5,2292.2533 1727.5,2292.2533 1727.5,2308.9199 L1727.5,2352.2533 C1727.5,2368.9199 1697.5,2368.9199 1697.5,2368.9199 C1697.5,2368.9199 1667.5,2368.9199 1667.5,2352.2533 L1667.5,2308.9199 " fill="#FEFECE" style="stroke: #000000; stroke-width: 2.5;"/><path d="M1667.5,2308.9199 C1667.5,2325.5866 1697.5,2325.5866 1697.5,2325.5866 C1697.5,2325.5866 1727.5,2325.5866 1727.5,2308.9199 " fill="none" style="stroke: #000000; stroke-width: 2.5;"/><polygon fill="#A80036" points="255,256.3596,271.6667,263.0262,255,269.6929,261.6667,263.0262" style="stroke: #A80036; stroke-width: 1.6666666666666667;"/><line style="stroke: #A80036; stroke-width: 1.6666666666666667;" x1="41.6667" x2="265" y1="263.0262" y2="263.0262"/><text fill="#000000" font-family="Noto Sans CJK SC" font-size="21.6667" font-weight="bold" lengthAdjust="spacingAndGlyphs" textLength="13.3333" x="53.3333" y="254.8262">1</text><text fill="#000000" font-family="Noto Sans CJK SC" font-size="21.6667" lengthAdjust="spacingAndGlyphs" textLength="173.3333" x="73.3333" y="254.8262">打开“工作记录”</text><polygon fill="#A80036" points="520,342.7329,536.6667,349.3996,520,356.0663,526.6667,349.3996" style="stroke: #A80036; stroke-width: 1.6666666666666667;"/><line style="stroke: #A80036; stroke-width: 1.6666666666666667;" x1="275" x2="530" y1="349.3996" y2="349.3996"/><text fill="#000000" font-family="Noto Sans CJK SC" font-size="21.6667" font-weight="bold" lengthAdjust="spacingAndGlyphs" textLength="13.3333" x="286.6667" y="325.2196">2</text><text fill="#000000" font-family="Noto Sans CJK SC" font-size="21.6667" lengthAdjust="spacingAndGlyphs" textLength="101.6667" x="306.6667" y="309.5329">initState()</text><text fill="#000000" font-family="Noto Sans CJK SC" font-size="21.6667" lengthAdjust="spacingAndGlyphs" textLength="205" x="306.6667" y="340.9063">_service.loadTasks()</text><line style="stroke: #A80036; stroke-width: 1.6666666666666667;" x1="540" x2="610" y1="436.5597" y2="436.5597"/><line style="stroke: #A80036; stroke-width: 1.6666666666666667;" x1="610" x2="610" y1="436.5597" y2="458.2264"/><line style="stroke: #A80036; stroke-width: 1.6666666666666667;" x1="541.6667" x2="610" y1="458.2264" y2="458.2264"/><line style="stroke: #A80036; stroke-width: 1.6666666666666667;" x1="541.6667" x2="558.3333" y1="458.2264" y2="451.5597"/><line style="stroke: #A80036; stroke-width: 1.6666666666666667;" x1="541.6667" x2="558.3333" y1="458.2264" y2="464.893"/><text fill="#000000" font-family="Noto Sans CJK SC" font-size="21.6667" font-weight="bold" lengthAdjust="spacingAndGlyphs" textLength="13.3333" x="551.6667" y="411.2997">3</text><text fill="#000000" font-family="Noto Sans CJK SC" font-size="21.6667" lengthAdjust="spacingAndGlyphs" textLength="198.3333" x="571.6667" y="395.613">_loadingTasks=true</text><text fill="#000000" font-family="Noto Sans CJK SC" font-size="21.6667" lengthAdjust="spacingAndGlyphs" textLength="165" x="571.6667" y="426.9864">notifyListeners()</text><rect fill="none" height="177.0399" style="stroke: #000000; stroke-width: 3.3333333333333335;" width="590" x="420" y="483.2264"/><polygon fill="#EEEEEE" points="420,483.2264,523.3333,483.2264,523.3333,499.893,506.6667,516.5597,420,516.5597,420,483.2264" style="stroke: #000000; stroke-width: 3.3333333333333335;"/><text fill="#000000" font-family="Noto Sans CJK SC" font-size="21.6667" font-weight="bold" lengthAdjust="spacingAndGlyphs" textLength="28.3333" x="445" y="510.0264">alt</text><text fill="#000000" font-family="Noto Sans CJK SC" font-size="18.3333" font-weight="bold" lengthAdjust="spacingAndGlyphs" textLength="235" x="548.3333" y="507.8262">[首次加载（filters 未加载）]</text><line style="stroke: #A80036; stroke-width: 1.6666666666666667;" x1="873.3333" x2="856.6667" y1="591.1462" y2="584.4795"/><line style="stroke: #A80036; stroke-width: 1.6666666666666667;" x1="873.3333" x2="856.6667" y1="591.1462" y2="597.8129"/><line style="stroke: #A80036; stroke-width: 1.6666666666666667;" x1="540" x2="875" y1="591.1462" y2="591.1462"/><text fill="#000000" font-family="Noto Sans CJK SC" font-size="21.6667" font-weight="bold" lengthAdjust="spacingAndGlyphs" textLength="13.3333" x="551.6667" y="566.9662">4</text><text fill="#000000" font-family="Noto Sans CJK SC" font-size="21.6667" lengthAdjust="spacingAndGlyphs" textLength="276.6667" x="571.6667" y="551.2795">读取 statusFilters/tagFilters</text><text fill="#000000" font-family="Noto Sans CJK SC" font-size="21.6667" lengthAdjust="spacingAndGlyphs" textLength="203.3333" x="571.6667" y="582.6529">customSortEnabled</text><polygon fill="#A80036" points="558.3333,638.8929,541.6667,645.5596,558.3333,652.2262,551.6667,645.5596" style="stroke: #A80036; stroke-width: 1.6666666666666667;"/><line style="stroke: #A80036; stroke-width: 1.6666666666666667; stroke-dasharray: 2.0,2.0;" x1="548.3333" x2="875" y1="645.5596" y2="645.5596"/><text fill="#000000" font-family="Noto Sans CJK SC" font-size="21.6667" font-weight="bold" lengthAdjust="spacingAndGlyphs" textLength="13.3333" x="568.3333" y="637.3596">5</text><text fill="#000000" font-family="Noto Sans CJK SC" font-size="21.6667" lengthAdjust="spacingAndGlyphs" textLength="151.6667" x="588.3333" y="637.3596">返回已保存筛选</text><line style="stroke: #A80036; stroke-width: 1.6666666666666667;" x1="1096.6667" x2="1080" y1="711.9329" y2="705.2663"/><line style="stroke: #A80036; stroke-width: 1.6666666666666667;" x1="1096.6667" x2="1080" y1="711.9329" y2="718.5996"/><line style="stroke: #A80036; stroke-width: 1.6666666666666667;" x1="540" x2="1098.3333" y1="711.9329" y2="711.9329"/><text fill="#000000" font-family="Noto Sans CJK SC" font-size="21.6667" font-weight="bold" lengthAdjust="spacingAndGlyphs" textLength="13.3333" x="551.6667" y="703.733">6</text><text fill="#000000" font-family="Noto Sans CJK SC" font-size="21.6667" lengthAdjust="spacingAndGlyphs" textLength="278.3333" x="571.6667" y="703.733">listTagsForTool('work_log')</text><line style="stroke: #A80036; stroke-width: 1.6666666666666667;" x1="1694.1667" x2="1677.5" y1="766.6396" y2="759.973"/><line style="stroke: #A80036; stroke-width: 1.6666666666666667;" x1="1694.1667" x2="1677.5" y1="766.6396" y2="773.3063"/><line style="stroke: #A80036; stroke-width: 1.6666666666666667;" x1="1100" x2="1695.8333" y1="766.6396" y2="766.6396"/><text fill="#000000" font-family="Noto Sans CJK SC" font-size="21.6667" font-weight="bold" lengthAdjust="spacingAndGlyphs" textLength="13.3333" x="1111.6667" y="758.4397">7</text><text fill="#000000" font-family="Noto Sans CJK SC" font-size="21.6667" lengthAdjust="spacingAndGlyphs" textLength="193.3333" x="1131.6667" y="758.4397">查询 tags/tool_tags</text><polygon fill="#A80036" points="1118.3333,814.6797,1101.6667,821.3463,1118.3333,828.013,1111.6667,821.3463" style="stroke: #A80036; stroke-width: 1.6666666666666667;"/><line style="stroke: #A80036; stroke-width: 1.6666666666666667; stroke-dasharray: 2.0,2.0;" x1="1108.3333" x2="1695.8333" y1="821.3463" y2="821.3463"/><text fill="#000000" font-family="Noto Sans CJK SC" font-size="21.6667" font-weight="bold" lengthAdjust="spacingAndGlyphs" textLength="13.3333" x="1128.3333" y="813.1464">8</text><text fill="#000000" font-family="Noto Sans CJK SC" font-size="21.6667" lengthAdjust="spacingAndGlyphs" textLength="48.3333" x="1148.3333" y="813.1464">rows</text><polygon fill="#A80036" points="558.3333,869.3864,541.6667,876.053,558.3333,882.7197,551.6667,876.053" style="stroke: #A80036; stroke-width: 1.6666666666666667;"/><line style="stroke: #A80036; stroke-width: 1.6666666666666667; stroke-dasharray: 2.0,2.0;" x1="548.3333" x2="1098.3333" y1="876.053" y2="876.053"/><text fill="#000000" font-family="Noto Sans CJK SC" font-size="21.6667" font-weight="bold" lengthAdjust="spacingAndGlyphs" textLength="13.3333" x="568.3333" y="867.853">9</text><text fill="#000000" font-family="Noto Sans CJK SC" font-size="21.6667" lengthAdjust="spacingAndGlyphs" textLength="138.3333" x="588.3333" y="867.853">availableTags</text><line style="stroke: #A80036; stroke-width: 1.6666666666666667;" x1="1320.8333" x2="1304.1667" y1="930.7597" y2="924.0931"/><line style="stroke: #A80036; stroke-width: 1.6666666666666667;" x1="1320.8333" x2="1304.1667" y1="930.7597" y2="937.4264"/><line style="stroke: #A80036; stroke-width: 1.6666666666666667;" x1="540" x2="1322.5" y1="930.7597" y2="930.7597"/><text fill="#000000" font-family="Noto Sans CJK SC" font-size="21.6667" font-weight="bold" lengthAdjust="spacingAndGlyphs" textLength="26.6667" x="551.6667" y="922.5597">10</text><text fill="#000000" font-family="Noto Sans CJK SC" font-size="21.6667" lengthAdjust="spacingAndGlyphs" textLength="296.6667" x="585" y="922.5597">listTasks()（全量，用于统计）</text><line style="stroke: #A80036; stroke-width: 1.6666666666666667;" x1="1694.1667" x2="1677.5" y1="985.4664" y2="978.7997"/><line style="stroke: #A80036; stroke-width: 1.6666666666666667;" x1="1694.1667" x2="1677.5" y1="985.4664" y2="992.1331"/><line style="stroke: #A80036; stroke-width: 1.6666666666666667;" x1="1324.1667" x2="1695.8333" y1="985.4664" y2="985.4664"/><text fill="#000000" font-family="Noto Sans CJK SC" font-size="21.6667" font-weight="bold" lengthAdjust="spacingAndGlyphs" textLength="26.6667" x="1335.8333" y="977.2664">11</text><text fill="#000000" font-family="Noto Sans CJK SC" font-size="21.6667" lengthAdjust="spacingAndGlyphs" textLength="221.6667" x="1369.1667" y="977.2664">SELECT work_tasks ...</text><polygon fill="#A80036" points="1342.5,1033.5064,1325.8333,1040.1731,1342.5,1046.8398,1335.8333,1040.1731" style="stroke: #A80036; stroke-width: 1.6666666666666667;"/><line style="stroke: #A80036; stroke-width: 1.6666666666666667; stroke-dasharray: 2.0,2.0;" x1="1332.5" x2="1695.8333" y1="1040.1731" y2="1040.1731"/><text fill="#000000" font-family="Noto Sans CJK SC" font-size="21.6667" font-weight="bold" lengthAdjust="spacingAndGlyphs" textLength="26.6667" x="1352.5" y="1031.9731">12</text><text fill="#000000" font-family="Noto Sans CJK SC" font-size="21.6667" lengthAdjust="spacingAndGlyphs" textLength="48.3333" x="1385.8333" y="1031.9731">rows</text><polygon fill="#A80036" points="558.3333,1088.2131,541.6667,1094.8798,558.3333,1101.5465,551.6667,1094.8798" style="stroke: #A80036; stroke-width: 1.6666666666666667;"/><line style="stroke: #A80036; stroke-width: 1.6666666666666667; stroke-dasharray: 2.0,2.0;" x1="548.3333" x2="1322.5" y1="1094.8798" y2="1094.8798"/><text fill="#000000" font-family="Noto Sans CJK SC" font-size="21.6667" font-weight="bold" lengthAdjust="spacingAndGlyphs" textLength="26.6667" x="568.3333" y="1086.6798">13</text><text fill="#000000" font-family="Noto Sans CJK SC" font-size="21.6667" lengthAdjust="spacingAndGlyphs" textLength="81.6667" x="601.6667" y="1086.6798">allTasks</text><line style="stroke: #A80036; stroke-width: 1.6666666666666667;" x1="1320.8333" x2="1304.1667" y1="1181.2532" y2="1174.5865"/><line style="stroke: #A80036; stroke-width: 1.6666666666666667;" x1="1320.8333" x2="1304.1667" y1="1181.2532" y2="1187.9198"/><line style="stroke: #A80036; stroke-width: 1.6666666666666667;" x1="540" x2="1322.5" y1="1181.2532" y2="1181.2532"/><text fill="#000000" font-family="Noto Sans CJK SC" font-size="21.6667" font-weight="bold" lengthAdjust="spacingAndGlyphs" textLength="26.6667" x="551.6667" y="1157.0732">14</text><text fill="#000000" font-family="Noto Sans CJK SC" font-size="21.6667" lengthAdjust="spacingAndGlyphs" textLength="258.3333" x="585" y="1141.3865">listTasks(statuses, tagIds,</text><text fill="#000000" font-family="Noto Sans CJK SC" font-size="21.6667" lengthAdjust="spacingAndGlyphs" textLength="181.6667" x="590" y="1172.7599">limit=10, offset=0)</text><line style="stroke: #A80036; stroke-width: 1.6666666666666667;" x1="1694.1667" x2="1677.5" y1="1267.3332" y2="1260.6666"/><line style="stroke: #A80036; stroke-width: 1.6666666666666667;" x1="1694.1667" x2="1677.5" y1="1267.3332" y2="1273.9999"/><line style="stroke: #A80036; stroke-width: 1.6666666666666667;" x1="1324.1667" x2="1695.8333" y1="1267.3332" y2="1267.3332"/><text fill="#000000" font-family="Noto Sans CJK SC" font-size="21.6667" font-weight="bold" lengthAdjust="spacingAndGlyphs" textLength="26.6667" x="1335.8333" y="1243.1533">15</text><text fill="#000000" font-family="Noto Sans CJK SC" font-size="21.6667" lengthAdjust="spacingAndGlyphs" textLength="300" x="1369.1667" y="1227.4666">SELECT ... WHERE status IN ...</text><text fill="#000000" font-family="Noto Sans CJK SC" font-size="21.6667" lengthAdjust="spacingAndGlyphs" textLength="236.6667" x="1369.1667" y="1258.8399">+ tag filter + limit/offset</text><polygon fill="#A80036" points="1342.5,1315.0799,1325.8333,1321.7466,1342.5,1328.4133,1335.8333,1321.7466" style="stroke: #A80036; stroke-width: 1.6666666666666667;"/><line style="stroke: #A80036; stroke-width: 1.6666666666666667; stroke-dasharray: 2.0,2.0;" x1="1332.5" x2="1695.8333" y1="1321.7466" y2="1321.7466"/><text fill="#000000" font-family="Noto Sans CJK SC" font-size="21.6667" font-weight="bold" lengthAdjust="spacingAndGlyphs" textLength="26.6667" x="1352.5" y="1313.5466">16</text><text fill="#000000" font-family="Noto Sans CJK SC" font-size="21.6667" lengthAdjust="spacingAndGlyphs" textLength="48.3333" x="1385.8333" y="1313.5466">rows</text><polygon fill="#A80036" points="558.3333,1369.7866,541.6667,1376.4533,558.3333,1383.12,551.6667,1376.4533" style="stroke: #A80036; stroke-width: 1.6666666666666667;"/><line style="stroke: #A80036; stroke-width: 1.6666666666666667; stroke-dasharray: 2.0,2.0;" x1="548.3333" x2="1322.5" y1="1376.4533" y2="1376.4533"/><text fill="#000000" font-family="Noto Sans CJK SC" font-size="21.6667" font-weight="bold" lengthAdjust="spacingAndGlyphs" textLength="26.6667" x="568.3333" y="1368.2533">17</text><text fill="#000000" font-family="Noto Sans CJK SC" font-size="21.6667" lengthAdjust="spacingAndGlyphs" textLength="145" x="601.6667" y="1368.2533">firstPage tasks</text><rect fill="none" height="255.0799" style="stroke: #000000; stroke-width: 3.3333333333333335;" width="1368.3333" x="420" y="1402.8267"/><polygon fill="#EEEEEE" points="420,1402.8267,541.6667,1402.8267,541.6667,1419.4933,525,1436.16,420,1436.16,420,1402.8267" style="stroke: #000000; stroke-width: 3.3333333333333335;"/><text fill="#000000" font-family="Noto Sans CJK SC" font-size="21.6667" font-weight="bold" lengthAdjust="spacingAndGlyphs" textLength="46.6667" x="445" y="1429.6267">loop</text><text fill="#000000" font-family="Noto Sans CJK SC" font-size="18.3333" font-weight="bold" lengthAdjust="spacingAndGlyphs" textLength="241.6667" x="566.6667" y="1427.4265">[每个 task（用于列表展示）]</text><line style="stroke: #A80036; stroke-width: 1.6666666666666667;" x1="1320.8333" x2="1304.1667" y1="1479.0798" y2="1472.4132"/><line style="stroke: #A80036; stroke-width: 1.6666666666666667;" x1="1320.8333" x2="1304.1667" y1="1479.0798" y2="1485.7465"/><line style="stroke: #A80036; stroke-width: 1.6666666666666667;" x1="540" x2="1322.5" y1="1479.0798" y2="1479.0798"/><text fill="#000000" font-family="Noto Sans CJK SC" font-size="21.6667" font-weight="bold" lengthAdjust="spacingAndGlyphs" textLength="26.6667" x="551.6667" y="1470.8798">18</text><text fill="#000000" font-family="Noto Sans CJK SC" font-size="21.6667" lengthAdjust="spacingAndGlyphs" textLength="321.6667" x="585" y="1470.8798">getTotalMinutesForTask(taskId)</text><line style="stroke: #A80036; stroke-width: 1.6666666666666667;" x1="1694.1667" x2="1677.5" y1="1533.7865" y2="1527.1199"/><line style="stroke: #A80036; stroke-width: 1.6666666666666667;" x1="1694.1667" x2="1677.5" y1="1533.7865" y2="1540.4532"/><line style="stroke: #A80036; stroke-width: 1.6666666666666667;" x1="1324.1667" x2="1695.8333" y1="1533.7865" y2="1533.7865"/><text fill="#000000" font-family="Noto Sans CJK SC" font-size="21.6667" font-weight="bold" lengthAdjust="spacingAndGlyphs" textLength="26.6667" x="1335.8333" y="1525.5865">19</text><text fill="#000000" font-family="Noto Sans CJK SC" font-size="21.6667" lengthAdjust="spacingAndGlyphs" textLength="251.6667" x="1369.1667" y="1525.5865">SELECT SUM(minutes) ...</text><polygon fill="#A80036" points="1342.5,1581.8265,1325.8333,1588.4932,1342.5,1595.1599,1335.8333,1588.4932" style="stroke: #A80036; stroke-width: 1.6666666666666667;"/><line style="stroke: #A80036; stroke-width: 1.6666666666666667; stroke-dasharray: 2.0,2.0;" x1="1332.5" x2="1695.8333" y1="1588.4932" y2="1588.4932"/><text fill="#000000" font-family="Noto Sans CJK SC" font-size="21.6667" font-weight="bold" lengthAdjust="spacingAndGlyphs" textLength="26.6667" x="1352.5" y="1580.2932">20</text><text fill="#000000" font-family="Noto Sans CJK SC" font-size="21.6667" lengthAdjust="spacingAndGlyphs" textLength="43.3333" x="1385.8333" y="1580.2932">sum</text><polygon fill="#A80036" points="558.3333,1636.5332,541.6667,1643.1999,558.3333,1649.8666,551.6667,1643.1999" style="stroke: #A80036; stroke-width: 1.6666666666666667;"/><line style="stroke: #A80036; stroke-width: 1.6666666666666667; stroke-dasharray: 2.0,2.0;" x1="548.3333" x2="1322.5" y1="1643.1999" y2="1643.1999"/><text fill="#000000" font-family="Noto Sans CJK SC" font-size="21.6667" font-weight="bold" lengthAdjust="spacingAndGlyphs" textLength="26.6667" x="568.3333" y="1634.9999">21</text><text fill="#000000" font-family="Noto Sans CJK SC" font-size="21.6667" lengthAdjust="spacingAndGlyphs" textLength="130" x="601.6667" y="1634.9999">totalMinutes</text><line style="stroke: #A80036; stroke-width: 1.6666666666666667;" x1="1096.6667" x2="1080" y1="1709.5733" y2="1702.9066"/><line style="stroke: #A80036; stroke-width: 1.6666666666666667;" x1="1096.6667" x2="1080" y1="1709.5733" y2="1716.2399"/><line style="stroke: #A80036; stroke-width: 1.6666666666666667;" x1="540" x2="1098.3333" y1="1709.5733" y2="1709.5733"/><text fill="#000000" font-family="Noto Sans CJK SC" font-size="21.6667" font-weight="bold" lengthAdjust="spacingAndGlyphs" textLength="26.6667" x="551.6667" y="1701.3733">22</text><text fill="#000000" font-family="Noto Sans CJK SC" font-size="21.6667" lengthAdjust="spacingAndGlyphs" textLength="305" x="585" y="1701.3733">listTagsForWorkTasks(taskIds)</text><line style="stroke: #A80036; stroke-width: 1.6666666666666667;" x1="1694.1667" x2="1677.5" y1="1764.28" y2="1757.6133"/><line style="stroke: #A80036; stroke-width: 1.6666666666666667;" x1="1694.1667" x2="1677.5" y1="1764.28" y2="1770.9466"/><line style="stroke: #A80036; stroke-width: 1.6666666666666667;" x1="1100" x2="1695.8333" y1="1764.28" y2="1764.28"/><text fill="#000000" font-family="Noto Sans CJK SC" font-size="21.6667" font-weight="bold" lengthAdjust="spacingAndGlyphs" textLength="26.6667" x="1111.6667" y="1756.08">23</text><text fill="#000000" font-family="Noto Sans CJK SC" font-size="21.6667" lengthAdjust="spacingAndGlyphs" textLength="216.6667" x="1145" y="1756.08">批量查询任务标签关联</text><polygon fill="#A80036" points="1118.3333,1812.32,1101.6667,1818.9867,1118.3333,1825.6533,1111.6667,1818.9867" style="stroke: #A80036; stroke-width: 1.6666666666666667;"/><line style="stroke: #A80036; stroke-width: 1.6666666666666667; stroke-dasharray: 2.0,2.0;" x1="1108.3333" x2="1695.8333" y1="1818.9867" y2="1818.9867"/><text fill="#000000" font-family="Noto Sans CJK SC" font-size="21.6667" font-weight="bold" lengthAdjust="spacingAndGlyphs" textLength="26.6667" x="1128.3333" y="1810.7867">24</text><text fill="#000000" font-family="Noto Sans CJK SC" font-size="21.6667" lengthAdjust="spacingAndGlyphs" textLength="48.3333" x="1161.6667" y="1810.7867">rows</text><polygon fill="#A80036" points="558.3333,1867.0267,541.6667,1873.6934,558.3333,1880.36,551.6667,1873.6934" style="stroke: #A80036; stroke-width: 1.6666666666666667;"/><line style="stroke: #A80036; stroke-width: 1.6666666666666667; stroke-dasharray: 2.0,2.0;" x1="548.3333" x2="1098.3333" y1="1873.6934" y2="1873.6934"/><text fill="#000000" font-family="Noto Sans CJK SC" font-size="21.6667" font-weight="bold" lengthAdjust="spacingAndGlyphs" textLength="26.6667" x="568.3333" y="1865.4934">25</text><text fill="#000000" font-family="Noto Sans CJK SC" font-size="21.6667" lengthAdjust="spacingAndGlyphs" textLength="133.3333" x="601.6667" y="1865.4934">taskId -&gt; tags</text><line style="stroke: #A80036; stroke-width: 1.6666666666666667;" x1="540" x2="610" y1="1961.1468" y2="1961.1468"/><line style="stroke: #A80036; stroke-width: 1.6666666666666667;" x1="610" x2="610" y1="1961.1468" y2="1982.8134"/><line style="stroke: #A80036; stroke-width: 1.6666666666666667;" x1="541.6667" x2="610" y1="1982.8134" y2="1982.8134"/><line style="stroke: #A80036; stroke-width: 1.6666666666666667;" x1="541.6667" x2="558.3333" y1="1982.8134" y2="1976.1468"/><line style="stroke: #A80036; stroke-width: 1.6666666666666667;" x1="541.6667" x2="558.3333" y1="1982.8134" y2="1989.4801"/><text fill="#000000" font-family="Noto Sans CJK SC" font-size="21.6667" font-weight="bold" lengthAdjust="spacingAndGlyphs" textLength="26.6667" x="551.6667" y="1935.8867">26</text><text fill="#000000" font-family="Noto Sans CJK SC" font-size="21.6667" lengthAdjust="spacingAndGlyphs" textLength="203.3333" x="585" y="1920.2001">_loadingTasks=false</text><text fill="#000000" font-family="Noto Sans CJK SC" font-size="21.6667" lengthAdjust="spacingAndGlyphs" textLength="165" x="585" y="1951.5734">notifyListeners()</text><polygon fill="#A80036" points="293.3333,2061.1468,276.6667,2067.8134,293.3333,2074.4801,286.6667,2067.8134" style="stroke: #A80036; stroke-width: 1.6666666666666667;"/><line style="stroke: #A80036; stroke-width: 1.6666666666666667; stroke-dasharray: 2.0,2.0;" x1="283.3333" x2="538.3333" y1="2067.8134" y2="2067.8134"/><text fill="#000000" font-family="Noto Sans CJK SC" font-size="21.6667" font-weight="bold" lengthAdjust="spacingAndGlyphs" textLength="26.6667" x="303.3333" y="2043.6335">27</text><text fill="#000000" font-family="Noto Sans CJK SC" font-size="21.6667" lengthAdjust="spacingAndGlyphs" textLength="100" x="336.6667" y="2027.9468">UI rebuild</text><text fill="#000000" font-family="Noto Sans CJK SC" font-size="21.6667" lengthAdjust="spacingAndGlyphs" textLength="181.6667" x="336.6667" y="2059.3202">展示列表/加载状态</text><polygon fill="#FBFB77" points="548.3333,2090.5602,548.3333,2200.5602,1025,2200.5602,1025,2107.2268,1008.3333,2090.5602,548.3333,2090.5602" style="stroke: #A80036; stroke-width: 1.6666666666666667;"/><line style="stroke: #A80036; stroke-width: 1.6666666666666667;" x1="1008.3333" x2="1008.3333" y1="2090.5602" y2="2107.2268"/><line style="stroke: #A80036; stroke-width: 1.6666666666666667;" x1="1025" x2="1008.3333" y1="2107.2268" y2="2107.2268"/><text fill="#000000" font-family="Noto Sans CJK SC" font-size="21.6667" lengthAdjust="spacingAndGlyphs" textLength="281.6667" x="558.3333" y="2124.0268">性能瓶颈点（可优化空间）：</text><text fill="#000000" font-family="Noto Sans CJK SC" font-size="21.6667" lengthAdjust="spacingAndGlyphs" textLength="441.6667" x="558.3333" y="2155.4002">- getTotalMinutesForTask 可能形成 N 次查询</text><text fill="#000000" font-family="Noto Sans CJK SC" font-size="21.6667" lengthAdjust="spacingAndGlyphs" textLength="273.3333" x="558.3333" y="2186.7736">- 可考虑批量聚合查询或缓存</text></g></svg>